<?xml version="1.0" encoding="UTF-8" standalone="no"?>
<!DOCTYPE svg PUBLIC "-//W3C//DTD SVG 1.1//EN"
 "http://www.w3.org/Graphics/SVG/1.1/DTD/svg11.dtd">
<!-- Generated by graphviz version 12.2.1 (20241206.2353)
 -->
<!-- Title: ofn Pages: 1 -->
<svg width="622pt" height="1441pt"
 viewBox="0.00 0.00 621.52 1441.38" xmlns="http://www.w3.org/2000/svg" xmlns:xlink="http://www.w3.org/1999/xlink">
<g id="graph0" class="graph" transform="scale(1 1) rotate(0) translate(4 1437.38)">
<title>ofn</title>
<polygon fill="white" stroke="none" points="-4,4 -4,-1437.38 617.52,-1437.38 617.52,4 -4,4"/>
<!-- 9ee4cf13&#45;2c79&#45;431f&#45;b912&#45;6fd4b1abe84b -->
<g id="node1" class="node">
<title>9ee4cf13&#45;2c79&#45;431f&#45;b912&#45;6fd4b1abe84b</title>
<polygon fill="#ffa500" stroke="black" points="352.52,-1402.53 352.52,-1420.6 321.02,-1433.38 276.48,-1433.38 244.98,-1420.6 244.98,-1402.53 276.48,-1389.76 321.02,-1389.76 352.52,-1402.53"/>
<text text-anchor="start" x="273.62" y="-1406.52" font-family="Times New Roman,serif" font-size="14.00">SteelCoil</text>
</g>
<!-- 84137a39&#45;201d&#45;4614&#45;bcb0&#45;f774e4feb65c -->
<g id="node22" class="node">
<title>84137a39&#45;201d&#45;4614&#45;bcb0&#45;f774e4feb65c</title>
<polygon fill="none" stroke="black" points="350,-1353.76 247.5,-1353.76 247.5,-1317.76 350,-1317.76 350,-1353.76"/>
<text text-anchor="start" x="257.5" y="-1330.71" font-family="Times New Roman,serif" font-size="14.00">SplitSteelSheet</text>
</g>
<!-- 9ee4cf13&#45;2c79&#45;431f&#45;b912&#45;6fd4b1abe84b&#45;&gt;84137a39&#45;201d&#45;4614&#45;bcb0&#45;f774e4feb65c -->
<g id="edge1" class="edge">
<title>9ee4cf13&#45;2c79&#45;431f&#45;b912&#45;6fd4b1abe84b&#45;&gt;84137a39&#45;201d&#45;4614&#45;bcb0&#45;f774e4feb65c</title>
<path fill="none" stroke="#ffa500" d="M298.75,-1389.61C298.75,-1382.05 298.75,-1373.39 298.75,-1365.29"/>
<polygon fill="#ffa500" stroke="#ffa500" points="302.25,-1365.54 298.75,-1355.54 295.25,-1365.54 302.25,-1365.54"/>
</g>
<!-- 3f1c6300&#45;da40&#45;4fea&#45;8828&#45;e22a8629a2d8 -->
<g id="node2" class="node">
<title>3f1c6300&#45;da40&#45;4fea&#45;8828&#45;e22a8629a2d8</title>
<polygon fill="#eec900" stroke="black" points="358.83,-1102.91 358.83,-1120.98 323.64,-1133.76 273.86,-1133.76 238.67,-1120.98 238.67,-1102.91 273.86,-1090.13 323.64,-1090.13 358.83,-1102.91"/>
<polygon fill="none" stroke="black" points="362.83,-1100.1 362.83,-1123.78 324.34,-1137.76 273.16,-1137.76 234.67,-1123.78 234.67,-1100.1 273.16,-1086.13 324.34,-1086.13 362.83,-1100.1"/>
<text text-anchor="start" x="269.5" y="-1106.89" font-family="Times New Roman,serif" font-size="14.00">SplitWaste</text>
</g>
<!-- 9891ad35&#45;f6a9&#45;4a6c&#45;88dc&#45;fe1ce22a2d38 -->
<g id="node3" class="node">
<title>9891ad35&#45;f6a9&#45;4a6c&#45;88dc&#45;fe1ce22a2d38</title>
<ellipse fill="#7b68ee" stroke="black" cx="419.75" cy="-1111.94" rx="18" ry="18"/>
</g>
<!-- d4d48f61&#45;37f3&#45;4e47&#45;8a3c&#45;a5dc0613ad42 -->
<g id="node25" class="node">
<title>d4d48f61&#45;37f3&#45;4e47&#45;8a3c&#45;a5dc0613ad42</title>
<polygon fill="none" stroke="black" points="471,-1050.13 368.5,-1050.13 368.5,-1014.13 471,-1014.13 471,-1050.13"/>
<text text-anchor="start" x="378.5" y="-1027.08" font-family="Times New Roman,serif" font-size="14.00">HeatSteelSheet</text>
</g>
<!-- 9891ad35&#45;f6a9&#45;4a6c&#45;88dc&#45;fe1ce22a2d38&#45;&gt;d4d48f61&#45;37f3&#45;4e47&#45;8a3c&#45;a5dc0613ad42 -->
<g id="edge12" class="edge">
<title>9891ad35&#45;f6a9&#45;4a6c&#45;88dc&#45;fe1ce22a2d38&#45;&gt;d4d48f61&#45;37f3&#45;4e47&#45;8a3c&#45;a5dc0613ad42</title>
<path fill="none" stroke="#7b68ee" d="M419.75,-1093.67C419.75,-1084.37 419.75,-1072.64 419.75,-1062"/>
<polygon fill="#7b68ee" stroke="#7b68ee" points="423.25,-1062.13 419.75,-1052.13 416.25,-1062.13 423.25,-1062.13"/>
</g>
<!-- 3247f224&#45;026d&#45;4186&#45;8298&#45;0603d1a3ce0a -->
<g id="node4" class="node">
<title>3247f224&#45;026d&#45;4186&#45;8298&#45;0603d1a3ce0a</title>
<ellipse fill="#7b68ee" stroke="black" cx="419.75" cy="-960.13" rx="18" ry="18"/>
</g>
<!-- c2a74f7d&#45;7334&#45;4ed7&#45;baf7&#45;6c75405ccf4b -->
<g id="node26" class="node">
<title>c2a74f7d&#45;7334&#45;4ed7&#45;baf7&#45;6c75405ccf4b</title>
<polygon fill="none" stroke="black" points="473.25,-906.13 366.25,-906.13 366.25,-870.13 473.25,-870.13 473.25,-906.13"/>
<text text-anchor="start" x="376.25" y="-883.08" font-family="Times New Roman,serif" font-size="14.00">FormSteelSheet</text>
</g>
<!-- 3247f224&#45;026d&#45;4186&#45;8298&#45;0603d1a3ce0a&#45;&gt;c2a74f7d&#45;7334&#45;4ed7&#45;baf7&#45;6c75405ccf4b -->
<g id="edge14" class="edge">
<title>3247f224&#45;026d&#45;4186&#45;8298&#45;0603d1a3ce0a&#45;&gt;c2a74f7d&#45;7334&#45;4ed7&#45;baf7&#45;6c75405ccf4b</title>
<path fill="none" stroke="#7b68ee" d="M419.75,-941.83C419.75,-934.54 419.75,-925.86 419.75,-917.67"/>
<polygon fill="#7b68ee" stroke="#7b68ee" points="423.25,-917.75 419.75,-907.75 416.25,-917.75 423.25,-917.75"/>
</g>
<!-- 3922e8b4&#45;6486&#45;4bc9&#45;a202&#45;24a7b272f240 -->
<g id="node5" class="node">
<title>3922e8b4&#45;6486&#45;4bc9&#45;a202&#45;24a7b272f240</title>
<ellipse fill="#00bfff" stroke="black" cx="367.75" cy="-664.32" rx="18" ry="18"/>
</g>
<!-- fb0799ae&#45;8695&#45;429d&#45;b306&#45;c34f59819c04 -->
<g id="node29" class="node">
<title>fb0799ae&#45;8695&#45;429d&#45;b306&#45;c34f59819c04</title>
<polygon fill="none" stroke="black" points="354.62,-602.5 252.87,-602.5 252.87,-566.5 354.62,-566.5 354.62,-602.5"/>
<text text-anchor="start" x="262.87" y="-579.45" font-family="Times New Roman,serif" font-size="14.00">CutFemalePart</text>
</g>
<!-- 3922e8b4&#45;6486&#45;4bc9&#45;a202&#45;24a7b272f240&#45;&gt;fb0799ae&#45;8695&#45;429d&#45;b306&#45;c34f59819c04 -->
<g id="edge20" class="edge">
<title>3922e8b4&#45;6486&#45;4bc9&#45;a202&#45;24a7b272f240&#45;&gt;fb0799ae&#45;8695&#45;429d&#45;b306&#45;c34f59819c04</title>
<path fill="none" stroke="#00bfff" d="M356.6,-649.76C348.01,-639.32 335.88,-624.56 325.4,-611.83"/>
<polygon fill="#00bfff" stroke="#00bfff" points="328.15,-609.67 319.1,-604.17 322.75,-614.11 328.15,-609.67"/>
</g>
<!-- 088a1a6f&#45;c11c&#45;422e&#45;8c96&#45;41ea2ad6c2ea -->
<g id="node30" class="node">
<title>088a1a6f&#45;c11c&#45;422e&#45;8c96&#45;41ea2ad6c2ea</title>
<polygon fill="none" stroke="black" points="477.62,-602.5 387.87,-602.5 387.87,-566.5 477.62,-566.5 477.62,-602.5"/>
<text text-anchor="start" x="397.87" y="-579.45" font-family="Times New Roman,serif" font-size="14.00">CutMalePart</text>
</g>
<!-- 3922e8b4&#45;6486&#45;4bc9&#45;a202&#45;24a7b272f240&#45;&gt;088a1a6f&#45;c11c&#45;422e&#45;8c96&#45;41ea2ad6c2ea -->
<g id="edge23" class="edge">
<title>3922e8b4&#45;6486&#45;4bc9&#45;a202&#45;24a7b272f240&#45;&gt;088a1a6f&#45;c11c&#45;422e&#45;8c96&#45;41ea2ad6c2ea</title>
<path fill="none" stroke="#00bfff" d="M379.07,-649.76C387.79,-639.32 400.12,-624.56 410.76,-611.83"/>
<polygon fill="#00bfff" stroke="#00bfff" points="413.44,-614.08 417.17,-604.16 408.07,-609.59 413.44,-614.08"/>
</g>
<!-- f665e582&#45;6e27&#45;41a6&#45;bf5c&#45;51e53de65456 -->
<g id="node6" class="node">
<title>f665e582&#45;6e27&#45;41a6&#45;bf5c&#45;51e53de65456</title>
<ellipse fill="#00bfff" stroke="black" cx="419.75" cy="-816.13" rx="18" ry="18"/>
</g>
<!-- 5638319d&#45;5a0f&#45;4e17&#45;af01&#45;86a2c7aeae3d -->
<g id="node27" class="node">
<title>5638319d&#45;5a0f&#45;4e17&#45;af01&#45;86a2c7aeae3d</title>
<polygon fill="none" stroke="black" points="411.37,-762.13 344.12,-762.13 344.12,-726.13 411.37,-726.13 411.37,-762.13"/>
<text text-anchor="start" x="354.12" y="-739.08" font-family="Times New Roman,serif" font-size="14.00">CoatPart</text>
</g>
<!-- f665e582&#45;6e27&#45;41a6&#45;bf5c&#45;51e53de65456&#45;&gt;5638319d&#45;5a0f&#45;4e17&#45;af01&#45;86a2c7aeae3d -->
<g id="edge16" class="edge">
<title>f665e582&#45;6e27&#45;41a6&#45;bf5c&#45;51e53de65456&#45;&gt;5638319d&#45;5a0f&#45;4e17&#45;af01&#45;86a2c7aeae3d</title>
<path fill="none" stroke="#00bfff" d="M410.84,-800.28C405.96,-792.15 399.76,-781.81 394.05,-772.29"/>
<polygon fill="#00bfff" stroke="#00bfff" points="397.05,-770.49 388.9,-763.72 391.05,-774.1 397.05,-770.49"/>
</g>
<!-- 645f84c8&#45;79cf&#45;4eb5&#45;aca9&#45;321357121ffc -->
<g id="node28" class="node">
<title>645f84c8&#45;79cf&#45;4eb5&#45;aca9&#45;321357121ffc</title>
<polygon fill="none" stroke="black" points="501.37,-762.13 434.12,-762.13 434.12,-726.13 501.37,-726.13 501.37,-762.13"/>
<text text-anchor="start" x="444.12" y="-739.08" font-family="Times New Roman,serif" font-size="14.00">CoatPart</text>
</g>
<!-- f665e582&#45;6e27&#45;41a6&#45;bf5c&#45;51e53de65456&#45;&gt;645f84c8&#45;79cf&#45;4eb5&#45;aca9&#45;321357121ffc -->
<g id="edge18" class="edge">
<title>f665e582&#45;6e27&#45;41a6&#45;bf5c&#45;51e53de65456&#45;&gt;645f84c8&#45;79cf&#45;4eb5&#45;aca9&#45;321357121ffc</title>
<path fill="none" stroke="#00bfff" d="M429.69,-800.63C435.38,-792.34 442.69,-781.68 449.38,-771.92"/>
<polygon fill="#00bfff" stroke="#00bfff" points="452.15,-774.06 454.92,-763.84 446.38,-770.1 452.15,-774.06"/>
</g>
<!-- 644b3e41&#45;778a&#45;474a&#45;9542&#45;2065361a0be0 -->
<g id="node7" class="node">
<title>644b3e41&#45;778a&#45;474a&#45;9542&#45;2065361a0be0</title>
<polygon fill="#00bfff" stroke="black" points="537.42,-655.28 537.42,-673.35 499.54,-686.13 445.96,-686.13 408.08,-673.35 408.08,-655.28 445.96,-642.5 499.54,-642.5 537.42,-655.28"/>
<polygon fill="none" stroke="black" points="541.42,-652.41 541.42,-676.22 500.19,-690.13 445.3,-690.13 404.08,-676.22 404.08,-652.41 445.3,-638.5 500.19,-638.5 541.42,-652.41"/>
<text text-anchor="start" x="440.5" y="-659.27" font-family="Times New Roman,serif" font-size="14.00">FormedPart</text>
</g>
<!-- 8dde505d&#45;c4ff&#45;43a2&#45;a2f2&#45;83f0ae25f005 -->
<g id="node8" class="node">
<title>8dde505d&#45;c4ff&#45;43a2&#45;a2f2&#45;83f0ae25f005</title>
<polygon fill="#ff0000" stroke="black" points="264.24,-495.66 264.24,-513.73 231.73,-526.5 185.76,-526.5 153.26,-513.73 153.26,-495.66 185.76,-482.88 231.73,-482.88 264.24,-495.66"/>
<polygon fill="none" stroke="black" points="268.24,-492.93 268.24,-516.45 232.49,-530.5 185.01,-530.5 149.26,-516.45 149.26,-492.93 185.01,-478.88 232.49,-478.88 268.24,-492.93"/>
<text text-anchor="start" x="182.5" y="-499.64" font-family="Times New Roman,serif" font-size="14.00">CutWaste</text>
</g>
<!-- 5e02da75&#45;2e54&#45;4498&#45;bb13&#45;7e29c22b5f15 -->
<g id="node9" class="node">
<title>5e02da75&#45;2e54&#45;4498&#45;bb13&#45;7e29c22b5f15</title>
<polygon fill="#ff0000" stroke="black" points="583.24,-495.66 583.24,-513.73 550.73,-526.5 504.76,-526.5 472.26,-513.73 472.26,-495.66 504.76,-482.88 550.73,-482.88 583.24,-495.66"/>
<polygon fill="none" stroke="black" points="587.24,-492.93 587.24,-516.45 551.49,-530.5 504.01,-530.5 468.26,-516.45 468.26,-492.93 504.01,-478.88 551.49,-478.88 587.24,-492.93"/>
<text text-anchor="start" x="501.5" y="-499.64" font-family="Times New Roman,serif" font-size="14.00">CutWaste</text>
</g>
<!-- 85eec372&#45;510d&#45;44a4&#45;bf17&#45;238ffdee5060 -->
<g id="node10" class="node">
<title>85eec372&#45;510d&#45;44a4&#45;bf17&#45;238ffdee5060</title>
<ellipse fill="#32cd32" stroke="black" cx="303.75" cy="-504.69" rx="18" ry="18"/>
</g>
<!-- a01d1b34&#45;9423&#45;475a&#45;9e92&#45;8a5d067e6736 -->
<g id="node31" class="node">
<title>a01d1b34&#45;9423&#45;475a&#45;9e92&#45;8a5d067e6736</title>
<polygon fill="none" stroke="black" points="362.12,-442.88 245.37,-442.88 245.37,-406.88 362.12,-406.88 362.12,-442.88"/>
<text text-anchor="start" x="255.37" y="-419.83" font-family="Times New Roman,serif" font-size="14.00">CheckFemalePart</text>
</g>
<!-- 85eec372&#45;510d&#45;44a4&#45;bf17&#45;238ffdee5060&#45;&gt;a01d1b34&#45;9423&#45;475a&#45;9e92&#45;8a5d067e6736 -->
<g id="edge26" class="edge">
<title>85eec372&#45;510d&#45;44a4&#45;bf17&#45;238ffdee5060&#45;&gt;a01d1b34&#45;9423&#45;475a&#45;9e92&#45;8a5d067e6736</title>
<path fill="none" stroke="#32cd32" d="M303.75,-486.42C303.75,-477.12 303.75,-465.39 303.75,-454.75"/>
<polygon fill="#32cd32" stroke="#32cd32" points="307.25,-454.88 303.75,-444.88 300.25,-454.88 307.25,-454.88"/>
</g>
<!-- fe6f0726&#45;9898&#45;4465&#45;b003&#45;1d69e5da3c97 -->
<g id="node32" class="node">
<title>fe6f0726&#45;9898&#45;4465&#45;b003&#45;1d69e5da3c97</title>
<polygon fill="none" stroke="black" points="227.12,-442.88 110.37,-442.88 110.37,-406.88 227.12,-406.88 227.12,-442.88"/>
<text text-anchor="start" x="120.37" y="-419.83" font-family="Times New Roman,serif" font-size="14.00">CheckFemalePart</text>
</g>
<!-- 85eec372&#45;510d&#45;44a4&#45;bf17&#45;238ffdee5060&#45;&gt;fe6f0726&#45;9898&#45;4465&#45;b003&#45;1d69e5da3c97 -->
<g id="edge28" class="edge">
<title>85eec372&#45;510d&#45;44a4&#45;bf17&#45;238ffdee5060&#45;&gt;fe6f0726&#45;9898&#45;4465&#45;b003&#45;1d69e5da3c97</title>
<path fill="none" stroke="#32cd32" d="M291.48,-491.03C287.06,-486.86 281.9,-482.4 276.75,-478.88 259.74,-467.25 239.81,-456.71 221.72,-448.15"/>
<polygon fill="#32cd32" stroke="#32cd32" points="223.25,-445 212.7,-443.99 220.31,-451.36 223.25,-445"/>
</g>
<!-- c17c8e40&#45;ba43&#45;4de2&#45;ab69&#45;6f30d61a623c -->
<g id="node11" class="node">
<title>c17c8e40&#45;ba43&#45;4de2&#45;ab69&#45;6f30d61a623c</title>
<polygon fill="#32cd32" stroke="black" points="247.7,-336.03 247.7,-354.1 210.82,-366.88 158.67,-366.88 121.8,-354.1 121.8,-336.03 158.67,-323.25 210.82,-323.25 247.7,-336.03"/>
<polygon fill="none" stroke="black" points="251.7,-333.18 251.7,-356.95 211.5,-370.88 158,-370.88 117.8,-356.95 117.8,-333.18 158,-319.25 211.5,-319.25 251.7,-333.18"/>
<text text-anchor="start" x="153.62" y="-340.01" font-family="Times New Roman,serif" font-size="14.00">FemalePart</text>
</g>
<!-- 87762840&#45;78e2&#45;44b9&#45;b3ad&#45;52058181fb1f -->
<g id="node12" class="node">
<title>87762840&#45;78e2&#45;44b9&#45;b3ad&#45;52058181fb1f</title>
<ellipse fill="#ff1493" stroke="black" cx="432.75" cy="-504.69" rx="18" ry="18"/>
</g>
<!-- 3c631775&#45;d046&#45;4f21&#45;a496&#45;8e76c1fb558b -->
<g id="node33" class="node">
<title>3c631775&#45;d046&#45;4f21&#45;a496&#45;8e76c1fb558b</title>
<polygon fill="none" stroke="black" points="485.12,-442.88 380.37,-442.88 380.37,-406.88 485.12,-406.88 485.12,-442.88"/>
<text text-anchor="start" x="390.37" y="-419.83" font-family="Times New Roman,serif" font-size="14.00">CheckMalePart</text>
</g>
<!-- 87762840&#45;78e2&#45;44b9&#45;b3ad&#45;52058181fb1f&#45;&gt;3c631775&#45;d046&#45;4f21&#45;a496&#45;8e76c1fb558b -->
<g id="edge30" class="edge">
<title>87762840&#45;78e2&#45;44b9&#45;b3ad&#45;52058181fb1f&#45;&gt;3c631775&#45;d046&#45;4f21&#45;a496&#45;8e76c1fb558b</title>
<path fill="none" stroke="#ff1493" d="M432.75,-486.42C432.75,-477.12 432.75,-465.39 432.75,-454.75"/>
<polygon fill="#ff1493" stroke="#ff1493" points="436.25,-454.88 432.75,-444.88 429.25,-454.88 436.25,-454.88"/>
</g>
<!-- 42915adc&#45;3fa5&#45;45ca&#45;a221&#45;fb13abde3ab5 -->
<g id="node34" class="node">
<title>42915adc&#45;3fa5&#45;45ca&#45;a221&#45;fb13abde3ab5</title>
<polygon fill="none" stroke="black" points="608.12,-442.88 503.37,-442.88 503.37,-406.88 608.12,-406.88 608.12,-442.88"/>
<text text-anchor="start" x="513.37" y="-419.83" font-family="Times New Roman,serif" font-size="14.00">CheckMalePart</text>
</g>
<!-- 87762840&#45;78e2&#45;44b9&#45;b3ad&#45;52058181fb1f&#45;&gt;42915adc&#45;3fa5&#45;45ca&#45;a221&#45;fb13abde3ab5 -->
<g id="edge32" class="edge">
<title>87762840&#45;78e2&#45;44b9&#45;b3ad&#45;52058181fb1f&#45;&gt;42915adc&#45;3fa5&#45;45ca&#45;a221&#45;fb13abde3ab5</title>
<path fill="none" stroke="#ff1493" d="M445.12,-491.17C449.54,-487.01 454.68,-482.52 459.75,-478.88 475.23,-467.73 493.3,-457.19 509.56,-448.49"/>
<polygon fill="#ff1493" stroke="#ff1493" points="510.85,-451.77 518.07,-444.03 507.59,-445.57 510.85,-451.77"/>
</g>
<!-- 51462e2e&#45;f143&#45;4302&#45;a2ea&#45;bb83414f0eae -->
<g id="node13" class="node">
<title>51462e2e&#45;f143&#45;4302&#45;a2ea&#45;bb83414f0eae</title>
<polygon fill="#ff1493" stroke="black" points="609.52,-336.03 609.52,-354.1 578.02,-366.88 533.48,-366.88 501.98,-354.1 501.98,-336.03 533.48,-323.25 578.02,-323.25 609.52,-336.03"/>
<polygon fill="none" stroke="black" points="613.52,-333.34 613.52,-356.79 578.8,-370.88 532.7,-370.88 497.98,-356.79 497.98,-333.34 532.7,-319.25 578.8,-319.25 613.52,-333.34"/>
<text text-anchor="start" x="530.62" y="-340.01" font-family="Times New Roman,serif" font-size="14.00">MalePart</text>
</g>
<!-- 8fc824f8&#45;ee6d&#45;4d7e&#45;85b6&#45;5289b3b27527 -->
<g id="node14" class="node">
<title>8fc824f8&#45;ee6d&#45;4d7e&#45;85b6&#45;5289b3b27527</title>
<polygon fill="#132845" stroke="black" points="99.5,-336.03 99.5,-354.1 70.36,-366.88 29.14,-366.88 0,-354.1 0,-336.03 29.14,-323.25 70.36,-323.25 99.5,-336.03"/>
<text text-anchor="start" x="27.25" y="-340.01" font-family="Times New Roman,serif" font-size="14.00" fill="white">SteelPin</text>
</g>
<!-- 03b178c4&#45;4cb1&#45;4fba&#45;be71&#45;d32626534b7b -->
<g id="node35" class="node">
<title>03b178c4&#45;4cb1&#45;4fba&#45;be71&#45;d32626534b7b</title>
<polygon fill="none" stroke="black" points="322.25,-283.25 215.25,-283.25 215.25,-247.25 322.25,-247.25 322.25,-283.25"/>
<text text-anchor="start" x="225.25" y="-260.2" font-family="Times New Roman,serif" font-size="14.00">AssembleHinge</text>
</g>
<!-- 8fc824f8&#45;ee6d&#45;4d7e&#45;85b6&#45;5289b3b27527&#45;&gt;03b178c4&#45;4cb1&#45;4fba&#45;be71&#45;d32626534b7b -->
<g id="edge36" class="edge">
<title>8fc824f8&#45;ee6d&#45;4d7e&#45;85b6&#45;5289b3b27527&#45;&gt;03b178c4&#45;4cb1&#45;4fba&#45;be71&#45;d32626534b7b</title>
<path fill="none" stroke="#132845" d="M84.51,-328.91C92.43,-325.61 100.84,-322.22 108.75,-319.25 139.84,-307.58 174.82,-295.84 204.12,-286.39"/>
<polygon fill="#132845" stroke="#132845" points="205.16,-289.73 213.61,-283.34 203.02,-283.07 205.16,-289.73"/>
</g>
<!-- 41bad552&#45;0798&#45;46c8&#45;9a3d&#45;92d6dc4ae308 -->
<g id="node15" class="node">
<title>41bad552&#45;0798&#45;46c8&#45;9a3d&#45;92d6dc4ae308</title>
<ellipse fill="#32cd32" stroke="black" cx="303.75" cy="-345.06" rx="18" ry="18"/>
</g>
<!-- 41bad552&#45;0798&#45;46c8&#45;9a3d&#45;92d6dc4ae308&#45;&gt;03b178c4&#45;4cb1&#45;4fba&#45;be71&#45;d32626534b7b -->
<g id="edge34" class="edge">
<title>41bad552&#45;0798&#45;46c8&#45;9a3d&#45;92d6dc4ae308&#45;&gt;03b178c4&#45;4cb1&#45;4fba&#45;be71&#45;d32626534b7b</title>
<path fill="none" stroke="#32cd32" d="M296.67,-328.32C292.25,-318.49 286.43,-305.57 281.25,-294.05"/>
<polygon fill="#32cd32" stroke="#32cd32" points="284.47,-292.66 277.17,-284.98 278.08,-295.54 284.47,-292.66"/>
</g>
<!-- 5a535a9f&#45;ade3&#45;424b&#45;b1b1&#45;f989b1862f40 -->
<g id="node36" class="node">
<title>5a535a9f&#45;ade3&#45;424b&#45;b1b1&#45;f989b1862f40</title>
<polygon fill="none" stroke="black" points="447.25,-283.25 340.25,-283.25 340.25,-247.25 447.25,-247.25 447.25,-283.25"/>
<text text-anchor="start" x="350.25" y="-260.2" font-family="Times New Roman,serif" font-size="14.00">AssembleHinge</text>
</g>
<!-- 41bad552&#45;0798&#45;46c8&#45;9a3d&#45;92d6dc4ae308&#45;&gt;5a535a9f&#45;ade3&#45;424b&#45;b1b1&#45;f989b1862f40 -->
<g id="edge38" class="edge">
<title>41bad552&#45;0798&#45;46c8&#45;9a3d&#45;92d6dc4ae308&#45;&gt;5a535a9f&#45;ade3&#45;424b&#45;b1b1&#45;f989b1862f40</title>
<path fill="none" stroke="#32cd32" d="M317.03,-332.58C329.65,-321.67 349.05,-304.89 365.19,-290.95"/>
<polygon fill="#32cd32" stroke="#32cd32" points="367.33,-293.72 372.61,-284.53 362.75,-288.42 367.33,-293.72"/>
</g>
<!-- 1d1828c8&#45;9581&#45;42a4&#45;983c&#45;69bdaec493b4 -->
<g id="node16" class="node">
<title>1d1828c8&#45;9581&#45;42a4&#45;983c&#45;69bdaec493b4</title>
<ellipse fill="#ff1493" stroke="black" cx="393.75" cy="-345.06" rx="18" ry="18"/>
</g>
<!-- 1d1828c8&#45;9581&#45;42a4&#45;983c&#45;69bdaec493b4&#45;&gt;03b178c4&#45;4cb1&#45;4fba&#45;be71&#45;d32626534b7b -->
<g id="edge35" class="edge">
<title>1d1828c8&#45;9581&#45;42a4&#45;983c&#45;69bdaec493b4&#45;&gt;03b178c4&#45;4cb1&#45;4fba&#45;be71&#45;d32626534b7b</title>
<path fill="none" stroke="#ff1493" d="M378.92,-334.83C361.19,-323.79 330.84,-304.91 306.49,-289.75"/>
<polygon fill="#ff1493" stroke="#ff1493" points="308.44,-286.83 298.1,-284.52 304.74,-292.78 308.44,-286.83"/>
</g>
<!-- 1d1828c8&#45;9581&#45;42a4&#45;983c&#45;69bdaec493b4&#45;&gt;5a535a9f&#45;ade3&#45;424b&#45;b1b1&#45;f989b1862f40 -->
<g id="edge39" class="edge">
<title>1d1828c8&#45;9581&#45;42a4&#45;983c&#45;69bdaec493b4&#45;&gt;5a535a9f&#45;ade3&#45;424b&#45;b1b1&#45;f989b1862f40</title>
<path fill="none" stroke="#ff1493" d="M393.75,-326.8C393.75,-317.49 393.75,-305.77 393.75,-295.12"/>
<polygon fill="#ff1493" stroke="#ff1493" points="397.25,-295.26 393.75,-285.26 390.25,-295.26 397.25,-295.26"/>
</g>
<!-- 894ba4c2&#45;6b77&#45;4e04&#45;9342&#45;ed450720ff01 -->
<g id="node17" class="node">
<title>894ba4c2&#45;6b77&#45;4e04&#45;9342&#45;ed450720ff01</title>
<polygon fill="#605d6e" stroke="black" points="532.31,-176.4 532.31,-194.47 508.55,-207.25 474.95,-207.25 451.18,-194.47 451.18,-176.4 474.95,-163.63 508.55,-163.63 532.31,-176.4"/>
<polygon fill="none" stroke="black" points="536.31,-174.01 536.31,-196.86 509.56,-211.25 473.94,-211.25 447.18,-196.86 447.18,-174.01 473.94,-159.63 509.56,-159.63 536.31,-174.01"/>
<text text-anchor="start" x="475.25" y="-180.39" font-family="Times New Roman,serif" font-size="14.00" fill="white">Hinge</text>
</g>
<!-- 167f1bb2&#45;abd5&#45;4374&#45;b5f4&#45;f10f4ebbd497 -->
<g id="node18" class="node">
<title>167f1bb2&#45;abd5&#45;4374&#45;b5f4&#45;f10f4ebbd497</title>
<polygon fill="#132845" stroke="black" points="425.5,-176.4 425.5,-194.47 396.36,-207.25 355.14,-207.25 326,-194.47 326,-176.4 355.14,-163.63 396.36,-163.63 425.5,-176.4"/>
<polygon fill="none" stroke="black" points="429.5,-173.79 429.5,-197.09 397.19,-211.25 354.3,-211.25 322,-197.09 322,-173.79 354.3,-159.63 397.19,-159.63 429.5,-173.79"/>
<text text-anchor="start" x="353.25" y="-180.39" font-family="Times New Roman,serif" font-size="14.00" fill="white">SteelPin</text>
</g>
<!-- 54e72a99&#45;bc7c&#45;46ee&#45;899a&#45;a1f8313b9b93 -->
<g id="node19" class="node">
<title>54e72a99&#45;bc7c&#45;46ee&#45;899a&#45;a1f8313b9b93</title>
<ellipse fill="#605d6e" stroke="black" cx="268.75" cy="-185.44" rx="18" ry="18"/>
</g>
<!-- 49fa6267&#45;6317&#45;42ec&#45;bffa&#45;23ed4eb07dbf -->
<g id="node37" class="node">
<title>49fa6267&#45;6317&#45;42ec&#45;bffa&#45;23ed4eb07dbf</title>
<polygon fill="none" stroke="black" points="311,-123.63 226.5,-123.63 226.5,-87.63 311,-87.63 311,-123.63"/>
<text text-anchor="start" x="236.5" y="-100.58" font-family="Times New Roman,serif" font-size="14.00">PackHinges</text>
</g>
<!-- 54e72a99&#45;bc7c&#45;46ee&#45;899a&#45;a1f8313b9b93&#45;&gt;49fa6267&#45;6317&#45;42ec&#45;bffa&#45;23ed4eb07dbf -->
<g id="edge42" class="edge">
<title>54e72a99&#45;bc7c&#45;46ee&#45;899a&#45;a1f8313b9b93&#45;&gt;49fa6267&#45;6317&#45;42ec&#45;bffa&#45;23ed4eb07dbf</title>
<path fill="none" stroke="#605d6e" stroke-width="4" d="M268.75,-167.17C268.75,-159.17 268.75,-149.37 268.75,-140.01"/>
<polygon fill="#605d6e" stroke="#605d6e" stroke-width="4" points="272.25,-140.17 268.75,-130.17 265.25,-140.17 272.25,-140.17"/>
</g>
<!-- 12fe0fd7&#45;3ec1&#45;4bcb&#45;804a&#45;3edbe9b50de0 -->
<g id="node20" class="node">
<title>12fe0fd7&#45;3ec1&#45;4bcb&#45;804a&#45;3edbe9b50de0</title>
<polygon fill="#9ed020" stroke="black" points="329.4,-16.78 329.4,-34.85 293.87,-47.63 243.62,-47.63 208.09,-34.85 208.09,-16.78 243.62,-4 293.87,-4 329.4,-16.78"/>
<polygon fill="none" stroke="black" points="333.4,-13.97 333.4,-37.66 294.57,-51.63 242.93,-51.63 204.09,-37.66 204.09,-13.97 242.93,0 294.57,0 333.4,-13.97"/>
<text text-anchor="start" x="239.12" y="-20.76" font-family="Times New Roman,serif" font-size="14.00">HingePack</text>
</g>
<!-- 1a1065b9&#45;6afb&#45;4ab3&#45;ac8e&#45;7e57df0cbae5 -->
<g id="node21" class="node">
<title>1a1065b9&#45;6afb&#45;4ab3&#45;ac8e&#45;7e57df0cbae5</title>
<ellipse fill="#ffa500" stroke="black" cx="298.75" cy="-1263.76" rx="18" ry="18"/>
</g>
<!-- 0cfe6ef3&#45;5831&#45;4e1b&#45;a844&#45;1ea08fb0fbb4 -->
<g id="node23" class="node">
<title>0cfe6ef3&#45;5831&#45;4e1b&#45;a844&#45;1ea08fb0fbb4</title>
<polygon fill="none" stroke="black" points="350,-1209.76 247.5,-1209.76 247.5,-1173.76 350,-1173.76 350,-1209.76"/>
<text text-anchor="start" x="257.5" y="-1186.71" font-family="Times New Roman,serif" font-size="14.00">SplitSteelSheet</text>
</g>
<!-- 1a1065b9&#45;6afb&#45;4ab3&#45;ac8e&#45;7e57df0cbae5&#45;&gt;0cfe6ef3&#45;5831&#45;4e1b&#45;a844&#45;1ea08fb0fbb4 -->
<g id="edge5" class="edge">
<title>1a1065b9&#45;6afb&#45;4ab3&#45;ac8e&#45;7e57df0cbae5&#45;&gt;0cfe6ef3&#45;5831&#45;4e1b&#45;a844&#45;1ea08fb0fbb4</title>
<path fill="none" stroke="#ffa500" d="M292.95,-1246.52C292.1,-1238.97 291.82,-1229.76 292.11,-1221.11"/>
<polygon fill="#ffa500" stroke="#ffa500" points="295.58,-1221.6 292.75,-1211.39 288.6,-1221.14 295.58,-1221.6"/>
</g>
<!-- 601c6555&#45;c1e6&#45;48c7&#45;9d85&#45;af4fb8e58982 -->
<g id="node24" class="node">
<title>601c6555&#45;c1e6&#45;48c7&#45;9d85&#45;af4fb8e58982</title>
<polygon fill="none" stroke="black" points="471,-1209.76 368.5,-1209.76 368.5,-1173.76 471,-1173.76 471,-1209.76"/>
<text text-anchor="start" x="378.5" y="-1186.71" font-family="Times New Roman,serif" font-size="14.00">SplitSteelSheet</text>
</g>
<!-- 1a1065b9&#45;6afb&#45;4ab3&#45;ac8e&#45;7e57df0cbae5&#45;&gt;601c6555&#45;c1e6&#45;48c7&#45;9d85&#45;af4fb8e58982 -->
<g id="edge9" class="edge">
<title>1a1065b9&#45;6afb&#45;4ab3&#45;ac8e&#45;7e57df0cbae5&#45;&gt;601c6555&#45;c1e6&#45;48c7&#45;9d85&#45;af4fb8e58982</title>
<path fill="none" stroke="#ffa500" d="M314.07,-1253.89C330.58,-1244.34 357.51,-1228.76 380.06,-1215.72"/>
<polygon fill="#ffa500" stroke="#ffa500" points="381.52,-1218.92 388.42,-1210.88 378.01,-1212.86 381.52,-1218.92"/>
</g>
<!-- 84137a39&#45;201d&#45;4614&#45;bcb0&#45;f774e4feb65c&#45;&gt;3f1c6300&#45;da40&#45;4fea&#45;8828&#45;e22a8629a2d8 -->
<g id="edge4" class="edge">
<title>84137a39&#45;201d&#45;4614&#45;bcb0&#45;f774e4feb65c&#45;&gt;3f1c6300&#45;da40&#45;4fea&#45;8828&#45;e22a8629a2d8</title>
<path fill="none" stroke="#eec900" d="M283.79,-1317.69C259.8,-1288.15 217.46,-1225.64 238.75,-1173.76 243.27,-1162.73 250.86,-1152.64 259.15,-1143.98"/>
<polygon fill="#eec900" stroke="#eec900" points="261.41,-1146.66 266.15,-1137.18 256.54,-1141.64 261.41,-1146.66"/>
</g>
<!-- 84137a39&#45;201d&#45;4614&#45;bcb0&#45;f774e4feb65c&#45;&gt;9891ad35&#45;f6a9&#45;4a6c&#45;88dc&#45;fe1ce22a2d38 -->
<g id="edge3" class="edge">
<title>84137a39&#45;201d&#45;4614&#45;bcb0&#45;f774e4feb65c&#45;&gt;9891ad35&#45;f6a9&#45;4a6c&#45;88dc&#45;fe1ce22a2d38</title>
<path fill="none" stroke="#7b68ee" d="M345.69,-1317.32C389.34,-1298.28 451.71,-1263.19 479.75,-1209.76 487.18,-1195.59 485.82,-1188.56 479.75,-1173.76 472.38,-1155.81 456.88,-1140.32 443.48,-1129.47"/>
<polygon fill="#7b68ee" stroke="#7b68ee" points="445.93,-1126.94 435.86,-1123.64 441.68,-1132.5 445.93,-1126.94"/>
</g>
<!-- 84137a39&#45;201d&#45;4614&#45;bcb0&#45;f774e4feb65c&#45;&gt;1a1065b9&#45;6afb&#45;4ab3&#45;ac8e&#45;7e57df0cbae5 -->
<g id="edge2" class="edge">
<title>84137a39&#45;201d&#45;4614&#45;bcb0&#45;f774e4feb65c&#45;&gt;1a1065b9&#45;6afb&#45;4ab3&#45;ac8e&#45;7e57df0cbae5</title>
<path fill="none" stroke="#ffa500" d="M298.75,-1317.45C298.75,-1310.16 298.75,-1301.48 298.75,-1293.29"/>
<polygon fill="#ffa500" stroke="#ffa500" points="302.25,-1293.37 298.75,-1283.37 295.25,-1293.37 302.25,-1293.37"/>
</g>
<!-- 0cfe6ef3&#45;5831&#45;4e1b&#45;a844&#45;1ea08fb0fbb4&#45;&gt;3f1c6300&#45;da40&#45;4fea&#45;8828&#45;e22a8629a2d8 -->
<g id="edge8" class="edge">
<title>0cfe6ef3&#45;5831&#45;4e1b&#45;a844&#45;1ea08fb0fbb4&#45;&gt;3f1c6300&#45;da40&#45;4fea&#45;8828&#45;e22a8629a2d8</title>
<path fill="none" stroke="#eec900" d="M298.75,-1173.49C298.75,-1166.43 298.75,-1157.97 298.75,-1149.65"/>
<polygon fill="#eec900" stroke="#eec900" points="302.25,-1149.65 298.75,-1139.65 295.25,-1149.65 302.25,-1149.65"/>
</g>
<!-- 0cfe6ef3&#45;5831&#45;4e1b&#45;a844&#45;1ea08fb0fbb4&#45;&gt;9891ad35&#45;f6a9&#45;4a6c&#45;88dc&#45;fe1ce22a2d38 -->
<g id="edge7" class="edge">
<title>0cfe6ef3&#45;5831&#45;4e1b&#45;a844&#45;1ea08fb0fbb4&#45;&gt;9891ad35&#45;f6a9&#45;4a6c&#45;88dc&#45;fe1ce22a2d38</title>
<path fill="none" stroke="#7b68ee" d="M325.9,-1173.29C346.67,-1159.94 375.06,-1141.68 395.16,-1128.75"/>
<polygon fill="#7b68ee" stroke="#7b68ee" points="397.04,-1131.71 403.56,-1123.35 393.26,-1125.82 397.04,-1131.71"/>
</g>
<!-- 0cfe6ef3&#45;5831&#45;4e1b&#45;a844&#45;1ea08fb0fbb4&#45;&gt;1a1065b9&#45;6afb&#45;4ab3&#45;ac8e&#45;7e57df0cbae5 -->
<g id="edge6" class="edge">
<title>0cfe6ef3&#45;5831&#45;4e1b&#45;a844&#45;1ea08fb0fbb4&#45;&gt;1a1065b9&#45;6afb&#45;4ab3&#45;ac8e&#45;7e57df0cbae5</title>
<path fill="none" stroke="#ffa500" d="M304.65,-1209.88C305.44,-1217.47 305.68,-1226.59 305.36,-1235.11"/>
<polygon fill="#ffa500" stroke="#ffa500" points="301.88,-1234.79 304.66,-1245.01 308.86,-1235.29 301.88,-1234.79"/>
</g>
<!-- 601c6555&#45;c1e6&#45;48c7&#45;9d85&#45;af4fb8e58982&#45;&gt;3f1c6300&#45;da40&#45;4fea&#45;8828&#45;e22a8629a2d8 -->
<g id="edge11" class="edge">
<title>601c6555&#45;c1e6&#45;48c7&#45;9d85&#45;af4fb8e58982&#45;&gt;3f1c6300&#45;da40&#45;4fea&#45;8828&#45;e22a8629a2d8</title>
<path fill="none" stroke="#eec900" d="M392.59,-1173.29C377.8,-1163.78 359.14,-1151.78 342.36,-1140.99"/>
<polygon fill="#eec900" stroke="#eec900" points="344.32,-1138.09 334.01,-1135.62 340.53,-1143.97 344.32,-1138.09"/>
</g>
<!-- 601c6555&#45;c1e6&#45;48c7&#45;9d85&#45;af4fb8e58982&#45;&gt;9891ad35&#45;f6a9&#45;4a6c&#45;88dc&#45;fe1ce22a2d38 -->
<g id="edge10" class="edge">
<title>601c6555&#45;c1e6&#45;48c7&#45;9d85&#45;af4fb8e58982&#45;&gt;9891ad35&#45;f6a9&#45;4a6c&#45;88dc&#45;fe1ce22a2d38</title>
<path fill="none" stroke="#7b68ee" d="M419.75,-1173.49C419.75,-1164.18 419.75,-1152.46 419.75,-1141.81"/>
<polygon fill="#7b68ee" stroke="#7b68ee" points="423.25,-1141.95 419.75,-1131.95 416.25,-1141.95 423.25,-1141.95"/>
</g>
<!-- d4d48f61&#45;37f3&#45;4e47&#45;8a3c&#45;a5dc0613ad42&#45;&gt;3247f224&#45;026d&#45;4186&#45;8298&#45;0603d1a3ce0a -->
<g id="edge13" class="edge">
<title>d4d48f61&#45;37f3&#45;4e47&#45;8a3c&#45;a5dc0613ad42&#45;&gt;3247f224&#45;026d&#45;4186&#45;8298&#45;0603d1a3ce0a</title>
<path fill="none" stroke="#7b68ee" d="M419.75,-1013.83C419.75,-1006.54 419.75,-997.86 419.75,-989.67"/>
<polygon fill="#7b68ee" stroke="#7b68ee" points="423.25,-989.75 419.75,-979.75 416.25,-989.75 423.25,-989.75"/>
</g>
<!-- c2a74f7d&#45;7334&#45;4ed7&#45;baf7&#45;6c75405ccf4b&#45;&gt;f665e582&#45;6e27&#45;41a6&#45;bf5c&#45;51e53de65456 -->
<g id="edge15" class="edge">
<title>c2a74f7d&#45;7334&#45;4ed7&#45;baf7&#45;6c75405ccf4b&#45;&gt;f665e582&#45;6e27&#45;41a6&#45;bf5c&#45;51e53de65456</title>
<path fill="none" stroke="#00bfff" d="M419.75,-869.83C419.75,-862.54 419.75,-853.86 419.75,-845.67"/>
<polygon fill="#00bfff" stroke="#00bfff" points="423.25,-845.75 419.75,-835.75 416.25,-845.75 423.25,-845.75"/>
</g>
<!-- 5638319d&#45;5a0f&#45;4e17&#45;af01&#45;86a2c7aeae3d&#45;&gt;3922e8b4&#45;6486&#45;4bc9&#45;a202&#45;24a7b272f240 -->
<g id="edge17" class="edge">
<title>5638319d&#45;5a0f&#45;4e17&#45;af01&#45;86a2c7aeae3d&#45;&gt;3922e8b4&#45;6486&#45;4bc9&#45;a202&#45;24a7b272f240</title>
<path fill="none" stroke="#00bfff" d="M375.53,-725.86C374.31,-716.39 372.77,-704.41 371.39,-693.62"/>
<polygon fill="#00bfff" stroke="#00bfff" points="374.9,-693.51 370.15,-684.04 367.96,-694.4 374.9,-693.51"/>
</g>
<!-- 645f84c8&#45;79cf&#45;4eb5&#45;aca9&#45;321357121ffc&#45;&gt;644b3e41&#45;778a&#45;474a&#45;9542&#45;2065361a0be0 -->
<g id="edge19" class="edge">
<title>645f84c8&#45;79cf&#45;4eb5&#45;aca9&#45;321357121ffc&#45;&gt;644b3e41&#45;778a&#45;474a&#45;9542&#45;2065361a0be0</title>
<path fill="none" stroke="#00bfff" d="M468.86,-725.86C469.32,-718.72 469.87,-710.15 470.41,-701.74"/>
<polygon fill="#00bfff" stroke="#00bfff" points="473.88,-702.23 471.03,-692.02 466.9,-701.78 473.88,-702.23"/>
</g>
<!-- fb0799ae&#45;8695&#45;429d&#45;b306&#45;c34f59819c04&#45;&gt;8dde505d&#45;c4ff&#45;43a2&#45;a2f2&#45;83f0ae25f005 -->
<g id="edge22" class="edge">
<title>fb0799ae&#45;8695&#45;429d&#45;b306&#45;c34f59819c04&#45;&gt;8dde505d&#45;c4ff&#45;43a2&#45;a2f2&#45;83f0ae25f005</title>
<path fill="none" stroke="#ff0000" d="M282.67,-566.23C271.93,-557.44 258.56,-546.49 246.15,-536.33"/>
<polygon fill="#ff0000" stroke="#ff0000" points="248.47,-533.7 238.51,-530.07 244.03,-539.11 248.47,-533.7"/>
</g>
<!-- fb0799ae&#45;8695&#45;429d&#45;b306&#45;c34f59819c04&#45;&gt;85eec372&#45;510d&#45;44a4&#45;bf17&#45;238ffdee5060 -->
<g id="edge21" class="edge">
<title>fb0799ae&#45;8695&#45;429d&#45;b306&#45;c34f59819c04&#45;&gt;85eec372&#45;510d&#45;44a4&#45;bf17&#45;238ffdee5060</title>
<path fill="none" stroke="#32cd32" d="M303.75,-566.23C303.75,-556.93 303.75,-545.21 303.75,-534.56"/>
<polygon fill="#32cd32" stroke="#32cd32" points="307.25,-534.69 303.75,-524.69 300.25,-534.69 307.25,-534.69"/>
</g>
<!-- 088a1a6f&#45;c11c&#45;422e&#45;8c96&#45;41ea2ad6c2ea&#45;&gt;5e02da75&#45;2e54&#45;4498&#45;bb13&#45;7e29c22b5f15 -->
<g id="edge25" class="edge">
<title>088a1a6f&#45;c11c&#45;422e&#45;8c96&#45;41ea2ad6c2ea&#45;&gt;5e02da75&#45;2e54&#45;4498&#45;bb13&#45;7e29c22b5f15</title>
<path fill="none" stroke="#ff0000" d="M453.83,-566.23C464.57,-557.44 477.94,-546.49 490.34,-536.33"/>
<polygon fill="#ff0000" stroke="#ff0000" points="492.47,-539.11 497.99,-530.07 488.03,-533.7 492.47,-539.11"/>
</g>
<!-- 088a1a6f&#45;c11c&#45;422e&#45;8c96&#45;41ea2ad6c2ea&#45;&gt;87762840&#45;78e2&#45;44b9&#45;b3ad&#45;52058181fb1f -->
<g id="edge24" class="edge">
<title>088a1a6f&#45;c11c&#45;422e&#45;8c96&#45;41ea2ad6c2ea&#45;&gt;87762840&#45;78e2&#45;44b9&#45;b3ad&#45;52058181fb1f</title>
<path fill="none" stroke="#ff1493" d="M432.75,-566.23C432.75,-556.93 432.75,-545.21 432.75,-534.56"/>
<polygon fill="#ff1493" stroke="#ff1493" points="436.25,-534.69 432.75,-524.69 429.25,-534.69 436.25,-534.69"/>
</g>
<!-- a01d1b34&#45;9423&#45;475a&#45;9e92&#45;8a5d067e6736&#45;&gt;41bad552&#45;0798&#45;46c8&#45;9a3d&#45;92d6dc4ae308 -->
<g id="edge27" class="edge">
<title>a01d1b34&#45;9423&#45;475a&#45;9e92&#45;8a5d067e6736&#45;&gt;41bad552&#45;0798&#45;46c8&#45;9a3d&#45;92d6dc4ae308</title>
<path fill="none" stroke="#32cd32" d="M303.75,-406.61C303.75,-397.3 303.75,-385.58 303.75,-374.93"/>
<polygon fill="#32cd32" stroke="#32cd32" points="307.25,-375.07 303.75,-365.07 300.25,-375.07 307.25,-375.07"/>
</g>
<!-- fe6f0726&#45;9898&#45;4465&#45;b003&#45;1d69e5da3c97&#45;&gt;c17c8e40&#45;ba43&#45;4de2&#45;ab69&#45;6f30d61a623c -->
<g id="edge29" class="edge">
<title>fe6f0726&#45;9898&#45;4465&#45;b003&#45;1d69e5da3c97&#45;&gt;c17c8e40&#45;ba43&#45;4de2&#45;ab69&#45;6f30d61a623c</title>
<path fill="none" stroke="#32cd32" d="M172.3,-406.61C173.77,-399.47 175.53,-390.9 177.26,-382.49"/>
<polygon fill="#32cd32" stroke="#32cd32" points="180.68,-383.24 179.26,-372.74 173.82,-381.83 180.68,-383.24"/>
</g>
<!-- 3c631775&#45;d046&#45;4f21&#45;a496&#45;8e76c1fb558b&#45;&gt;1d1828c8&#45;9581&#45;42a4&#45;983c&#45;69bdaec493b4 -->
<g id="edge31" class="edge">
<title>3c631775&#45;d046&#45;4f21&#45;a496&#45;8e76c1fb558b&#45;&gt;1d1828c8&#45;9581&#45;42a4&#45;983c&#45;69bdaec493b4</title>
<path fill="none" stroke="#ff1493" d="M424.09,-406.61C418.99,-396.43 412.44,-383.35 406.73,-371.96"/>
<polygon fill="#ff1493" stroke="#ff1493" points="409.87,-370.43 402.26,-363.05 403.62,-373.56 409.87,-370.43"/>
</g>
<!-- 42915adc&#45;3fa5&#45;45ca&#45;a221&#45;fb13abde3ab5&#45;&gt;51462e2e&#45;f143&#45;4302&#45;a2ea&#45;bb83414f0eae -->
<g id="edge33" class="edge">
<title>42915adc&#45;3fa5&#45;45ca&#45;a221&#45;fb13abde3ab5&#45;&gt;51462e2e&#45;f143&#45;4302&#45;a2ea&#45;bb83414f0eae</title>
<path fill="none" stroke="#ff1493" d="M555.75,-406.61C555.75,-399.55 555.75,-391.09 555.75,-382.77"/>
<polygon fill="#ff1493" stroke="#ff1493" points="559.25,-382.77 555.75,-372.77 552.25,-382.77 559.25,-382.77"/>
</g>
<!-- 03b178c4&#45;4cb1&#45;4fba&#45;be71&#45;d32626534b7b&#45;&gt;54e72a99&#45;bc7c&#45;46ee&#45;899a&#45;a1f8313b9b93 -->
<g id="edge37" class="edge">
<title>03b178c4&#45;4cb1&#45;4fba&#45;be71&#45;d32626534b7b&#45;&gt;54e72a99&#45;bc7c&#45;46ee&#45;899a&#45;a1f8313b9b93</title>
<path fill="none" stroke="#605d6e" d="M268.75,-246.98C268.75,-237.68 268.75,-225.95 268.75,-215.31"/>
<polygon fill="#605d6e" stroke="#605d6e" points="272.25,-215.44 268.75,-205.44 265.25,-215.44 272.25,-215.44"/>
</g>
<!-- 5a535a9f&#45;ade3&#45;424b&#45;b1b1&#45;f989b1862f40&#45;&gt;894ba4c2&#45;6b77&#45;4e04&#45;9342&#45;ed450720ff01 -->
<g id="edge40" class="edge">
<title>5a535a9f&#45;ade3&#45;424b&#45;b1b1&#45;f989b1862f40&#45;&gt;894ba4c2&#45;6b77&#45;4e04&#45;9342&#45;ed450720ff01</title>
<path fill="none" stroke="#605d6e" d="M415.5,-246.98C427.62,-237.36 443,-225.15 456.77,-214.22"/>
<polygon fill="#605d6e" stroke="#605d6e" points="458.69,-217.16 464.35,-208.2 454.34,-211.67 458.69,-217.16"/>
</g>
<!-- 5a535a9f&#45;ade3&#45;424b&#45;b1b1&#45;f989b1862f40&#45;&gt;167f1bb2&#45;abd5&#45;4374&#45;b5f4&#45;f10f4ebbd497 -->
<g id="edge41" class="edge">
<title>5a535a9f&#45;ade3&#45;424b&#45;b1b1&#45;f989b1862f40&#45;&gt;167f1bb2&#45;abd5&#45;4374&#45;b5f4&#45;f10f4ebbd497</title>
<path fill="none" stroke="#132845" d="M389.75,-246.98C388.08,-239.76 386.08,-231.08 384.11,-222.57"/>
<polygon fill="#132845" stroke="#132845" points="387.58,-222.06 381.92,-213.11 380.76,-223.64 387.58,-222.06"/>
</g>
<!-- 49fa6267&#45;6317&#45;42ec&#45;bffa&#45;23ed4eb07dbf&#45;&gt;12fe0fd7&#45;3ec1&#45;4bcb&#45;804a&#45;3edbe9b50de0 -->
<g id="edge43" class="edge">
<title>49fa6267&#45;6317&#45;42ec&#45;bffa&#45;23ed4eb07dbf&#45;&gt;12fe0fd7&#45;3ec1&#45;4bcb&#45;804a&#45;3edbe9b50de0</title>
<path fill="none" stroke="#9ed020" d="M268.75,-87.36C268.75,-80.3 268.75,-71.84 268.75,-63.52"/>
<polygon fill="#9ed020" stroke="#9ed020" points="272.25,-63.52 268.75,-53.52 265.25,-63.52 272.25,-63.52"/>
</g>
</g>
</svg>
