<?xml version="1.0" encoding="UTF-8" standalone="no"?>
<!DOCTYPE svg PUBLIC "-//W3C//DTD SVG 1.1//EN"
 "http://www.w3.org/Graphics/SVG/1.1/DTD/svg11.dtd">
<!-- Generated by graphviz version 12.2.1 (20241206.2353)
 -->
<!-- Title: ofn Pages: 1 -->
<svg width="1097pt" height="1667pt"
 viewBox="0.00 0.00 1096.62 1666.85" xmlns="http://www.w3.org/2000/svg" xmlns:xlink="http://www.w3.org/1999/xlink">
<g id="graph0" class="graph" transform="scale(1 1) rotate(0) translate(4 1662.85)">
<title>ofn</title>
<polygon fill="white" stroke="none" points="-4,4 -4,-1662.85 1092.62,-1662.85 1092.62,4 -4,4"/>
<!-- a225eeb7&#45;c4a8&#45;4236&#45;a7fe&#45;233580224a13 -->
<g id="node1" class="node">
<title>a225eeb7&#45;c4a8&#45;4236&#45;a7fe&#45;233580224a13</title>
<polygon fill="#ffa500" stroke="black" points="551.14,-1604.73 551.14,-1636.43 437.27,-1658.85 276.22,-1658.85 162.34,-1636.43 162.34,-1604.73 276.22,-1582.31 437.27,-1582.31 551.14,-1604.73"/>
<text text-anchor="start" x="331.62" y="-1626.28" font-family="Times New Roman,serif" font-size="14.00">SteelCoil</text>
<polygon fill="black" stroke="none" points="237.74,-1620.08 237.74,-1621.08 475.74,-1621.08 475.74,-1620.08 237.74,-1620.08"/>
<text text-anchor="start" x="239.74" y="-1605.78" font-family="Times New Roman,serif" font-size="14.00">Mass: avg </text>
<text text-anchor="start" x="299.74" y="-1605.78" font-family="monospace" font-size="13.00">31.91076</text>
<text text-anchor="start" x="359.74" y="-1605.78" font-family="Times New Roman,serif" font-size="14.00"> &#160;/ total </text>
<text text-anchor="start" x="402.49" y="-1605.78" font-family="monospace" font-size="13.00">127.64304</text>
<text text-anchor="start" x="469.99" y="-1605.78" font-family="Times New Roman,serif" font-size="14.00"> </text>
</g>
<!-- a6a3d5ad&#45;97d6&#45;4ddf&#45;9578&#45;633a182ae0f4 -->
<g id="node22" class="node">
<title>a6a3d5ad&#45;97d6&#45;4ddf&#45;9578&#45;633a182ae0f4</title>
<polygon fill="none" stroke="black" points="450.37,-1546.31 263.12,-1546.31 263.12,-1496.31 450.37,-1496.31 450.37,-1546.31"/>
<text text-anchor="start" x="315.49" y="-1527.01" font-family="Times New Roman,serif" font-size="14.00">SplitSteelSheet</text>
<polygon fill="black" stroke="none" points="271.12,-1520.81 271.12,-1521.81 442.37,-1521.81 442.37,-1520.81 271.12,-1520.81"/>
<text text-anchor="start" x="273.12" y="-1506.51" font-family="Times New Roman,serif" font-size="14.00">Implicit mass: avg </text>
<text text-anchor="start" x="378.87" y="-1506.51" font-family="monospace" font-size="13.00">0</text>
<text text-anchor="start" x="386.37" y="-1506.51" font-family="Times New Roman,serif" font-size="14.00"> &#160;/ total </text>
<text text-anchor="start" x="429.12" y="-1506.51" font-family="monospace" font-size="13.00">0</text>
<text text-anchor="start" x="436.62" y="-1506.51" font-family="Times New Roman,serif" font-size="14.00"> </text>
</g>
<!-- a225eeb7&#45;c4a8&#45;4236&#45;a7fe&#45;233580224a13&#45;&gt;a6a3d5ad&#45;97d6&#45;4ddf&#45;9578&#45;633a182ae0f4 -->
<g id="edge1" class="edge">
<title>a225eeb7&#45;c4a8&#45;4236&#45;a7fe&#45;233580224a13&#45;&gt;a6a3d5ad&#45;97d6&#45;4ddf&#45;9578&#45;633a182ae0f4</title>
<path fill="none" stroke="#ffa500" d="M356.74,-1581.97C356.74,-1574.09 356.74,-1565.8 356.74,-1557.99"/>
<polygon fill="#ffa500" stroke="#ffa500" points="360.24,-1558.14 356.74,-1548.14 353.24,-1558.14 360.24,-1558.14"/>
</g>
<!-- adbdc1f2&#45;bd1a&#45;4454&#45;a51d&#45;88c028a47ab1 -->
<g id="node2" class="node">
<title>adbdc1f2&#45;bd1a&#45;4454&#45;a51d&#45;88c028a47ab1</title>
<polygon fill="#eec900" stroke="black" points="556.88,-1244.19 556.88,-1275.89 439.64,-1298.31 273.84,-1298.31 156.6,-1275.89 156.6,-1244.19 273.84,-1221.77 439.64,-1221.77 556.88,-1244.19"/>
<polygon fill="none" stroke="black" points="560.88,-1240.88 560.88,-1279.2 440.02,-1302.31 273.46,-1302.31 152.6,-1279.2 152.6,-1240.88 273.46,-1217.77 440.02,-1217.77 560.88,-1240.88"/>
<text text-anchor="start" x="327.49" y="-1265.74" font-family="Times New Roman,serif" font-size="14.00">SplitWaste</text>
<polygon fill="black" stroke="none" points="233.99,-1259.54 233.99,-1260.54 479.49,-1260.54 479.49,-1259.54 233.99,-1259.54"/>
<text text-anchor="start" x="235.99" y="-1245.24" font-family="Times New Roman,serif" font-size="14.00">Mass: avg </text>
<text text-anchor="start" x="295.99" y="-1245.24" font-family="monospace" font-size="13.00">0.0004214</text>
<text text-anchor="start" x="363.49" y="-1245.24" font-family="Times New Roman,serif" font-size="14.00"> &#160;/ total </text>
<text text-anchor="start" x="406.24" y="-1245.24" font-family="monospace" font-size="13.00">0.0016854</text>
<text text-anchor="start" x="473.74" y="-1245.24" font-family="Times New Roman,serif" font-size="14.00"> </text>
</g>
<!-- 50a89567&#45;cd2a&#45;4390&#45;a8f0&#45;fead71dff0c2 -->
<g id="node3" class="node">
<title>50a89567&#45;cd2a&#45;4390&#45;a8f0&#45;fead71dff0c2</title>
<ellipse fill="#7b68ee" stroke="black" cx="625.74" cy="-1260.04" rx="18" ry="18"/>
</g>
<!-- 36927a4f&#45;d960&#45;4d58&#45;8ede&#45;94849c5e9a77 -->
<g id="node25" class="node">
<title>36927a4f&#45;d960&#45;4d58&#45;8ede&#45;94849c5e9a77</title>
<polygon fill="none" stroke="black" points="676.99,-1181.77 574.49,-1181.77 574.49,-1145.77 676.99,-1145.77 676.99,-1181.77"/>
<text text-anchor="start" x="584.49" y="-1158.72" font-family="Times New Roman,serif" font-size="14.00">HeatSteelSheet</text>
</g>
<!-- 50a89567&#45;cd2a&#45;4390&#45;a8f0&#45;fead71dff0c2&#45;&gt;36927a4f&#45;d960&#45;4d58&#45;8ede&#45;94849c5e9a77 -->
<g id="edge12" class="edge">
<title>50a89567&#45;cd2a&#45;4390&#45;a8f0&#45;fead71dff0c2&#45;&gt;36927a4f&#45;d960&#45;4d58&#45;8ede&#45;94849c5e9a77</title>
<path fill="none" stroke="#7b68ee" d="M625.74,-1241.75C625.74,-1228.28 625.74,-1209.29 625.74,-1193.54"/>
<polygon fill="#7b68ee" stroke="#7b68ee" points="629.24,-1193.79 625.74,-1183.79 622.24,-1193.79 629.24,-1193.79"/>
</g>
<!-- d6728ead&#45;319a&#45;433f&#45;9000&#45;858da0fee632 -->
<g id="node4" class="node">
<title>d6728ead&#45;319a&#45;433f&#45;9000&#45;858da0fee632</title>
<ellipse fill="#7b68ee" stroke="black" cx="625.74" cy="-1091.77" rx="18" ry="18"/>
</g>
<!-- e7698954&#45;fb6e&#45;4d63&#45;9704&#45;4903414560aa -->
<g id="node26" class="node">
<title>e7698954&#45;fb6e&#45;4d63&#45;9704&#45;4903414560aa</title>
<polygon fill="none" stroke="black" points="679.24,-1037.77 572.24,-1037.77 572.24,-1001.77 679.24,-1001.77 679.24,-1037.77"/>
<text text-anchor="start" x="582.24" y="-1014.72" font-family="Times New Roman,serif" font-size="14.00">FormSteelSheet</text>
</g>
<!-- d6728ead&#45;319a&#45;433f&#45;9000&#45;858da0fee632&#45;&gt;e7698954&#45;fb6e&#45;4d63&#45;9704&#45;4903414560aa -->
<g id="edge14" class="edge">
<title>d6728ead&#45;319a&#45;433f&#45;9000&#45;858da0fee632&#45;&gt;e7698954&#45;fb6e&#45;4d63&#45;9704&#45;4903414560aa</title>
<path fill="none" stroke="#7b68ee" d="M625.74,-1073.47C625.74,-1066.18 625.74,-1057.5 625.74,-1049.31"/>
<polygon fill="#7b68ee" stroke="#7b68ee" points="629.24,-1049.39 625.74,-1039.39 622.24,-1049.39 629.24,-1049.39"/>
</g>
<!-- 8520d969&#45;3bbc&#45;49d6&#45;8ddf&#45;8d167d3cafed -->
<g id="node5" class="node">
<title>8520d969&#45;3bbc&#45;49d6&#45;8ddf&#45;8d167d3cafed</title>
<ellipse fill="#00bfff" stroke="black" cx="567.74" cy="-779.5" rx="18" ry="18"/>
</g>
<!-- 7b78122b&#45;3f27&#45;409c&#45;88bf&#45;7bfd1f613f2b -->
<g id="node29" class="node">
<title>7b78122b&#45;3f27&#45;409c&#45;88bf&#45;7bfd1f613f2b</title>
<polygon fill="none" stroke="black" points="554.62,-701.24 452.87,-701.24 452.87,-665.24 554.62,-665.24 554.62,-701.24"/>
<text text-anchor="start" x="462.87" y="-678.19" font-family="Times New Roman,serif" font-size="14.00">CutFemalePart</text>
</g>
<!-- 8520d969&#45;3bbc&#45;49d6&#45;8ddf&#45;8d167d3cafed&#45;&gt;7b78122b&#45;3f27&#45;409c&#45;88bf&#45;7bfd1f613f2b -->
<g id="edge20" class="edge">
<title>8520d969&#45;3bbc&#45;49d6&#45;8ddf&#45;8d167d3cafed&#45;&gt;7b78122b&#45;3f27&#45;409c&#45;88bf&#45;7bfd1f613f2b</title>
<path fill="none" stroke="#00bfff" d="M558.02,-764.19C548.4,-750.02 533.45,-728 521.68,-710.65"/>
<polygon fill="#00bfff" stroke="#00bfff" points="524.88,-709.14 516.36,-702.83 519.08,-713.07 524.88,-709.14"/>
</g>
<!-- 589c046a&#45;ca2e&#45;4c57&#45;960c&#45;e4649dba1f57 -->
<g id="node30" class="node">
<title>589c046a&#45;ca2e&#45;4c57&#45;960c&#45;e4649dba1f57</title>
<polygon fill="none" stroke="black" points="677.62,-701.24 587.87,-701.24 587.87,-665.24 677.62,-665.24 677.62,-701.24"/>
<text text-anchor="start" x="597.87" y="-678.19" font-family="Times New Roman,serif" font-size="14.00">CutMalePart</text>
</g>
<!-- 8520d969&#45;3bbc&#45;49d6&#45;8ddf&#45;8d167d3cafed&#45;&gt;589c046a&#45;ca2e&#45;4c57&#45;960c&#45;e4649dba1f57 -->
<g id="edge23" class="edge">
<title>8520d969&#45;3bbc&#45;49d6&#45;8ddf&#45;8d167d3cafed&#45;&gt;589c046a&#45;ca2e&#45;4c57&#45;960c&#45;e4649dba1f57</title>
<path fill="none" stroke="#00bfff" d="M577.09,-763.89C582.22,-755.95 588.74,-745.99 594.74,-737.24 600.79,-728.41 607.54,-718.89 613.66,-710.38"/>
<polygon fill="#00bfff" stroke="#00bfff" points="616.32,-712.67 619.35,-702.52 610.65,-708.57 616.32,-712.67"/>
</g>
<!-- 75b3bace&#45;47ee&#45;4a30&#45;bedc&#45;06de3eaefa12 -->
<g id="node6" class="node">
<title>75b3bace&#45;47ee&#45;4a30&#45;bedc&#45;06de3eaefa12</title>
<ellipse fill="#00bfff" stroke="black" cx="625.74" cy="-947.77" rx="18" ry="18"/>
</g>
<!-- 682914c4&#45;b73b&#45;43c8&#45;94eb&#45;541b7a8c0848 -->
<g id="node27" class="node">
<title>682914c4&#45;b73b&#45;43c8&#45;94eb&#45;541b7a8c0848</title>
<polygon fill="none" stroke="black" points="617.37,-893.77 550.12,-893.77 550.12,-857.77 617.37,-857.77 617.37,-893.77"/>
<text text-anchor="start" x="560.12" y="-870.72" font-family="Times New Roman,serif" font-size="14.00">CoatPart</text>
</g>
<!-- 75b3bace&#45;47ee&#45;4a30&#45;bedc&#45;06de3eaefa12&#45;&gt;682914c4&#45;b73b&#45;43c8&#45;94eb&#45;541b7a8c0848 -->
<g id="edge16" class="edge">
<title>75b3bace&#45;47ee&#45;4a30&#45;bedc&#45;06de3eaefa12&#45;&gt;682914c4&#45;b73b&#45;43c8&#45;94eb&#45;541b7a8c0848</title>
<path fill="none" stroke="#00bfff" d="M616.83,-931.93C611.95,-923.79 605.75,-913.46 600.04,-903.93"/>
<polygon fill="#00bfff" stroke="#00bfff" points="603.04,-902.14 594.89,-895.36 597.04,-905.74 603.04,-902.14"/>
</g>
<!-- b307120f&#45;9d5e&#45;4047&#45;85e8&#45;469cea099d25 -->
<g id="node28" class="node">
<title>b307120f&#45;9d5e&#45;4047&#45;85e8&#45;469cea099d25</title>
<polygon fill="none" stroke="black" points="710.37,-893.77 643.12,-893.77 643.12,-857.77 710.37,-857.77 710.37,-893.77"/>
<text text-anchor="start" x="653.12" y="-870.72" font-family="Times New Roman,serif" font-size="14.00">CoatPart</text>
</g>
<!-- 75b3bace&#45;47ee&#45;4a30&#45;bedc&#45;06de3eaefa12&#45;&gt;b307120f&#45;9d5e&#45;4047&#45;85e8&#45;469cea099d25 -->
<g id="edge18" class="edge">
<title>75b3bace&#45;47ee&#45;4a30&#45;bedc&#45;06de3eaefa12&#45;&gt;b307120f&#45;9d5e&#45;4047&#45;85e8&#45;469cea099d25</title>
<path fill="none" stroke="#00bfff" d="M636.06,-932.61C642.19,-924.19 650.17,-913.25 657.43,-903.28"/>
<polygon fill="#00bfff" stroke="#00bfff" points="660.14,-905.51 663.2,-895.36 654.48,-901.39 660.14,-905.51"/>
</g>
<!-- 206f865c&#45;4b82&#45;4217&#45;85a5&#45;6e91f429f13e -->
<g id="node7" class="node">
<title>206f865c&#45;4b82&#45;4217&#45;85a5&#45;6e91f429f13e</title>
<polygon fill="#00bfff" stroke="black" points="763.62,-763.65 763.62,-795.36 718,-817.77 653.48,-817.77 607.86,-795.36 607.86,-763.65 653.48,-741.24 718,-741.24 763.62,-763.65"/>
<polygon fill="none" stroke="black" points="767.62,-761.16 767.62,-797.85 718.93,-821.77 652.55,-821.77 603.86,-797.85 603.86,-761.16 652.55,-737.24 718.93,-737.24 767.62,-761.16"/>
<text text-anchor="start" x="653.49" y="-785.2" font-family="Times New Roman,serif" font-size="14.00">FormedPart</text>
<polygon fill="black" stroke="none" points="642.87,-779 642.87,-780 728.62,-780 728.62,-779 642.87,-779"/>
<text text-anchor="start" x="644.87" y="-763.7" font-family="Times New Roman,serif" font-size="14.00">Count: total 82</text>
</g>
<!-- 2c86b0e4&#45;8a23&#45;40db&#45;bc2f&#45;7441fc011dc7 -->
<g id="node8" class="node">
<title>2c86b0e4&#45;8a23&#45;40db&#45;bc2f&#45;7441fc011dc7</title>
<polygon fill="#ff0000" stroke="black" points="463.92,-571.12 463.92,-602.82 360.13,-625.24 213.35,-625.24 109.56,-602.82 109.56,-571.12 213.35,-548.7 360.13,-548.7 463.92,-571.12"/>
<polygon fill="none" stroke="black" points="467.92,-567.89 467.92,-606.05 360.56,-629.24 212.92,-629.24 105.56,-606.05 105.56,-567.89 212.92,-544.7 360.56,-544.7 467.92,-567.89"/>
<text text-anchor="start" x="260.49" y="-592.67" font-family="Times New Roman,serif" font-size="14.00">CutWaste</text>
<polygon fill="black" stroke="none" points="178.99,-586.47 178.99,-587.47 394.49,-587.47 394.49,-586.47 178.99,-586.47"/>
<text text-anchor="start" x="180.99" y="-572.17" font-family="Times New Roman,serif" font-size="14.00">Mass: avg </text>
<text text-anchor="start" x="240.99" y="-572.17" font-family="monospace" font-size="13.00">0.00254</text>
<text text-anchor="start" x="293.49" y="-572.17" font-family="Times New Roman,serif" font-size="14.00"> &#160;/ total </text>
<text text-anchor="start" x="336.24" y="-572.17" font-family="monospace" font-size="13.00">7.40434</text>
<text text-anchor="start" x="388.74" y="-572.17" font-family="Times New Roman,serif" font-size="14.00"> </text>
</g>
<!-- 679e214d&#45;a3a9&#45;4b50&#45;be44&#45;ea9a748caae2 -->
<g id="node9" class="node">
<title>679e214d&#45;a3a9&#45;4b50&#45;be44&#45;ea9a748caae2</title>
<polygon fill="#ff0000" stroke="black" points="1084.62,-571.12 1084.62,-602.82 964.02,-625.24 793.46,-625.24 672.86,-602.82 672.86,-571.12 793.46,-548.7 964.02,-548.7 1084.62,-571.12"/>
<polygon fill="none" stroke="black" points="1088.62,-567.79 1088.62,-606.14 964.39,-629.24 793.09,-629.24 668.86,-606.14 668.86,-567.79 793.09,-544.7 964.39,-544.7 1088.62,-567.79"/>
<text text-anchor="start" x="852.49" y="-592.67" font-family="Times New Roman,serif" font-size="14.00">CutWaste</text>
<polygon fill="black" stroke="none" points="752.24,-586.47 752.24,-587.47 1005.24,-587.47 1005.24,-586.47 752.24,-586.47"/>
<text text-anchor="start" x="754.24" y="-572.17" font-family="Times New Roman,serif" font-size="14.00">Mass: avg </text>
<text text-anchor="start" x="814.24" y="-572.17" font-family="monospace" font-size="13.00">0.0050802</text>
<text text-anchor="start" x="881.74" y="-572.17" font-family="Times New Roman,serif" font-size="14.00"> &#160;/ total </text>
<text text-anchor="start" x="924.49" y="-572.17" font-family="monospace" font-size="13.00">14.8035912</text>
<text text-anchor="start" x="999.49" y="-572.17" font-family="Times New Roman,serif" font-size="14.00"> </text>
</g>
<!-- 45811757&#45;db9d&#45;4997&#45;ab14&#45;199866b5bd51 -->
<g id="node10" class="node">
<title>45811757&#45;db9d&#45;4997&#45;ab14&#45;199866b5bd51</title>
<ellipse fill="#32cd32" stroke="black" cx="503.74" cy="-586.97" rx="18" ry="18"/>
</g>
<!-- bacc3555&#45;39be&#45;4b8c&#45;80bc&#45;a5d89a52a97e -->
<g id="node31" class="node">
<title>bacc3555&#45;39be&#45;4b8c&#45;80bc&#45;a5d89a52a97e</title>
<polygon fill="none" stroke="black" points="562.12,-508.7 445.37,-508.7 445.37,-472.7 562.12,-472.7 562.12,-508.7"/>
<text text-anchor="start" x="455.37" y="-485.65" font-family="Times New Roman,serif" font-size="14.00">CheckFemalePart</text>
</g>
<!-- 45811757&#45;db9d&#45;4997&#45;ab14&#45;199866b5bd51&#45;&gt;bacc3555&#45;39be&#45;4b8c&#45;80bc&#45;a5d89a52a97e -->
<g id="edge26" class="edge">
<title>45811757&#45;db9d&#45;4997&#45;ab14&#45;199866b5bd51&#45;&gt;bacc3555&#45;39be&#45;4b8c&#45;80bc&#45;a5d89a52a97e</title>
<path fill="none" stroke="#32cd32" d="M503.74,-568.68C503.74,-555.21 503.74,-536.21 503.74,-520.47"/>
<polygon fill="#32cd32" stroke="#32cd32" points="507.24,-520.71 503.74,-510.71 500.24,-520.71 507.24,-520.71"/>
</g>
<!-- 142761a7&#45;70f8&#45;495d&#45;b43f&#45;08569ef8ec64 -->
<g id="node32" class="node">
<title>142761a7&#45;70f8&#45;495d&#45;b43f&#45;08569ef8ec64</title>
<polygon fill="none" stroke="black" points="427.12,-508.7 310.37,-508.7 310.37,-472.7 427.12,-472.7 427.12,-508.7"/>
<text text-anchor="start" x="320.37" y="-485.65" font-family="Times New Roman,serif" font-size="14.00">CheckFemalePart</text>
</g>
<!-- 45811757&#45;db9d&#45;4997&#45;ab14&#45;199866b5bd51&#45;&gt;142761a7&#45;70f8&#45;495d&#45;b43f&#45;08569ef8ec64 -->
<g id="edge28" class="edge">
<title>45811757&#45;db9d&#45;4997&#45;ab14&#45;199866b5bd51&#45;&gt;142761a7&#45;70f8&#45;495d&#45;b43f&#45;08569ef8ec64</title>
<path fill="none" stroke="#32cd32" d="M496.18,-570.38C491.49,-561.95 484.82,-551.84 476.74,-544.7 462.61,-532.21 445.02,-521.94 428.17,-513.88"/>
<polygon fill="#32cd32" stroke="#32cd32" points="429.73,-510.75 419.18,-509.77 426.82,-517.11 429.73,-510.75"/>
</g>
<!-- 19ca91af&#45;8195&#45;4f82&#45;a2a8&#45;9b4fc218de8d -->
<g id="node11" class="node">
<title>19ca91af&#45;8195&#45;4f82&#45;a2a8&#45;9b4fc218de8d</title>
<polygon fill="#32cd32" stroke="black" points="452.45,-378.58 452.45,-410.28 409.86,-432.7 349.62,-432.7 307.03,-410.28 307.03,-378.58 349.62,-356.16 409.86,-356.16 452.45,-378.58"/>
<polygon fill="none" stroke="black" points="456.45,-376.16 456.45,-412.7 410.85,-436.7 348.64,-436.7 303.03,-412.7 303.03,-376.16 348.64,-352.16 410.85,-352.16 456.45,-376.16"/>
<text text-anchor="start" x="348.62" y="-400.13" font-family="Times New Roman,serif" font-size="14.00">FemalePart</text>
<polygon fill="black" stroke="none" points="340.24,-393.93 340.24,-394.93 419.24,-394.93 419.24,-393.93 340.24,-393.93"/>
<text text-anchor="start" x="342.24" y="-378.63" font-family="Times New Roman,serif" font-size="14.00">Count: total 8</text>
</g>
<!-- 78a10b0a&#45;172f&#45;4536&#45;91e0&#45;035f0c02dc8e -->
<g id="node12" class="node">
<title>78a10b0a&#45;172f&#45;4536&#45;91e0&#45;035f0c02dc8e</title>
<ellipse fill="#ff1493" stroke="black" cx="632.74" cy="-586.97" rx="18" ry="18"/>
</g>
<!-- 028eef9b&#45;a3e7&#45;4682&#45;a1e2&#45;a4cf266822ed -->
<g id="node33" class="node">
<title>028eef9b&#45;a3e7&#45;4682&#45;a1e2&#45;a4cf266822ed</title>
<polygon fill="none" stroke="black" points="685.12,-508.7 580.37,-508.7 580.37,-472.7 685.12,-472.7 685.12,-508.7"/>
<text text-anchor="start" x="590.37" y="-485.65" font-family="Times New Roman,serif" font-size="14.00">CheckMalePart</text>
</g>
<!-- 78a10b0a&#45;172f&#45;4536&#45;91e0&#45;035f0c02dc8e&#45;&gt;028eef9b&#45;a3e7&#45;4682&#45;a1e2&#45;a4cf266822ed -->
<g id="edge30" class="edge">
<title>78a10b0a&#45;172f&#45;4536&#45;91e0&#45;035f0c02dc8e&#45;&gt;028eef9b&#45;a3e7&#45;4682&#45;a1e2&#45;a4cf266822ed</title>
<path fill="none" stroke="#ff1493" d="M632.74,-568.68C632.74,-555.21 632.74,-536.21 632.74,-520.47"/>
<polygon fill="#ff1493" stroke="#ff1493" points="636.24,-520.71 632.74,-510.71 629.24,-520.71 636.24,-520.71"/>
</g>
<!-- 2d5aaa11&#45;2454&#45;48ea&#45;990f&#45;f1de374ee016 -->
<g id="node34" class="node">
<title>2d5aaa11&#45;2454&#45;48ea&#45;990f&#45;f1de374ee016</title>
<polygon fill="none" stroke="black" points="808.12,-508.7 703.37,-508.7 703.37,-472.7 808.12,-472.7 808.12,-508.7"/>
<text text-anchor="start" x="713.37" y="-485.65" font-family="Times New Roman,serif" font-size="14.00">CheckMalePart</text>
</g>
<!-- 78a10b0a&#45;172f&#45;4536&#45;91e0&#45;035f0c02dc8e&#45;&gt;2d5aaa11&#45;2454&#45;48ea&#45;990f&#45;f1de374ee016 -->
<g id="edge32" class="edge">
<title>78a10b0a&#45;172f&#45;4536&#45;91e0&#45;035f0c02dc8e&#45;&gt;2d5aaa11&#45;2454&#45;48ea&#45;990f&#45;f1de374ee016</title>
<path fill="none" stroke="#ff1493" d="M640.44,-570.53C645.17,-562.15 651.83,-552.04 659.74,-544.7 672.68,-532.7 688.83,-522.44 704.18,-514.23"/>
<polygon fill="#ff1493" stroke="#ff1493" points="705.46,-517.51 712.76,-509.83 702.26,-511.28 705.46,-517.51"/>
</g>
<!-- 2191c705&#45;0eb1&#45;4f6e&#45;911d&#45;d247dae4db31 -->
<g id="node13" class="node">
<title>2191c705&#45;0eb1&#45;4f6e&#45;911d&#45;d247dae4db31</title>
<polygon fill="#ff1493" stroke="black" points="828.45,-378.58 828.45,-410.28 785.86,-432.7 725.62,-432.7 683.03,-410.28 683.03,-378.58 725.62,-356.16 785.86,-356.16 828.45,-378.58"/>
<polygon fill="none" stroke="black" points="832.45,-376.16 832.45,-412.7 786.85,-436.7 724.64,-436.7 679.03,-412.7 679.03,-376.16 724.64,-352.16 786.85,-352.16 832.45,-376.16"/>
<text text-anchor="start" x="730.62" y="-400.13" font-family="Times New Roman,serif" font-size="14.00">MalePart</text>
<polygon fill="black" stroke="none" points="716.24,-393.93 716.24,-394.93 795.24,-394.93 795.24,-393.93 716.24,-393.93"/>
<text text-anchor="start" x="718.24" y="-378.63" font-family="Times New Roman,serif" font-size="14.00">Count: total 7</text>
</g>
<!-- 0eca7fd8&#45;4796&#45;48ca&#45;bc97&#45;f30d4602c236 -->
<g id="node14" class="node">
<title>0eca7fd8&#45;4796&#45;48ca&#45;bc97&#45;f30d4602c236</title>
<polygon fill="#132845" stroke="black" points="285.48,-378.58 285.48,-410.28 201.87,-432.7 83.62,-432.7 0,-410.28 0,-378.58 83.62,-356.16 201.87,-356.16 285.48,-378.58"/>
<text text-anchor="start" x="120.24" y="-400.13" font-family="Times New Roman,serif" font-size="14.00" fill="white">SteelPin</text>
<polygon fill="black" stroke="none" points="57.49,-393.93 57.49,-394.93 227.99,-394.93 227.99,-393.93 57.49,-393.93"/>
<text text-anchor="start" x="59.49" y="-379.63" font-family="Times New Roman,serif" font-size="14.00" fill="white">Mass: avg </text>
<text text-anchor="start" x="119.49" y="-379.63" font-family="monospace" font-size="13.00" fill="white">0.001</text>
<text text-anchor="start" x="156.99" y="-379.63" font-family="Times New Roman,serif" font-size="14.00" fill="white"> &#160;/ total </text>
<text text-anchor="start" x="199.74" y="-379.63" font-family="monospace" font-size="13.00" fill="white">2.9</text>
<text text-anchor="start" x="222.24" y="-379.63" font-family="Times New Roman,serif" font-size="14.00" fill="white"> </text>
</g>
<!-- 5cc8ac2d&#45;b40a&#45;4709&#45;b05d&#45;5f0fa60375b9 -->
<g id="node35" class="node">
<title>5cc8ac2d&#45;b40a&#45;4709&#45;b05d&#45;5f0fa60375b9</title>
<polygon fill="none" stroke="black" points="487.24,-316.16 380.24,-316.16 380.24,-280.16 487.24,-280.16 487.24,-316.16"/>
<text text-anchor="start" x="390.24" y="-293.11" font-family="Times New Roman,serif" font-size="14.00">AssembleHinge</text>
</g>
<!-- 0eca7fd8&#45;4796&#45;48ca&#45;bc97&#45;f30d4602c236&#45;&gt;5cc8ac2d&#45;b40a&#45;4709&#45;b05d&#45;5f0fa60375b9 -->
<g id="edge36" class="edge">
<title>0eca7fd8&#45;4796&#45;48ca&#45;bc97&#45;f30d4602c236&#45;&gt;5cc8ac2d&#45;b40a&#45;4709&#45;b05d&#45;5f0fa60375b9</title>
<path fill="none" stroke="#132845" d="M233.22,-364.12C277.14,-349.89 328.91,-333.12 368.84,-320.19"/>
<polygon fill="#132845" stroke="#132845" points="369.9,-323.52 378.33,-317.11 367.74,-316.86 369.9,-323.52"/>
</g>
<!-- bec71385&#45;5ffb&#45;4425&#45;a3d2&#45;ff3d5a89883d -->
<g id="node15" class="node">
<title>bec71385&#45;5ffb&#45;4425&#45;a3d2&#45;ff3d5a89883d</title>
<ellipse fill="#32cd32" stroke="black" cx="503.74" cy="-394.43" rx="18" ry="18"/>
</g>
<!-- bec71385&#45;5ffb&#45;4425&#45;a3d2&#45;ff3d5a89883d&#45;&gt;5cc8ac2d&#45;b40a&#45;4709&#45;b05d&#45;5f0fa60375b9 -->
<g id="edge34" class="edge">
<title>bec71385&#45;5ffb&#45;4425&#45;a3d2&#45;ff3d5a89883d&#45;&gt;5cc8ac2d&#45;b40a&#45;4709&#45;b05d&#45;5f0fa60375b9</title>
<path fill="none" stroke="#32cd32" d="M493.41,-379.52C482.95,-365.43 466.51,-343.29 453.53,-325.81"/>
<polygon fill="#32cd32" stroke="#32cd32" points="456.41,-323.82 447.64,-317.88 450.79,-327.99 456.41,-323.82"/>
</g>
<!-- 92405447&#45;47bd&#45;44c4&#45;b420&#45;55df04519d1f -->
<g id="node36" class="node">
<title>92405447&#45;47bd&#45;44c4&#45;b420&#45;55df04519d1f</title>
<polygon fill="none" stroke="black" points="649.24,-316.16 542.24,-316.16 542.24,-280.16 649.24,-280.16 649.24,-316.16"/>
<text text-anchor="start" x="552.24" y="-293.11" font-family="Times New Roman,serif" font-size="14.00">AssembleHinge</text>
</g>
<!-- bec71385&#45;5ffb&#45;4425&#45;a3d2&#45;ff3d5a89883d&#45;&gt;92405447&#45;47bd&#45;44c4&#45;b420&#45;55df04519d1f -->
<g id="edge38" class="edge">
<title>bec71385&#45;5ffb&#45;4425&#45;a3d2&#45;ff3d5a89883d&#45;&gt;92405447&#45;47bd&#45;44c4&#45;b420&#45;55df04519d1f</title>
<path fill="none" stroke="#32cd32" d="M516.15,-380.72C530.18,-366.34 553.39,-342.55 571.14,-324.37"/>
<polygon fill="#32cd32" stroke="#32cd32" points="573.32,-327.15 577.8,-317.55 568.31,-322.26 573.32,-327.15"/>
</g>
<!-- 9772d0e2&#45;e84a&#45;46a2&#45;af50&#45;8fbc641994f1 -->
<g id="node16" class="node">
<title>9772d0e2&#45;e84a&#45;46a2&#45;af50&#45;8fbc641994f1</title>
<ellipse fill="#ff1493" stroke="black" cx="595.74" cy="-394.43" rx="18" ry="18"/>
</g>
<!-- 9772d0e2&#45;e84a&#45;46a2&#45;af50&#45;8fbc641994f1&#45;&gt;5cc8ac2d&#45;b40a&#45;4709&#45;b05d&#45;5f0fa60375b9 -->
<g id="edge35" class="edge">
<title>9772d0e2&#45;e84a&#45;46a2&#45;af50&#45;8fbc641994f1&#45;&gt;5cc8ac2d&#45;b40a&#45;4709&#45;b05d&#45;5f0fa60375b9</title>
<path fill="none" stroke="#ff1493" d="M580.94,-383.64C567.88,-375.1 548.24,-362.48 530.74,-352.16 513.19,-341.81 493.52,-330.93 476.5,-321.74"/>
<polygon fill="#ff1493" stroke="#ff1493" points="478.62,-318.91 468.15,-317.26 475.3,-325.07 478.62,-318.91"/>
</g>
<!-- 9772d0e2&#45;e84a&#45;46a2&#45;af50&#45;8fbc641994f1&#45;&gt;92405447&#45;47bd&#45;44c4&#45;b420&#45;55df04519d1f -->
<g id="edge39" class="edge">
<title>9772d0e2&#45;e84a&#45;46a2&#45;af50&#45;8fbc641994f1&#45;&gt;92405447&#45;47bd&#45;44c4&#45;b420&#45;55df04519d1f</title>
<path fill="none" stroke="#ff1493" d="M595.74,-376.14C595.74,-362.67 595.74,-343.68 595.74,-327.93"/>
<polygon fill="#ff1493" stroke="#ff1493" points="599.24,-328.18 595.74,-318.18 592.24,-328.18 599.24,-328.18"/>
</g>
<!-- d24e446c&#45;94b9&#45;4f7e&#45;8fdb&#45;b16a3361f570 -->
<g id="node17" class="node">
<title>d24e446c&#45;94b9&#45;4f7e&#45;8fdb&#45;b16a3361f570</title>
<polygon fill="#605d6e" stroke="black" points="857.31,-192.86 857.31,-210.93 833.54,-223.71 799.94,-223.71 776.18,-210.93 776.18,-192.86 799.94,-180.08 833.54,-180.08 857.31,-192.86"/>
<polygon fill="none" stroke="black" points="861.31,-190.47 861.31,-213.32 834.55,-227.71 798.93,-227.71 772.18,-213.32 772.18,-190.47 798.93,-176.08 834.55,-176.08 861.31,-190.47"/>
<text text-anchor="start" x="800.24" y="-196.84" font-family="Times New Roman,serif" font-size="14.00" fill="white">Hinge</text>
</g>
<!-- 1609a922&#45;0f89&#45;40c7&#45;a5e7&#45;d772381f59d0 -->
<g id="node18" class="node">
<title>1609a922&#45;0f89&#45;40c7&#45;a5e7&#45;d772381f59d0</title>
<polygon fill="#132845" stroke="black" points="749.96,-186.04 749.96,-217.75 659.62,-240.16 531.86,-240.16 441.52,-217.75 441.52,-186.04 531.86,-163.63 659.62,-163.63 749.96,-186.04"/>
<polygon fill="none" stroke="black" points="753.96,-182.91 753.96,-220.87 660.11,-244.16 531.37,-244.16 437.52,-220.87 437.52,-182.91 531.37,-159.63 660.11,-159.63 753.96,-182.91"/>
<text text-anchor="start" x="573.24" y="-207.59" font-family="Times New Roman,serif" font-size="14.00" fill="white">SteelPin</text>
<polygon fill="black" stroke="none" points="502.99,-201.39 502.99,-202.39 688.49,-202.39 688.49,-201.39 502.99,-201.39"/>
<text text-anchor="start" x="504.99" y="-187.09" font-family="Times New Roman,serif" font-size="14.00" fill="white">Mass: avg </text>
<text text-anchor="start" x="564.99" y="-187.09" font-family="monospace" font-size="13.00" fill="white">0.001</text>
<text text-anchor="start" x="602.49" y="-187.09" font-family="Times New Roman,serif" font-size="14.00" fill="white"> &#160;/ total </text>
<text text-anchor="start" x="645.24" y="-187.09" font-family="monospace" font-size="13.00" fill="white">0.007</text>
<text text-anchor="start" x="682.74" y="-187.09" font-family="Times New Roman,serif" font-size="14.00" fill="white"> </text>
</g>
<!-- ddbf2a36&#45;95aa&#45;4145&#45;a1e5&#45;1a9aa6bcd245 -->
<g id="node19" class="node">
<title>ddbf2a36&#45;95aa&#45;4145&#45;a1e5&#45;1a9aa6bcd245</title>
<ellipse fill="#605d6e" stroke="black" cx="401.74" cy="-201.89" rx="18" ry="18"/>
</g>
<!-- 44284e5f&#45;ed30&#45;402b&#45;a0bb&#45;829b98a33641 -->
<g id="node37" class="node">
<title>44284e5f&#45;ed30&#45;402b&#45;a0bb&#45;829b98a33641</title>
<polygon fill="none" stroke="black" points="443.99,-123.63 359.49,-123.63 359.49,-87.63 443.99,-87.63 443.99,-123.63"/>
<text text-anchor="start" x="369.49" y="-100.58" font-family="Times New Roman,serif" font-size="14.00">PackHinges</text>
</g>
<!-- ddbf2a36&#45;95aa&#45;4145&#45;a1e5&#45;1a9aa6bcd245&#45;&gt;44284e5f&#45;ed30&#45;402b&#45;a0bb&#45;829b98a33641 -->
<g id="edge42" class="edge">
<title>ddbf2a36&#45;95aa&#45;4145&#45;a1e5&#45;1a9aa6bcd245&#45;&gt;44284e5f&#45;ed30&#45;402b&#45;a0bb&#45;829b98a33641</title>
<path fill="none" stroke="#605d6e" stroke-width="4" d="M401.74,-183.6C401.74,-171.46 401.74,-154.81 401.74,-140.11"/>
<polygon fill="#605d6e" stroke="#605d6e" stroke-width="4" points="405.24,-140.18 401.74,-130.18 398.24,-140.18 405.24,-140.18"/>
</g>
<!-- 2f0becf4&#45;34b3&#45;42bb&#45;82f0&#45;267ecc3ee8c9 -->
<g id="node20" class="node">
<title>2f0becf4&#45;34b3&#45;42bb&#45;82f0&#45;267ecc3ee8c9</title>
<polygon fill="#9ed020" stroke="black" points="462.4,-16.78 462.4,-34.85 426.87,-47.63 376.62,-47.63 341.09,-34.85 341.09,-16.78 376.62,-4 426.87,-4 462.4,-16.78"/>
<polygon fill="none" stroke="black" points="466.4,-13.97 466.4,-37.66 427.56,-51.63 375.92,-51.63 337.09,-37.66 337.09,-13.97 375.92,0 427.56,0 466.4,-13.97"/>
<text text-anchor="start" x="372.12" y="-20.76" font-family="Times New Roman,serif" font-size="14.00">HingePack</text>
</g>
<!-- 910b5818&#45;f8ad&#45;43b3&#45;ac7c&#45;9df5b7da5241 -->
<g id="node21" class="node">
<title>910b5818&#45;f8ad&#45;43b3&#45;ac7c&#45;9df5b7da5241</title>
<ellipse fill="#ffa500" stroke="black" cx="356.74" cy="-1442.31" rx="18" ry="18"/>
</g>
<!-- 87f7e824&#45;eecc&#45;40f0&#45;a8e2&#45;c9982380d336 -->
<g id="node23" class="node">
<title>87f7e824&#45;eecc&#45;40f0&#45;a8e2&#45;c9982380d336</title>
<polygon fill="none" stroke="black" points="450.37,-1388.31 263.12,-1388.31 263.12,-1338.31 450.37,-1338.31 450.37,-1388.31"/>
<text text-anchor="start" x="315.49" y="-1369.01" font-family="Times New Roman,serif" font-size="14.00">SplitSteelSheet</text>
<polygon fill="black" stroke="none" points="271.12,-1362.81 271.12,-1363.81 442.37,-1363.81 442.37,-1362.81 271.12,-1362.81"/>
<text text-anchor="start" x="273.12" y="-1348.51" font-family="Times New Roman,serif" font-size="14.00">Implicit mass: avg </text>
<text text-anchor="start" x="378.87" y="-1348.51" font-family="monospace" font-size="13.00">0</text>
<text text-anchor="start" x="386.37" y="-1348.51" font-family="Times New Roman,serif" font-size="14.00"> &#160;/ total </text>
<text text-anchor="start" x="429.12" y="-1348.51" font-family="monospace" font-size="13.00">0</text>
<text text-anchor="start" x="436.62" y="-1348.51" font-family="Times New Roman,serif" font-size="14.00"> </text>
</g>
<!-- 910b5818&#45;f8ad&#45;43b3&#45;ac7c&#45;9df5b7da5241&#45;&gt;87f7e824&#45;eecc&#45;40f0&#45;a8e2&#45;c9982380d336 -->
<g id="edge5" class="edge">
<title>910b5818&#45;f8ad&#45;43b3&#45;ac7c&#45;9df5b7da5241&#45;&gt;87f7e824&#45;eecc&#45;40f0&#45;a8e2&#45;c9982380d336</title>
<path fill="none" stroke="#ffa500" d="M351.1,-1424.98C350.27,-1417.61 349.9,-1408.6 350.01,-1399.8"/>
<polygon fill="#ffa500" stroke="#ffa500" points="353.5,-1400.15 350.37,-1390.03 346.5,-1399.89 353.5,-1400.15"/>
</g>
<!-- 7c308181&#45;2222&#45;406b&#45;bdd5&#45;686cc2f72ff2 -->
<g id="node24" class="node">
<title>7c308181&#45;2222&#45;406b&#45;bdd5&#45;686cc2f72ff2</title>
<polygon fill="none" stroke="black" points="783.12,-1388.31 468.37,-1388.31 468.37,-1338.31 783.12,-1338.31 783.12,-1388.31"/>
<text text-anchor="start" x="584.49" y="-1369.01" font-family="Times New Roman,serif" font-size="14.00">SplitSteelSheet</text>
<polygon fill="black" stroke="none" points="476.37,-1362.81 476.37,-1363.81 775.12,-1363.81 775.12,-1362.81 476.37,-1362.81"/>
<text text-anchor="start" x="478.37" y="-1348.51" font-family="Times New Roman,serif" font-size="14.00">Implicit mass: avg </text>
<text text-anchor="start" x="584.12" y="-1348.51" font-family="monospace" font-size="13.00">0.00511665</text>
<text text-anchor="start" x="659.12" y="-1348.51" font-family="Times New Roman,serif" font-size="14.00"> &#160;/ total </text>
<text text-anchor="start" x="701.87" y="-1348.51" font-family="monospace" font-size="13.00">0.0204666</text>
<text text-anchor="start" x="769.37" y="-1348.51" font-family="Times New Roman,serif" font-size="14.00"> </text>
</g>
<!-- 910b5818&#45;f8ad&#45;43b3&#45;ac7c&#45;9df5b7da5241&#45;&gt;7c308181&#45;2222&#45;406b&#45;bdd5&#45;686cc2f72ff2 -->
<g id="edge9" class="edge">
<title>910b5818&#45;f8ad&#45;43b3&#45;ac7c&#45;9df5b7da5241&#45;&gt;7c308181&#45;2222&#45;406b&#45;bdd5&#45;686cc2f72ff2</title>
<path fill="none" stroke="#ffa500" d="M373.98,-1436.38C404.97,-1427.5 472.21,-1408.26 529.41,-1391.88"/>
<polygon fill="#ffa500" stroke="#ffa500" points="530.23,-1395.29 538.88,-1389.17 528.3,-1388.56 530.23,-1395.29"/>
</g>
<!-- a6a3d5ad&#45;97d6&#45;4ddf&#45;9578&#45;633a182ae0f4&#45;&gt;adbdc1f2&#45;bd1a&#45;4454&#45;a51d&#45;88c028a47ab1 -->
<g id="edge4" class="edge">
<title>a6a3d5ad&#45;97d6&#45;4ddf&#45;9578&#45;633a182ae0f4&#45;&gt;adbdc1f2&#45;bd1a&#45;4454&#45;a51d&#45;88c028a47ab1</title>
<path fill="none" stroke="#eec900" d="M329.58,-1496.18C304.41,-1471.84 268.68,-1431.74 253.74,-1388.31 246.51,-1367.3 243.8,-1358.19 253.74,-1338.31 258.93,-1327.93 266.25,-1318.58 274.62,-1310.28"/>
<polygon fill="#eec900" stroke="#eec900" points="276.83,-1313 281.82,-1303.66 272.09,-1307.85 276.83,-1313"/>
</g>
<!-- a6a3d5ad&#45;97d6&#45;4ddf&#45;9578&#45;633a182ae0f4&#45;&gt;50a89567&#45;cd2a&#45;4390&#45;a8f0&#45;fead71dff0c2 -->
<g id="edge3" class="edge">
<title>a6a3d5ad&#45;97d6&#45;4ddf&#45;9578&#45;633a182ae0f4&#45;&gt;50a89567&#45;cd2a&#45;4390&#45;a8f0&#45;fead71dff0c2</title>
<path fill="none" stroke="#7b68ee" d="M450.45,-1505.15C565.65,-1484.38 750.96,-1443.3 791.74,-1388.31 804.98,-1370.46 803.69,-1357.05 791.74,-1338.31 761.54,-1290.94 693.93,-1272.15 654.95,-1265.05"/>
<polygon fill="#7b68ee" stroke="#7b68ee" points="655.78,-1261.64 645.34,-1263.46 654.63,-1268.55 655.78,-1261.64"/>
</g>
<!-- a6a3d5ad&#45;97d6&#45;4ddf&#45;9578&#45;633a182ae0f4&#45;&gt;910b5818&#45;f8ad&#45;43b3&#45;ac7c&#45;9df5b7da5241 -->
<g id="edge2" class="edge">
<title>a6a3d5ad&#45;97d6&#45;4ddf&#45;9578&#45;633a182ae0f4&#45;&gt;910b5818&#45;f8ad&#45;43b3&#45;ac7c&#45;9df5b7da5241</title>
<path fill="none" stroke="#ffa500" d="M356.74,-1495.95C356.74,-1488.34 356.74,-1479.88 356.74,-1472"/>
<polygon fill="#ffa500" stroke="#ffa500" points="360.24,-1472.2 356.74,-1462.2 353.24,-1472.2 360.24,-1472.2"/>
</g>
<!-- 87f7e824&#45;eecc&#45;40f0&#45;a8e2&#45;c9982380d336&#45;&gt;adbdc1f2&#45;bd1a&#45;4454&#45;a51d&#45;88c028a47ab1 -->
<g id="edge8" class="edge">
<title>87f7e824&#45;eecc&#45;40f0&#45;a8e2&#45;c9982380d336&#45;&gt;adbdc1f2&#45;bd1a&#45;4454&#45;a51d&#45;88c028a47ab1</title>
<path fill="none" stroke="#eec900" d="M356.74,-1338.05C356.74,-1330.73 356.74,-1322.39 356.74,-1313.96"/>
<polygon fill="#eec900" stroke="#eec900" points="360.24,-1314.02 356.74,-1304.02 353.24,-1314.02 360.24,-1314.02"/>
</g>
<!-- 87f7e824&#45;eecc&#45;40f0&#45;a8e2&#45;c9982380d336&#45;&gt;50a89567&#45;cd2a&#45;4390&#45;a8f0&#45;fead71dff0c2 -->
<g id="edge7" class="edge">
<title>87f7e824&#45;eecc&#45;40f0&#45;a8e2&#45;c9982380d336&#45;&gt;50a89567&#45;cd2a&#45;4390&#45;a8f0&#45;fead71dff0c2</title>
<path fill="none" stroke="#7b68ee" d="M450.6,-1339.4C497.29,-1327.29 548.26,-1312.82 569.74,-1302.31 581.91,-1296.36 594.16,-1287.7 604.09,-1279.85"/>
<polygon fill="#7b68ee" stroke="#7b68ee" points="606.14,-1282.7 611.65,-1273.65 601.7,-1277.28 606.14,-1282.7"/>
</g>
<!-- 87f7e824&#45;eecc&#45;40f0&#45;a8e2&#45;c9982380d336&#45;&gt;910b5818&#45;f8ad&#45;43b3&#45;ac7c&#45;9df5b7da5241 -->
<g id="edge6" class="edge">
<title>87f7e824&#45;eecc&#45;40f0&#45;a8e2&#45;c9982380d336&#45;&gt;910b5818&#45;f8ad&#45;43b3&#45;ac7c&#45;9df5b7da5241</title>
<path fill="none" stroke="#ffa500" d="M363.06,-1388.51C363.56,-1396.49 363.63,-1405.43 363.25,-1413.65"/>
<polygon fill="#ffa500" stroke="#ffa500" points="359.77,-1413.23 362.49,-1423.47 366.75,-1413.77 359.77,-1413.23"/>
</g>
<!-- 7c308181&#45;2222&#45;406b&#45;bdd5&#45;686cc2f72ff2&#45;&gt;adbdc1f2&#45;bd1a&#45;4454&#45;a51d&#45;88c028a47ab1 -->
<g id="edge11" class="edge">
<title>7c308181&#45;2222&#45;406b&#45;bdd5&#45;686cc2f72ff2&#45;&gt;adbdc1f2&#45;bd1a&#45;4454&#45;a51d&#45;88c028a47ab1</title>
<path fill="none" stroke="#eec900" d="M560.97,-1337.92C533.31,-1327.51 500.22,-1315.06 468.81,-1303.23"/>
<polygon fill="#eec900" stroke="#eec900" points="470.24,-1300.03 459.65,-1299.78 467.77,-1306.58 470.24,-1300.03"/>
</g>
<!-- 7c308181&#45;2222&#45;406b&#45;bdd5&#45;686cc2f72ff2&#45;&gt;50a89567&#45;cd2a&#45;4390&#45;a8f0&#45;fead71dff0c2 -->
<g id="edge10" class="edge">
<title>7c308181&#45;2222&#45;406b&#45;bdd5&#45;686cc2f72ff2&#45;&gt;50a89567&#45;cd2a&#45;4390&#45;a8f0&#45;fead71dff0c2</title>
<path fill="none" stroke="#7b68ee" d="M625.74,-1338.05C625.74,-1323.56 625.74,-1305.05 625.74,-1289.82"/>
<polygon fill="#7b68ee" stroke="#7b68ee" points="629.24,-1289.96 625.74,-1279.96 622.24,-1289.96 629.24,-1289.96"/>
</g>
<!-- 36927a4f&#45;d960&#45;4d58&#45;8ede&#45;94849c5e9a77&#45;&gt;d6728ead&#45;319a&#45;433f&#45;9000&#45;858da0fee632 -->
<g id="edge13" class="edge">
<title>36927a4f&#45;d960&#45;4d58&#45;8ede&#45;94849c5e9a77&#45;&gt;d6728ead&#45;319a&#45;433f&#45;9000&#45;858da0fee632</title>
<path fill="none" stroke="#7b68ee" d="M625.74,-1145.47C625.74,-1138.18 625.74,-1129.5 625.74,-1121.31"/>
<polygon fill="#7b68ee" stroke="#7b68ee" points="629.24,-1121.39 625.74,-1111.39 622.24,-1121.39 629.24,-1121.39"/>
</g>
<!-- e7698954&#45;fb6e&#45;4d63&#45;9704&#45;4903414560aa&#45;&gt;75b3bace&#45;47ee&#45;4a30&#45;bedc&#45;06de3eaefa12 -->
<g id="edge15" class="edge">
<title>e7698954&#45;fb6e&#45;4d63&#45;9704&#45;4903414560aa&#45;&gt;75b3bace&#45;47ee&#45;4a30&#45;bedc&#45;06de3eaefa12</title>
<path fill="none" stroke="#00bfff" d="M625.74,-1001.47C625.74,-994.18 625.74,-985.5 625.74,-977.31"/>
<polygon fill="#00bfff" stroke="#00bfff" points="629.24,-977.39 625.74,-967.39 622.24,-977.39 629.24,-977.39"/>
</g>
<!-- 682914c4&#45;b73b&#45;43c8&#45;94eb&#45;541b7a8c0848&#45;&gt;8520d969&#45;3bbc&#45;49d6&#45;8ddf&#45;8d167d3cafed -->
<g id="edge17" class="edge">
<title>682914c4&#45;b73b&#45;43c8&#45;94eb&#45;541b7a8c0848&#45;&gt;8520d969&#45;3bbc&#45;49d6&#45;8ddf&#45;8d167d3cafed</title>
<path fill="none" stroke="#00bfff" d="M580.81,-857.48C578.51,-843.93 575.26,-824.78 572.57,-808.97"/>
<polygon fill="#00bfff" stroke="#00bfff" points="576.03,-808.45 570.91,-799.18 569.13,-809.62 576.03,-808.45"/>
</g>
<!-- b307120f&#45;9d5e&#45;4047&#45;85e8&#45;469cea099d25&#45;&gt;206f865c&#45;4b82&#45;4217&#45;85a5&#45;6e91f429f13e -->
<g id="edge19" class="edge">
<title>b307120f&#45;9d5e&#45;4047&#45;85e8&#45;469cea099d25&#45;&gt;206f865c&#45;4b82&#45;4217&#45;85a5&#45;6e91f429f13e</title>
<path fill="none" stroke="#00bfff" d="M678.39,-857.48C679.06,-850.46 679.88,-841.93 680.72,-833.14"/>
<polygon fill="#00bfff" stroke="#00bfff" points="684.17,-833.76 681.64,-823.47 677.2,-833.09 684.17,-833.76"/>
</g>
<!-- 7b78122b&#45;3f27&#45;409c&#45;88bf&#45;7bfd1f613f2b&#45;&gt;2c86b0e4&#45;8a23&#45;40db&#45;bc2f&#45;7441fc011dc7 -->
<g id="edge22" class="edge">
<title>7b78122b&#45;3f27&#45;409c&#45;88bf&#45;7bfd1f613f2b&#45;&gt;2c86b0e4&#45;8a23&#45;40db&#45;bc2f&#45;7441fc011dc7</title>
<path fill="none" stroke="#ff0000" d="M463.69,-664.84C441.64,-655.26 413.23,-642.92 385.65,-630.93"/>
<polygon fill="#ff0000" stroke="#ff0000" points="387.09,-627.74 376.52,-626.97 384.3,-634.16 387.09,-627.74"/>
</g>
<!-- 7b78122b&#45;3f27&#45;409c&#45;88bf&#45;7bfd1f613f2b&#45;&gt;45811757&#45;db9d&#45;4997&#45;ab14&#45;199866b5bd51 -->
<g id="edge21" class="edge">
<title>7b78122b&#45;3f27&#45;409c&#45;88bf&#45;7bfd1f613f2b&#45;&gt;45811757&#45;db9d&#45;4997&#45;ab14&#45;199866b5bd51</title>
<path fill="none" stroke="#32cd32" d="M503.74,-664.95C503.74,-651.48 503.74,-632.48 503.74,-616.73"/>
<polygon fill="#32cd32" stroke="#32cd32" points="507.24,-616.98 503.74,-606.98 500.24,-616.98 507.24,-616.98"/>
</g>
<!-- 589c046a&#45;ca2e&#45;4c57&#45;960c&#45;e4649dba1f57&#45;&gt;679e214d&#45;a3a9&#45;4b50&#45;be44&#45;ea9a748caae2 -->
<g id="edge25" class="edge">
<title>589c046a&#45;ca2e&#45;4c57&#45;960c&#45;e4649dba1f57&#45;&gt;679e214d&#45;a3a9&#45;4b50&#45;be44&#45;ea9a748caae2</title>
<path fill="none" stroke="#ff0000" d="M677.86,-664.95C702.97,-655.32 735.44,-642.88 766.92,-630.82"/>
<polygon fill="#ff0000" stroke="#ff0000" points="768.05,-634.13 776.14,-627.29 765.55,-627.6 768.05,-634.13"/>
</g>
<!-- 589c046a&#45;ca2e&#45;4c57&#45;960c&#45;e4649dba1f57&#45;&gt;78a10b0a&#45;172f&#45;4536&#45;91e0&#45;035f0c02dc8e -->
<g id="edge24" class="edge">
<title>589c046a&#45;ca2e&#45;4c57&#45;960c&#45;e4649dba1f57&#45;&gt;78a10b0a&#45;172f&#45;4536&#45;91e0&#45;035f0c02dc8e</title>
<path fill="none" stroke="#ff1493" d="M632.74,-664.95C632.74,-651.48 632.74,-632.48 632.74,-616.73"/>
<polygon fill="#ff1493" stroke="#ff1493" points="636.24,-616.98 632.74,-606.98 629.24,-616.98 636.24,-616.98"/>
</g>
<!-- bacc3555&#45;39be&#45;4b8c&#45;80bc&#45;a5d89a52a97e&#45;&gt;bec71385&#45;5ffb&#45;4425&#45;a3d2&#45;ff3d5a89883d -->
<g id="edge27" class="edge">
<title>bacc3555&#45;39be&#45;4b8c&#45;80bc&#45;a5d89a52a97e&#45;&gt;bec71385&#45;5ffb&#45;4425&#45;a3d2&#45;ff3d5a89883d</title>
<path fill="none" stroke="#32cd32" d="M503.74,-472.41C503.74,-458.94 503.74,-439.95 503.74,-424.2"/>
<polygon fill="#32cd32" stroke="#32cd32" points="507.24,-424.44 503.74,-414.44 500.24,-424.44 507.24,-424.44"/>
</g>
<!-- 142761a7&#45;70f8&#45;495d&#45;b43f&#45;08569ef8ec64&#45;&gt;19ca91af&#45;8195&#45;4f82&#45;a2a8&#45;9b4fc218de8d -->
<g id="edge29" class="edge">
<title>142761a7&#45;70f8&#45;495d&#45;b43f&#45;08569ef8ec64&#45;&gt;19ca91af&#45;8195&#45;4f82&#45;a2a8&#45;9b4fc218de8d</title>
<path fill="none" stroke="#32cd32" d="M370.76,-472.41C371.58,-465.38 372.57,-456.85 373.6,-448.07"/>
<polygon fill="#32cd32" stroke="#32cd32" points="377.05,-448.73 374.73,-438.39 370.09,-447.92 377.05,-448.73"/>
</g>
<!-- 028eef9b&#45;a3e7&#45;4682&#45;a1e2&#45;a4cf266822ed&#45;&gt;9772d0e2&#45;e84a&#45;46a2&#45;af50&#45;8fbc641994f1 -->
<g id="edge31" class="edge">
<title>028eef9b&#45;a3e7&#45;4682&#45;a1e2&#45;a4cf266822ed&#45;&gt;9772d0e2&#45;e84a&#45;46a2&#45;af50&#45;8fbc641994f1</title>
<path fill="none" stroke="#ff1493" d="M625.95,-472.41C620.43,-458.33 612.53,-438.22 606.2,-422.08"/>
<polygon fill="#ff1493" stroke="#ff1493" points="609.58,-421.11 602.67,-413.08 603.06,-423.66 609.58,-421.11"/>
</g>
<!-- 2d5aaa11&#45;2454&#45;48ea&#45;990f&#45;f1de374ee016&#45;&gt;2191c705&#45;0eb1&#45;4f6e&#45;911d&#45;d247dae4db31 -->
<g id="edge33" class="edge">
<title>2d5aaa11&#45;2454&#45;48ea&#45;990f&#45;f1de374ee016&#45;&gt;2191c705&#45;0eb1&#45;4f6e&#45;911d&#45;d247dae4db31</title>
<path fill="none" stroke="#ff1493" d="M755.74,-472.41C755.74,-465.46 755.74,-457.04 755.74,-448.36"/>
<polygon fill="#ff1493" stroke="#ff1493" points="759.24,-448.4 755.74,-438.4 752.24,-448.4 759.24,-448.4"/>
</g>
<!-- 5cc8ac2d&#45;b40a&#45;4709&#45;b05d&#45;5f0fa60375b9&#45;&gt;ddbf2a36&#45;95aa&#45;4145&#45;a1e5&#45;1a9aa6bcd245 -->
<g id="edge37" class="edge">
<title>5cc8ac2d&#45;b40a&#45;4709&#45;b05d&#45;5f0fa60375b9&#45;&gt;ddbf2a36&#45;95aa&#45;4145&#45;a1e5&#45;1a9aa6bcd245</title>
<path fill="none" stroke="#605d6e" d="M427.87,-279.87C423.17,-266.01 416.48,-246.31 411.05,-230.31"/>
<polygon fill="#605d6e" stroke="#605d6e" points="414.37,-229.22 407.84,-220.88 407.75,-231.47 414.37,-229.22"/>
</g>
<!-- 92405447&#45;47bd&#45;44c4&#45;b420&#45;55df04519d1f&#45;&gt;d24e446c&#45;94b9&#45;4f7e&#45;8fdb&#45;b16a3361f570 -->
<g id="edge40" class="edge">
<title>92405447&#45;47bd&#45;44c4&#45;b420&#45;55df04519d1f&#45;&gt;d24e446c&#45;94b9&#45;4f7e&#45;8fdb&#45;b16a3361f570</title>
<path fill="none" stroke="#605d6e" d="M649.5,-285.15C683.18,-276.42 726.86,-262.84 762.74,-244.16 769.63,-240.58 776.55,-236.1 783.03,-231.44"/>
<polygon fill="#605d6e" stroke="#605d6e" points="785.07,-234.28 790.94,-225.46 780.85,-228.7 785.07,-234.28"/>
</g>
<!-- 92405447&#45;47bd&#45;44c4&#45;b420&#45;55df04519d1f&#45;&gt;1609a922&#45;0f89&#45;40c7&#45;a5e7&#45;d772381f59d0 -->
<g id="edge41" class="edge">
<title>92405447&#45;47bd&#45;44c4&#45;b420&#45;55df04519d1f&#45;&gt;1609a922&#45;0f89&#45;40c7&#45;a5e7&#45;d772381f59d0</title>
<path fill="none" stroke="#132845" d="M595.74,-279.87C595.74,-272.92 595.74,-264.51 595.74,-255.82"/>
<polygon fill="#132845" stroke="#132845" points="599.24,-255.87 595.74,-245.87 592.24,-255.87 599.24,-255.87"/>
</g>
<!-- 44284e5f&#45;ed30&#45;402b&#45;a0bb&#45;829b98a33641&#45;&gt;2f0becf4&#45;34b3&#45;42bb&#45;82f0&#45;267ecc3ee8c9 -->
<g id="edge43" class="edge">
<title>44284e5f&#45;ed30&#45;402b&#45;a0bb&#45;829b98a33641&#45;&gt;2f0becf4&#45;34b3&#45;42bb&#45;82f0&#45;267ecc3ee8c9</title>
<path fill="none" stroke="#9ed020" d="M401.74,-87.36C401.74,-80.3 401.74,-71.84 401.74,-63.52"/>
<polygon fill="#9ed020" stroke="#9ed020" points="405.24,-63.52 401.74,-53.52 398.24,-63.52 405.24,-63.52"/>
</g>
</g>
</svg>
