<?xml version="1.0" encoding="UTF-8" standalone="no"?>
<!-- Generated by graphviz version 12.2.1 (20241206.2353)
 -->

<!-- Title: ocpn Pages: 1 -->

<svg
   width="869.27466pt"
   height="635.84216pt"
   viewBox="0 0 868.28237 631.81787"
   version="1.1"
   id="svg32"
   sodipodi:docname="algorithm-equalplaces-step.svg"
   xml:space="preserve"
   inkscape:version="1.4.2 (f4327f4, 2025-05-13)"
   xmlns:inkscape="http://www.inkscape.org/namespaces/inkscape"
   xmlns:sodipodi="http://sodipodi.sourceforge.net/DTD/sodipodi-0.dtd"
   xmlns:xlink="http://www.w3.org/1999/xlink"
   xmlns="http://www.w3.org/2000/svg"
   xmlns:svg="http://www.w3.org/2000/svg"><defs
     id="defs32"><marker
       style="overflow:visible"
       id="marker4"
       refX="0"
       refY="0"
       orient="auto-start-reverse"
       inkscape:stockid="Wide arrow"
       markerWidth="1"
       markerHeight="1"
       viewBox="0 0 1 1"
       inkscape:isstock="true"
       inkscape:collect="always"
       preserveAspectRatio="xMidYMid"><path
         style="fill:none;stroke:context-stroke;stroke-width:1;stroke-linecap:butt"
         d="M 3,-3 0,0 3,3"
         transform="rotate(180,0.125,0)"
         sodipodi:nodetypes="ccc"
         id="path4" /></marker><marker
       style="overflow:visible"
       id="ArrowWide"
       refX="0"
       refY="0"
       orient="auto-start-reverse"
       inkscape:stockid="Wide arrow"
       markerWidth="1"
       markerHeight="1"
       viewBox="0 0 1 1"
       inkscape:isstock="true"
       inkscape:collect="always"
       preserveAspectRatio="xMidYMid"><path
         style="fill:none;stroke:context-stroke;stroke-width:1;stroke-linecap:butt"
         d="M 3,-3 0,0 3,3"
         transform="rotate(180,0.125,0)"
         sodipodi:nodetypes="ccc"
         id="path1" /></marker><linearGradient
       id="linearGradient1"
       inkscape:collect="always"><stop
         style="stop-color:#000000;stop-opacity:1;"
         offset="0"
         id="stop1" /><stop
         style="stop-color:#000000;stop-opacity:0;"
         offset="1"
         id="stop2" /></linearGradient><marker
       style="overflow:visible"
       id="marker25"
       refX="0"
       refY="0"
       orient="auto-start-reverse"
       inkscape:stockid="Wide arrow"
       markerWidth="1"
       markerHeight="1"
       viewBox="0 0 1 1"
       inkscape:isstock="true"
       inkscape:collect="always"
       preserveAspectRatio="xMidYMid"><path
         style="fill:none;stroke:context-stroke;stroke-width:1;stroke-linecap:butt"
         d="M 3,-3 0,0 3,3"
         transform="rotate(180,0.125,0)"
         sodipodi:nodetypes="ccc"
         id="path25" /></marker><marker
       style="overflow:visible"
       id="marker24"
       refX="0"
       refY="0"
       orient="auto-start-reverse"
       inkscape:stockid="Wide arrow"
       markerWidth="1"
       markerHeight="1"
       viewBox="0 0 1 1"
       inkscape:isstock="true"
       inkscape:collect="always"
       preserveAspectRatio="xMidYMid"><path
         style="fill:none;stroke:context-stroke;stroke-width:1;stroke-linecap:butt"
         d="M 3,-3 0,0 3,3"
         transform="rotate(180,0.125,0)"
         sodipodi:nodetypes="ccc"
         id="path24" /></marker><path
       id="MJX-5-NCM-N-28"
       d="m 318,-248 c 9,0 14,5 14,14 0,3 -2,7 -5,11 -52,40 -94,106 -125,197 -27,79 -41,157 -41,234 v 84 c 0,77 14,155 41,234 31,91 73,157 125,197 3,3 5,7 5,11 0,9 -5,14 -14,14 -1,0 -4,-1 -7,-3 C 251,699 201,631 160,540 121,453 101,371 101,292 v -84 c 0,-79 20,-161 59,-248 41,-91 91,-159 151,-205 3,-2 6,-3 7,-3 z" /><path
       id="MJX-5-NCM-N-50"
       d="m 395,312 c 57,0 108,16 153,48 51,36 76,81 76,135 0,57 -26,104 -78,140 -46,32 -99,48 -159,48 H 35 v -39 h 28 c 35,0 56,-3 63,-8 7,-5 11,-16 11,-34 V 81 C 137,63 133,51 126,46 119,41 98,39 63,39 H 35 V 0 c 26,2 76,3 149,3 74,0 124,-1 150,-3 v 39 h -28 c -35,0 -56,2 -63,7 -7,5 -11,17 -11,35 v 231 m 42,332 h 88 c 29,0 54,-4 75,-11 57,-21 77,-63 77,-138 0,-28 -3,-52 -10,-72 -17,-50 -71,-77 -142,-77 H 229 v 263 c 0,36 6,35 45,35 z" /><path
       id="MJX-5-NCM-N-72"
       d="m 364,378 c 0,39 -37,64 -76,64 -51,0 -90,-30 -116,-91 v 91 L 28,431 v -38 c 35,0 56,-3 64,-9 8,-6 12,-19 12,-42 V 79 C 104,60 101,48 94,44 87,40 65,38 28,38 V 0 l 115,3 c 42,1 85,0 128,-3 v 38 h -24 c -33,0 -54,3 -61,8 -7,5 -10,17 -10,35 v 151 c 0,43 8,82 23,115 20,43 49,65 88,66 -10,-10 -15,-22 -15,-36 0,-31 15,-46 46,-46 27,0 46,21 46,47 z" /><path
       id="MJX-5-NCM-N-65"
       d="M 415,251 C 415,366 348,448 236,448 176,448 126,425 85,378 47,334 28,281 28,220 28,157 49,104 91,58 c 42,-46 94,-69 156,-69 57,0 101,20 131,59 25,33 37,57 37,73 0,10 -6,15 -17,15 -8,0 -13,-5 -16,-16 -22,-66 -65,-99 -129,-99 -45,0 -80,21 -107,64 -19,31 -28,78 -29,142 h 270 c 22,0 28,2 28,24 m -89,98 c 11,-33 16,-65 16,-94 H 118 c 3,66 20,111 50,134 25,20 47,30 68,30 45,0 75,-23 90,-70 z" /><path
       id="MJX-5-NCM-N-63"
       d="m 251,416 c 42,0 74,-10 96,-30 -24,-3 -41,-25 -41,-48 0,-33 16,-49 49,-49 33,0 49,17 49,50 0,71 -77,109 -154,109 C 188,448 137,426 96,380 55,334 34,279 34,216 34,155 55,101 96,56 c 41,-45 91,-67 152,-67 50,0 89,14 117,43 23,23 38,46 46,70 3,9 4,15 4,19 0,9 -6,13 -17,13 -8,0 -13,-4 -16,-12 C 361,55 320,21 257,21 c -29,0 -57,13 -85,40 -33,31 -49,83 -49,157 0,100 38,198 128,198 z" /><path
       id="MJX-5-NCM-N-75"
       d="m 267,18 c -69,0 -82,29 -82,94 V 442 L 32,431 v -38 c 39,0 62,-4 68,-11 6,-7 9,-32 9,-76 V 159 c 0,-39 3,-69 10,-92 15,-52 70,-78 143,-78 54,0 95,25 123,76 V -11 L 535,0 v 38 c -36,0 -57,2 -65,8 -8,6 -12,20 -12,43 V 442 L 306,431 v -38 c 35,0 56,-3 64,-9 8,-6 12,-19 12,-42 V 167 C 382,88 340,18 267,18 Z" /><path
       id="MJX-5-NCM-N-73"
       d="m 360,130 c 0,76 -52,124 -155,144 -47,9 -77,20 -93,31 -16,11 -24,27 -24,46 0,47 35,70 105,70 68,0 105,-38 110,-115 1,-8 6,-12 16,-12 11,0 17,9 17,27 v 99 c 0,19 -5,28 -15,28 -11,0 -26,-18 -36,-26 -25,17 -56,26 -92,26 -89,0 -160,-40 -160,-125 0,-34 14,-63 43,-86 35,-29 68,-35 131,-46 65,-13 98,-42 98,-87 C 305,47 270,18 199,18 130,18 86,64 67,155 64,168 59,175 50,175 39,175 33,165 33,146 V 17 c 0,-19 5,-28 15,-28 3,0 8,3 16,10 18,16 10,13 28,31 29,-27 65,-41 107,-41 95,0 161,49 161,141 z" /><path
       id="MJX-5-NCM-N-6F"
       d="m 249,-11 c 62,0 114,22 157,66 43,44 65,97 65,159 0,63 -21,118 -63,164 -42,46 -95,70 -158,70 C 187,448 135,424 92,378 49,332 28,277 28,214 28,152 49,99 92,55 135,11 188,-11 249,-11 m 1,32 c -48,0 -84,21 -109,64 -16,28 -24,74 -24,137 0,61 8,105 23,133 24,43 60,64 109,64 47,0 83,-21 108,-62 17,-28 25,-73 25,-135 C 382,106 348,21 250,21 Z" /><path
       id="MJX-5-NCM-N-20"
       d="" /><path
       id="MJX-5-NCM-N-42"
       d="m 478,358 c 70,18 146,74 146,154 0,53 -25,95 -75,128 -43,29 -93,43 -148,43 H 36 v -39 h 28 c 35,0 56,-3 63,-8 7,-5 11,-16 11,-34 V 81 C 138,63 134,51 127,46 120,41 99,39 64,39 H 36 V 0 h 391 c 57,0 108,16 152,48 48,35 72,81 72,137 0,93 -88,157 -173,173 m 43,154 C 521,428 451,370 367,370 H 228 v 239 c 0,36 5,35 44,35 h 122 c 74,0 127,-58 127,-132 M 544,186 V 160 C 542,137 529,111 504,84 478,54 442,39 395,39 H 272 c -39,0 -44,-1 -44,35 v 266 h 181 c 81,0 135,-70 135,-154 z" /><path
       id="MJX-5-NCM-N-2C"
       d="m 139,106 c -32,0 -53,-24 -53,-56 0,-30 23,-55 53,-55 14,0 26,4 35,13 l 1,-8 c 0,-63 -21,-117 -63,-160 -7,-8 -11,-14 -11,-18 0,-10 4,-15 13,-15 9,0 21,12 38,35 34,48 51,101 51,158 0,53 -18,106 -64,106 z" /><path
       id="MJX-5-NCM-N-5B"
       d="m 233,-202 h -74 v 904 h 74 c 15,0 23,8 23,24 0,16 -8,24 -23,24 H 114 V -250 h 119 c 15,0 23,8 23,24 0,12 -11,24 -23,24 z" /><path
       id="MJX-5-NCM-N-5D"
       d="M 45,-250 H 164 V 750 H 45 c -15,0 -23,-8 -23,-24 0,-16 8,-24 23,-24 h 74 V -202 H 45 c -15,0 -23,-8 -23,-24 0,-16 8,-24 23,-24 z" /><path
       id="MJX-5-NCM-N-4D"
       d="M 175,108 V 622 L 407,24 c 6,-16 14,-24 23,-24 9,0 16,7 22,21 L 689,630 V 81 c 0,-18 -4,-30 -11,-35 -7,-5 -28,-7 -63,-7 H 587 V 0 c 27,2 76,3 146,3 70,0 119,-1 146,-3 v 39 h -28 c -35,0 -56,2 -63,7 -7,5 -11,17 -11,35 v 521 c 0,18 4,29 11,34 7,5 28,8 63,8 h 28 v 39 H 708 c -27,0 -29,-1 -37,-21 L 458,115 247,659 c -9,20 -12,24 -39,24 H 37 v -39 h 28 c 35,0 56,-3 63,-8 7,-5 11,-16 11,-34 V 108 C 139,91 135,77 127,64 116,47 86,39 37,39 V 0 L 157,3 277,0 v 39 c -73,0 -102,12 -102,69 z" /><path
       id="MJX-5-NCM-N-69"
       d="m 194,601 c 0,30 -25,56 -55,56 -30,0 -56,-26 -56,-56 0,-30 25,-57 55,-57 31,0 56,26 56,57 M 143,3 247,0 v 39 c -33,0 -53,2 -59,6 -6,4 -8,15 -8,33 V 445 L 37,433 v -38 c 33,0 54,-3 61,-8 7,-5 10,-19 10,-42 V 79 C 108,60 105,48 98,44 91,40 69,39 33,39 V 0 Z" /><path
       id="MJX-5-NCM-N-78"
       d="m 418,3 c 23,1 56,0 98,-3 v 38 c -53,0 -73,1 -94,29 L 292,235 c 43,53 72,89 88,108 28,32 67,49 118,50 v 38 c -28,-2 -56,-3 -84,-3 -37,0 -70,1 -99,3 v -38 c 19,-2 29,-11 29,-27 0,-9 -5,-20 -14,-32 l -58,-72 -74,95 c -5,7 -8,12 -8,15 0,13 12,20 35,21 v 38 l -111,-3 c -26,-1 -58,0 -97,3 v -38 c 36,0 59,-3 69,-8 10,-5 26,-22 48,-51 L 229,210 C 180,147 150,109 139,96 107,57 65,38 12,38 V 0 c 37,3 65,4 86,3 l 97,-3 v 38 c -19,3 -28,12 -28,27 0,4 1,9 3,14 6,13 33,47 81,104 L 323,89 C 334,75 340,65 343,59 343,46 331,39 307,38 V 0 Z" /><path
       id="MJX-5-NCM-N-29"
       d="m 78,-245 c 60,46 110,114 151,205 39,87 59,169 59,248 v 84 c 0,79 -20,161 -59,248 -41,91 -91,159 -151,205 -3,2 -6,3 -7,3 -9,0 -14,-5 -14,-14 0,-4 2,-8 5,-11 52,-40 94,-106 125,-197 27,-79 41,-157 41,-234 v -84 c 0,-77 -14,-155 -41,-234 -31,-91 -73,-157 -125,-197 -3,-4 -5,-8 -5,-11 0,-9 5,-14 14,-14 1,0 4,1 7,3 z" /><path
       id="MJX-5-NCM-N-28-8"
       d="m 318,-248 c 9,0 14,5 14,14 0,3 -2,7 -5,11 -52,40 -94,106 -125,197 -27,79 -41,157 -41,234 v 84 c 0,77 14,155 41,234 31,91 73,157 125,197 3,3 5,7 5,11 0,9 -5,14 -14,14 -1,0 -4,-1 -7,-3 C 251,699 201,631 160,540 121,453 101,371 101,292 v -84 c 0,-79 20,-161 59,-248 41,-91 91,-159 151,-205 3,-2 6,-3 7,-3 z" /><path
       id="MJX-5-NCM-N-50-8"
       d="m 395,312 c 57,0 108,16 153,48 51,36 76,81 76,135 0,57 -26,104 -78,140 -46,32 -99,48 -159,48 H 35 v -39 h 28 c 35,0 56,-3 63,-8 7,-5 11,-16 11,-34 V 81 C 137,63 133,51 126,46 119,41 98,39 63,39 H 35 V 0 c 26,2 76,3 149,3 74,0 124,-1 150,-3 v 39 h -28 c -35,0 -56,2 -63,7 -7,5 -11,17 -11,35 v 231 m 42,332 h 88 c 29,0 54,-4 75,-11 57,-21 77,-63 77,-138 0,-28 -3,-52 -10,-72 -17,-50 -71,-77 -142,-77 H 229 v 263 c 0,36 6,35 45,35 z" /><path
       id="MJX-5-NCM-N-72-2"
       d="m 364,378 c 0,39 -37,64 -76,64 -51,0 -90,-30 -116,-91 v 91 L 28,431 v -38 c 35,0 56,-3 64,-9 8,-6 12,-19 12,-42 V 79 C 104,60 101,48 94,44 87,40 65,38 28,38 V 0 l 115,3 c 42,1 85,0 128,-3 v 38 h -24 c -33,0 -54,3 -61,8 -7,5 -10,17 -10,35 v 151 c 0,43 8,82 23,115 20,43 49,65 88,66 -10,-10 -15,-22 -15,-36 0,-31 15,-46 46,-46 27,0 46,21 46,47 z" /><path
       id="MJX-5-NCM-N-65-9"
       d="M 415,251 C 415,366 348,448 236,448 176,448 126,425 85,378 47,334 28,281 28,220 28,157 49,104 91,58 c 42,-46 94,-69 156,-69 57,0 101,20 131,59 25,33 37,57 37,73 0,10 -6,15 -17,15 -8,0 -13,-5 -16,-16 -22,-66 -65,-99 -129,-99 -45,0 -80,21 -107,64 -19,31 -28,78 -29,142 h 270 c 22,0 28,2 28,24 m -89,98 c 11,-33 16,-65 16,-94 H 118 c 3,66 20,111 50,134 25,20 47,30 68,30 45,0 75,-23 90,-70 z" /><path
       id="MJX-5-NCM-N-63-1"
       d="m 251,416 c 42,0 74,-10 96,-30 -24,-3 -41,-25 -41,-48 0,-33 16,-49 49,-49 33,0 49,17 49,50 0,71 -77,109 -154,109 C 188,448 137,426 96,380 55,334 34,279 34,216 34,155 55,101 96,56 c 41,-45 91,-67 152,-67 50,0 89,14 117,43 23,23 38,46 46,70 3,9 4,15 4,19 0,9 -6,13 -17,13 -8,0 -13,-4 -16,-12 C 361,55 320,21 257,21 c -29,0 -57,13 -85,40 -33,31 -49,83 -49,157 0,100 38,198 128,198 z" /><path
       id="MJX-5-NCM-N-75-3"
       d="m 267,18 c -69,0 -82,29 -82,94 V 442 L 32,431 v -38 c 39,0 62,-4 68,-11 6,-7 9,-32 9,-76 V 159 c 0,-39 3,-69 10,-92 15,-52 70,-78 143,-78 54,0 95,25 123,76 V -11 L 535,0 v 38 c -36,0 -57,2 -65,8 -8,6 -12,20 -12,43 V 442 L 306,431 v -38 c 35,0 56,-3 64,-9 8,-6 12,-19 12,-42 V 167 C 382,88 340,18 267,18 Z" /><path
       id="MJX-5-NCM-N-73-5"
       d="m 360,130 c 0,76 -52,124 -155,144 -47,9 -77,20 -93,31 -16,11 -24,27 -24,46 0,47 35,70 105,70 68,0 105,-38 110,-115 1,-8 6,-12 16,-12 11,0 17,9 17,27 v 99 c 0,19 -5,28 -15,28 -11,0 -26,-18 -36,-26 -25,17 -56,26 -92,26 -89,0 -160,-40 -160,-125 0,-34 14,-63 43,-86 35,-29 68,-35 131,-46 65,-13 98,-42 98,-87 C 305,47 270,18 199,18 130,18 86,64 67,155 64,168 59,175 50,175 39,175 33,165 33,146 V 17 c 0,-19 5,-28 15,-28 3,0 8,3 16,10 18,16 10,13 28,31 29,-27 65,-41 107,-41 95,0 161,49 161,141 z" /><path
       id="MJX-5-NCM-N-6F-9"
       d="m 249,-11 c 62,0 114,22 157,66 43,44 65,97 65,159 0,63 -21,118 -63,164 -42,46 -95,70 -158,70 C 187,448 135,424 92,378 49,332 28,277 28,214 28,152 49,99 92,55 135,11 188,-11 249,-11 m 1,32 c -48,0 -84,21 -109,64 -16,28 -24,74 -24,137 0,61 8,105 23,133 24,43 60,64 109,64 47,0 83,-21 108,-62 17,-28 25,-73 25,-135 C 382,106 348,21 250,21 Z" /><path
       id="MJX-5-NCM-N-20-8"
       d="" /><path
       id="MJX-5-NCM-N-42-4"
       d="m 478,358 c 70,18 146,74 146,154 0,53 -25,95 -75,128 -43,29 -93,43 -148,43 H 36 v -39 h 28 c 35,0 56,-3 63,-8 7,-5 11,-16 11,-34 V 81 C 138,63 134,51 127,46 120,41 99,39 64,39 H 36 V 0 h 391 c 57,0 108,16 152,48 48,35 72,81 72,137 0,93 -88,157 -173,173 m 43,154 C 521,428 451,370 367,370 H 228 v 239 c 0,36 5,35 44,35 h 122 c 74,0 127,-58 127,-132 M 544,186 V 160 C 542,137 529,111 504,84 478,54 442,39 395,39 H 272 c -39,0 -44,-1 -44,35 v 266 h 181 c 81,0 135,-70 135,-154 z" /><path
       id="MJX-5-NCM-N-2C-0"
       d="m 139,106 c -32,0 -53,-24 -53,-56 0,-30 23,-55 53,-55 14,0 26,4 35,13 l 1,-8 c 0,-63 -21,-117 -63,-160 -7,-8 -11,-14 -11,-18 0,-10 4,-15 13,-15 9,0 21,12 38,35 34,48 51,101 51,158 0,53 -18,106 -64,106 z" /><path
       id="MJX-5-NCM-N-5B-7"
       d="m 233,-202 h -74 v 904 h 74 c 15,0 23,8 23,24 0,16 -8,24 -23,24 H 114 V -250 h 119 c 15,0 23,8 23,24 0,12 -11,24 -23,24 z" /><path
       id="MJX-5-NCM-N-5D-6"
       d="M 45,-250 H 164 V 750 H 45 c -15,0 -23,-8 -23,-24 0,-16 8,-24 23,-24 h 74 V -202 H 45 c -15,0 -23,-8 -23,-24 0,-16 8,-24 23,-24 z" /><path
       id="MJX-5-NCM-N-4D-3"
       d="M 175,108 V 622 L 407,24 c 6,-16 14,-24 23,-24 9,0 16,7 22,21 L 689,630 V 81 c 0,-18 -4,-30 -11,-35 -7,-5 -28,-7 -63,-7 H 587 V 0 c 27,2 76,3 146,3 70,0 119,-1 146,-3 v 39 h -28 c -35,0 -56,2 -63,7 -7,5 -11,17 -11,35 v 521 c 0,18 4,29 11,34 7,5 28,8 63,8 h 28 v 39 H 708 c -27,0 -29,-1 -37,-21 L 458,115 247,659 c -9,20 -12,24 -39,24 H 37 v -39 h 28 c 35,0 56,-3 63,-8 7,-5 11,-16 11,-34 V 108 C 139,91 135,77 127,64 116,47 86,39 37,39 V 0 L 157,3 277,0 v 39 c -73,0 -102,12 -102,69 z" /><path
       id="MJX-5-NCM-N-69-6"
       d="m 194,601 c 0,30 -25,56 -55,56 -30,0 -56,-26 -56,-56 0,-30 25,-57 55,-57 31,0 56,26 56,57 M 143,3 247,0 v 39 c -33,0 -53,2 -59,6 -6,4 -8,15 -8,33 V 445 L 37,433 v -38 c 33,0 54,-3 61,-8 7,-5 10,-19 10,-42 V 79 C 108,60 105,48 98,44 91,40 69,39 33,39 V 0 Z" /><path
       id="MJX-5-NCM-N-78-1"
       d="m 418,3 c 23,1 56,0 98,-3 v 38 c -53,0 -73,1 -94,29 L 292,235 c 43,53 72,89 88,108 28,32 67,49 118,50 v 38 c -28,-2 -56,-3 -84,-3 -37,0 -70,1 -99,3 v -38 c 19,-2 29,-11 29,-27 0,-9 -5,-20 -14,-32 l -58,-72 -74,95 c -5,7 -8,12 -8,15 0,13 12,20 35,21 v 38 l -111,-3 c -26,-1 -58,0 -97,3 v -38 c 36,0 59,-3 69,-8 10,-5 26,-22 48,-51 L 229,210 C 180,147 150,109 139,96 107,57 65,38 12,38 V 0 c 37,3 65,4 86,3 l 97,-3 v 38 c -19,3 -28,12 -28,27 0,4 1,9 3,14 6,13 33,47 81,104 L 323,89 C 334,75 340,65 343,59 343,46 331,39 307,38 V 0 Z" /><path
       id="MJX-5-NCM-N-29-5"
       d="m 78,-245 c 60,46 110,114 151,205 39,87 59,169 59,248 v 84 c 0,79 -20,161 -59,248 -41,91 -91,159 -151,205 -3,2 -6,3 -7,3 -9,0 -14,-5 -14,-14 0,-4 2,-8 5,-11 52,-40 94,-106 125,-197 27,-79 41,-157 41,-234 v -84 c 0,-77 -14,-155 -41,-234 -31,-91 -73,-157 -125,-197 -3,-4 -5,-8 -5,-11 0,-9 5,-14 14,-14 1,0 4,1 7,3 z" /><path
       id="MJX-11-NCM-N-28"
       d="m 318,-248 c 9,0 14,5 14,14 0,3 -2,7 -5,11 -52,40 -94,106 -125,197 -27,79 -41,157 -41,234 v 84 c 0,77 14,155 41,234 31,91 73,157 125,197 3,3 5,7 5,11 0,9 -5,14 -14,14 -1,0 -4,-1 -7,-3 C 251,699 201,631 160,540 121,453 101,371 101,292 v -84 c 0,-79 20,-161 59,-248 41,-91 91,-159 151,-205 3,-2 6,-3 7,-3 z" /><path
       id="MJX-11-NCM-N-53"
       d="m 252,669 c 107,0 170,-68 188,-203 1,-10 7,-15 16,-15 11,0 16,9 16,27 v 199 c 0,19 -5,28 -14,28 -6,0 -12,-5 -18,-15 L 408,638 C 364,680 324,705 251,705 142,705 56,617 56,509 56,417 116,349 187,324 L 317,292 C 384,275 428,229 428,154 428,79 376,17 301,17 170,17 93,91 88,218 c 0,9 -5,14 -15,14 -11,0 -17,-9 -17,-28 V 6 c 0,-19 5,-28 15,-28 6,0 12,5 18,15 l 32,52 c 43,-45 103,-67 181,-67 57,0 105,21 142,62 37,41 55,90 55,148 0,47 -14,90 -41,129 -27,39 -64,63 -109,74 l -126,31 c -53,12 -96,59 -96,122 0,70 55,125 125,125 z" /><path
       id="MJX-11-NCM-N-75"
       d="m 267,18 c -69,0 -82,29 -82,94 V 442 L 32,431 v -38 c 39,0 62,-4 68,-11 6,-7 9,-32 9,-76 V 159 c 0,-39 3,-69 10,-92 15,-52 70,-78 143,-78 54,0 95,25 123,76 V -11 L 535,0 v 38 c -36,0 -57,2 -65,8 -8,6 -12,20 -12,43 V 442 L 306,431 v -38 c 35,0 56,-3 64,-9 8,-6 12,-19 12,-42 V 167 C 382,88 340,18 267,18 Z" /><path
       id="MJX-11-NCM-N-62"
       d="m 298,-11 c 62,0 115,22 158,67 43,45 65,98 65,161 0,61 -20,115 -61,160 -41,45 -91,68 -152,68 -49,0 -93,-19 -130,-58 V 694 L 28,683 v -38 c 36,0 58,-3 66,-9 8,-6 11,-20 11,-43 V 0 h 31 l 33,58 c 32,-46 75,-69 129,-69 m -4,30 c -41,0 -75,19 -100,58 -9,13 -13,27 -13,40 v 203 c 0,13 3,24 10,34 29,41 66,61 113,61 41,0 74,-20 100,-61 18,-30 27,-75 27,-136 C 431,110 393,19 294,19 Z" /><path
       id="MJX-11-NCM-N-73"
       d="m 360,130 c 0,76 -52,124 -155,144 -47,9 -77,20 -93,31 -16,11 -24,27 -24,46 0,47 35,70 105,70 68,0 105,-38 110,-115 1,-8 6,-12 16,-12 11,0 17,9 17,27 v 99 c 0,19 -5,28 -15,28 -11,0 -26,-18 -36,-26 -25,17 -56,26 -92,26 -89,0 -160,-40 -160,-125 0,-34 14,-63 43,-86 35,-29 68,-35 131,-46 65,-13 98,-42 98,-87 C 305,47 270,18 199,18 130,18 86,64 67,155 64,168 59,175 50,175 39,175 33,165 33,146 V 17 c 0,-19 5,-28 15,-28 3,0 8,3 16,10 18,16 10,13 28,31 29,-27 65,-41 107,-41 95,0 161,49 161,141 z" /><path
       id="MJX-11-NCM-N-74"
       d="m 332,126 v 60 H 300 V 128 C 300,78 282,22 238,22 197,22 177,56 177,124 v 271 h 139 v 38 H 177 V 615 H 145 C 144,582 141,553 134,527 117,461 78,427 19,424 v -29 h 83 V 126 c 0,-59 18,-97 53,-116 27,-14 52,-21 77,-21 66,0 100,66 100,137 z" /><path
       id="MJX-11-NCM-N-61"
       d="m 483,91 v 59 H 451 V 91 c 0,-39 -11,-59 -32,-59 -20,0 -32,25 -32,45 v 197 c 0,35 -4,61 -11,79 -24,59 -93,95 -163,95 -77,0 -153,-43 -153,-115 0,-33 17,-50 50,-50 33,0 49,16 49,49 0,29 -15,46 -46,49 22,25 55,38 98,38 62,0 100,-57 100,-122 V 264 C 233,259 174,247 133,228 66,197 32,154 32,97 32,71 42,49 61,32 93,3 137,-11 193,-11 c 59,0 101,25 127,76 7,-38 35,-71 78,-71 53,0 85,42 85,97 M 200,18 c -46,0 -84,34 -84,80 0,93 97,133 195,138 V 141 C 311,74 267,18 200,18 Z" /><path
       id="MJX-11-NCM-N-6E"
       d="m 314,413 c 45,0 68,-35 68,-106 V 79 c 0,-19 -3,-31 -10,-35 -7,-4 -29,-6 -66,-6 V 0 L 421,3 535,0 v 38 c -32,0 -53,1 -63,4 -10,3 -14,10 -14,22 v 187 c 0,47 -1,80 -4,99 -10,61 -55,92 -134,92 -63,0 -110,-30 -141,-90 v 90 L 32,431 v -38 c 36,0 58,-3 66,-9 8,-6 11,-19 11,-42 V 79 C 109,60 105,48 98,44 91,40 69,38 32,38 V 0 L 147,3 261,0 v 38 c -37,0 -58,2 -65,6 -7,4 -11,16 -11,35 v 180 c 0,81 51,154 129,154 z" /><path
       id="MJX-11-NCM-N-63"
       d="m 251,416 c 42,0 74,-10 96,-30 -24,-3 -41,-25 -41,-48 0,-33 16,-49 49,-49 33,0 49,17 49,50 0,71 -77,109 -154,109 C 188,448 137,426 96,380 55,334 34,279 34,216 34,155 55,101 96,56 c 41,-45 91,-67 152,-67 50,0 89,14 117,43 23,23 38,46 46,70 3,9 4,15 4,19 0,9 -6,13 -17,13 -8,0 -13,-4 -16,-12 C 361,55 320,21 257,21 c -29,0 -57,13 -85,40 -33,31 -49,83 -49,157 0,100 38,198 128,198 z" /><path
       id="MJX-11-NCM-N-65"
       d="M 415,251 C 415,366 348,448 236,448 176,448 126,425 85,378 47,334 28,281 28,220 28,157 49,104 91,58 c 42,-46 94,-69 156,-69 57,0 101,20 131,59 25,33 37,57 37,73 0,10 -6,15 -17,15 -8,0 -13,-5 -16,-16 -22,-66 -65,-99 -129,-99 -45,0 -80,21 -107,64 -19,31 -28,78 -29,142 h 270 c 22,0 28,2 28,24 m -89,98 c 11,-33 16,-65 16,-94 H 118 c 3,66 20,111 50,134 25,20 47,30 68,30 45,0 75,-23 90,-70 z" /><path
       id="MJX-11-NCM-N-2C"
       d="m 139,106 c -32,0 -53,-24 -53,-56 0,-30 23,-55 53,-55 14,0 26,4 35,13 l 1,-8 c 0,-63 -21,-117 -63,-160 -7,-8 -11,-14 -11,-18 0,-10 4,-15 13,-15 9,0 21,12 38,35 34,48 51,101 51,158 0,53 -18,106 -64,106 z" /><path
       id="MJX-11-NCM-N-5B"
       d="m 233,-202 h -74 v 904 h 74 c 15,0 23,8 23,24 0,16 -8,24 -23,24 H 114 V -250 h 119 c 15,0 23,8 23,24 0,12 -11,24 -23,24 z" /><path
       id="MJX-11-NCM-N-46"
       d="m 275,641 h 118 c 71,0 117,-15 140,-44 32,-39 36,-76 45,-147 h 33 L 582,680 H 33 v -39 h 28 c 35,0 56,-2 63,-7 7,-5 11,-17 11,-35 V 81 C 135,63 131,51 124,46 117,41 96,39 61,39 H 33 V 0 c 26,2 77,3 154,3 87,0 143,-1 170,-3 v 39 h -37 c -53,0 -82,5 -87,16 -2,5 -3,14 -3,27 v 239 h 81 c 43,0 71,-8 83,-23 12,-15 18,-45 18,-92 h 32 v 269 h -32 c 0,-46 -6,-77 -18,-92 -12,-15 -40,-23 -83,-23 h -81 v 246 c 0,36 6,35 45,35 z" /><path
       id="MJX-11-NCM-N-69"
       d="m 194,601 c 0,30 -25,56 -55,56 -30,0 -56,-26 -56,-56 0,-30 25,-57 55,-57 31,0 56,26 56,57 M 143,3 247,0 v 39 c -33,0 -53,2 -59,6 -6,4 -8,15 -8,33 V 445 L 37,433 v -38 c 33,0 54,-3 61,-8 7,-5 10,-19 10,-42 V 79 C 108,60 105,48 98,44 91,40 69,39 33,39 V 0 Z" /><path
       id="MJX-11-NCM-N-6C"
       d="M 144,3 255,0 v 39 c -36,0 -58,1 -65,5 -7,4 -10,16 -10,35 V 694 L 33,683 v -38 c 35,0 57,-3 64,-9 7,-6 11,-20 11,-43 V 79 C 108,60 105,48 98,44 91,40 69,39 33,39 V 0 Z" /><path
       id="MJX-11-NCM-N-72"
       d="m 364,378 c 0,39 -37,64 -76,64 -51,0 -90,-30 -116,-91 v 91 L 28,431 v -38 c 35,0 56,-3 64,-9 8,-6 12,-19 12,-42 V 79 C 104,60 101,48 94,44 87,40 65,38 28,38 V 0 l 115,3 c 42,1 85,0 128,-3 v 38 h -24 c -33,0 -54,3 -61,8 -7,5 -10,17 -10,35 v 151 c 0,43 8,82 23,115 20,43 49,65 88,66 -10,-10 -15,-22 -15,-36 0,-31 15,-46 46,-46 27,0 46,21 46,47 z" /><path
       id="MJX-11-NCM-N-5D"
       d="M 45,-250 H 164 V 750 H 45 c -15,0 -23,-8 -23,-24 0,-16 8,-24 23,-24 h 74 V -202 H 45 c -15,0 -23,-8 -23,-24 0,-16 8,-24 23,-24 z" /><path
       id="MJX-11-NCM-N-43"
       d="m 665,443 v 234 c 0,19 -5,28 -15,28 -7,0 -13,-5 -19,-14 l -47,-69 c -30,31 -62,53 -97,67 -26,11 -54,16 -84,16 C 306,705 223,670 156,598 89,526 56,441 56,342 56,243 89,158 155,87 222,14 305,-22 403,-22 c 71,0 133,25 185,75 52,50 77,110 77,181 0,14 -6,21 -17,21 -10,0 -15,-4 -15,-13 0,-1 0,-3 -1,-6 C 626,116 540,17 415,17 378,17 341,27 302,47 210,97 166,193 166,341 c 0,140 49,248 136,295 39,20 76,30 112,30 124,0 195,-113 212,-231 1,-13 8,-20 19,-20 20,0 20,8 20,28 z" /><path
       id="MJX-11-NCM-N-6F"
       d="m 249,-11 c 62,0 114,22 157,66 43,44 65,97 65,159 0,63 -21,118 -63,164 -42,46 -95,70 -158,70 C 187,448 135,424 92,378 49,332 28,277 28,214 28,152 49,99 92,55 135,11 188,-11 249,-11 m 1,32 c -48,0 -84,21 -109,64 -16,28 -24,74 -24,137 0,61 8,105 23,133 24,43 60,64 109,64 47,0 83,-21 108,-62 17,-28 25,-73 25,-135 C 382,106 348,21 250,21 Z" /><path
       id="MJX-11-NCM-N-29"
       d="m 78,-245 c 60,46 110,114 151,205 39,87 59,169 59,248 v 84 c 0,79 -20,161 -59,248 -41,91 -91,159 -151,205 -3,2 -6,3 -7,3 -9,0 -14,-5 -14,-14 0,-4 2,-8 5,-11 52,-40 94,-106 125,-197 27,-79 41,-157 41,-234 v -84 c 0,-77 -14,-155 -41,-234 -31,-91 -73,-157 -125,-197 -3,-4 -5,-8 -5,-11 0,-9 5,-14 14,-14 1,0 4,1 7,3 z" /><path
       id="MJX-20-NCM-N-28"
       d="m 318,-248 c 9,0 14,5 14,14 0,3 -2,7 -5,11 -52,40 -94,106 -125,197 -27,79 -41,157 -41,234 v 84 c 0,77 14,155 41,234 31,91 73,157 125,197 3,3 5,7 5,11 0,9 -5,14 -14,14 -1,0 -4,-1 -7,-3 C 251,699 201,631 160,540 121,453 101,371 101,292 v -84 c 0,-79 20,-161 59,-248 41,-91 91,-159 151,-205 3,-2 6,-3 7,-3 z" /><path
       id="MJX-20-NCM-N-53"
       d="m 252,669 c 107,0 170,-68 188,-203 1,-10 7,-15 16,-15 11,0 16,9 16,27 v 199 c 0,19 -5,28 -14,28 -6,0 -12,-5 -18,-15 L 408,638 C 364,680 324,705 251,705 142,705 56,617 56,509 56,417 116,349 187,324 L 317,292 C 384,275 428,229 428,154 428,79 376,17 301,17 170,17 93,91 88,218 c 0,9 -5,14 -15,14 -11,0 -17,-9 -17,-28 V 6 c 0,-19 5,-28 15,-28 6,0 12,5 18,15 l 32,52 c 43,-45 103,-67 181,-67 57,0 105,21 142,62 37,41 55,90 55,148 0,47 -14,90 -41,129 -27,39 -64,63 -109,74 l -126,31 c -53,12 -96,59 -96,122 0,70 55,125 125,125 z" /><path
       id="MJX-20-NCM-N-75"
       d="m 267,18 c -69,0 -82,29 -82,94 V 442 L 32,431 v -38 c 39,0 62,-4 68,-11 6,-7 9,-32 9,-76 V 159 c 0,-39 3,-69 10,-92 15,-52 70,-78 143,-78 54,0 95,25 123,76 V -11 L 535,0 v 38 c -36,0 -57,2 -65,8 -8,6 -12,20 -12,43 V 442 L 306,431 v -38 c 35,0 56,-3 64,-9 8,-6 12,-19 12,-42 V 167 C 382,88 340,18 267,18 Z" /><path
       id="MJX-20-NCM-N-62"
       d="m 298,-11 c 62,0 115,22 158,67 43,45 65,98 65,161 0,61 -20,115 -61,160 -41,45 -91,68 -152,68 -49,0 -93,-19 -130,-58 V 694 L 28,683 v -38 c 36,0 58,-3 66,-9 8,-6 11,-20 11,-43 V 0 h 31 l 33,58 c 32,-46 75,-69 129,-69 m -4,30 c -41,0 -75,19 -100,58 -9,13 -13,27 -13,40 v 203 c 0,13 3,24 10,34 29,41 66,61 113,61 41,0 74,-20 100,-61 18,-30 27,-75 27,-136 C 431,110 393,19 294,19 Z" /><path
       id="MJX-20-NCM-N-73"
       d="m 360,130 c 0,76 -52,124 -155,144 -47,9 -77,20 -93,31 -16,11 -24,27 -24,46 0,47 35,70 105,70 68,0 105,-38 110,-115 1,-8 6,-12 16,-12 11,0 17,9 17,27 v 99 c 0,19 -5,28 -15,28 -11,0 -26,-18 -36,-26 -25,17 -56,26 -92,26 -89,0 -160,-40 -160,-125 0,-34 14,-63 43,-86 35,-29 68,-35 131,-46 65,-13 98,-42 98,-87 C 305,47 270,18 199,18 130,18 86,64 67,155 64,168 59,175 50,175 39,175 33,165 33,146 V 17 c 0,-19 5,-28 15,-28 3,0 8,3 16,10 18,16 10,13 28,31 29,-27 65,-41 107,-41 95,0 161,49 161,141 z" /><path
       id="MJX-20-NCM-N-74"
       d="m 332,126 v 60 H 300 V 128 C 300,78 282,22 238,22 197,22 177,56 177,124 v 271 h 139 v 38 H 177 V 615 H 145 C 144,582 141,553 134,527 117,461 78,427 19,424 v -29 h 83 V 126 c 0,-59 18,-97 53,-116 27,-14 52,-21 77,-21 66,0 100,66 100,137 z" /><path
       id="MJX-20-NCM-N-61"
       d="m 483,91 v 59 H 451 V 91 c 0,-39 -11,-59 -32,-59 -20,0 -32,25 -32,45 v 197 c 0,35 -4,61 -11,79 -24,59 -93,95 -163,95 -77,0 -153,-43 -153,-115 0,-33 17,-50 50,-50 33,0 49,16 49,49 0,29 -15,46 -46,49 22,25 55,38 98,38 62,0 100,-57 100,-122 V 264 C 233,259 174,247 133,228 66,197 32,154 32,97 32,71 42,49 61,32 93,3 137,-11 193,-11 c 59,0 101,25 127,76 7,-38 35,-71 78,-71 53,0 85,42 85,97 M 200,18 c -46,0 -84,34 -84,80 0,93 97,133 195,138 V 141 C 311,74 267,18 200,18 Z" /><path
       id="MJX-20-NCM-N-6E"
       d="m 314,413 c 45,0 68,-35 68,-106 V 79 c 0,-19 -3,-31 -10,-35 -7,-4 -29,-6 -66,-6 V 0 L 421,3 535,0 v 38 c -32,0 -53,1 -63,4 -10,3 -14,10 -14,22 v 187 c 0,47 -1,80 -4,99 -10,61 -55,92 -134,92 -63,0 -110,-30 -141,-90 v 90 L 32,431 v -38 c 36,0 58,-3 66,-9 8,-6 11,-19 11,-42 V 79 C 109,60 105,48 98,44 91,40 69,38 32,38 V 0 L 147,3 261,0 v 38 c -37,0 -58,2 -65,6 -7,4 -11,16 -11,35 v 180 c 0,81 51,154 129,154 z" /><path
       id="MJX-20-NCM-N-63"
       d="m 251,416 c 42,0 74,-10 96,-30 -24,-3 -41,-25 -41,-48 0,-33 16,-49 49,-49 33,0 49,17 49,50 0,71 -77,109 -154,109 C 188,448 137,426 96,380 55,334 34,279 34,216 34,155 55,101 96,56 c 41,-45 91,-67 152,-67 50,0 89,14 117,43 23,23 38,46 46,70 3,9 4,15 4,19 0,9 -6,13 -17,13 -8,0 -13,-4 -16,-12 C 361,55 320,21 257,21 c -29,0 -57,13 -85,40 -33,31 -49,83 -49,157 0,100 38,198 128,198 z" /><path
       id="MJX-20-NCM-N-65"
       d="M 415,251 C 415,366 348,448 236,448 176,448 126,425 85,378 47,334 28,281 28,220 28,157 49,104 91,58 c 42,-46 94,-69 156,-69 57,0 101,20 131,59 25,33 37,57 37,73 0,10 -6,15 -17,15 -8,0 -13,-5 -16,-16 -22,-66 -65,-99 -129,-99 -45,0 -80,21 -107,64 -19,31 -28,78 -29,142 h 270 c 22,0 28,2 28,24 m -89,98 c 11,-33 16,-65 16,-94 H 118 c 3,66 20,111 50,134 25,20 47,30 68,30 45,0 75,-23 90,-70 z" /><path
       id="MJX-20-NCM-N-2C"
       d="m 139,106 c -32,0 -53,-24 -53,-56 0,-30 23,-55 53,-55 14,0 26,4 35,13 l 1,-8 c 0,-63 -21,-117 -63,-160 -7,-8 -11,-14 -11,-18 0,-10 4,-15 13,-15 9,0 21,12 38,35 34,48 51,101 51,158 0,53 -18,106 -64,106 z" /><path
       id="MJX-20-NCM-N-5B"
       d="m 233,-202 h -74 v 904 h 74 c 15,0 23,8 23,24 0,16 -8,24 -23,24 H 114 V -250 h 119 c 15,0 23,8 23,24 0,12 -11,24 -23,24 z" /><path
       id="MJX-20-NCM-N-46"
       d="m 275,641 h 118 c 71,0 117,-15 140,-44 32,-39 36,-76 45,-147 h 33 L 582,680 H 33 v -39 h 28 c 35,0 56,-2 63,-7 7,-5 11,-17 11,-35 V 81 C 135,63 131,51 124,46 117,41 96,39 61,39 H 33 V 0 c 26,2 77,3 154,3 87,0 143,-1 170,-3 v 39 h -37 c -53,0 -82,5 -87,16 -2,5 -3,14 -3,27 v 239 h 81 c 43,0 71,-8 83,-23 12,-15 18,-45 18,-92 h 32 v 269 h -32 c 0,-46 -6,-77 -18,-92 -12,-15 -40,-23 -83,-23 h -81 v 246 c 0,36 6,35 45,35 z" /><path
       id="MJX-20-NCM-N-69"
       d="m 194,601 c 0,30 -25,56 -55,56 -30,0 -56,-26 -56,-56 0,-30 25,-57 55,-57 31,0 56,26 56,57 M 143,3 247,0 v 39 c -33,0 -53,2 -59,6 -6,4 -8,15 -8,33 V 445 L 37,433 v -38 c 33,0 54,-3 61,-8 7,-5 10,-19 10,-42 V 79 C 108,60 105,48 98,44 91,40 69,39 33,39 V 0 Z" /><path
       id="MJX-20-NCM-N-6C"
       d="M 144,3 255,0 v 39 c -36,0 -58,1 -65,5 -7,4 -10,16 -10,35 V 694 L 33,683 v -38 c 35,0 57,-3 64,-9 7,-6 11,-20 11,-43 V 79 C 108,60 105,48 98,44 91,40 69,39 33,39 V 0 Z" /><path
       id="MJX-20-NCM-N-72"
       d="m 364,378 c 0,39 -37,64 -76,64 -51,0 -90,-30 -116,-91 v 91 L 28,431 v -38 c 35,0 56,-3 64,-9 8,-6 12,-19 12,-42 V 79 C 104,60 101,48 94,44 87,40 65,38 28,38 V 0 l 115,3 c 42,1 85,0 128,-3 v 38 h -24 c -33,0 -54,3 -61,8 -7,5 -10,17 -10,35 v 151 c 0,43 8,82 23,115 20,43 49,65 88,66 -10,-10 -15,-22 -15,-36 0,-31 15,-46 46,-46 27,0 46,21 46,47 z" /><path
       id="MJX-20-NCM-N-4D"
       d="M 175,108 V 622 L 407,24 c 6,-16 14,-24 23,-24 9,0 16,7 22,21 L 689,630 V 81 c 0,-18 -4,-30 -11,-35 -7,-5 -28,-7 -63,-7 H 587 V 0 c 27,2 76,3 146,3 70,0 119,-1 146,-3 v 39 h -28 c -35,0 -56,2 -63,7 -7,5 -11,17 -11,35 v 521 c 0,18 4,29 11,34 7,5 28,8 63,8 h 28 v 39 H 708 c -27,0 -29,-1 -37,-21 L 458,115 247,659 c -9,20 -12,24 -39,24 H 37 v -39 h 28 c 35,0 56,-3 63,-8 7,-5 11,-16 11,-34 V 108 C 139,91 135,77 127,64 116,47 86,39 37,39 V 0 L 157,3 277,0 v 39 c -73,0 -102,12 -102,69 z" /><path
       id="MJX-20-NCM-N-78"
       d="m 418,3 c 23,1 56,0 98,-3 v 38 c -53,0 -73,1 -94,29 L 292,235 c 43,53 72,89 88,108 28,32 67,49 118,50 v 38 c -28,-2 -56,-3 -84,-3 -37,0 -70,1 -99,3 v -38 c 19,-2 29,-11 29,-27 0,-9 -5,-20 -14,-32 l -58,-72 -74,95 c -5,7 -8,12 -8,15 0,13 12,20 35,21 v 38 l -111,-3 c -26,-1 -58,0 -97,3 v -38 c 36,0 59,-3 69,-8 10,-5 26,-22 48,-51 L 229,210 C 180,147 150,109 139,96 107,57 65,38 12,38 V 0 c 37,3 65,4 86,3 l 97,-3 v 38 c -19,3 -28,12 -28,27 0,4 1,9 3,14 6,13 33,47 81,104 L 323,89 C 334,75 340,65 343,59 343,46 331,39 307,38 V 0 Z" /><path
       id="MJX-20-NCM-N-5D"
       d="M 45,-250 H 164 V 750 H 45 c -15,0 -23,-8 -23,-24 0,-16 8,-24 23,-24 h 74 V -202 H 45 c -15,0 -23,-8 -23,-24 0,-16 8,-24 23,-24 z" /><path
       id="MJX-20-NCM-N-29"
       d="m 78,-245 c 60,46 110,114 151,205 39,87 59,169 59,248 v 84 c 0,79 -20,161 -59,248 -41,91 -91,159 -151,205 -3,2 -6,3 -7,3 -9,0 -14,-5 -14,-14 0,-4 2,-8 5,-11 52,-40 94,-106 125,-197 27,-79 41,-157 41,-234 v -84 c 0,-77 -14,-155 -41,-234 -31,-91 -73,-157 -125,-197 -3,-4 -5,-8 -5,-11 0,-9 5,-14 14,-14 1,0 4,1 7,3 z" /><path
       id="MJX-6-NCM-N-2282"
       d="M 669,4 H 378 c -69,0 -127,24 -174,72 -48,47 -72,105 -72,174 0,69 24,127 72,174 47,48 105,72 174,72 h 291 c 16,0 24,8 24,23 0,16 -8,24 -24,24 H 378 C 296,543 227,515 170,458 113,401 85,332 85,250 85,168 113,99 170,42 227,-15 296,-43 378,-43 h 291 c 16,0 24,8 24,24 0,12 -11,23 -24,23 z" /><linearGradient
       inkscape:collect="always"
       xlink:href="#linearGradient1"
       id="linearGradient2"
       x1="578.58972"
       y1="1038.5649"
       x2="594.60303"
       y2="1038.5649"
       gradientUnits="userSpaceOnUse" /></defs><sodipodi:namedview
     id="namedview32"
     pagecolor="#ffffff"
     bordercolor="#000000"
     borderopacity="0.25"
     inkscape:showpageshadow="2"
     inkscape:pageopacity="0.0"
     inkscape:pagecheckerboard="0"
     inkscape:deskcolor="#d1d1d1"
     inkscape:document-units="pt"
     inkscape:zoom="0.5744863"
     inkscape:cx="682.34873"
     inkscape:cy="310.71237"
     inkscape:window-width="2560"
     inkscape:window-height="1369"
     inkscape:window-x="-8"
     inkscape:window-y="-8"
     inkscape:window-maximized="1"
     inkscape:current-layer="edge13" /><text
     text-anchor="start"
     x="-365.44534"
     y="576.95435"
     font-family="'Times New Roman', serif"
     font-style="italic"
     font-size="14px"
     id="text14-8"
     style="font-style:normal;font-variant:normal;font-weight:normal;font-stretch:normal;font-size:119.863px;font-family:sans-serif;-inkscape-font-specification:'sans-serif, Normal';font-variant-ligatures:normal;font-variant-caps:normal;font-variant-numeric:normal;font-variant-east-asian:normal;text-anchor:start;fill:#1a1a1a"
     transform="rotate(-90)"><tspan
       sodipodi:role="line"
       id="tspan32"
       x="-365.44534"
       y="576.95435">⇓</tspan></text><g
     id="graph0-0"
     class="graph"
     transform="matrix(0.99855189,0,0,0.99855189,-659.86111,-23.416001)"><title
       id="title1-9">ocpn</title><!-- a3eb06d0&#45;115a&#45;43aa&#45;b3e4&#45;e2ea5bd3fc0b --><!-- 3f10c520&#45;c3ab&#45;4935&#45;a083&#45;d2918fac1122 --><!-- 25cb137b&#45;3dfc&#45;4767&#45;8e32&#45;b89b32b39d63 --><!-- 3f10c520&#45;c3ab&#45;4935&#45;a083&#45;d2918fac1122&#45;&gt;25cb137b&#45;3dfc&#45;4767&#45;8e32&#45;b89b32b39d63 --><!-- 06f6d3e5&#45;cebe&#45;4c12&#45;9b2d&#45;b6e28fe0a2c9 --><!-- 06f6d3e5&#45;cebe&#45;4c12&#45;9b2d&#45;b6e28fe0a2c9&#45;&gt;25cb137b&#45;3dfc&#45;4767&#45;8e32&#45;b89b32b39d63 --><!-- 2027bd29&#45;7968&#45;4cbe&#45;89bb&#45;539b28c873ce --><!-- 39373d71&#45;9f1d&#45;4a05&#45;ae03&#45;1da9c2b02412 --><!-- 2027bd29&#45;7968&#45;4cbe&#45;89bb&#45;539b28c873ce&#45;&gt;39373d71&#45;9f1d&#45;4a05&#45;ae03&#45;1da9c2b02412 --><!-- 1a7e08a4&#45;6856&#45;49d2&#45;bfdb&#45;688115e63433 --><!-- f6e495f5&#45;8a60&#45;4305&#45;aea3&#45;d0e2ce21e3a7 --><!-- 5c66cde3&#45;3766&#45;4c8f&#45;a6e5&#45;e37cf5c2faba --><!-- 41d21a2d&#45;816b&#45;4ad0&#45;b829&#45;59808dfe8a49 --><!-- 5c66cde3&#45;3766&#45;4c8f&#45;a6e5&#45;e37cf5c2faba&#45;&gt;41d21a2d&#45;816b&#45;4ad0&#45;b829&#45;59808dfe8a49 --><!-- 082659fe&#45;147e&#45;4675&#45;80c6&#45;e8957b0bedec --><!-- f78cce7e&#45;3d3c&#45;487a&#45;8c4d&#45;020a7782c5bb --><!-- de6d7e26&#45;caae&#45;485a&#45;8863&#45;54498042cbe4 --><!-- f78cce7e&#45;3d3c&#45;487a&#45;8c4d&#45;020a7782c5bb&#45;&gt;de6d7e26&#45;caae&#45;485a&#45;8863&#45;54498042cbe4 --><!-- 3bdf04fd&#45;e14d&#45;4c5b&#45;b9b4&#45;a94b37ef0e5d --><!-- 3bdf04fd&#45;e14d&#45;4c5b&#45;b9b4&#45;a94b37ef0e5d&#45;&gt;de6d7e26&#45;caae&#45;485a&#45;8863&#45;54498042cbe4 --><!-- b6d725c2&#45;a8d7&#45;49f6&#45;a521&#45;644f2de1f0be --><!-- b81e0472&#45;0a33&#45;4d01&#45;b612&#45;bb70c8e68044 --><!-- bfcfd4b0&#45;e9d5&#45;448f&#45;840a&#45;7bed74b2ee2d --><!-- b81e0472&#45;0a33&#45;4d01&#45;b612&#45;bb70c8e68044&#45;&gt;bfcfd4b0&#45;e9d5&#45;448f&#45;840a&#45;7bed74b2ee2d --><!-- 25cb137b&#45;3dfc&#45;4767&#45;8e32&#45;b89b32b39d63&#45;&gt;a3eb06d0&#45;115a&#45;43aa&#45;b3e4&#45;e2ea5bd3fc0b --><!-- 39373d71&#45;9f1d&#45;4a05&#45;ae03&#45;1da9c2b02412&#45;&gt;1a7e08a4&#45;6856&#45;49d2&#45;bfdb&#45;688115e63433 --><!-- bfcfd4b0&#45;e9d5&#45;448f&#45;840a&#45;7bed74b2ee2d&#45;&gt;f6e495f5&#45;8a60&#45;4305&#45;aea3&#45;d0e2ce21e3a7 --><!-- bfcfd4b0&#45;e9d5&#45;448f&#45;840a&#45;7bed74b2ee2d&#45;&gt;b81e0472&#45;0a33&#45;4d01&#45;b612&#45;bb70c8e68044 --><g
       id="edge7-1"
       class="edge"><title
         id="title94">bfcfd4b0-e9d5-448f-840a-7bed74b2ee2d-&gt;b81e0472-0a33-4d01-b612-bb70c8e68044</title></g><!-- 41d21a2d&#45;816b&#45;4ad0&#45;b829&#45;59808dfe8a49&#45;&gt;082659fe&#45;147e&#45;4675&#45;80c6&#45;e8957b0bedec --><!-- de6d7e26&#45;caae&#45;485a&#45;8863&#45;54498042cbe4&#45;&gt;b6d725c2&#45;a8d7&#45;49f6&#45;a521&#45;644f2de1f0be --></g><g
     id="graph0"
     class="graph"
     transform="matrix(0.99855191,0,0,0.99855191,-382.61706,-553.4465)"><title
       id="title1">ocpn</title><!-- 5aeb50f4&#45;538a&#45;4523&#45;a2a6&#45;b42dda3cdfef --><!-- d1591bcf&#45;e9d0&#45;479c&#45;a72a&#45;ea0de4b62d31 --><!-- 67ebeb03&#45;364e&#45;4002&#45;b1b5&#45;f0b6b1d74419 --><!-- d1591bcf&#45;e9d0&#45;479c&#45;a72a&#45;ea0de4b62d31&#45;&gt;67ebeb03&#45;364e&#45;4002&#45;b1b5&#45;f0b6b1d74419 --><!-- 16bcd120&#45;cf5b&#45;42d0&#45;b5b5&#45;b8bf8ce41481 --><!-- 16bcd120&#45;cf5b&#45;42d0&#45;b5b5&#45;b8bf8ce41481&#45;&gt;67ebeb03&#45;364e&#45;4002&#45;b1b5&#45;f0b6b1d74419 --><!-- 5309de80&#45;b805&#45;4e97&#45;835d&#45;b70a93f5f8f4 --><!-- 2b26134a&#45;f626&#45;410b&#45;a45e&#45;a029b34cdc98 --><!-- 5309de80&#45;b805&#45;4e97&#45;835d&#45;b70a93f5f8f4&#45;&gt;2b26134a&#45;f626&#45;410b&#45;a45e&#45;a029b34cdc98 --><!-- 149d137e&#45;cc3a&#45;4bd6&#45;a4c4&#45;5bf5d4ee9d87 --><!-- 3c7f312c&#45;b251&#45;4862&#45;90bd&#45;7cb7cdca3d61 --><!-- 4f8b40df&#45;f501&#45;4a72&#45;b396&#45;a8969f75055e --><!-- 3b7fb512&#45;443f&#45;4634&#45;9222&#45;8ed20f4e6c53 --><!-- 4f8b40df&#45;f501&#45;4a72&#45;b396&#45;a8969f75055e&#45;&gt;3b7fb512&#45;443f&#45;4634&#45;9222&#45;8ed20f4e6c53 --><!-- 88b03ca2&#45;2d1d&#45;4ae2&#45;aba7&#45;a2ffd2afe9cc --><!-- 66a082ff&#45;ef28&#45;41cd&#45;bbb9&#45;bb5e628895fc --><!-- 5cdcb63d&#45;f13b&#45;4365&#45;af70&#45;02775dc02731 --><!-- 66a082ff&#45;ef28&#45;41cd&#45;bbb9&#45;bb5e628895fc&#45;&gt;5cdcb63d&#45;f13b&#45;4365&#45;af70&#45;02775dc02731 --><!-- 7b79964b&#45;8e24&#45;4412&#45;ae34&#45;456c684b2e6b --><!-- 7b79964b&#45;8e24&#45;4412&#45;ae34&#45;456c684b2e6b&#45;&gt;5cdcb63d&#45;f13b&#45;4365&#45;af70&#45;02775dc02731 --><!-- 6ce5cbc4&#45;466a&#45;4fe7&#45;b210&#45;ba335180408c --><!-- eee152b4&#45;6050&#45;49ab&#45;9f50&#45;42da341c0c95 --><!-- e3c1e37d&#45;03c3&#45;44c6&#45;8a35&#45;25630120d462 --><!-- eee152b4&#45;6050&#45;49ab&#45;9f50&#45;42da341c0c95&#45;&gt;e3c1e37d&#45;03c3&#45;44c6&#45;8a35&#45;25630120d462 --><!-- 67ebeb03&#45;364e&#45;4002&#45;b1b5&#45;f0b6b1d74419&#45;&gt;5aeb50f4&#45;538a&#45;4523&#45;a2a6&#45;b42dda3cdfef --><!-- 2b26134a&#45;f626&#45;410b&#45;a45e&#45;a029b34cdc98&#45;&gt;149d137e&#45;cc3a&#45;4bd6&#45;a4c4&#45;5bf5d4ee9d87 --><!-- e3c1e37d&#45;03c3&#45;44c6&#45;8a35&#45;25630120d462&#45;&gt;3c7f312c&#45;b251&#45;4862&#45;90bd&#45;7cb7cdca3d61 --><!-- e3c1e37d&#45;03c3&#45;44c6&#45;8a35&#45;25630120d462&#45;&gt;eee152b4&#45;6050&#45;49ab&#45;9f50&#45;42da341c0c95 --><!-- 3b7fb512&#45;443f&#45;4634&#45;9222&#45;8ed20f4e6c53&#45;&gt;88b03ca2&#45;2d1d&#45;4ae2&#45;aba7&#45;a2ffd2afe9cc --><!-- 5cdcb63d&#45;f13b&#45;4365&#45;af70&#45;02775dc02731&#45;&gt;6ce5cbc4&#45;466a&#45;4fe7&#45;b210&#45;ba335180408c --><path
       style="fill:none;fill-opacity:1;stroke:#000000;stroke-width:1.23838;stroke-linecap:butt;stroke-linejoin:bevel;stroke-dasharray:none;stroke-opacity:1;marker-start:url(#marker24);marker-end:url(#marker25)"
       d="m 470.4402,1057.7268 c 61.35988,93.2582 134.99176,2.2418 134.99176,2.2418"
       id="path23"
       sodipodi:nodetypes="cc" /><g
       id="node9-5"
       class="node"
       transform="matrix(0.99997661,0,0,0.99997661,-367.61051,1056.5554)"><title
         id="title58">721abccc-1774-4e12-98c4-2c454cac28b4</title><ellipse
         fill="#ffa500"
         stroke="#000000"
         cx="810.87"
         cy="-325.04999"
         rx="59.57"
         ry="49.849998"
         id="ellipse58" /><text
         text-anchor="start"
         x="796.25"
         y="-342"
         font-family="'Times New Roman', serif"
         font-style="italic"
         font-size="14px"
         id="text59-6">Mold</text><polygon
         fill="#000000"
         stroke="none"
         points="845,-334.8 776.75,-334.8 776.75,-335.8 845,-335.8 "
         id="polygon59" /><text
         text-anchor="start"
         x="778.75"
         y="-319.5"
         font-family="'Times New Roman', serif"
         font-size="14px"
         id="text60-1">→</text><text
         text-anchor="start"
         x="797"
         y="-319.5"
         font-family="'Times New Roman', serif"
         font-size="14px"
         id="text61-8">Trim</text><text
         text-anchor="start"
         x="797.75"
         y="-299"
         font-family="'Times New Roman', serif"
         font-size="14px"
         id="text62-1">Pack</text><text
         text-anchor="start"
         x="828.75"
         y="-299"
         font-family="'Times New Roman', serif"
         font-size="14px"
         id="text63-8">→</text></g><g
       id="node17-5"
       class="node"
       transform="matrix(0.99997661,0,0,0.99997661,-367.61051,1056.5554)"><title
         id="title63">2174e07b-013c-4496-b326-354e03a74f1c</title><polygon
         fill="none"
         stroke="#000000"
         points="842.5,-152.2 842.5,-222.7 779.25,-222.7 779.25,-152.2 "
         id="polygon63" /><text
         text-anchor="start"
         x="797.37"
         y="-204.39999"
         font-family="'Times New Roman', serif"
         font-style="italic"
         font-size="14px"
         id="text64-6">Pack</text><polygon
         fill="#000000"
         stroke="none"
         points="834.5,-197.2 787.25,-197.2 787.25,-198.2 834.5,-198.2 "
         id="polygon64" /><text
         text-anchor="start"
         x="789.25"
         y="-181.89999"
         font-family="'Times New Roman', serif"
         font-size="14px"
         id="text65-5">→</text><text
         text-anchor="start"
         x="807.5"
         y="-181.89999"
         font-family="'Times New Roman', serif"
         font-size="14px"
         fill="#ffa500"
         id="text66-9">1</text><text
         text-anchor="start"
         x="807.5"
         y="-161.39999"
         font-family="'Times New Roman', serif"
         font-size="14px"
         fill="#32cd32"
         id="text67-2">1</text><text
         text-anchor="start"
         x="818.25"
         y="-161.39999"
         font-family="'Times New Roman', serif"
         font-size="14px"
         id="text68-6">→</text></g><g
       id="edge9"
       class="edge"
       transform="matrix(0.99997661,0,0,0.99997661,-367.61051,1056.5554)"><title
         id="title68-5">721abccc-1774-4e12-98c4-2c454cac28b4-&gt;2174e07b-013c-4496-b326-354e03a74f1c</title><path
         fill="none"
         stroke="#ffa500"
         d="m 810.87,-274.71 c 0,13.1 0,27.2 0,40.12"
         id="path68-2" /><polygon
         fill="#ffa500"
         stroke="#ffa500"
         points="807.37,-234.62 814.37,-234.62 810.87,-224.62 "
         id="polygon68" /><text
         text-anchor="start"
         x="810.87"
         y="-243.89999"
         font-family="'Times New Roman', serif"
         font-size="14px"
         fill="#ffa500"
         id="text69">1</text></g><g
       id="node10-3"
       class="node"
       transform="matrix(0.99997661,0,0,0.99997661,-367.61051,1056.5554)"><title
         id="title69-2">93f1abca-a137-456f-b94a-402099db9ce2</title><ellipse
         fill="#32cd32"
         stroke="#000000"
         cx="810.87"
         cy="-49.849998"
         rx="58.509998"
         ry="49.849998"
         id="ellipse69-1" /><text
         text-anchor="start"
         x="789.12"
         y="-66.800003"
         font-family="'Times New Roman', serif"
         font-style="italic"
         font-size="14px"
         id="text70-2">Product</text><polygon
         fill="#000000"
         stroke="none"
         points="844.25,-59.6 777.5,-59.6 777.5,-60.6 844.25,-60.6 "
         id="polygon70-2" /><text
         text-anchor="start"
         x="779.5"
         y="-44.299999"
         font-family="'Times New Roman', serif"
         font-size="14px"
         id="text71-8">→</text><text
         text-anchor="start"
         x="797.75"
         y="-44.299999"
         font-family="'Times New Roman', serif"
         font-size="14px"
         id="text72-8">Pack</text><text
         text-anchor="start"
         x="797.75"
         y="-23.799999"
         font-family="'Times New Roman', serif"
         font-size="14px"
         id="text73-8">Pack</text><text
         text-anchor="start"
         x="828"
         y="-23.799999"
         font-family="'Times New Roman', serif"
         font-size="14px"
         id="text74-7">→</text></g><g
       id="edge10"
       class="edge"
       transform="matrix(0.99997661,0,0,0.99997661,-367.61051,1056.5554)"><title
         id="title100">2174e07b-013c-4496-b326-354e03a74f1c-&gt;93f1abca-a137-456f-b94a-402099db9ce2</title><path
         fill="none"
         stroke="#32cd32"
         d="m 810.87,-151.88 c 0,12.26 0,26.44 0,40.24"
         id="path100" /><polygon
         fill="#32cd32"
         stroke="#32cd32"
         points="807.37,-111.71 814.37,-111.71 810.87,-101.71 "
         id="polygon100" /><text
         text-anchor="start"
         x="810.87"
         y="-120.9"
         font-family="'Times New Roman', serif"
         font-size="14px"
         fill="#32cd32"
         id="text101">1</text></g><g
       id="node18"
       class="node"
       transform="matrix(0.99997661,0,0,0.99997661,-307.62001,1057.2102)"><title
         id="title79">7b029352-8bbf-4eb6-8513-29fbc2b63264</title><polygon
         fill="none"
         stroke="#000000"
         points="1054.62,-222.7 977.12,-222.7 977.12,-152.2 1054.62,-152.2 "
         id="polygon79" /><text
         text-anchor="start"
         x="1002.37"
         y="-204.39999"
         font-family="'Times New Roman', serif"
         font-style="italic"
         font-size="14px"
         id="text80">Pack</text><polygon
         fill="#000000"
         stroke="none"
         points="985.12,-197.2 985.12,-198.2 1046.62,-198.2 1046.62,-197.2 "
         id="polygon80" /><text
         text-anchor="start"
         x="987.12"
         y="-181.89999"
         font-family="'Times New Roman', serif"
         font-size="14px"
         id="text81">→</text><text
         text-anchor="start"
         x="1005.37"
         y="-182.89999"
         font-family="'Times New Roman', serif"
         font-size="14px"
         fill="#ffa500"
         id="text82">1</text><text
         text-anchor="start"
         x="1012.12"
         y="-182.89999"
         font-family="'Times New Roman', serif"
         font-size="14px"
         id="text83">,</text><text
         text-anchor="start"
         x="1019.62"
         y="-182.89999"
         font-family="'Times New Roman', serif"
         font-size="14px"
         fill="#32cd32"
         id="text84">1</text><text
         text-anchor="start"
         x="1012.5"
         y="-161.39999"
         font-family="'Times New Roman', serif"
         font-size="14px"
         fill="#32cd32"
         id="text85">1</text><text
         text-anchor="start"
         x="1030.37"
         y="-161.39999"
         font-family="'Times New Roman', serif"
         font-size="14px"
         id="text86">→</text></g><g
       id="node12"
       class="node"
       transform="matrix(0.99997661,0,0,0.99997661,-460.44624,1332.8515)"><title
         id="title87">69b6817d-5fe5-45c6-a2f4-3177e81114d1</title><ellipse
         fill="#32cd32"
         stroke="#000000"
         cx="1083.87"
         cy="-325.04999"
         rx="58.509998"
         ry="49.849998"
         id="ellipse87" /><text
         text-anchor="start"
         x="1062.12"
         y="-342"
         font-family="'Times New Roman', serif"
         font-style="italic"
         font-size="14px"
         id="text88">Product</text><polygon
         fill="#000000"
         stroke="none"
         points="1117.25,-334.8 1050.5,-334.8 1050.5,-335.8 1117.25,-335.8 "
         id="polygon88" /><text
         text-anchor="start"
         x="1052.5"
         y="-319.5"
         font-family="'Times New Roman', serif"
         font-size="14px"
         id="text89">→</text><text
         text-anchor="start"
         x="1070.75"
         y="-319.5"
         font-family="'Times New Roman', serif"
         font-size="14px"
         id="text90">Pack</text><text
         text-anchor="start"
         x="1070.75"
         y="-299"
         font-family="'Times New Roman', serif"
         font-size="14px"
         id="text91">Pack</text><text
         text-anchor="start"
         x="1101"
         y="-299"
         font-family="'Times New Roman', serif"
         font-size="14px"
         id="text92">→</text></g><g
       id="node13"
       class="node"
       transform="matrix(0.99997661,0,0,0.99997661,-225.43551,1056.2868)"><title
         id="title93">78b56c95-548c-422b-ae06-e79e7cfd5640</title><polygon
         fill="#32cd32"
         stroke="#000000"
         points="1068.3,-65.7 1037.59,-88.12 994.16,-88.12 963.44,-65.7 963.44,-34 994.16,-11.58 1037.59,-11.58 1068.3,-34 "
         id="polygon93" /><polygon
         fill="none"
         stroke="#000000"
         points="1072.3,-67.73 1038.89,-92.12 992.85,-92.12 959.44,-67.73 959.44,-31.97 992.85,-7.58 1038.89,-7.58 1072.3,-31.97 "
         id="polygon94" /><text
         text-anchor="start"
         x="994.12"
         y="-56.549999"
         font-family="'Times New Roman', serif"
         font-style="italic"
         font-size="14px"
         id="text94">Product</text><polygon
         fill="#000000"
         stroke="none"
         points="989.62,-50.35 1042.12,-50.35 1042.12,-49.35 989.62,-49.35 "
         id="polygon95" /><text
         text-anchor="start"
         x="991.62"
         y="-34.049999"
         font-family="'Times New Roman', serif"
         font-size="14px"
         id="text95">→</text><text
         text-anchor="start"
         x="1009.87"
         y="-34.049999"
         font-family="'Times New Roman', serif"
         font-size="14px"
         id="text96">Pack</text></g><g
       id="edge13"
       class="edge"
       transform="matrix(0.99997661,0,0,0.99997661,-291.46014,1057.6719)"><title
         id="title101">7b029352-8bbf-4eb6-8513-29fbc2b63264-&gt;78b56c95-548c-422b-ae06-e79e7cfd5640</title><path
         fill="none"
         stroke="#32cd32"
         d="m 1014.2205,-151.95026 c 12.8872,13.59331 27.6222,29.13576 42.1785,44.48972 4.3206,4.55738 3.3201,4.11925 7.5563,8.587518"
         id="path101"
         style="stroke-width:0.992328;stroke-dasharray:none"
         sodipodi:nodetypes="csc" /><path
         fill="none"
         stroke="#32cd32"
         d="m 993.71248,-152.36153 c -10.2853,15.65469 -22.0455,33.55404 -33.663,51.23631 -3.44836,5.248452 -3.25069,4.174267 -6.63158,9.320175"
         id="path101-0"
         style="stroke-width:0.992328;stroke-dasharray:none"
         sodipodi:nodetypes="csc" /><polygon
         fill="#32cd32"
         stroke="#32cd32"
         points="1019.37,-104.13 1015.87,-94.13 1012.37,-104.13 "
         id="polygon101"
         transform="rotate(-38.895142,1039.6691,-166.55395)" /><text
         text-anchor="start"
         x="1044.6334"
         y="-121.15125"
         font-family="'Times New Roman', serif"
         font-size="14px"
         fill="#32cd32"
         id="text102">1</text><text
         text-anchor="start"
         x="964.97333"
         y="-121.48421"
         font-family="'Times New Roman', serif"
         font-size="14px"
         fill="#32cd32"
         id="text102-9">1</text><polygon
         fill="#32cd32"
         stroke="#32cd32"
         points="1019.37,-104.13 1015.87,-94.13 1012.37,-104.13 "
         id="polygon101-9"
         transform="rotate(34.543331,978.43344,-194.49757)" /></g><g
       id="node9-5-5"
       class="node"
       transform="matrix(0.99997661,0,0,0.99997661,-100.75958,1057.3092)"><title
         id="title58-3">721abccc-1774-4e12-98c4-2c454cac28b4</title><ellipse
         fill="#ffa500"
         stroke="#000000"
         cx="810.87"
         cy="-325.04999"
         rx="59.57"
         ry="49.849998"
         id="ellipse58-0" /><text
         text-anchor="start"
         x="796.25"
         y="-342"
         font-family="'Times New Roman', serif"
         font-style="italic"
         font-size="14px"
         id="text59-6-9">Mold</text><polygon
         fill="#000000"
         stroke="none"
         points="845,-335.8 845,-334.8 776.75,-334.8 776.75,-335.8 "
         id="polygon59-9" /><text
         text-anchor="start"
         x="778.75"
         y="-319.5"
         font-family="'Times New Roman', serif"
         font-size="14px"
         id="text60-1-5">→</text><text
         text-anchor="start"
         x="797"
         y="-319.5"
         font-family="'Times New Roman', serif"
         font-size="14px"
         id="text61-8-1">Trim</text><text
         text-anchor="start"
         x="797.75"
         y="-299"
         font-family="'Times New Roman', serif"
         font-size="14px"
         id="text62-1-1">Pack</text><text
         text-anchor="start"
         x="828.75"
         y="-299"
         font-family="'Times New Roman', serif"
         font-size="14px"
         id="text63-8-1">→</text></g><g
       id="node9-5-5-2"
       class="node"
       transform="matrix(0.99997661,0,0,0.99997661,274.59783,928.67519)"><title
         id="title58-3-3">721abccc-1774-4e12-98c4-2c454cac28b4</title><ellipse
         fill="#ffa500"
         stroke="#000000"
         cx="810.87"
         cy="-325.04999"
         rx="59.57"
         ry="49.849998"
         id="ellipse58-0-2" /><text
         text-anchor="start"
         x="796.25"
         y="-342"
         font-family="'Times New Roman', serif"
         font-style="italic"
         font-size="14px"
         id="text59-6-9-9">Mold</text><polygon
         fill="#000000"
         stroke="none"
         points="845,-334.8 776.75,-334.8 776.75,-335.8 845,-335.8 "
         id="polygon59-9-4" /><text
         text-anchor="start"
         x="778.75"
         y="-319.5"
         font-family="'Times New Roman', serif"
         font-size="14px"
         id="text60-1-5-9">→</text><text
         text-anchor="start"
         x="797"
         y="-319.5"
         font-family="'Times New Roman', serif"
         font-size="14px"
         id="text61-8-1-2">Trim</text><text
         text-anchor="start"
         x="797.75"
         y="-299"
         font-family="'Times New Roman', serif"
         font-size="14px"
         id="text62-1-1-4">Pack</text><text
         text-anchor="start"
         x="828.75"
         y="-299"
         font-family="'Times New Roman', serif"
         font-size="14px"
         id="text63-8-1-9">→</text></g><g
       id="edge9-2"
       class="edge"
       transform="matrix(0.99997661,0,0,0.99997661,-100.75958,1057.3092)"><title
         id="title68-5-3">721abccc-1774-4e12-98c4-2c454cac28b4-&gt;2174e07b-013c-4496-b326-354e03a74f1c</title><path
         fill="none"
         stroke="#ffa500"
         d="m 810.87,-274.71 c 0,13.1 0,27.2 0,40.12"
         id="path68-2-3" /><polygon
         fill="#ffa500"
         stroke="#ffa500"
         points="814.37,-234.62 810.87,-224.62 807.37,-234.62 "
         id="polygon68-9" /><text
         text-anchor="start"
         x="810.87"
         y="-243.89999"
         font-family="'Times New Roman', serif"
         font-size="14px"
         fill="#ffa500"
         id="text69-7">1</text></g></g><text
     xml:space="preserve"
     style="font-style:normal;font-variant:normal;font-weight:normal;font-stretch:normal;font-size:29.9658px;font-family:sans-serif;-inkscape-font-specification:'sans-serif, Normal';font-variant-ligatures:normal;font-variant-caps:normal;font-variant-numeric:normal;font-variant-east-asian:normal;text-align:start;writing-mode:lr-tb;direction:ltr;text-anchor:start;fill:#000000;fill-opacity:1;stroke:none;stroke-width:1.55223;stroke-linejoin:bevel"
     x="183.68866"
     y="106.98218"
     id="text1"><tspan
       sodipodi:role="line"
       id="tspan1"
       style="font-style:normal;font-variant:normal;font-weight:normal;font-stretch:normal;font-size:29.9658px;font-family:sans-serif;-inkscape-font-specification:'sans-serif, Normal';font-variant-ligatures:normal;font-variant-caps:normal;font-variant-numeric:normal;font-variant-east-asian:normal;fill:#000000;fill-opacity:1;stroke:none;stroke-width:1.55223"
       x="183.68866"
       y="106.98218">=</tspan></text><text
     xml:space="preserve"
     style="font-style:normal;font-variant:normal;font-weight:normal;font-stretch:normal;font-size:29.9658px;font-family:sans-serif;-inkscape-font-specification:'sans-serif, Normal';font-variant-ligatures:normal;font-variant-caps:normal;font-variant-numeric:normal;font-variant-east-asian:normal;text-align:start;writing-mode:lr-tb;direction:ltr;text-anchor:start;fill:#000000;fill-opacity:1;stroke:none;stroke-width:1.55223;stroke-linejoin:bevel"
     x="138.62991"
     y="565.98895"
     id="text1-5"><tspan
       sodipodi:role="line"
       id="tspan1-3"
       style="font-style:normal;font-variant:normal;font-weight:normal;font-stretch:normal;font-size:29.9658px;font-family:sans-serif;-inkscape-font-specification:'sans-serif, Normal';font-variant-ligatures:normal;font-variant-caps:normal;font-variant-numeric:normal;font-variant-east-asian:normal;fill:#000000;fill-opacity:1;stroke:none;stroke-width:1.55223"
       x="138.62991"
       y="565.98895">=</tspan></text><path
     style="fill:none;stroke:#000000;stroke-width:1.16369;stroke-linejoin:bevel;stroke-dasharray:none;marker-start:url(#ArrowWide);marker-end:url(#marker4)"
     d="m 114.14985,142.3391 c 85.58248,-75.679638 165.95842,-5.85617 165.95842,-5.85617"
     id="path3" /><g
     id="node5"
     class="node"
     transform="matrix(0.99870481,0,0,0.99870481,522.04419,633.84245)"><title
       id="title36">69b6817d-5fe5-45c6-a2f4-3177e81114d1</title><ellipse
       fill="#32cd32"
       stroke="#000000"
       cx="191.58"
       cy="-309.89001"
       rx="58.509998"
       ry="49.849998"
       id="ellipse36" /><text
       text-anchor="start"
       x="169.83"
       y="-326.84"
       font-family="'Times New Roman', serif"
       font-style="italic"
       font-size="14px"
       id="text37">Product</text><polygon
       fill="#000000"
       stroke="none"
       points="224.95,-319.64 158.2,-319.64 158.2,-320.64 224.95,-320.64 "
       id="polygon37" /><text
       text-anchor="start"
       x="160.2"
       y="-304.34"
       font-family="'Times New Roman', serif"
       font-size="14px"
       id="text38">→</text><text
       text-anchor="start"
       x="178.45"
       y="-304.34"
       font-family="'Times New Roman', serif"
       font-size="14px"
       id="text39">Pack</text><text
       text-anchor="start"
       x="178.45"
       y="-283.84"
       font-family="'Times New Roman', serif"
       font-size="14px"
       id="text40">Pack</text><text
       text-anchor="start"
       x="208.7"
       y="-283.84"
       font-family="'Times New Roman', serif"
       font-size="14px"
       id="text41">→</text></g><g
     id="node12-5"
     class="node"
     transform="matrix(0.99870481,0,0,0.99870481,522.04419,633.84245)"><title
       id="title41">7b029352-8bbf-4eb6-8513-29fbc2b63264</title><polygon
       fill="none"
       stroke="#000000"
       points="274.33,-137.04 274.33,-207.54 196.83,-207.54 196.83,-137.04 "
       id="polygon41" /><text
       text-anchor="start"
       x="222.08"
       y="-189.24001"
       font-family="'Times New Roman', serif"
       font-style="italic"
       font-size="14px"
       id="text42">Pack</text><polygon
       fill="#000000"
       stroke="none"
       points="266.33,-182.04 204.83,-182.04 204.83,-183.04 266.33,-183.04 "
       id="polygon42" /><text
       text-anchor="start"
       x="206.83"
       y="-166.74001"
       font-family="'Times New Roman', serif"
       font-size="14px"
       id="text43">→</text><text
       text-anchor="start"
       x="225.08"
       y="-167.74001"
       font-family="'Times New Roman', serif"
       font-size="14px"
       fill="#ffa500"
       id="text44">1</text><text
       text-anchor="start"
       x="231.83"
       y="-167.74001"
       font-family="'Times New Roman', serif"
       font-size="14px"
       id="text45">, </text><text
       text-anchor="start"
       x="239.33"
       y="-167.74001"
       font-family="'Times New Roman', serif"
       font-size="14px"
       fill="#32cd32"
       id="text46">1</text><text
       text-anchor="start"
       x="232.2"
       y="-146.24001"
       font-family="'Times New Roman', serif"
       font-size="14px"
       fill="#32cd32"
       id="text47">1</text><text
       text-anchor="start"
       x="250.08"
       y="-146.24001"
       font-family="'Times New Roman', serif"
       font-size="14px"
       id="text48">→</text></g><g
     id="edge12"
     class="edge"
     transform="matrix(0.99870481,0,0,0.99870481,522.04419,633.84245)"><title
       id="title48">69b6817d-5fe5-45c6-a2f4-3177e81114d1-&gt;7b029352-8bbf-4eb6-8513-29fbc2b63264</title><path
       fill="none"
       stroke="#32cd32"
       d="m 206.96,-261.46 c 4.54,13.98 9.49,29.24 13.98,43.07"
       id="path48" /><polygon
       fill="#32cd32"
       stroke="#32cd32"
       points="217.54,-217.53 224.2,-219.69 223.96,-209.1 "
       id="polygon48" /><text
       text-anchor="start"
       x="217.52"
       y="-228.74001"
       font-family="'Times New Roman', serif"
       font-size="14px"
       fill="#32cd32"
       id="text49">1</text></g><g
     id="node6"
     class="node"
     transform="matrix(0.99870481,0,0,0.99870481,522.04419,633.84245)"><title
       id="title49">78b56c95-548c-422b-ae06-e79e7cfd5640</title><polygon
       fill="#32cd32"
       stroke="#000000"
       points="213.86,-80.54 183.15,-58.12 183.15,-26.42 213.86,-4 257.29,-4 288,-26.42 288,-58.12 257.29,-80.54 "
       id="polygon49" /><polygon
       fill="none"
       stroke="#000000"
       points="212.55,-84.54 179.15,-60.15 179.15,-24.38 212.55,0 258.6,0 292,-24.38 292,-60.15 258.6,-84.54 "
       id="polygon50" /><text
       text-anchor="start"
       x="213.83"
       y="-48.970001"
       font-family="'Times New Roman', serif"
       font-style="italic"
       font-size="14px"
       id="text50">Product</text><polygon
       fill="#000000"
       stroke="none"
       points="261.83,-41.77 209.33,-41.77 209.33,-42.77 261.83,-42.77 "
       id="polygon51" /><text
       text-anchor="start"
       x="211.33"
       y="-26.469999"
       font-family="'Times New Roman', serif"
       font-size="14px"
       id="text51">→</text><text
       text-anchor="start"
       x="229.58"
       y="-26.469999"
       font-family="'Times New Roman', serif"
       font-size="14px"
       id="text52">Pack</text></g><g
     id="node11"
     class="node"
     transform="matrix(0.99870481,0,0,0.99870481,522.04419,633.84245)"><title
       id="title65">2174e07b-013c-4496-b326-354e03a74f1c</title><polygon
       fill="none"
       stroke="#000000"
       points="223.2,-412.24 223.2,-482.74 159.95,-482.74 159.95,-412.24 "
       id="polygon65" /><text
       text-anchor="start"
       x="178.08"
       y="-464.44"
       font-family="'Times New Roman', serif"
       font-style="italic"
       font-size="14px"
       id="text66">Pack</text><polygon
       fill="#000000"
       stroke="none"
       points="215.2,-457.24 167.95,-457.24 167.95,-458.24 215.2,-458.24 "
       id="polygon66" /><text
       text-anchor="start"
       x="169.95"
       y="-441.94"
       font-family="'Times New Roman', serif"
       font-size="14px"
       id="text67">→</text><text
       text-anchor="start"
       x="188.2"
       y="-441.94"
       font-family="'Times New Roman', serif"
       font-size="14px"
       fill="#ffa500"
       id="text68">1</text><text
       text-anchor="start"
       x="188.2"
       y="-421.44"
       font-family="'Times New Roman', serif"
       font-size="14px"
       fill="#32cd32"
       id="text69-6">1</text><text
       text-anchor="start"
       x="198.95"
       y="-421.44"
       font-family="'Times New Roman', serif"
       font-size="14px"
       id="text70">→</text></g><g
     id="edge9-0"
     class="edge"
     transform="matrix(0.99870481,0,0,0.99870481,522.04419,633.84245)"><title
       id="title70">ece2f0a2-1600-4d77-a280-0f019df8a08d-&gt;2174e07b-013c-4496-b326-354e03a74f1c</title><path
       fill="none"
       stroke="#ffa500"
       d="m 171.77,-535.13 c 3.06,13.37 6.36,27.81 9.37,41"
       id="path70" /><polygon
       fill="#ffa500"
       stroke="#ffa500"
       points="177.72,-493.37 184.55,-494.93 183.37,-484.4 "
       id="polygon70" /><text
       text-anchor="start"
       x="178.85001"
       y="-503.94"
       font-family="'Times New Roman', serif"
       font-size="14px"
       fill="#ffa500"
       id="text71">1</text></g><g
     id="edge11"
     class="edge"
     transform="matrix(0.99870481,0,0,0.99870481,522.04419,633.84245)"><title
       id="title71">ece2f0a2-1600-4d77-a280-0f019df8a08d-&gt;7b029352-8bbf-4eb6-8513-29fbc2b63264</title><path
       fill="none"
       stroke="#ffa500"
       d="m 199.4,-537.77 c 12.18,16.5 24.65,35.79 33.18,55.03 40.37,91.17 40.41,123.91 27,222.7 -1.86,13.67 -5.29,28.23 -8.99,41.44"
       id="path71" /><polygon
       fill="#ffa500"
       stroke="#ffa500"
       points="247.33,-219.91 254.05,-217.94 247.88,-209.32 "
       id="polygon71" /><text
       text-anchor="start"
       x="265.73001"
       y="-380.94"
       font-family="'Times New Roman', serif"
       font-size="14px"
       fill="#ffa500"
       id="text72">1</text></g><g
     id="edge10-9"
     class="edge"
     transform="matrix(0.99870481,0,0,0.99870481,522.04419,633.84245)"><title
       id="title76">2174e07b-013c-4496-b326-354e03a74f1c-&gt;69b6817d-5fe5-45c6-a2f4-3177e81114d1</title><path
       fill="none"
       stroke="#32cd32"
       d="m 191.58,-411.92 c 0,12.26 0,26.45 0,40.24"
       id="path76" /><polygon
       fill="#32cd32"
       stroke="#32cd32"
       points="188.08,-371.75 195.08,-371.75 191.58,-361.75 "
       id="polygon76" /><text
       text-anchor="start"
       x="191.58"
       y="-380.94"
       font-family="'Times New Roman', serif"
       font-size="14px"
       fill="#32cd32"
       id="text77">1</text></g><g
     id="edge13-8"
     class="edge"
     transform="matrix(0.99870481,0,0,0.99870481,522.04419,633.84245)"><title
       id="title77">7b029352-8bbf-4eb6-8513-29fbc2b63264-&gt;78b56c95-548c-422b-ae06-e79e7cfd5640</title><path
       fill="none"
       stroke="#32cd32"
       d="m 235.58,-136.64 c 0,12.49 0,26.89 0,40.59"
       id="path77" /><polygon
       fill="#32cd32"
       stroke="#32cd32"
       points="232.08,-96.29 239.08,-96.28 235.58,-86.28 "
       id="polygon77" /><text
       text-anchor="start"
       x="235.58"
       y="-105.74"
       font-family="'Times New Roman', serif"
       font-size="14px"
       fill="#32cd32"
       id="text78">1</text></g></svg>
