<?xml version="1.0" encoding="UTF-8" standalone="no"?>
<!DOCTYPE svg PUBLIC "-//W3C//DTD SVG 1.1//EN"
 "http://www.w3.org/Graphics/SVG/1.1/DTD/svg11.dtd">
<!-- Generated by graphviz version 12.2.1 (20241206.2353)
 -->
<!-- Title: ocpn Pages: 1 -->
<svg width="406pt" height="1916pt"
 viewBox="0.00 0.00 405.75 1916.00" xmlns="http://www.w3.org/2000/svg" xmlns:xlink="http://www.w3.org/1999/xlink">
<g id="graph0" class="graph" transform="scale(1 1) rotate(0) translate(4 1912)">
<title>ocpn</title>
<polygon fill="white" stroke="none" points="-4,4 -4,-1912 401.75,-1912 401.75,4 -4,4"/>
<!-- a5d30b8e&#45;49ad&#45;4f5a&#45;9cdc&#45;4e8b1935d548 -->
<g id="node1" class="node">
<title>a5d30b8e&#45;49ad&#45;4f5a&#45;9cdc&#45;4e8b1935d548</title>
<polygon fill="#ffa500" stroke="black" points="160.94,-1882.54 160.94,-1897.46 115.72,-1908 51.78,-1908 6.56,-1897.46 6.56,-1882.54 51.78,-1872 115.72,-1872 160.94,-1882.54"/>
<text text-anchor="middle" x="83.75" y="-1884.95" font-family="Times New Roman,serif" font-size="14.00">Customer Order</text>
</g>
<!-- eb63d9ed&#45;4d63&#45;46bd&#45;ae44&#45;4c3d9afd4ef4 -->
<g id="node20" class="node">
<title>eb63d9ed&#45;4d63&#45;46bd&#45;ae44&#45;4c3d9afd4ef4</title>
<polygon fill="none" stroke="black" points="160.38,-1836 7.12,-1836 7.12,-1800 160.38,-1800 160.38,-1836"/>
<text text-anchor="middle" x="83.75" y="-1812.95" font-family="Times New Roman,serif" font-size="14.00">Register Customer Order</text>
</g>
<!-- a5d30b8e&#45;49ad&#45;4f5a&#45;9cdc&#45;4e8b1935d548&#45;&gt;eb63d9ed&#45;4d63&#45;46bd&#45;ae44&#45;4c3d9afd4ef4 -->
<g id="edge1" class="edge">
<title>a5d30b8e&#45;49ad&#45;4f5a&#45;9cdc&#45;4e8b1935d548&#45;&gt;eb63d9ed&#45;4d63&#45;46bd&#45;ae44&#45;4c3d9afd4ef4</title>
<path fill="none" stroke="#ffa500" d="M83.75,-1871.7C83.75,-1864.41 83.75,-1855.73 83.75,-1847.54"/>
<polygon fill="#ffa500" stroke="#ffa500" points="87.25,-1847.62 83.75,-1837.62 80.25,-1847.62 87.25,-1847.62"/>
</g>
<!-- 61638c10&#45;ff24&#45;4080&#45;80d9&#45;d4f9014f12d5 -->
<g id="node2" class="node">
<title>61638c10&#45;ff24&#45;4080&#45;80d9&#45;d4f9014f12d5</title>
<ellipse fill="#ffa500" stroke="black" cx="83.75" cy="-1746" rx="18" ry="18"/>
</g>
<!-- 7f8f02b6&#45;8d45&#45;46d2&#45;bf48&#45;c24517430e3b -->
<g id="node21" class="node">
<title>7f8f02b6&#45;8d45&#45;46d2&#45;bf48&#45;c24517430e3b</title>
<polygon fill="none" stroke="black" points="167.5,-1692 0,-1692 0,-1656 167.5,-1656 167.5,-1692"/>
<text text-anchor="middle" x="83.75" y="-1668.95" font-family="Times New Roman,serif" font-size="14.00">Create Transport Document</text>
</g>
<!-- 61638c10&#45;ff24&#45;4080&#45;80d9&#45;d4f9014f12d5&#45;&gt;7f8f02b6&#45;8d45&#45;46d2&#45;bf48&#45;c24517430e3b -->
<g id="edge3" class="edge">
<title>61638c10&#45;ff24&#45;4080&#45;80d9&#45;d4f9014f12d5&#45;&gt;7f8f02b6&#45;8d45&#45;46d2&#45;bf48&#45;c24517430e3b</title>
<path fill="none" stroke="#ffa500" d="M83.75,-1727.7C83.75,-1720.41 83.75,-1711.73 83.75,-1703.54"/>
<polygon fill="#ffa500" stroke="#ffa500" points="87.25,-1703.62 83.75,-1693.62 80.25,-1703.62 87.25,-1703.62"/>
</g>
<!-- 4fa8613d&#45;420a&#45;4878&#45;ac87&#45;db6893bab9ff -->
<g id="node3" class="node">
<title>4fa8613d&#45;420a&#45;4878&#45;ac87&#45;db6893bab9ff</title>
<ellipse fill="#7b68ee" stroke="black" cx="83.75" cy="-1602" rx="18" ry="18"/>
</g>
<!-- 8b7985a2&#45;f174&#45;494e&#45;9bc1&#45;55e56896a921 -->
<g id="node22" class="node">
<title>8b7985a2&#45;f174&#45;494e&#45;9bc1&#45;55e56896a921</title>
<polygon fill="none" stroke="black" points="130.75,-1548 36.75,-1548 36.75,-1512 130.75,-1512 130.75,-1548"/>
<text text-anchor="middle" x="83.75" y="-1524.95" font-family="Times New Roman,serif" font-size="14.00">Book Vehicles</text>
</g>
<!-- 4fa8613d&#45;420a&#45;4878&#45;ac87&#45;db6893bab9ff&#45;&gt;8b7985a2&#45;f174&#45;494e&#45;9bc1&#45;55e56896a921 -->
<g id="edge5" class="edge">
<title>4fa8613d&#45;420a&#45;4878&#45;ac87&#45;db6893bab9ff&#45;&gt;8b7985a2&#45;f174&#45;494e&#45;9bc1&#45;55e56896a921</title>
<path fill="none" stroke="#7b68ee" d="M83.75,-1583.7C83.75,-1576.41 83.75,-1567.73 83.75,-1559.54"/>
<polygon fill="#7b68ee" stroke="#7b68ee" points="87.25,-1559.62 83.75,-1549.62 80.25,-1559.62 87.25,-1559.62"/>
</g>
<!-- bfaa7d6a&#45;bf95&#45;4c39&#45;b05e&#45;3a375706854a -->
<g id="node4" class="node">
<title>bfaa7d6a&#45;bf95&#45;4c39&#45;b05e&#45;3a375706854a</title>
<ellipse fill="#7b68ee" stroke="black" cx="83.75" cy="-1458" rx="18" ry="18"/>
</g>
<!-- 70906e0a&#45;cf85&#45;4d30&#45;bf09&#45;7e3043eec6ad -->
<g id="node23" class="node">
<title>70906e0a&#45;cf85&#45;4d30&#45;bf09&#45;7e3043eec6ad</title>
<polygon fill="none" stroke="black" points="201.88,-1404 51.62,-1404 51.62,-1368 201.88,-1368 201.88,-1404"/>
<text text-anchor="middle" x="126.75" y="-1380.95" font-family="Times New Roman,serif" font-size="14.00">Order Empty Containers</text>
</g>
<!-- bfaa7d6a&#45;bf95&#45;4c39&#45;b05e&#45;3a375706854a&#45;&gt;70906e0a&#45;cf85&#45;4d30&#45;bf09&#45;7e3043eec6ad -->
<g id="edge7" class="edge">
<title>bfaa7d6a&#45;bf95&#45;4c39&#45;b05e&#45;3a375706854a&#45;&gt;70906e0a&#45;cf85&#45;4d30&#45;bf09&#45;7e3043eec6ad</title>
<path fill="none" stroke="#7b68ee" d="M92.87,-1442.15C97.92,-1433.93 104.35,-1423.46 110.25,-1413.86"/>
<polygon fill="#7b68ee" stroke="#7b68ee" points="113.08,-1415.93 115.34,-1405.58 107.12,-1412.27 113.08,-1415.93"/>
</g>
<!-- c1842cbd&#45;903e&#45;4688&#45;b9b2&#45;84f7b14cf203 -->
<g id="node5" class="node">
<title>c1842cbd&#45;903e&#45;4688&#45;b9b2&#45;84f7b14cf203</title>
<ellipse fill="#00bfff" stroke="black" cx="246.75" cy="-1314" rx="18" ry="18"/>
</g>
<!-- 6b8ce44d&#45;e1c3&#45;404d&#45;87d9&#45;7858b777859a -->
<g id="node24" class="node">
<title>6b8ce44d&#45;e1c3&#45;404d&#45;87d9&#45;7858b777859a</title>
<polygon fill="none" stroke="black" points="325.62,-1260 167.88,-1260 167.88,-1224 325.62,-1224 325.62,-1260"/>
<text text-anchor="middle" x="246.75" y="-1236.95" font-family="Times New Roman,serif" font-size="14.00">Pick Up Empty Container</text>
</g>
<!-- c1842cbd&#45;903e&#45;4688&#45;b9b2&#45;84f7b14cf203&#45;&gt;6b8ce44d&#45;e1c3&#45;404d&#45;87d9&#45;7858b777859a -->
<g id="edge11" class="edge">
<title>c1842cbd&#45;903e&#45;4688&#45;b9b2&#45;84f7b14cf203&#45;&gt;6b8ce44d&#45;e1c3&#45;404d&#45;87d9&#45;7858b777859a</title>
<path fill="none" stroke="#00bfff" d="M246.75,-1295.7C246.75,-1288.41 246.75,-1279.73 246.75,-1271.54"/>
<polygon fill="#00bfff" stroke="#00bfff" points="250.25,-1271.62 246.75,-1261.62 243.25,-1271.62 250.25,-1271.62"/>
</g>
<!-- 11dfc0ca&#45;f837&#45;4da4&#45;80ec&#45;3ac279fbeb68 -->
<g id="node36" class="node">
<title>11dfc0ca&#45;f837&#45;4da4&#45;80ec&#45;3ac279fbeb68</title>
<polygon fill="none" stroke="black" points="397.75,-1260 343.75,-1260 343.75,-1224 397.75,-1224 397.75,-1260"/>
<text text-anchor="middle" x="370.75" y="-1235.83" font-family="Times New Roman,serif" font-size="14.00">𝜏</text>
</g>
<!-- c1842cbd&#45;903e&#45;4688&#45;b9b2&#45;84f7b14cf203&#45;&gt;11dfc0ca&#45;f837&#45;4da4&#45;80ec&#45;3ac279fbeb68 -->
<g id="edge47" class="edge">
<title>c1842cbd&#45;903e&#45;4688&#45;b9b2&#45;84f7b14cf203&#45;&gt;11dfc0ca&#45;f837&#45;4da4&#45;80ec&#45;3ac279fbeb68</title>
<path fill="none" stroke="#00bfff" d="M262.2,-1304.28C279.93,-1294.27 309.61,-1277.51 333.46,-1264.05"/>
<polygon fill="#00bfff" stroke="#00bfff" points="334.97,-1267.22 341.96,-1259.25 331.53,-1261.12 334.97,-1267.22"/>
</g>
<!-- 7070b739&#45;1b1d&#45;4767&#45;b0f8&#45;6474e066e795 -->
<g id="node6" class="node">
<title>7070b739&#45;1b1d&#45;4767&#45;b0f8&#45;6474e066e795</title>
<polygon fill="#00bfff" stroke="black" points="221.9,-1450.54 221.9,-1465.46 191.94,-1476 149.56,-1476 119.6,-1465.46 119.6,-1450.54 149.56,-1440 191.94,-1440 221.9,-1450.54"/>
<text text-anchor="middle" x="170.75" y="-1452.95" font-family="Times New Roman,serif" font-size="14.00">Container</text>
</g>
<!-- 7070b739&#45;1b1d&#45;4767&#45;b0f8&#45;6474e066e795&#45;&gt;70906e0a&#45;cf85&#45;4d30&#45;bf09&#45;7e3043eec6ad -->
<g id="edge8" class="edge">
<title>7070b739&#45;1b1d&#45;4767&#45;b0f8&#45;6474e066e795&#45;&gt;70906e0a&#45;cf85&#45;4d30&#45;bf09&#45;7e3043eec6ad</title>
<path fill="none" stroke="#00bfff" stroke-width="4" d="M159.87,-1439.7C155.66,-1433 150.72,-1425.13 145.95,-1417.54"/>
<polygon fill="#00bfff" stroke="#00bfff" stroke-width="4" points="149.01,-1415.83 140.72,-1409.23 143.08,-1419.56 149.01,-1415.83"/>
</g>
<!-- 1e7294c2&#45;cafe&#45;472f&#45;b8d1&#45;f1ab63802e7f -->
<g id="node7" class="node">
<title>1e7294c2&#45;cafe&#45;472f&#45;b8d1&#45;f1ab63802e7f</title>
<polygon fill="#32cd32" stroke="black" points="184.18,-1306.54 184.18,-1321.46 143.51,-1332 85.99,-1332 45.32,-1321.46 45.32,-1306.54 85.99,-1296 143.51,-1296 184.18,-1306.54"/>
<text text-anchor="middle" x="114.75" y="-1308.95" font-family="Times New Roman,serif" font-size="14.00">Handling Unit</text>
</g>
<!-- 95f70110&#45;4a1d&#45;4295&#45;b1e8&#45;95b8ee2e4c81 -->
<g id="node25" class="node">
<title>95f70110&#45;4a1d&#45;4295&#45;b1e8&#45;95b8ee2e4c81</title>
<polygon fill="none" stroke="black" points="149.75,-1260 55.75,-1260 55.75,-1224 149.75,-1224 149.75,-1260"/>
<text text-anchor="middle" x="102.75" y="-1236.95" font-family="Times New Roman,serif" font-size="14.00">Collect Goods</text>
</g>
<!-- 1e7294c2&#45;cafe&#45;472f&#45;b8d1&#45;f1ab63802e7f&#45;&gt;95f70110&#45;4a1d&#45;4295&#45;b1e8&#45;95b8ee2e4c81 -->
<g id="edge13" class="edge">
<title>1e7294c2&#45;cafe&#45;472f&#45;b8d1&#45;f1ab63802e7f&#45;&gt;95f70110&#45;4a1d&#45;4295&#45;b1e8&#45;95b8ee2e4c81</title>
<path fill="none" stroke="#32cd32" d="M111.78,-1295.7C110.52,-1288.32 109.01,-1279.52 107.59,-1271.25"/>
<polygon fill="#32cd32" stroke="#32cd32" points="111.08,-1270.86 105.94,-1261.6 104.18,-1272.04 111.08,-1270.86"/>
</g>
<!-- d5433aaa&#45;022e&#45;4acc&#45;b78d&#45;4921382e866b -->
<g id="node8" class="node">
<title>d5433aaa&#45;022e&#45;4acc&#45;b78d&#45;4921382e866b</title>
<ellipse fill="#32cd32" stroke="black" cx="127.75" cy="-1170" rx="18" ry="18"/>
</g>
<!-- d8c4ac1b&#45;7257&#45;455f&#45;aab5&#45;94868e3844ad -->
<g id="node26" class="node">
<title>d8c4ac1b&#45;7257&#45;455f&#45;aab5&#45;94868e3844ad</title>
<polygon fill="none" stroke="black" points="192.25,-1116 113.25,-1116 113.25,-1080 192.25,-1080 192.25,-1116"/>
<text text-anchor="middle" x="152.75" y="-1092.95" font-family="Times New Roman,serif" font-size="14.00">Load Truck</text>
</g>
<!-- d5433aaa&#45;022e&#45;4acc&#45;b78d&#45;4921382e866b&#45;&gt;d8c4ac1b&#45;7257&#45;455f&#45;aab5&#45;94868e3844ad -->
<g id="edge16" class="edge">
<title>d5433aaa&#45;022e&#45;4acc&#45;b78d&#45;4921382e866b&#45;&gt;d8c4ac1b&#45;7257&#45;455f&#45;aab5&#45;94868e3844ad</title>
<path fill="none" stroke="#32cd32" d="M133.55,-1152.76C136.31,-1145.04 139.68,-1135.59 142.83,-1126.77"/>
<polygon fill="#32cd32" stroke="#32cd32" points="146.06,-1128.14 146.13,-1117.55 139.47,-1125.79 146.06,-1128.14"/>
</g>
<!-- b51c0bb9&#45;834c&#45;4198&#45;b615&#45;373d2caf596b -->
<g id="node9" class="node">
<title>b51c0bb9&#45;834c&#45;4198&#45;b615&#45;373d2caf596b</title>
<polygon fill="#32cd32" stroke="black" points="199.75,-1044 105.75,-1044 105.75,-1008 199.75,-1008 199.75,-1044"/>
<text text-anchor="middle" x="152.75" y="-1020.95" font-family="Times New Roman,serif" font-size="14.00">Handling Unit</text>
</g>
<!-- 2e63fcec&#45;00be&#45;49b5&#45;835f&#45;b5e8a34dd0d8 -->
<g id="node10" class="node">
<title>2e63fcec&#45;00be&#45;49b5&#45;835f&#45;b5e8a34dd0d8</title>
<ellipse fill="#00bfff" stroke="black" cx="266.75" cy="-1026" rx="18" ry="18"/>
</g>
<!-- aa98496d&#45;5ba8&#45;43f1&#45;937a&#45;8691a2e390e3 -->
<g id="node28" class="node">
<title>aa98496d&#45;5ba8&#45;43f1&#45;937a&#45;8691a2e390e3</title>
<polygon fill="none" stroke="black" points="293.75,-972 239.75,-972 239.75,-936 293.75,-936 293.75,-972"/>
<text text-anchor="middle" x="266.75" y="-948.95" font-family="Times New Roman,serif" font-size="14.00">Weigh</text>
</g>
<!-- 2e63fcec&#45;00be&#45;49b5&#45;835f&#45;b5e8a34dd0d8&#45;&gt;aa98496d&#45;5ba8&#45;43f1&#45;937a&#45;8691a2e390e3 -->
<g id="edge21" class="edge">
<title>2e63fcec&#45;00be&#45;49b5&#45;835f&#45;b5e8a34dd0d8&#45;&gt;aa98496d&#45;5ba8&#45;43f1&#45;937a&#45;8691a2e390e3</title>
<path fill="none" stroke="#00bfff" d="M266.75,-1007.7C266.75,-1000.41 266.75,-991.73 266.75,-983.54"/>
<polygon fill="#00bfff" stroke="#00bfff" points="270.25,-983.62 266.75,-973.62 263.25,-983.62 270.25,-983.62"/>
</g>
<!-- 419fd87c&#45;cae1&#45;4b74&#45;90d9&#45;b890e4935f0d -->
<g id="node11" class="node">
<title>419fd87c&#45;cae1&#45;4b74&#45;90d9&#45;b890e4935f0d</title>
<ellipse fill="#00bfff" stroke="black" cx="266.75" cy="-882" rx="18" ry="18"/>
</g>
<!-- 30bf1298&#45;ecd5&#45;452a&#45;99ef&#45;115e9d843a7c -->
<g id="node29" class="node">
<title>30bf1298&#45;ecd5&#45;452a&#45;99ef&#45;115e9d843a7c</title>
<polygon fill="none" stroke="black" points="354.75,-828 260.75,-828 260.75,-792 354.75,-792 354.75,-828"/>
<text text-anchor="middle" x="307.75" y="-804.95" font-family="Times New Roman,serif" font-size="14.00">Place in Stock</text>
</g>
<!-- 419fd87c&#45;cae1&#45;4b74&#45;90d9&#45;b890e4935f0d&#45;&gt;30bf1298&#45;ecd5&#45;452a&#45;99ef&#45;115e9d843a7c -->
<g id="edge23" class="edge">
<title>419fd87c&#45;cae1&#45;4b74&#45;90d9&#45;b890e4935f0d&#45;&gt;30bf1298&#45;ecd5&#45;452a&#45;99ef&#45;115e9d843a7c</title>
<path fill="none" stroke="#00bfff" d="M275.65,-865.81C280.42,-857.66 286.45,-847.37 291.98,-837.92"/>
<polygon fill="#00bfff" stroke="#00bfff" points="294.92,-839.83 296.95,-829.43 288.88,-836.29 294.92,-839.83"/>
</g>
<!-- 24b860b8&#45;f1a5&#45;4dd4&#45;928e&#45;9d090d3ee075 -->
<g id="node37" class="node">
<title>24b860b8&#45;f1a5&#45;4dd4&#45;928e&#45;9d090d3ee075</title>
<polygon fill="none" stroke="black" points="242.75,-828 188.75,-828 188.75,-792 242.75,-792 242.75,-828"/>
<text text-anchor="middle" x="215.75" y="-803.83" font-family="Times New Roman,serif" font-size="14.00">𝜏</text>
</g>
<!-- 419fd87c&#45;cae1&#45;4b74&#45;90d9&#45;b890e4935f0d&#45;&gt;24b860b8&#45;f1a5&#45;4dd4&#45;928e&#45;9d090d3ee075 -->
<g id="edge49" class="edge">
<title>419fd87c&#45;cae1&#45;4b74&#45;90d9&#45;b890e4935f0d&#45;&gt;24b860b8&#45;f1a5&#45;4dd4&#45;928e&#45;9d090d3ee075</title>
<path fill="none" stroke="#00bfff" d="M256.43,-866.83C250.3,-858.42 242.32,-847.47 235.06,-837.51"/>
<polygon fill="#00bfff" stroke="#00bfff" points="238.01,-835.61 229.3,-829.59 232.35,-839.73 238.01,-835.61"/>
</g>
<!-- a62e6563&#45;6395&#45;4331&#45;9f40&#45;05068d29c8c8 -->
<g id="node12" class="node">
<title>a62e6563&#45;6395&#45;4331&#45;9f40&#45;05068d29c8c8</title>
<ellipse fill="#00bfff" stroke="black" cx="220.75" cy="-738" rx="18" ry="18"/>
</g>
<!-- 7b451142&#45;18e8&#45;4c6b&#45;a463&#45;c561666c8686 -->
<g id="node30" class="node">
<title>7b451142&#45;18e8&#45;4c6b&#45;a463&#45;c561666c8686</title>
<polygon fill="none" stroke="black" points="288.38,-684 153.12,-684 153.12,-648 288.38,-648 288.38,-684"/>
<text text-anchor="middle" x="220.75" y="-660.95" font-family="Times New Roman,serif" font-size="14.00">Bring to Loading Bay</text>
</g>
<!-- a62e6563&#45;6395&#45;4331&#45;9f40&#45;05068d29c8c8&#45;&gt;7b451142&#45;18e8&#45;4c6b&#45;a463&#45;c561666c8686 -->
<g id="edge25" class="edge">
<title>a62e6563&#45;6395&#45;4331&#45;9f40&#45;05068d29c8c8&#45;&gt;7b451142&#45;18e8&#45;4c6b&#45;a463&#45;c561666c8686</title>
<path fill="none" stroke="#00bfff" d="M220.75,-719.7C220.75,-712.41 220.75,-703.73 220.75,-695.54"/>
<polygon fill="#00bfff" stroke="#00bfff" points="224.25,-695.62 220.75,-685.62 217.25,-695.62 224.25,-695.62"/>
</g>
<!-- 24346a53&#45;034b&#45;43c9&#45;981d&#45;6b77f3a9212a -->
<g id="node13" class="node">
<title>24346a53&#45;034b&#45;43c9&#45;981d&#45;6b77f3a9212a</title>
<ellipse fill="#00bfff" stroke="black" cx="220.75" cy="-594" rx="18" ry="18"/>
</g>
<!-- 49f3d239&#45;5a6e&#45;4c8c&#45;b4f3&#45;598fd3565dc8 -->
<g id="node35" class="node">
<title>49f3d239&#45;5a6e&#45;4c8c&#45;b4f3&#45;598fd3565dc8</title>
<polygon fill="none" stroke="black" points="181.38,-540 46.12,-540 46.12,-504 181.38,-504 181.38,-540"/>
<text text-anchor="middle" x="113.75" y="-516.95" font-family="Times New Roman,serif" font-size="14.00">Reschedule Container</text>
</g>
<!-- 24346a53&#45;034b&#45;43c9&#45;981d&#45;6b77f3a9212a&#45;&gt;49f3d239&#45;5a6e&#45;4c8c&#45;b4f3&#45;598fd3565dc8 -->
<g id="edge43" class="edge">
<title>24346a53&#45;034b&#45;43c9&#45;981d&#45;6b77f3a9212a&#45;&gt;49f3d239&#45;5a6e&#45;4c8c&#45;b4f3&#45;598fd3565dc8</title>
<path fill="none" stroke="#00bfff" d="M205.87,-583.27C191.5,-573.86 169.15,-559.24 150.07,-546.76"/>
<polygon fill="#00bfff" stroke="#00bfff" points="152,-543.84 141.72,-541.3 148.17,-549.7 152,-543.84"/>
</g>
<!-- 74bebfaf&#45;d2de&#45;4458&#45;a981&#45;815c4cc27b47 -->
<g id="node38" class="node">
<title>74bebfaf&#45;d2de&#45;4458&#45;a981&#45;815c4cc27b47</title>
<polygon fill="none" stroke="black" points="253.75,-540 199.75,-540 199.75,-504 253.75,-504 253.75,-540"/>
<text text-anchor="middle" x="226.75" y="-515.83" font-family="Times New Roman,serif" font-size="14.00">𝜏</text>
</g>
<!-- 24346a53&#45;034b&#45;43c9&#45;981d&#45;6b77f3a9212a&#45;&gt;74bebfaf&#45;d2de&#45;4458&#45;a981&#45;815c4cc27b47 -->
<g id="edge51" class="edge">
<title>24346a53&#45;034b&#45;43c9&#45;981d&#45;6b77f3a9212a&#45;&gt;74bebfaf&#45;d2de&#45;4458&#45;a981&#45;815c4cc27b47</title>
<path fill="none" stroke="#00bfff" d="M222.23,-575.7C222.86,-568.41 223.6,-559.73 224.3,-551.54"/>
<polygon fill="#00bfff" stroke="#00bfff" points="227.79,-551.87 225.15,-541.61 220.81,-551.28 227.79,-551.87"/>
</g>
<!-- 86e4cb2d&#45;6c6f&#45;4c76&#45;837a&#45;388230ce3e9e -->
<g id="node14" class="node">
<title>86e4cb2d&#45;6c6f&#45;4c76&#45;837a&#45;388230ce3e9e</title>
<ellipse fill="#00bfff" stroke="black" cx="201.75" cy="-450" rx="18" ry="18"/>
</g>
<!-- 62cb9726&#45;1c4f&#45;4417&#45;9bcc&#45;fba3a9e27788 -->
<g id="node31" class="node">
<title>62cb9726&#45;1c4f&#45;4417&#45;9bcc&#45;fba3a9e27788</title>
<polygon fill="none" stroke="black" points="252.5,-396 151,-396 151,-360 252.5,-360 252.5,-396"/>
<text text-anchor="middle" x="201.75" y="-372.95" font-family="Times New Roman,serif" font-size="14.00">Load to Vehicle</text>
</g>
<!-- 86e4cb2d&#45;6c6f&#45;4c76&#45;837a&#45;388230ce3e9e&#45;&gt;62cb9726&#45;1c4f&#45;4417&#45;9bcc&#45;fba3a9e27788 -->
<g id="edge27" class="edge">
<title>86e4cb2d&#45;6c6f&#45;4c76&#45;837a&#45;388230ce3e9e&#45;&gt;62cb9726&#45;1c4f&#45;4417&#45;9bcc&#45;fba3a9e27788</title>
<path fill="none" stroke="#00bfff" d="M201.75,-431.7C201.75,-424.41 201.75,-415.73 201.75,-407.54"/>
<polygon fill="#00bfff" stroke="#00bfff" points="205.25,-407.62 201.75,-397.62 198.25,-407.62 205.25,-407.62"/>
</g>
<!-- 91aa568d&#45;83dc&#45;477c&#45;8762&#45;fa3ac9293068 -->
<g id="node15" class="node">
<title>91aa568d&#45;83dc&#45;477c&#45;8762&#45;fa3ac9293068</title>
<ellipse fill="#00bfff" stroke="black" cx="199.75" cy="-306" rx="18" ry="18"/>
</g>
<!-- f2b76cee&#45;515e&#45;43b8&#45;976c&#45;801609c7175b -->
<g id="node32" class="node">
<title>f2b76cee&#45;515e&#45;43b8&#45;976c&#45;801609c7175b</title>
<polygon fill="none" stroke="black" points="213.75,-108 159.75,-108 159.75,-72 213.75,-72 213.75,-108"/>
<text text-anchor="middle" x="186.75" y="-84.95" font-family="Times New Roman,serif" font-size="14.00">Depart</text>
</g>
<!-- 91aa568d&#45;83dc&#45;477c&#45;8762&#45;fa3ac9293068&#45;&gt;f2b76cee&#45;515e&#45;43b8&#45;976c&#45;801609c7175b -->
<g id="edge29" class="edge">
<title>91aa568d&#45;83dc&#45;477c&#45;8762&#45;fa3ac9293068&#45;&gt;f2b76cee&#45;515e&#45;43b8&#45;976c&#45;801609c7175b</title>
<path fill="none" stroke="#00bfff" stroke-width="4" d="M198.71,-287.85C196.55,-252.32 191.56,-170.14 188.75,-123.99"/>
<polygon fill="#00bfff" stroke="#00bfff" stroke-width="4" points="192.26,-124.04 188.16,-114.28 185.28,-124.47 192.26,-124.04"/>
</g>
<!-- 69fe6e0c&#45;7c54&#45;43c7&#45;9e7b&#45;c93918e15154 -->
<g id="node33" class="node">
<title>69fe6e0c&#45;7c54&#45;43c7&#45;9e7b&#45;c93918e15154</title>
<polygon fill="none" stroke="black" points="280.75,-252 226.75,-252 226.75,-216 280.75,-216 280.75,-252"/>
<text text-anchor="middle" x="253.75" y="-228.95" font-family="Times New Roman,serif" font-size="14.00">Depart</text>
</g>
<!-- 91aa568d&#45;83dc&#45;477c&#45;8762&#45;fa3ac9293068&#45;&gt;69fe6e0c&#45;7c54&#45;43c7&#45;9e7b&#45;c93918e15154 -->
<g id="edge33" class="edge">
<title>91aa568d&#45;83dc&#45;477c&#45;8762&#45;fa3ac9293068&#45;&gt;69fe6e0c&#45;7c54&#45;43c7&#45;9e7b&#45;c93918e15154</title>
<path fill="none" stroke="#00bfff" stroke-width="4" d="M210.42,-291.17C216.27,-283.59 223.76,-273.88 230.86,-264.68"/>
<polygon fill="#00bfff" stroke="#00bfff" stroke-width="4" points="233.39,-267.12 236.73,-257.07 227.85,-262.85 233.39,-267.12"/>
</g>
<!-- 5e38d3f0&#45;833e&#45;4a90&#45;b559&#45;b68350194e3f -->
<g id="node34" class="node">
<title>5e38d3f0&#45;833e&#45;4a90&#45;b559&#45;b68350194e3f</title>
<polygon fill="none" stroke="black" points="141.75,-108 87.75,-108 87.75,-72 141.75,-72 141.75,-108"/>
<text text-anchor="middle" x="114.75" y="-84.95" font-family="Times New Roman,serif" font-size="14.00">Depart</text>
</g>
<!-- 91aa568d&#45;83dc&#45;477c&#45;8762&#45;fa3ac9293068&#45;&gt;5e38d3f0&#45;833e&#45;4a90&#45;b559&#45;b68350194e3f -->
<g id="edge38" class="edge">
<title>91aa568d&#45;83dc&#45;477c&#45;8762&#45;fa3ac9293068&#45;&gt;5e38d3f0&#45;833e&#45;4a90&#45;b559&#45;b68350194e3f</title>
<path fill="none" stroke="#00bfff" stroke-width="4" d="M194.49,-288.28C185.04,-258.73 164.05,-195.53 141.75,-144 138.71,-136.99 135.18,-129.6 131.68,-122.64"/>
<polygon fill="#00bfff" stroke="#00bfff" stroke-width="4" points="134.8,-121.05 127.1,-113.78 128.58,-124.27 134.8,-121.05"/>
</g>
<!-- e04259f2&#45;891f&#45;4d24&#45;a72f&#45;2ea5bb4dc95a -->
<g id="node16" class="node">
<title>e04259f2&#45;891f&#45;4d24&#45;a72f&#45;2ea5bb4dc95a</title>
<polygon fill="#00bfff" stroke="black" points="173.38,-36 104.12,-36 104.12,0 173.38,0 173.38,-36"/>
<text text-anchor="middle" x="138.75" y="-12.95" font-family="Times New Roman,serif" font-size="14.00">Container</text>
</g>
<!-- 50c3810a&#45;49f8&#45;479d&#45;9271&#45;ebeeb6d69560 -->
<g id="node17" class="node">
<title>50c3810a&#45;49f8&#45;479d&#45;9271&#45;ebeeb6d69560</title>
<polygon fill="#7b68ee" stroke="black" points="320.38,-36 191.12,-36 191.12,0 320.38,0 320.38,-36"/>
<text text-anchor="middle" x="255.75" y="-12.95" font-family="Times New Roman,serif" font-size="14.00">Transport Document</text>
</g>
<!-- ad7642c4&#45;db8d&#45;447d&#45;b10b&#45;12a26930e9d6 -->
<g id="node18" class="node">
<title>ad7642c4&#45;db8d&#45;447d&#45;b10b&#45;12a26930e9d6</title>
<ellipse fill="#00bfff" stroke="black" cx="246.75" cy="-1170" rx="18" ry="18"/>
</g>
<!-- ad7642c4&#45;db8d&#45;447d&#45;b10b&#45;12a26930e9d6&#45;&gt;d8c4ac1b&#45;7257&#45;455f&#45;aab5&#45;94868e3844ad -->
<g id="edge15" class="edge">
<title>ad7642c4&#45;db8d&#45;447d&#45;b10b&#45;12a26930e9d6&#45;&gt;d8c4ac1b&#45;7257&#45;455f&#45;aab5&#45;94868e3844ad</title>
<path fill="none" stroke="#00bfff" d="M231.04,-1160.7C216.74,-1151.53 195.72,-1136.35 178.97,-1123.34"/>
<polygon fill="#00bfff" stroke="#00bfff" points="181.37,-1120.78 171.36,-1117.32 177.03,-1126.27 181.37,-1120.78"/>
</g>
<!-- c0b9c98a&#45;0352&#45;4904&#45;83ac&#45;f7808b354d49 -->
<g id="node27" class="node">
<title>c0b9c98a&#45;0352&#45;4904&#45;83ac&#45;f7808b354d49</title>
<polygon fill="none" stroke="black" points="323.5,-1116 210,-1116 210,-1080 323.5,-1080 323.5,-1116"/>
<text text-anchor="middle" x="266.75" y="-1092.95" font-family="Times New Roman,serif" font-size="14.00">Drive to Terminal</text>
</g>
<!-- ad7642c4&#45;db8d&#45;447d&#45;b10b&#45;12a26930e9d6&#45;&gt;c0b9c98a&#45;0352&#45;4904&#45;83ac&#45;f7808b354d49 -->
<g id="edge19" class="edge">
<title>ad7642c4&#45;db8d&#45;447d&#45;b10b&#45;12a26930e9d6&#45;&gt;c0b9c98a&#45;0352&#45;4904&#45;83ac&#45;f7808b354d49</title>
<path fill="none" stroke="#00bfff" d="M251.49,-1152.41C253.62,-1144.96 256.19,-1135.96 258.61,-1127.48"/>
<polygon fill="#00bfff" stroke="#00bfff" points="261.97,-1128.48 261.35,-1117.9 255.24,-1126.56 261.97,-1128.48"/>
</g>
<!-- dbc47154&#45;c117&#45;428c&#45;834c&#45;5aa5b24cd0be -->
<g id="node19" class="node">
<title>dbc47154&#45;c117&#45;428c&#45;834c&#45;5aa5b24cd0be</title>
<ellipse fill="#7b68ee" stroke="black" cx="114.75" cy="-162" rx="18" ry="18"/>
</g>
<!-- dbc47154&#45;c117&#45;428c&#45;834c&#45;5aa5b24cd0be&#45;&gt;f2b76cee&#45;515e&#45;43b8&#45;976c&#45;801609c7175b -->
<g id="edge30" class="edge">
<title>dbc47154&#45;c117&#45;428c&#45;834c&#45;5aa5b24cd0be&#45;&gt;f2b76cee&#45;515e&#45;43b8&#45;976c&#45;801609c7175b</title>
<path fill="none" stroke="#7b68ee" stroke-width="4" d="M127.29,-148.81C135.66,-140.67 147.03,-129.61 157.59,-119.35"/>
<polygon fill="#7b68ee" stroke="#7b68ee" stroke-width="4" points="159.89,-122 164.62,-112.52 155.01,-116.98 159.89,-122"/>
</g>
<!-- dbc47154&#45;c117&#45;428c&#45;834c&#45;5aa5b24cd0be&#45;&gt;69fe6e0c&#45;7c54&#45;43c7&#45;9e7b&#45;c93918e15154 -->
<g id="edge34" class="edge">
<title>dbc47154&#45;c117&#45;428c&#45;834c&#45;5aa5b24cd0be&#45;&gt;69fe6e0c&#45;7c54&#45;43c7&#45;9e7b&#45;c93918e15154</title>
<path fill="none" stroke="#7b68ee" stroke-width="4" d="M131.53,-169.39C151.51,-178.26 185.13,-194.8 212.13,-208.79"/>
<polygon fill="#7b68ee" stroke="#7b68ee" stroke-width="4" points="210.47,-211.87 220.95,-213.42 213.73,-205.67 210.47,-211.87"/>
</g>
<!-- dbc47154&#45;c117&#45;428c&#45;834c&#45;5aa5b24cd0be&#45;&gt;5e38d3f0&#45;833e&#45;4a90&#45;b559&#45;b68350194e3f -->
<g id="edge39" class="edge">
<title>dbc47154&#45;c117&#45;428c&#45;834c&#45;5aa5b24cd0be&#45;&gt;5e38d3f0&#45;833e&#45;4a90&#45;b559&#45;b68350194e3f</title>
<path fill="none" stroke="#7b68ee" stroke-width="4" d="M108.95,-144.76C108.26,-138.59 107.94,-131.3 108.01,-124.12"/>
<polygon fill="#7b68ee" stroke="#7b68ee" stroke-width="4" points="111.5,-124.34 108.53,-114.17 104.51,-123.97 111.5,-124.34"/>
</g>
<!-- dbc47154&#45;c117&#45;428c&#45;834c&#45;5aa5b24cd0be&#45;&gt;49f3d239&#45;5a6e&#45;4c8c&#45;b4f3&#45;598fd3565dc8 -->
<g id="edge44" class="edge">
<title>dbc47154&#45;c117&#45;428c&#45;834c&#45;5aa5b24cd0be&#45;&gt;49f3d239&#45;5a6e&#45;4c8c&#45;b4f3&#45;598fd3565dc8</title>
<path fill="none" stroke="#7b68ee" d="M120.22,-179.61C123.27,-206.13 122.75,-259.64 122.75,-305 122.75,-379 122.75,-379 122.75,-379 122.75,-418.26 122.75,-463.62 120.58,-492.31"/>
<polygon fill="#7b68ee" stroke="#7b68ee" points="117.12,-491.72 119.66,-502 124.09,-492.38 117.12,-491.72"/>
</g>
<!-- eb63d9ed&#45;4d63&#45;46bd&#45;ae44&#45;4c3d9afd4ef4&#45;&gt;61638c10&#45;ff24&#45;4080&#45;80d9&#45;d4f9014f12d5 -->
<g id="edge2" class="edge">
<title>eb63d9ed&#45;4d63&#45;46bd&#45;ae44&#45;4c3d9afd4ef4&#45;&gt;61638c10&#45;ff24&#45;4080&#45;80d9&#45;d4f9014f12d5</title>
<path fill="none" stroke="#ffa500" d="M83.75,-1799.7C83.75,-1792.41 83.75,-1783.73 83.75,-1775.54"/>
<polygon fill="#ffa500" stroke="#ffa500" points="87.25,-1775.62 83.75,-1765.62 80.25,-1775.62 87.25,-1775.62"/>
</g>
<!-- 7f8f02b6&#45;8d45&#45;46d2&#45;bf48&#45;c24517430e3b&#45;&gt;4fa8613d&#45;420a&#45;4878&#45;ac87&#45;db6893bab9ff -->
<g id="edge4" class="edge">
<title>7f8f02b6&#45;8d45&#45;46d2&#45;bf48&#45;c24517430e3b&#45;&gt;4fa8613d&#45;420a&#45;4878&#45;ac87&#45;db6893bab9ff</title>
<path fill="none" stroke="#7b68ee" d="M83.75,-1655.7C83.75,-1648.41 83.75,-1639.73 83.75,-1631.54"/>
<polygon fill="#7b68ee" stroke="#7b68ee" points="87.25,-1631.62 83.75,-1621.62 80.25,-1631.62 87.25,-1631.62"/>
</g>
<!-- 8b7985a2&#45;f174&#45;494e&#45;9bc1&#45;55e56896a921&#45;&gt;bfaa7d6a&#45;bf95&#45;4c39&#45;b05e&#45;3a375706854a -->
<g id="edge6" class="edge">
<title>8b7985a2&#45;f174&#45;494e&#45;9bc1&#45;55e56896a921&#45;&gt;bfaa7d6a&#45;bf95&#45;4c39&#45;b05e&#45;3a375706854a</title>
<path fill="none" stroke="#7b68ee" d="M83.75,-1511.7C83.75,-1504.41 83.75,-1495.73 83.75,-1487.54"/>
<polygon fill="#7b68ee" stroke="#7b68ee" points="87.25,-1487.62 83.75,-1477.62 80.25,-1487.62 87.25,-1487.62"/>
</g>
<!-- 70906e0a&#45;cf85&#45;4d30&#45;bf09&#45;7e3043eec6ad&#45;&gt;c1842cbd&#45;903e&#45;4688&#45;b9b2&#45;84f7b14cf203 -->
<g id="edge9" class="edge">
<title>70906e0a&#45;cf85&#45;4d30&#45;bf09&#45;7e3043eec6ad&#45;&gt;c1842cbd&#45;903e&#45;4688&#45;b9b2&#45;84f7b14cf203</title>
<path fill="none" stroke="#00bfff" stroke-width="4" d="M156.72,-1367.52C175.36,-1356.64 199.21,-1342.73 217.68,-1331.96"/>
<polygon fill="#00bfff" stroke="#00bfff" stroke-width="4" points="219.31,-1335.06 226.19,-1326.99 215.79,-1329.01 219.31,-1335.06"/>
</g>
<!-- 70906e0a&#45;cf85&#45;4d30&#45;bf09&#45;7e3043eec6ad&#45;&gt;dbc47154&#45;c117&#45;428c&#45;834c&#45;5aa5b24cd0be -->
<g id="edge10" class="edge">
<title>70906e0a&#45;cf85&#45;4d30&#45;bf09&#45;7e3043eec6ad&#45;&gt;dbc47154&#45;c117&#45;428c&#45;834c&#45;5aa5b24cd0be</title>
<path fill="none" stroke="#7b68ee" d="M81.37,-1367.56C65.02,-1359.14 47.88,-1347.45 36.75,-1332 13.1,-1299.19 17.75,-1283.45 17.75,-1243 17.75,-1243 17.75,-1243 17.75,-305 17.75,-252.47 63.58,-205.06 92.23,-180.56"/>
<polygon fill="#7b68ee" stroke="#7b68ee" points="94.21,-183.46 99.69,-174.39 89.75,-178.07 94.21,-183.46"/>
</g>
<!-- 6b8ce44d&#45;e1c3&#45;404d&#45;87d9&#45;7858b777859a&#45;&gt;ad7642c4&#45;db8d&#45;447d&#45;b10b&#45;12a26930e9d6 -->
<g id="edge12" class="edge">
<title>6b8ce44d&#45;e1c3&#45;404d&#45;87d9&#45;7858b777859a&#45;&gt;ad7642c4&#45;db8d&#45;447d&#45;b10b&#45;12a26930e9d6</title>
<path fill="none" stroke="#00bfff" d="M246.75,-1223.7C246.75,-1216.41 246.75,-1207.73 246.75,-1199.54"/>
<polygon fill="#00bfff" stroke="#00bfff" points="250.25,-1199.62 246.75,-1189.62 243.25,-1199.62 250.25,-1199.62"/>
</g>
<!-- 95f70110&#45;4a1d&#45;4295&#45;b1e8&#45;95b8ee2e4c81&#45;&gt;d5433aaa&#45;022e&#45;4acc&#45;b78d&#45;4921382e866b -->
<g id="edge14" class="edge">
<title>95f70110&#45;4a1d&#45;4295&#45;b1e8&#45;95b8ee2e4c81&#45;&gt;d5433aaa&#45;022e&#45;4acc&#45;b78d&#45;4921382e866b</title>
<path fill="none" stroke="#32cd32" d="M108.93,-1223.7C111.7,-1215.93 115.04,-1206.58 118.13,-1197.93"/>
<polygon fill="#32cd32" stroke="#32cd32" points="121.41,-1199.16 121.48,-1188.57 114.82,-1196.81 121.41,-1199.16"/>
</g>
<!-- d8c4ac1b&#45;7257&#45;455f&#45;aab5&#45;94868e3844ad&#45;&gt;b51c0bb9&#45;834c&#45;4198&#45;b615&#45;373d2caf596b -->
<g id="edge18" class="edge">
<title>d8c4ac1b&#45;7257&#45;455f&#45;aab5&#45;94868e3844ad&#45;&gt;b51c0bb9&#45;834c&#45;4198&#45;b615&#45;373d2caf596b</title>
<path fill="none" stroke="#32cd32" d="M152.75,-1079.7C152.75,-1072.41 152.75,-1063.73 152.75,-1055.54"/>
<polygon fill="#32cd32" stroke="#32cd32" points="156.25,-1055.62 152.75,-1045.62 149.25,-1055.62 156.25,-1055.62"/>
</g>
<!-- d8c4ac1b&#45;7257&#45;455f&#45;aab5&#45;94868e3844ad&#45;&gt;ad7642c4&#45;db8d&#45;447d&#45;b10b&#45;12a26930e9d6 -->
<g id="edge17" class="edge">
<title>d8c4ac1b&#45;7257&#45;455f&#45;aab5&#45;94868e3844ad&#45;&gt;ad7642c4&#45;db8d&#45;447d&#45;b10b&#45;12a26930e9d6</title>
<path fill="none" stroke="#00bfff" d="M181.81,-1116.24C196.19,-1126.18 213.1,-1138.71 226.15,-1149.07"/>
<polygon fill="#00bfff" stroke="#00bfff" points="223.73,-1151.62 233.7,-1155.21 228.14,-1146.18 223.73,-1151.62"/>
</g>
<!-- c0b9c98a&#45;0352&#45;4904&#45;83ac&#45;f7808b354d49&#45;&gt;2e63fcec&#45;00be&#45;49b5&#45;835f&#45;b5e8a34dd0d8 -->
<g id="edge20" class="edge">
<title>c0b9c98a&#45;0352&#45;4904&#45;83ac&#45;f7808b354d49&#45;&gt;2e63fcec&#45;00be&#45;49b5&#45;835f&#45;b5e8a34dd0d8</title>
<path fill="none" stroke="#00bfff" d="M266.75,-1079.7C266.75,-1072.41 266.75,-1063.73 266.75,-1055.54"/>
<polygon fill="#00bfff" stroke="#00bfff" points="270.25,-1055.62 266.75,-1045.62 263.25,-1055.62 270.25,-1055.62"/>
</g>
<!-- aa98496d&#45;5ba8&#45;43f1&#45;937a&#45;8691a2e390e3&#45;&gt;419fd87c&#45;cae1&#45;4b74&#45;90d9&#45;b890e4935f0d -->
<g id="edge22" class="edge">
<title>aa98496d&#45;5ba8&#45;43f1&#45;937a&#45;8691a2e390e3&#45;&gt;419fd87c&#45;cae1&#45;4b74&#45;90d9&#45;b890e4935f0d</title>
<path fill="none" stroke="#00bfff" d="M266.75,-935.7C266.75,-928.41 266.75,-919.73 266.75,-911.54"/>
<polygon fill="#00bfff" stroke="#00bfff" points="270.25,-911.62 266.75,-901.62 263.25,-911.62 270.25,-911.62"/>
</g>
<!-- 30bf1298&#45;ecd5&#45;452a&#45;99ef&#45;115e9d843a7c&#45;&gt;a62e6563&#45;6395&#45;4331&#45;9f40&#45;05068d29c8c8 -->
<g id="edge24" class="edge">
<title>30bf1298&#45;ecd5&#45;452a&#45;99ef&#45;115e9d843a7c&#45;&gt;a62e6563&#45;6395&#45;4331&#45;9f40&#45;05068d29c8c8</title>
<path fill="none" stroke="#00bfff" d="M286.24,-791.7C273.21,-781.21 256.59,-767.84 243.36,-757.19"/>
<polygon fill="#00bfff" stroke="#00bfff" points="245.58,-754.49 235.6,-750.95 241.2,-759.94 245.58,-754.49"/>
</g>
<!-- 7b451142&#45;18e8&#45;4c6b&#45;a463&#45;c561666c8686&#45;&gt;24346a53&#45;034b&#45;43c9&#45;981d&#45;6b77f3a9212a -->
<g id="edge26" class="edge">
<title>7b451142&#45;18e8&#45;4c6b&#45;a463&#45;c561666c8686&#45;&gt;24346a53&#45;034b&#45;43c9&#45;981d&#45;6b77f3a9212a</title>
<path fill="none" stroke="#00bfff" d="M220.75,-647.7C220.75,-640.41 220.75,-631.73 220.75,-623.54"/>
<polygon fill="#00bfff" stroke="#00bfff" points="224.25,-623.62 220.75,-613.62 217.25,-623.62 224.25,-623.62"/>
</g>
<!-- 62cb9726&#45;1c4f&#45;4417&#45;9bcc&#45;fba3a9e27788&#45;&gt;91aa568d&#45;83dc&#45;477c&#45;8762&#45;fa3ac9293068 -->
<g id="edge28" class="edge">
<title>62cb9726&#45;1c4f&#45;4417&#45;9bcc&#45;fba3a9e27788&#45;&gt;91aa568d&#45;83dc&#45;477c&#45;8762&#45;fa3ac9293068</title>
<path fill="none" stroke="#00bfff" d="M201.26,-359.7C201.05,-352.41 200.8,-343.73 200.57,-335.54"/>
<polygon fill="#00bfff" stroke="#00bfff" points="204.07,-335.51 200.28,-325.62 197.07,-335.71 204.07,-335.51"/>
</g>
<!-- f2b76cee&#45;515e&#45;43b8&#45;976c&#45;801609c7175b&#45;&gt;e04259f2&#45;891f&#45;4d24&#45;a72f&#45;2ea5bb4dc95a -->
<g id="edge31" class="edge">
<title>f2b76cee&#45;515e&#45;43b8&#45;976c&#45;801609c7175b&#45;&gt;e04259f2&#45;891f&#45;4d24&#45;a72f&#45;2ea5bb4dc95a</title>
<path fill="none" stroke="#00bfff" stroke-width="4" d="M174.88,-71.7C170.23,-64.92 164.76,-56.93 159.5,-49.26"/>
<polygon fill="#00bfff" stroke="#00bfff" stroke-width="4" points="162.44,-47.37 153.9,-41.1 156.67,-51.32 162.44,-47.37"/>
</g>
<!-- f2b76cee&#45;515e&#45;43b8&#45;976c&#45;801609c7175b&#45;&gt;50c3810a&#45;49f8&#45;479d&#45;9271&#45;ebeeb6d69560 -->
<g id="edge32" class="edge">
<title>f2b76cee&#45;515e&#45;43b8&#45;976c&#45;801609c7175b&#45;&gt;50c3810a&#45;49f8&#45;479d&#45;9271&#45;ebeeb6d69560</title>
<path fill="none" stroke="#7b68ee" stroke-width="4" d="M203.81,-71.7C210.99,-64.41 219.55,-55.73 227.62,-47.54"/>
<polygon fill="#7b68ee" stroke="#7b68ee" stroke-width="4" points="230.11,-49.99 234.64,-40.42 225.13,-45.08 230.11,-49.99"/>
</g>
<!-- 69fe6e0c&#45;7c54&#45;43c7&#45;9e7b&#45;c93918e15154&#45;&gt;e04259f2&#45;891f&#45;4d24&#45;a72f&#45;2ea5bb4dc95a -->
<g id="edge36" class="edge">
<title>69fe6e0c&#45;7c54&#45;43c7&#45;9e7b&#45;c93918e15154&#45;&gt;e04259f2&#45;891f&#45;4d24&#45;a72f&#45;2ea5bb4dc95a</title>
<path fill="none" stroke="#00bfff" stroke-width="4" d="M254.7,-215.82C255.57,-184.42 253.41,-116.9 222.75,-72 213.87,-59 200.65,-48.53 187.3,-40.44"/>
<polygon fill="#00bfff" stroke="#00bfff" stroke-width="4" points="189.28,-37.54 178.83,-35.79 185.91,-43.67 189.28,-37.54"/>
</g>
<!-- 69fe6e0c&#45;7c54&#45;43c7&#45;9e7b&#45;c93918e15154&#45;&gt;50c3810a&#45;49f8&#45;479d&#45;9271&#45;ebeeb6d69560 -->
<g id="edge37" class="edge">
<title>69fe6e0c&#45;7c54&#45;43c7&#45;9e7b&#45;c93918e15154&#45;&gt;50c3810a&#45;49f8&#45;479d&#45;9271&#45;ebeeb6d69560</title>
<path fill="none" stroke="#7b68ee" stroke-width="4" d="M254.56,-215.82C255.01,-205.45 255.52,-191.97 255.75,-180 256.58,-135.91 256.39,-85.01 256.12,-52.44"/>
<polygon fill="#7b68ee" stroke="#7b68ee" stroke-width="4" points="259.62,-52.41 256.02,-42.45 252.62,-52.48 259.62,-52.41"/>
</g>
<!-- 69fe6e0c&#45;7c54&#45;43c7&#45;9e7b&#45;c93918e15154&#45;&gt;dbc47154&#45;c117&#45;428c&#45;834c&#45;5aa5b24cd0be -->
<g id="edge35" class="edge">
<title>69fe6e0c&#45;7c54&#45;43c7&#45;9e7b&#45;c93918e15154&#45;&gt;dbc47154&#45;c117&#45;428c&#45;834c&#45;5aa5b24cd0be</title>
<path fill="none" stroke="#7b68ee" stroke-width="4" d="M226.3,-221.75C202.3,-210.6 167.8,-193.37 143.45,-180.44"/>
<polygon fill="#7b68ee" stroke="#7b68ee" stroke-width="4" points="145.25,-177.43 134.79,-175.75 141.91,-183.59 145.25,-177.43"/>
</g>
<!-- 5e38d3f0&#45;833e&#45;4a90&#45;b559&#45;b68350194e3f&#45;&gt;e04259f2&#45;891f&#45;4d24&#45;a72f&#45;2ea5bb4dc95a -->
<g id="edge41" class="edge">
<title>5e38d3f0&#45;833e&#45;4a90&#45;b559&#45;b68350194e3f&#45;&gt;e04259f2&#45;891f&#45;4d24&#45;a72f&#45;2ea5bb4dc95a</title>
<path fill="none" stroke="#00bfff" stroke-width="4" d="M120.68,-71.7C122.8,-65.51 125.27,-58.32 127.68,-51.28"/>
<polygon fill="#00bfff" stroke="#00bfff" stroke-width="4" points="130.99,-52.43 130.92,-41.83 124.37,-50.16 130.99,-52.43"/>
</g>
<!-- 5e38d3f0&#45;833e&#45;4a90&#45;b559&#45;b68350194e3f&#45;&gt;50c3810a&#45;49f8&#45;479d&#45;9271&#45;ebeeb6d69560 -->
<g id="edge42" class="edge">
<title>5e38d3f0&#45;833e&#45;4a90&#45;b559&#45;b68350194e3f&#45;&gt;50c3810a&#45;49f8&#45;479d&#45;9271&#45;ebeeb6d69560</title>
<path fill="none" stroke="#7b68ee" stroke-width="4" d="M141.94,-75.5C160.23,-66.42 184.88,-54.19 206.55,-43.42"/>
<polygon fill="#7b68ee" stroke="#7b68ee" stroke-width="4" points="207.8,-46.71 215.2,-39.13 204.69,-40.44 207.8,-46.71"/>
</g>
<!-- 5e38d3f0&#45;833e&#45;4a90&#45;b559&#45;b68350194e3f&#45;&gt;dbc47154&#45;c117&#45;428c&#45;834c&#45;5aa5b24cd0be -->
<g id="edge40" class="edge">
<title>5e38d3f0&#45;833e&#45;4a90&#45;b559&#45;b68350194e3f&#45;&gt;dbc47154&#45;c117&#45;428c&#45;834c&#45;5aa5b24cd0be</title>
<path fill="none" stroke="#7b68ee" d="M120.65,-108.12C121.44,-115.71 121.68,-124.84 121.37,-133.35"/>
<polygon fill="#7b68ee" stroke="#7b68ee" points="117.88,-133.03 120.66,-143.25 124.86,-133.53 117.88,-133.03"/>
</g>
<!-- 49f3d239&#45;5a6e&#45;4c8c&#45;b4f3&#45;598fd3565dc8&#45;&gt;86e4cb2d&#45;6c6f&#45;4c76&#45;837a&#45;388230ce3e9e -->
<g id="edge45" class="edge">
<title>49f3d239&#45;5a6e&#45;4c8c&#45;b4f3&#45;598fd3565dc8&#45;&gt;86e4cb2d&#45;6c6f&#45;4c76&#45;837a&#45;388230ce3e9e</title>
<path fill="none" stroke="#00bfff" d="M135.5,-503.7C148.82,-493.1 165.82,-479.58 179.27,-468.88"/>
<polygon fill="#00bfff" stroke="#00bfff" points="181.09,-471.91 186.74,-462.94 176.73,-466.43 181.09,-471.91"/>
</g>
<!-- 49f3d239&#45;5a6e&#45;4c8c&#45;b4f3&#45;598fd3565dc8&#45;&gt;dbc47154&#45;c117&#45;428c&#45;834c&#45;5aa5b24cd0be -->
<g id="edge46" class="edge">
<title>49f3d239&#45;5a6e&#45;4c8c&#45;b4f3&#45;598fd3565dc8&#45;&gt;dbc47154&#45;c117&#45;428c&#45;834c&#45;5aa5b24cd0be</title>
<path fill="none" stroke="#7b68ee" d="M107.98,-503.51C104.75,-476.71 104.75,-423.87 104.75,-379 104.75,-379 104.75,-379 104.75,-305 104.75,-265.09 105.15,-218.88 107.72,-190.29"/>
<polygon fill="#7b68ee" stroke="#7b68ee" points="111.16,-191.02 108.79,-180.69 104.2,-190.24 111.16,-191.02"/>
</g>
<!-- 11dfc0ca&#45;f837&#45;4da4&#45;80ec&#45;3ac279fbeb68&#45;&gt;ad7642c4&#45;db8d&#45;447d&#45;b10b&#45;12a26930e9d6 -->
<g id="edge48" class="edge">
<title>11dfc0ca&#45;f837&#45;4da4&#45;80ec&#45;3ac279fbeb68&#45;&gt;ad7642c4&#45;db8d&#45;447d&#45;b10b&#45;12a26930e9d6</title>
<path fill="none" stroke="#00bfff" d="M343.54,-1225.64C322.29,-1213.64 292.98,-1197.1 272.2,-1185.37"/>
<polygon fill="#00bfff" stroke="#00bfff" points="273.94,-1182.33 263.51,-1180.46 270.5,-1188.43 273.94,-1182.33"/>
</g>
<!-- 24b860b8&#45;f1a5&#45;4dd4&#45;928e&#45;9d090d3ee075&#45;&gt;a62e6563&#45;6395&#45;4331&#45;9f40&#45;05068d29c8c8 -->
<g id="edge50" class="edge">
<title>24b860b8&#45;f1a5&#45;4dd4&#45;928e&#45;9d090d3ee075&#45;&gt;a62e6563&#45;6395&#45;4331&#45;9f40&#45;05068d29c8c8</title>
<path fill="none" stroke="#00bfff" d="M216.99,-791.7C217.51,-784.41 218.13,-775.73 218.71,-767.54"/>
<polygon fill="#00bfff" stroke="#00bfff" points="222.2,-767.84 219.42,-757.61 215.22,-767.34 222.2,-767.84"/>
</g>
<!-- 74bebfaf&#45;d2de&#45;4458&#45;a981&#45;815c4cc27b47&#45;&gt;86e4cb2d&#45;6c6f&#45;4c76&#45;837a&#45;388230ce3e9e -->
<g id="edge52" class="edge">
<title>74bebfaf&#45;d2de&#45;4458&#45;a981&#45;815c4cc27b47&#45;&gt;86e4cb2d&#45;6c6f&#45;4c76&#45;837a&#45;388230ce3e9e</title>
<path fill="none" stroke="#00bfff" d="M220.57,-503.7C217.8,-495.93 214.46,-486.58 211.37,-477.93"/>
<polygon fill="#00bfff" stroke="#00bfff" points="214.68,-476.81 208.02,-468.57 208.09,-479.16 214.68,-476.81"/>
</g>
</g>
</svg>
