<?xml version="1.0" encoding="UTF-8" standalone="no"?>
<!DOCTYPE svg PUBLIC "-//W3C//DTD SVG 1.1//EN"
 "http://www.w3.org/Graphics/SVG/1.1/DTD/svg11.dtd">
<!-- Generated by graphviz version 12.2.1 (20241206.2353)
 -->
<!-- Title: ocpn Pages: 1 -->
<svg width="310pt" height="519pt"
 viewBox="0.00 0.00 309.61 519.24" xmlns="http://www.w3.org/2000/svg" xmlns:xlink="http://www.w3.org/1999/xlink">
<g id="graph0" class="graph" transform="scale(1 1) rotate(0) translate(4 515.24)">
<title>ocpn</title>
<polygon fill="white" stroke="none" points="-4,4 -4,-515.24 305.61,-515.24 305.61,4 -4,4"/>
<!-- 07410514&#45;ef73&#45;4337&#45;8f40&#45;a4978e4d6235 -->
<g id="node1" class="node">
<title>07410514&#45;ef73&#45;4337&#45;8f40&#45;a4978e4d6235</title>
<polygon fill="#ffa500" stroke="black" points="162.85,-457.12 162.85,-488.82 116.33,-511.24 50.55,-511.24 4.03,-488.82 4.03,-457.12 50.55,-434.7 116.33,-434.7 162.85,-457.12"/>
<text text-anchor="start" x="79.31" y="-479.67" font-family="Times New Roman,serif" font-style="italic" font-size="14.00">A</text>
<polygon fill="black" stroke="none" points="39.56,-472.47 39.56,-473.47 127.31,-473.47 127.31,-472.47 39.56,-472.47"/>
<text text-anchor="start" x="45.56" y="-457.17" font-family="Times New Roman,serif" font-size="14.00">Generate A</text>
<text text-anchor="start" x="111.06" y="-457.17" font-family="Times New Roman,serif" font-size="14.00">→</text>
</g>
<!-- 1e1ba1b1&#45;8477&#45;4498&#45;896c&#45;097e54b1f796 -->
<g id="node5" class="node">
<title>1e1ba1b1&#45;8477&#45;4498&#45;896c&#45;097e54b1f796</title>
<polygon fill="none" stroke="black" points="124.19,-398.7 42.69,-398.7 42.69,-328.2 124.19,-328.2 124.19,-398.7"/>
<text text-anchor="start" x="52.69" y="-380.4" font-family="Times New Roman,serif" font-style="italic" font-size="14.00">Generate A</text>
<polygon fill="black" stroke="none" points="50.69,-373.2 50.69,-374.2 116.19,-374.2 116.19,-373.2 50.69,-373.2"/>
<text text-anchor="start" x="55.73" y="-357.9" font-family="Times New Roman,serif" font-size="14.00">→</text>
<text text-anchor="start" x="80.06" y="-357.9" font-family="Times New Roman,serif" font-size="14.00" fill="#ffa500">1</text>
<text text-anchor="start" x="80.06" y="-337.4" font-family="Times New Roman,serif" font-size="14.00" fill="#ffa500">1</text>
<text text-anchor="start" x="96.9" y="-337.4" font-family="Times New Roman,serif" font-size="14.00">→</text>
</g>
<!-- 07410514&#45;ef73&#45;4337&#45;8f40&#45;a4978e4d6235&#45;&gt;1e1ba1b1&#45;8477&#45;4498&#45;896c&#45;097e54b1f796 -->
<g id="edge1" class="edge">
<title>07410514&#45;ef73&#45;4337&#45;8f40&#45;a4978e4d6235&#45;&gt;1e1ba1b1&#45;8477&#45;4498&#45;896c&#45;097e54b1f796</title>
<path fill="none" stroke="#ffa500" d="M83.44,-434.37C83.44,-426.64 83.44,-418.41 83.44,-410.43"/>
<polygon fill="#ffa500" stroke="#ffa500" points="86.94,-410.49 83.44,-400.49 79.94,-410.49 86.94,-410.49"/>
</g>
<!-- 3a1c44d3&#45;8057&#45;4607&#45;975c&#45;ab9dc75bee59 -->
<g id="node2" class="node">
<title>3a1c44d3&#45;8057&#45;4607&#45;975c&#45;ab9dc75bee59</title>
<ellipse fill="#ffa500" stroke="black" cx="83.44" cy="-242.35" rx="83.44" ry="49.85"/>
<text text-anchor="start" x="79.31" y="-259.3" font-family="Times New Roman,serif" font-style="italic" font-size="14.00">A</text>
<polygon fill="black" stroke="none" points="32.44,-252.1 32.44,-253.1 134.44,-253.1 134.44,-252.1 32.44,-252.1"/>
<text text-anchor="start" x="34.44" y="-236.8" font-family="Times New Roman,serif" font-size="14.00">→</text>
<text text-anchor="start" x="52.69" y="-236.8" font-family="Times New Roman,serif" font-size="14.00">Generate A</text>
<text text-anchor="start" x="66.56" y="-216.3" font-family="Times New Roman,serif" font-size="14.00">Use A</text>
<text text-anchor="start" x="118.19" y="-216.3" font-family="Times New Roman,serif" font-size="14.00">→</text>
</g>
<!-- ae089c34&#45;e15c&#45;424f&#45;a062&#45;4017f20e49ca -->
<g id="node6" class="node">
<title>ae089c34&#45;e15c&#45;424f&#45;a062&#45;4017f20e49ca</title>
<polygon fill="none" stroke="black" points="154.06,-156.5 90.81,-156.5 90.81,-86 154.06,-86 154.06,-156.5"/>
<text text-anchor="start" x="106.31" y="-138.2" font-family="Times New Roman,serif" font-style="italic" font-size="14.00">Use A</text>
<polygon fill="black" stroke="none" points="98.81,-131 98.81,-132 146.06,-132 146.06,-131 98.81,-131"/>
<text text-anchor="start" x="100.81" y="-115.7" font-family="Times New Roman,serif" font-size="14.00">→</text>
<text text-anchor="start" x="119.06" y="-115.7" font-family="Times New Roman,serif" font-size="14.00" fill="#ffa500">1</text>
<text text-anchor="start" x="119.06" y="-95.2" font-family="Times New Roman,serif" font-size="14.00" fill="#ffa500">1</text>
<text text-anchor="start" x="129.81" y="-95.2" font-family="Times New Roman,serif" font-size="14.00">→</text>
</g>
<!-- 3a1c44d3&#45;8057&#45;4607&#45;975c&#45;ab9dc75bee59&#45;&gt;ae089c34&#45;e15c&#45;424f&#45;a062&#45;4017f20e49ca -->
<g id="edge3" class="edge">
<title>3a1c44d3&#45;8057&#45;4607&#45;975c&#45;ab9dc75bee59&#45;&gt;ae089c34&#45;e15c&#45;424f&#45;a062&#45;4017f20e49ca</title>
<path fill="none" stroke="#ffa500" d="M99.3,-192.91C102.03,-184.58 104.85,-175.96 107.55,-167.72"/>
<polygon fill="#ffa500" stroke="#ffa500" points="110.88,-168.81 110.66,-158.22 104.22,-166.63 110.88,-168.81"/>
</g>
<!-- 99cab012&#45;7845&#45;4512&#45;8af5&#45;50180b2f70a3 -->
<g id="node3" class="node">
<title>99cab012&#45;7845&#45;4512&#45;8af5&#45;50180b2f70a3</title>
<polygon fill="#ffa500" stroke="black" points="301.61,-226.5 301.61,-258.2 267.53,-280.62 219.34,-280.62 185.27,-258.2 185.27,-226.5 219.34,-204.08 267.53,-204.08 301.61,-226.5"/>
<text text-anchor="start" x="239.31" y="-249.05" font-family="Times New Roman,serif" font-style="italic" font-size="14.00">A</text>
<polygon fill="black" stroke="none" points="213.44,-241.85 213.44,-242.85 273.44,-242.85 273.44,-241.85 213.44,-241.85"/>
<text text-anchor="start" x="219.44" y="-226.55" font-family="Times New Roman,serif" font-size="14.00">Use A</text>
<text text-anchor="start" x="257.19" y="-226.55" font-family="Times New Roman,serif" font-size="14.00">→</text>
</g>
<!-- f99953d0&#45;e424&#45;46af&#45;8c11&#45;71d2b75a7632 -->
<g id="node7" class="node">
<title>f99953d0&#45;e424&#45;46af&#45;8c11&#45;71d2b75a7632</title>
<polygon fill="none" stroke="black" points="255.06,-156.5 191.81,-156.5 191.81,-86 255.06,-86 255.06,-156.5"/>
<text text-anchor="start" x="207.31" y="-138.2" font-family="Times New Roman,serif" font-style="italic" font-size="14.00">Use A</text>
<polygon fill="black" stroke="none" points="199.81,-131 199.81,-132 247.06,-132 247.06,-131 199.81,-131"/>
<text text-anchor="start" x="201.81" y="-115.7" font-family="Times New Roman,serif" font-size="14.00">→</text>
<text text-anchor="start" x="220.06" y="-115.7" font-family="Times New Roman,serif" font-size="14.00" fill="#ffa500">1</text>
<text text-anchor="start" x="220.06" y="-95.2" font-family="Times New Roman,serif" font-size="14.00" fill="#ffa500">1</text>
<text text-anchor="start" x="230.81" y="-95.2" font-family="Times New Roman,serif" font-size="14.00">→</text>
</g>
<!-- 99cab012&#45;7845&#45;4512&#45;8af5&#45;50180b2f70a3&#45;&gt;f99953d0&#45;e424&#45;46af&#45;8c11&#45;71d2b75a7632 -->
<g id="edge5" class="edge">
<title>99cab012&#45;7845&#45;4512&#45;8af5&#45;50180b2f70a3&#45;&gt;f99953d0&#45;e424&#45;46af&#45;8c11&#45;71d2b75a7632</title>
<path fill="none" stroke="#ffa500" d="M237.11,-203.67C235.2,-192.3 233.09,-179.71 231.1,-167.89"/>
<polygon fill="#ffa500" stroke="#ffa500" points="234.61,-167.63 229.5,-158.35 227.71,-168.79 234.61,-167.63"/>
</g>
<!-- 15ddb81e&#45;400f&#45;4f13&#45;8888&#45;c49f0ddcd060 -->
<g id="node4" class="node">
<title>15ddb81e&#45;400f&#45;4f13&#45;8888&#45;c49f0ddcd060</title>
<polygon fill="#ffa500" stroke="black" points="200.44,-50 124.44,-50 124.44,0 200.44,0 200.44,-50"/>
<text text-anchor="start" x="158.31" y="-31.7" font-family="Times New Roman,serif" font-style="italic" font-size="14.00">A</text>
<polygon fill="black" stroke="none" points="132.44,-24.5 132.44,-25.5 192.44,-25.5 192.44,-24.5 132.44,-24.5"/>
<text text-anchor="start" x="134.44" y="-9.2" font-family="Times New Roman,serif" font-size="14.00">→</text>
<text text-anchor="start" x="152.69" y="-9.2" font-family="Times New Roman,serif" font-size="14.00">Use A</text>
</g>
<!-- 1e1ba1b1&#45;8477&#45;4498&#45;896c&#45;097e54b1f796&#45;&gt;3a1c44d3&#45;8057&#45;4607&#45;975c&#45;ab9dc75bee59 -->
<g id="edge2" class="edge">
<title>1e1ba1b1&#45;8477&#45;4498&#45;896c&#45;097e54b1f796&#45;&gt;3a1c44d3&#45;8057&#45;4607&#45;975c&#45;ab9dc75bee59</title>
<path fill="none" stroke="#ffa500" d="M83.44,-328C83.44,-320.35 83.44,-312.02 83.44,-303.67"/>
<polygon fill="#ffa500" stroke="#ffa500" points="86.94,-303.85 83.44,-293.85 79.94,-303.85 86.94,-303.85"/>
</g>
<!-- ae089c34&#45;e15c&#45;424f&#45;a062&#45;4017f20e49ca&#45;&gt;15ddb81e&#45;400f&#45;4f13&#45;8888&#45;c49f0ddcd060 -->
<g id="edge4" class="edge">
<title>ae089c34&#45;e15c&#45;424f&#45;a062&#45;4017f20e49ca&#45;&gt;15ddb81e&#45;400f&#45;4f13&#45;8888&#45;c49f0ddcd060</title>
<path fill="none" stroke="#ffa500" d="M137.11,-85.69C140.58,-77.51 144.28,-68.78 147.76,-60.6"/>
<polygon fill="#ffa500" stroke="#ffa500" points="150.87,-62.21 151.56,-51.63 144.43,-59.47 150.87,-62.21"/>
</g>
<!-- f99953d0&#45;e424&#45;46af&#45;8c11&#45;71d2b75a7632&#45;&gt;15ddb81e&#45;400f&#45;4f13&#45;8888&#45;c49f0ddcd060 -->
<g id="edge6" class="edge">
<title>f99953d0&#45;e424&#45;46af&#45;8c11&#45;71d2b75a7632&#45;&gt;15ddb81e&#45;400f&#45;4f13&#45;8888&#45;c49f0ddcd060</title>
<path fill="none" stroke="#ffa500" d="M201.07,-85.69C195.6,-77.23 189.74,-68.19 184.29,-59.77"/>
<polygon fill="#ffa500" stroke="#ffa500" points="187.32,-58.01 178.95,-51.51 181.45,-61.81 187.32,-58.01"/>
</g>
</g>
</svg>
