<?xml version="1.0" encoding="UTF-8" standalone="no"?>
<!DOCTYPE svg PUBLIC "-//W3C//DTD SVG 1.1//EN"
 "http://www.w3.org/Graphics/SVG/1.1/DTD/svg11.dtd">
<!-- Generated by graphviz version 12.2.1 (20241206.2353)
 -->
<!-- Title: ocpn Pages: 1 -->
<svg width="172pt" height="332pt"
 viewBox="0.00 0.00 172.00 332.00" xmlns="http://www.w3.org/2000/svg" xmlns:xlink="http://www.w3.org/1999/xlink">
<g id="graph0" class="graph" transform="scale(1 1) rotate(0) translate(4 328)">
<title>ocpn</title>
<polygon fill="white" stroke="none" points="-4,4 -4,-328 168,-328 168,4 -4,4"/>
<!-- 0f53026d&#45;c19d&#45;4e5c&#45;91a2&#45;149cb8e285e1 -->
<g id="node1" class="node">
<title>0f53026d&#45;c19d&#45;4e5c&#45;91a2&#45;149cb8e285e1</title>
<polygon fill="#ffa500" stroke="black" points="65.75,-298.54 65.75,-313.46 49.93,-324 27.57,-324 11.75,-313.46 11.75,-298.54 27.57,-288 49.93,-288 65.75,-298.54"/>
<text text-anchor="middle" x="38.75" y="-300.95" font-family="Times New Roman,serif" font-size="14.00">A</text>
</g>
<!-- a03bca08&#45;1db0&#45;4bea&#45;a1fb&#45;9317b0dde335 -->
<g id="node4" class="node">
<title>a03bca08&#45;1db0&#45;4bea&#45;a1fb&#45;9317b0dde335</title>
<polygon fill="none" stroke="black" points="77.5,-252 0,-252 0,-216 77.5,-216 77.5,-252"/>
<text text-anchor="middle" x="38.75" y="-228.95" font-family="Times New Roman,serif" font-size="14.00">Generate A</text>
</g>
<!-- 0f53026d&#45;c19d&#45;4e5c&#45;91a2&#45;149cb8e285e1&#45;&gt;a03bca08&#45;1db0&#45;4bea&#45;a1fb&#45;9317b0dde335 -->
<g id="edge1" class="edge">
<title>0f53026d&#45;c19d&#45;4e5c&#45;91a2&#45;149cb8e285e1&#45;&gt;a03bca08&#45;1db0&#45;4bea&#45;a1fb&#45;9317b0dde335</title>
<path fill="none" stroke="#ffa500" d="M38.75,-287.7C38.75,-280.41 38.75,-271.73 38.75,-263.54"/>
<polygon fill="#ffa500" stroke="#ffa500" points="42.25,-263.62 38.75,-253.62 35.25,-263.62 42.25,-263.62"/>
</g>
<!-- 86abfb21&#45;87ec&#45;4ad0&#45;ab62&#45;296888fbd5c7 -->
<g id="node2" class="node">
<title>86abfb21&#45;87ec&#45;4ad0&#45;ab62&#45;296888fbd5c7</title>
<polygon fill="#ffa500" stroke="black" points="150.75,-36 96.75,-36 96.75,0 150.75,0 150.75,-36"/>
<text text-anchor="middle" x="123.75" y="-12.95" font-family="Times New Roman,serif" font-size="14.00">A</text>
</g>
<!-- 28be6133&#45;879c&#45;4cb6&#45;8a83&#45;153694265694 -->
<g id="node3" class="node">
<title>28be6133&#45;879c&#45;4cb6&#45;8a83&#45;153694265694</title>
<ellipse fill="#ffa500" stroke="black" cx="38.75" cy="-162" rx="18" ry="18"/>
</g>
<!-- 4b122362&#45;85c8&#45;473b&#45;91f9&#45;25b4157ab891 -->
<g id="node5" class="node">
<title>4b122362&#45;85c8&#45;473b&#45;91f9&#45;25b4157ab891</title>
<polygon fill="none" stroke="black" points="65.75,-108 11.75,-108 11.75,-72 65.75,-72 65.75,-108"/>
<text text-anchor="middle" x="38.75" y="-84.95" font-family="Times New Roman,serif" font-size="14.00">Use A</text>
</g>
<!-- 28be6133&#45;879c&#45;4cb6&#45;8a83&#45;153694265694&#45;&gt;4b122362&#45;85c8&#45;473b&#45;91f9&#45;25b4157ab891 -->
<g id="edge3" class="edge">
<title>28be6133&#45;879c&#45;4cb6&#45;8a83&#45;153694265694&#45;&gt;4b122362&#45;85c8&#45;473b&#45;91f9&#45;25b4157ab891</title>
<path fill="none" stroke="#ffa500" d="M32.95,-144.76C32.1,-137.21 31.82,-128 32.11,-119.36"/>
<polygon fill="#ffa500" stroke="#ffa500" points="35.58,-119.84 32.75,-109.63 28.6,-119.38 35.58,-119.84"/>
</g>
<!-- be82a016&#45;3fb7&#45;4268&#45;95ca&#45;3c2ece90ca31 -->
<g id="node6" class="node">
<title>be82a016&#45;3fb7&#45;4268&#45;95ca&#45;3c2ece90ca31</title>
<polygon fill="none" stroke="black" points="164,-108 83.5,-108 83.5,-72 164,-72 164,-108"/>
<text text-anchor="middle" x="123.75" y="-84.95" font-family="Times New Roman,serif" font-size="14.00">Consume A</text>
</g>
<!-- 28be6133&#45;879c&#45;4cb6&#45;8a83&#45;153694265694&#45;&gt;be82a016&#45;3fb7&#45;4268&#45;95ca&#45;3c2ece90ca31 -->
<g id="edge5" class="edge">
<title>28be6133&#45;879c&#45;4cb6&#45;8a83&#45;153694265694&#45;&gt;be82a016&#45;3fb7&#45;4268&#45;95ca&#45;3c2ece90ca31</title>
<path fill="none" stroke="#ffa500" d="M52.41,-149.75C63.68,-140.47 80.07,-126.97 94.3,-115.25"/>
<polygon fill="#ffa500" stroke="#ffa500" points="96.16,-118.26 101.65,-109.2 91.71,-112.85 96.16,-118.26"/>
</g>
<!-- a03bca08&#45;1db0&#45;4bea&#45;a1fb&#45;9317b0dde335&#45;&gt;28be6133&#45;879c&#45;4cb6&#45;8a83&#45;153694265694 -->
<g id="edge2" class="edge">
<title>a03bca08&#45;1db0&#45;4bea&#45;a1fb&#45;9317b0dde335&#45;&gt;28be6133&#45;879c&#45;4cb6&#45;8a83&#45;153694265694</title>
<path fill="none" stroke="#ffa500" d="M38.75,-215.7C38.75,-208.41 38.75,-199.73 38.75,-191.54"/>
<polygon fill="#ffa500" stroke="#ffa500" points="42.25,-191.62 38.75,-181.62 35.25,-191.62 42.25,-191.62"/>
</g>
<!-- 4b122362&#45;85c8&#45;473b&#45;91f9&#45;25b4157ab891&#45;&gt;28be6133&#45;879c&#45;4cb6&#45;8a83&#45;153694265694 -->
<g id="edge4" class="edge">
<title>4b122362&#45;85c8&#45;473b&#45;91f9&#45;25b4157ab891&#45;&gt;28be6133&#45;879c&#45;4cb6&#45;8a83&#45;153694265694</title>
<path fill="none" stroke="#ffa500" d="M44.65,-108.12C45.44,-115.71 45.68,-124.84 45.37,-133.35"/>
<polygon fill="#ffa500" stroke="#ffa500" points="41.88,-133.03 44.66,-143.25 48.86,-133.53 41.88,-133.03"/>
</g>
<!-- be82a016&#45;3fb7&#45;4268&#45;95ca&#45;3c2ece90ca31&#45;&gt;86abfb21&#45;87ec&#45;4ad0&#45;ab62&#45;296888fbd5c7 -->
<g id="edge6" class="edge">
<title>be82a016&#45;3fb7&#45;4268&#45;95ca&#45;3c2ece90ca31&#45;&gt;86abfb21&#45;87ec&#45;4ad0&#45;ab62&#45;296888fbd5c7</title>
<path fill="none" stroke="#ffa500" d="M123.75,-71.7C123.75,-64.41 123.75,-55.73 123.75,-47.54"/>
<polygon fill="#ffa500" stroke="#ffa500" points="127.25,-47.62 123.75,-37.62 120.25,-47.62 127.25,-47.62"/>
</g>
</g>
</svg>
