<?xml version="1.0" encoding="UTF-8" standalone="no"?>
<!DOCTYPE svg PUBLIC "-//W3C//DTD SVG 1.1//EN"
 "http://www.w3.org/Graphics/SVG/1.1/DTD/svg11.dtd">
<!-- Generated by graphviz version 2.43.0 (0)
 -->
<!-- Title: ofn Pages: 1 -->
<svg width="574pt" height="114pt"
 viewBox="0.00 0.00 574.00 114.00" xmlns="http://www.w3.org/2000/svg" xmlns:xlink="http://www.w3.org/1999/xlink">
<g id="graph0" class="graph" transform="scale(1 1) rotate(0) translate(4 110)">
<title>ofn</title>
<polygon fill="white" stroke="transparent" points="-4,4 -4,-110 570,-110 570,4 -4,4"/>
<!-- 52a2e270&#45;650a&#45;413f&#45;af3a&#45;87b0e0367fbc -->
<g id="node1" class="node">
<title>52a2e270&#45;650a&#45;413f&#45;af3a&#45;87b0e0367fbc</title>
<polygon fill="#605d6e" stroke="black" points="54,-72.54 54,-87.46 38.18,-98 15.82,-98 0,-87.46 0,-72.54 15.82,-62 38.18,-62 54,-72.54"/>
</g>
<!-- 1d3939df&#45;2121&#45;4edd&#45;9ea1&#45;a81a9d55002f -->
<g id="node7" class="node">
<title>1d3939df&#45;2121&#45;4edd&#45;9ea1&#45;a81a9d55002f</title>
<polygon fill="none" stroke="black" points="144,-98 90,-98 90,-62 144,-62 144,-98"/>
<text text-anchor="start" x="112.5" y="-75.8" font-family="Times,serif" font-size="14.00">A</text>
</g>
<!-- 52a2e270&#45;650a&#45;413f&#45;af3a&#45;87b0e0367fbc&#45;&gt;1d3939df&#45;2121&#45;4edd&#45;9ea1&#45;a81a9d55002f -->
<g id="edge1" class="edge">
<title>52a2e270&#45;650a&#45;413f&#45;af3a&#45;87b0e0367fbc&#45;&gt;1d3939df&#45;2121&#45;4edd&#45;9ea1&#45;a81a9d55002f</title>
<path fill="none" stroke="#605d6e" d="M54.4,-80C62.39,-80 71.31,-80 79.82,-80"/>
<polygon fill="#605d6e" stroke="#605d6e" points="79.92,-83.5 89.92,-80 79.92,-76.5 79.92,-83.5"/>
</g>
<!-- a68f2eaf&#45;e424&#45;4d86&#45;91d4&#45;54c9f4dca694 -->
<g id="node2" class="node">
<title>a68f2eaf&#45;e424&#45;4d86&#45;91d4&#45;54c9f4dca694</title>
<ellipse fill="#605d6e" stroke="black" cx="198" cy="-53" rx="18" ry="18"/>
</g>
<!-- 4c29c5d4&#45;5fb3&#45;400e&#45;80fa&#45;f20e29bbeaf6 -->
<g id="node8" class="node">
<title>4c29c5d4&#45;5fb3&#45;400e&#45;80fa&#45;f20e29bbeaf6</title>
<polygon fill="none" stroke="black" points="306,-71 252,-71 252,-35 306,-35 306,-71"/>
<text text-anchor="start" x="274" y="-48.8" font-family="Times,serif" font-size="14.00">C</text>
</g>
<!-- a68f2eaf&#45;e424&#45;4d86&#45;91d4&#45;54c9f4dca694&#45;&gt;4c29c5d4&#45;5fb3&#45;400e&#45;80fa&#45;f20e29bbeaf6 -->
<g id="edge3" class="edge">
<title>a68f2eaf&#45;e424&#45;4d86&#45;91d4&#45;54c9f4dca694&#45;&gt;4c29c5d4&#45;5fb3&#45;400e&#45;80fa&#45;f20e29bbeaf6</title>
<path fill="none" stroke="#605d6e" d="M216.14,-53C223.64,-53 232.75,-53 241.64,-53"/>
<polygon fill="#605d6e" stroke="#605d6e" points="241.87,-56.5 251.87,-53 241.87,-49.5 241.87,-56.5"/>
</g>
<!-- acfec8b4&#45;7ac0&#45;458b&#45;8a3a&#45;b88d3442bf9d -->
<g id="node3" class="node">
<title>acfec8b4&#45;7ac0&#45;458b&#45;8a3a&#45;b88d3442bf9d</title>
<ellipse fill="#605d6e" stroke="black" cx="360" cy="-53" rx="18" ry="18"/>
</g>
<!-- 3efc6a7b&#45;c2c3&#45;4415&#45;9c8e&#45;e55448e5746d -->
<g id="node9" class="node">
<title>3efc6a7b&#45;c2c3&#45;4415&#45;9c8e&#45;e55448e5746d</title>
<polygon fill="none" stroke="black" points="468,-100 414,-100 414,-64 468,-64 468,-100"/>
<text text-anchor="start" x="435" y="-77.8" font-family="Times,serif" font-size="14.00">D</text>
</g>
<!-- acfec8b4&#45;7ac0&#45;458b&#45;8a3a&#45;b88d3442bf9d&#45;&gt;3efc6a7b&#45;c2c3&#45;4415&#45;9c8e&#45;e55448e5746d -->
<g id="edge5" class="edge">
<title>acfec8b4&#45;7ac0&#45;458b&#45;8a3a&#45;b88d3442bf9d&#45;&gt;3efc6a7b&#45;c2c3&#45;4415&#45;9c8e&#45;e55448e5746d</title>
<path fill="none" stroke="#605d6e" d="M377.37,-59.01C385.15,-61.87 394.78,-65.4 404.14,-68.84"/>
<polygon fill="#605d6e" stroke="#605d6e" points="403.11,-72.19 413.7,-72.35 405.52,-65.61 403.11,-72.19"/>
</g>
<!-- 53c6b5b0&#45;77ea&#45;42cb&#45;9bcc&#45;aa7b7655122b -->
<g id="node11" class="node">
<title>53c6b5b0&#45;77ea&#45;42cb&#45;9bcc&#45;aa7b7655122b</title>
<polygon fill="none" stroke="black" points="468,-44 414,-44 414,-8 468,-8 468,-44"/>
<text text-anchor="start" x="436" y="-21.8" font-family="Times,serif" font-size="14.00">E</text>
</g>
<!-- acfec8b4&#45;7ac0&#45;458b&#45;8a3a&#45;b88d3442bf9d&#45;&gt;53c6b5b0&#45;77ea&#45;42cb&#45;9bcc&#45;aa7b7655122b -->
<g id="edge9" class="edge">
<title>acfec8b4&#45;7ac0&#45;458b&#45;8a3a&#45;b88d3442bf9d&#45;&gt;53c6b5b0&#45;77ea&#45;42cb&#45;9bcc&#45;aa7b7655122b</title>
<path fill="none" stroke="#605d6e" d="M377.37,-47.41C385.15,-44.75 394.78,-41.45 404.14,-38.26"/>
<polygon fill="#605d6e" stroke="#605d6e" points="405.37,-41.53 413.7,-34.99 403.11,-34.91 405.37,-41.53"/>
</g>
<!-- 8f8d6115&#45;0a3b&#45;4658&#45;9007&#45;485d900249a0 -->
<g id="node4" class="node">
<title>8f8d6115&#45;0a3b&#45;4658&#45;9007&#45;485d900249a0</title>
<polygon fill="#605d6e" stroke="black" points="562,-76.54 562,-91.46 546.18,-102 523.82,-102 508,-91.46 508,-76.54 523.82,-66 546.18,-66 562,-76.54"/>
<polygon fill="none" stroke="black" points="566,-74.4 566,-93.6 547.39,-106 522.61,-106 504,-93.6 504,-74.4 522.61,-62 547.39,-62 566,-74.4"/>
</g>
<!-- 2cde8bf5&#45;2d71&#45;485a&#45;a94d&#45;8dbf7e772740 -->
<g id="node5" class="node">
<title>2cde8bf5&#45;2d71&#45;485a&#45;a94d&#45;8dbf7e772740</title>
<polygon fill="#605d6e" stroke="black" points="54,-18.54 54,-33.46 38.18,-44 15.82,-44 0,-33.46 0,-18.54 15.82,-8 38.18,-8 54,-18.54"/>
</g>
<!-- c280e011&#45;2403&#45;4cf0&#45;b4de&#45;303c699629ac -->
<g id="node10" class="node">
<title>c280e011&#45;2403&#45;4cf0&#45;b4de&#45;303c699629ac</title>
<polygon fill="none" stroke="black" points="144,-44 90,-44 90,-8 144,-8 144,-44"/>
<text text-anchor="start" x="112" y="-21.8" font-family="Times,serif" font-size="14.00">B</text>
</g>
<!-- 2cde8bf5&#45;2d71&#45;485a&#45;a94d&#45;8dbf7e772740&#45;&gt;c280e011&#45;2403&#45;4cf0&#45;b4de&#45;303c699629ac -->
<g id="edge7" class="edge">
<title>2cde8bf5&#45;2d71&#45;485a&#45;a94d&#45;8dbf7e772740&#45;&gt;c280e011&#45;2403&#45;4cf0&#45;b4de&#45;303c699629ac</title>
<path fill="none" stroke="#605d6e" d="M54.4,-26C62.39,-26 71.31,-26 79.82,-26"/>
<polygon fill="#605d6e" stroke="#605d6e" points="79.92,-29.5 89.92,-26 79.92,-22.5 79.92,-29.5"/>
</g>
<!-- d2520312&#45;c2a4&#45;4b00&#45;97f0&#45;7d6b0eb86a0b -->
<g id="node6" class="node">
<title>d2520312&#45;c2a4&#45;4b00&#45;97f0&#45;7d6b0eb86a0b</title>
<polygon fill="#605d6e" stroke="black" points="562,-14.54 562,-29.46 546.18,-40 523.82,-40 508,-29.46 508,-14.54 523.82,-4 546.18,-4 562,-14.54"/>
<polygon fill="none" stroke="black" points="566,-12.4 566,-31.6 547.39,-44 522.61,-44 504,-31.6 504,-12.4 522.61,0 547.39,0 566,-12.4"/>
</g>
<!-- 1d3939df&#45;2121&#45;4edd&#45;9ea1&#45;a81a9d55002f&#45;&gt;a68f2eaf&#45;e424&#45;4d86&#45;91d4&#45;54c9f4dca694 -->
<g id="edge2" class="edge">
<title>1d3939df&#45;2121&#45;4edd&#45;9ea1&#45;a81a9d55002f&#45;&gt;a68f2eaf&#45;e424&#45;4d86&#45;91d4&#45;54c9f4dca694</title>
<path fill="none" stroke="#605d6e" d="M144.31,-71.01C152.95,-68.05 162.55,-64.77 171.16,-61.83"/>
<polygon fill="#605d6e" stroke="#605d6e" points="172.37,-65.12 180.7,-58.57 170.11,-58.49 172.37,-65.12"/>
</g>
<!-- 4c29c5d4&#45;5fb3&#45;400e&#45;80fa&#45;f20e29bbeaf6&#45;&gt;acfec8b4&#45;7ac0&#45;458b&#45;8a3a&#45;b88d3442bf9d -->
<g id="edge4" class="edge">
<title>4c29c5d4&#45;5fb3&#45;400e&#45;80fa&#45;f20e29bbeaf6&#45;&gt;acfec8b4&#45;7ac0&#45;458b&#45;8a3a&#45;b88d3442bf9d</title>
<path fill="none" stroke="#605d6e" d="M306.31,-53C314.42,-53 323.37,-53 331.56,-53"/>
<polygon fill="#605d6e" stroke="#605d6e" points="331.75,-56.5 341.75,-53 331.75,-49.5 331.75,-56.5"/>
</g>
<!-- 3efc6a7b&#45;c2c3&#45;4415&#45;9c8e&#45;e55448e5746d&#45;&gt;8f8d6115&#45;0a3b&#45;4658&#45;9007&#45;485d900249a0 -->
<g id="edge6" class="edge">
<title>3efc6a7b&#45;c2c3&#45;4415&#45;9c8e&#45;e55448e5746d&#45;&gt;8f8d6115&#45;0a3b&#45;4658&#45;9007&#45;485d900249a0</title>
<path fill="none" stroke="#605d6e" d="M468.12,-82.57C476.14,-82.74 485.15,-82.94 493.88,-83.13"/>
<polygon fill="#605d6e" stroke="#605d6e" points="493.85,-86.63 503.92,-83.35 494,-79.63 493.85,-86.63"/>
</g>
<!-- c280e011&#45;2403&#45;4cf0&#45;b4de&#45;303c699629ac&#45;&gt;a68f2eaf&#45;e424&#45;4d86&#45;91d4&#45;54c9f4dca694 -->
<g id="edge8" class="edge">
<title>c280e011&#45;2403&#45;4cf0&#45;b4de&#45;303c699629ac&#45;&gt;a68f2eaf&#45;e424&#45;4d86&#45;91d4&#45;54c9f4dca694</title>
<path fill="none" stroke="#605d6e" d="M144.31,-34.99C152.95,-37.95 162.55,-41.23 171.16,-44.17"/>
<polygon fill="#605d6e" stroke="#605d6e" points="170.11,-47.51 180.7,-47.43 172.37,-40.88 170.11,-47.51"/>
</g>
<!-- 53c6b5b0&#45;77ea&#45;42cb&#45;9bcc&#45;aa7b7655122b&#45;&gt;d2520312&#45;c2a4&#45;4b00&#45;97f0&#45;7d6b0eb86a0b -->
<g id="edge10" class="edge">
<title>53c6b5b0&#45;77ea&#45;42cb&#45;9bcc&#45;aa7b7655122b&#45;&gt;d2520312&#45;c2a4&#45;4b00&#45;97f0&#45;7d6b0eb86a0b</title>
<path fill="none" stroke="#605d6e" d="M468.12,-24.86C476.14,-24.52 485.15,-24.12 493.88,-23.74"/>
<polygon fill="#605d6e" stroke="#605d6e" points="494.08,-27.24 503.92,-23.31 493.78,-20.25 494.08,-27.24"/>
</g>
</g>
</svg>
