<?xml version="1.0" encoding="UTF-8" standalone="no"?>
<!DOCTYPE svg PUBLIC "-//W3C//DTD SVG 1.1//EN"
 "http://www.w3.org/Graphics/SVG/1.1/DTD/svg11.dtd">
<!-- Generated by graphviz version 2.43.0 (0)
 -->
<!-- Title: ocpn Pages: 1 -->
<svg width="604pt" height="180pt"
 viewBox="0.00 0.00 604.00 180.00" xmlns="http://www.w3.org/2000/svg" xmlns:xlink="http://www.w3.org/1999/xlink">
<g id="graph0" class="graph" transform="scale(1 1) rotate(0) translate(4 176)">
<title>ocpn</title>
<polygon fill="white" stroke="transparent" points="-4,4 -4,-176 600,-176 600,4 -4,4"/>
<!-- 6db46273&#45;c32e&#45;4d68&#45;af1a&#45;106822ac2e26 -->
<g id="node1" class="node">
<title>6db46273&#45;c32e&#45;4d68&#45;af1a&#45;106822ac2e26</title>
<polygon fill="none" stroke="black" points="149,-91 95,-91 95,-55 149,-55 149,-91"/>
<text text-anchor="middle" x="122" y="-69.3" font-family="Times,serif" font-size="14.00">A</text>
</g>
<!-- 6f6d55fb&#45;2e7c&#45;420e&#45;aff5&#45;dbc030a784f5 -->
<g id="node8" class="node">
<title>6f6d55fb&#45;2e7c&#45;420e&#45;aff5&#45;dbc030a784f5</title>
<ellipse fill="#a7f6db" stroke="black" cx="208" cy="-73" rx="18" ry="18"/>
</g>
<!-- 6db46273&#45;c32e&#45;4d68&#45;af1a&#45;106822ac2e26&#45;&gt;6f6d55fb&#45;2e7c&#45;420e&#45;aff5&#45;dbc030a784f5 -->
<g id="edge4" class="edge">
<title>6db46273&#45;c32e&#45;4d68&#45;af1a&#45;106822ac2e26&#45;&gt;6f6d55fb&#45;2e7c&#45;420e&#45;aff5&#45;dbc030a784f5</title>
<path fill="none" stroke="#a7f6db" d="M149.12,-73C158.88,-73 169.98,-73 179.84,-73"/>
<polygon fill="#a7f6db" stroke="#a7f6db" points="179.92,-76.5 189.92,-73 179.92,-69.5 179.92,-76.5"/>
<text text-anchor="middle" x="169.5" y="-76.8" font-family="Times,serif" font-size="14.00"> </text>
</g>
<!-- 86f5053a&#45;7ad1&#45;469e&#45;85d6&#45;8def0ca2921a -->
<g id="node2" class="node">
<title>86f5053a&#45;7ad1&#45;469e&#45;85d6&#45;8def0ca2921a</title>
<polygon fill="none" stroke="black" points="321,-172 267,-172 267,-136 321,-136 321,-172"/>
<text text-anchor="middle" x="294" y="-150.3" font-family="Times,serif" font-size="14.00">D</text>
</g>
<!-- f6bfaefc&#45;90fb&#45;4c7a&#45;83ea&#45;d16006addf2e -->
<g id="node9" class="node">
<title>f6bfaefc&#45;90fb&#45;4c7a&#45;83ea&#45;d16006addf2e</title>
<ellipse fill="#a7f6db" stroke="black" cx="380" cy="-80" rx="18" ry="18"/>
</g>
<!-- 86f5053a&#45;7ad1&#45;469e&#45;85d6&#45;8def0ca2921a&#45;&gt;f6bfaefc&#45;90fb&#45;4c7a&#45;83ea&#45;d16006addf2e -->
<g id="edge10" class="edge">
<title>86f5053a&#45;7ad1&#45;469e&#45;85d6&#45;8def0ca2921a&#45;&gt;f6bfaefc&#45;90fb&#45;4c7a&#45;83ea&#45;d16006addf2e</title>
<path fill="none" stroke="#a7f6db" d="M315.76,-135.71C328.8,-124.22 345.54,-109.48 358.52,-98.04"/>
<polygon fill="#a7f6db" stroke="#a7f6db" points="360.86,-100.64 366.05,-91.41 356.23,-95.39 360.86,-100.64"/>
<text text-anchor="middle" x="341.5" y="-118.8" font-family="Times,serif" font-size="14.00"> </text>
</g>
<!-- ecb2f36e&#45;b5d0&#45;4933&#45;b1ae&#45;30b578198f54 -->
<g id="node3" class="node">
<title>ecb2f36e&#45;b5d0&#45;4933&#45;b1ae&#45;30b578198f54</title>
<polygon fill="none" stroke="black" points="321,-118 267,-118 267,-82 321,-82 321,-118"/>
<text text-anchor="middle" x="294" y="-96.3" font-family="Times,serif" font-size="14.00">C</text>
</g>
<!-- ecb2f36e&#45;b5d0&#45;4933&#45;b1ae&#45;30b578198f54&#45;&gt;f6bfaefc&#45;90fb&#45;4c7a&#45;83ea&#45;d16006addf2e -->
<g id="edge8" class="edge">
<title>ecb2f36e&#45;b5d0&#45;4933&#45;b1ae&#45;30b578198f54&#45;&gt;f6bfaefc&#45;90fb&#45;4c7a&#45;83ea&#45;d16006addf2e</title>
<path fill="none" stroke="#a7f6db" d="M321.12,-93.78C331.13,-91.4 342.55,-88.68 352.58,-86.29"/>
<polygon fill="#a7f6db" stroke="#a7f6db" points="353.51,-89.67 362.42,-83.95 351.88,-82.86 353.51,-89.67"/>
<text text-anchor="middle" x="341.5" y="-93.8" font-family="Times,serif" font-size="14.00"> </text>
</g>
<!-- f2350b2d&#45;3cc4&#45;4cc8&#45;8c22&#45;e0318eafb0af -->
<g id="node4" class="node">
<title>f2350b2d&#45;3cc4&#45;4cc8&#45;8c22&#45;e0318eafb0af</title>
<polygon fill="none" stroke="black" points="321,-64 267,-64 267,-28 321,-28 321,-64"/>
<text text-anchor="middle" x="294" y="-42.3" font-family="Times,serif" font-size="14.00">B</text>
</g>
<!-- f2350b2d&#45;3cc4&#45;4cc8&#45;8c22&#45;e0318eafb0af&#45;&gt;f6bfaefc&#45;90fb&#45;4c7a&#45;83ea&#45;d16006addf2e -->
<g id="edge3" class="edge">
<title>f2350b2d&#45;3cc4&#45;4cc8&#45;8c22&#45;e0318eafb0af&#45;&gt;f6bfaefc&#45;90fb&#45;4c7a&#45;83ea&#45;d16006addf2e</title>
<path fill="none" stroke="#a7f6db" d="M321.12,-56.57C331.56,-60.8 343.53,-65.64 353.87,-69.83"/>
<polygon fill="#a7f6db" stroke="#a7f6db" points="352.59,-73.09 363.17,-73.59 355.22,-66.6 352.59,-73.09"/>
<text text-anchor="middle" x="341.5" y="-69.8" font-family="Times,serif" font-size="14.00"> </text>
</g>
<!-- c376b3be&#45;a87f&#45;40e5&#45;89fb&#45;f672c883ee93 -->
<g id="node5" class="node">
<title>c376b3be&#45;a87f&#45;40e5&#45;89fb&#45;f672c883ee93</title>
<polygon fill="none" stroke="black" points="493,-98 439,-98 439,-62 493,-62 493,-98"/>
<text text-anchor="middle" x="466" y="-76.3" font-family="Times,serif" font-size="14.00">E</text>
</g>
<!-- 3857b6bf&#45;f61e&#45;4aed&#45;84e0&#45;a92c8bef7440 -->
<g id="node7" class="node">
<title>3857b6bf&#45;f61e&#45;4aed&#45;84e0&#45;a92c8bef7440</title>
<polygon fill="#a7f6db" stroke="black" points="592,-72.54 592,-87.46 576.18,-98 553.82,-98 538,-87.46 538,-72.54 553.82,-62 576.18,-62 592,-72.54"/>
<polygon fill="none" stroke="black" points="596,-70.4 596,-89.6 577.39,-102 552.61,-102 534,-89.6 534,-70.4 552.61,-58 577.39,-58 596,-70.4"/>
</g>
<!-- c376b3be&#45;a87f&#45;40e5&#45;89fb&#45;f672c883ee93&#45;&gt;3857b6bf&#45;f61e&#45;4aed&#45;84e0&#45;a92c8bef7440 -->
<g id="edge6" class="edge">
<title>c376b3be&#45;a87f&#45;40e5&#45;89fb&#45;f672c883ee93&#45;&gt;3857b6bf&#45;f61e&#45;4aed&#45;84e0&#45;a92c8bef7440</title>
<path fill="none" stroke="#a7f6db" d="M493.25,-80C502.68,-80 513.53,-80 523.87,-80"/>
<polygon fill="#a7f6db" stroke="#a7f6db" points="523.96,-83.5 533.96,-80 523.96,-76.5 523.96,-83.5"/>
<text text-anchor="middle" x="513.5" y="-83.8" font-family="Times,serif" font-size="14.00"> </text>
</g>
<!-- c27ea35e&#45;3deb&#45;40ca&#45;b8fb&#45;2e4dce6dafad -->
<g id="node6" class="node">
<title>c27ea35e&#45;3deb&#45;40ca&#45;b8fb&#45;2e4dce6dafad</title>
<polygon fill="#a7f6db" stroke="black" points="54,-65.54 54,-80.46 38.18,-91 15.82,-91 0,-80.46 0,-65.54 15.82,-55 38.18,-55 54,-65.54"/>
</g>
<!-- c27ea35e&#45;3deb&#45;40ca&#45;b8fb&#45;2e4dce6dafad&#45;&gt;6db46273&#45;c32e&#45;4d68&#45;af1a&#45;106822ac2e26 -->
<g id="edge7" class="edge">
<title>c27ea35e&#45;3deb&#45;40ca&#45;b8fb&#45;2e4dce6dafad&#45;&gt;6db46273&#45;c32e&#45;4d68&#45;af1a&#45;106822ac2e26</title>
<path fill="none" stroke="#a7f6db" d="M54.4,-73C63.81,-73 74.57,-73 84.66,-73"/>
<polygon fill="#a7f6db" stroke="#a7f6db" points="84.85,-76.5 94.85,-73 84.85,-69.5 84.85,-76.5"/>
<text text-anchor="middle" x="74.5" y="-76.8" font-family="Times,serif" font-size="14.00"> </text>
</g>
<!-- 6f6d55fb&#45;2e7c&#45;420e&#45;aff5&#45;dbc030a784f5&#45;&gt;86f5053a&#45;7ad1&#45;469e&#45;85d6&#45;8def0ca2921a -->
<g id="edge9" class="edge">
<title>6f6d55fb&#45;2e7c&#45;420e&#45;aff5&#45;dbc030a784f5&#45;&gt;86f5053a&#45;7ad1&#45;469e&#45;85d6&#45;8def0ca2921a</title>
<path fill="none" stroke="#a7f6db" d="M221.76,-85.3C233.64,-96.76 251.72,-114.19 266.69,-128.63"/>
<polygon fill="#a7f6db" stroke="#a7f6db" points="264.56,-131.44 274.19,-135.86 269.42,-126.4 264.56,-131.44"/>
<text text-anchor="middle" x="246.5" y="-115.8" font-family="Times,serif" font-size="14.00"> </text>
</g>
<!-- 6f6d55fb&#45;2e7c&#45;420e&#45;aff5&#45;dbc030a784f5&#45;&gt;ecb2f36e&#45;b5d0&#45;4933&#45;b1ae&#45;30b578198f54 -->
<g id="edge1" class="edge">
<title>6f6d55fb&#45;2e7c&#45;420e&#45;aff5&#45;dbc030a784f5&#45;&gt;ecb2f36e&#45;b5d0&#45;4933&#45;b1ae&#45;30b578198f54</title>
<path fill="none" stroke="#a7f6db" d="M225.6,-78.33C234.6,-81.23 246.1,-84.93 257.04,-88.44"/>
<polygon fill="#a7f6db" stroke="#a7f6db" points="256.26,-91.87 266.85,-91.59 258.4,-85.2 256.26,-91.87"/>
<text text-anchor="middle" x="246.5" y="-89.8" font-family="Times,serif" font-size="14.00"> </text>
</g>
<!-- 6f6d55fb&#45;2e7c&#45;420e&#45;aff5&#45;dbc030a784f5&#45;&gt;f2350b2d&#45;3cc4&#45;4cc8&#45;8c22&#45;e0318eafb0af -->
<g id="edge2" class="edge">
<title>6f6d55fb&#45;2e7c&#45;420e&#45;aff5&#45;dbc030a784f5&#45;&gt;f2350b2d&#45;3cc4&#45;4cc8&#45;8c22&#45;e0318eafb0af</title>
<path fill="none" stroke="#a7f6db" d="M225.6,-67.67C234.6,-64.77 246.1,-61.07 257.04,-57.56"/>
<polygon fill="#a7f6db" stroke="#a7f6db" points="258.4,-60.8 266.85,-54.41 256.26,-54.13 258.4,-60.8"/>
<text text-anchor="middle" x="246.5" y="-65.8" font-family="Times,serif" font-size="14.00"> </text>
</g>
<!-- f6bfaefc&#45;90fb&#45;4c7a&#45;83ea&#45;d16006addf2e&#45;&gt;c376b3be&#45;a87f&#45;40e5&#45;89fb&#45;f672c883ee93 -->
<g id="edge12" class="edge">
<title>f6bfaefc&#45;90fb&#45;4c7a&#45;83ea&#45;d16006addf2e&#45;&gt;c376b3be&#45;a87f&#45;40e5&#45;89fb&#45;f672c883ee93</title>
<path fill="none" stroke="#a7f6db" d="M398.4,-80C407.13,-80 418.03,-80 428.48,-80"/>
<polygon fill="#a7f6db" stroke="#a7f6db" points="428.68,-83.5 438.68,-80 428.68,-76.5 428.68,-83.5"/>
<text text-anchor="middle" x="418.5" y="-83.8" font-family="Times,serif" font-size="14.00"> </text>
</g>
<!-- 965137f3&#45;9e3d&#45;463b&#45;a525&#45;524f79521e05 -->
<g id="node10" class="node">
<title>965137f3&#45;9e3d&#45;463b&#45;a525&#45;524f79521e05</title>
<polygon fill="#a7f6db" stroke="black" points="493,-36 439,-36 439,0 493,0 493,-36"/>
<text text-anchor="middle" x="466" y="-14.3" font-family="Times,serif" font-size="14.00"> </text>
</g>
<!-- f6bfaefc&#45;90fb&#45;4c7a&#45;83ea&#45;d16006addf2e&#45;&gt;965137f3&#45;9e3d&#45;463b&#45;a525&#45;524f79521e05 -->
<g id="edge11" class="edge">
<title>f6bfaefc&#45;90fb&#45;4c7a&#45;83ea&#45;d16006addf2e&#45;&gt;965137f3&#45;9e3d&#45;463b&#45;a525&#45;524f79521e05</title>
<path fill="none" stroke="#a7f6db" d="M394.87,-69.76C405.04,-62.26 419.28,-51.75 432.27,-42.16"/>
<polygon fill="#a7f6db" stroke="#a7f6db" points="434.61,-44.78 440.57,-36.03 430.45,-39.15 434.61,-44.78"/>
<text text-anchor="middle" x="418.5" y="-56.8" font-family="Times,serif" font-size="14.00"> </text>
</g>
<!-- 965137f3&#45;9e3d&#45;463b&#45;a525&#45;524f79521e05&#45;&gt;6f6d55fb&#45;2e7c&#45;420e&#45;aff5&#45;dbc030a784f5 -->
<g id="edge5" class="edge">
<title>965137f3&#45;9e3d&#45;463b&#45;a525&#45;524f79521e05&#45;&gt;6f6d55fb&#45;2e7c&#45;420e&#45;aff5&#45;dbc030a784f5</title>
<path fill="none" stroke="#a7f6db" d="M438.87,-12.3C399.87,-5.07 324.84,3.93 267,-19 250.68,-25.47 236.23,-38.9 225.83,-50.74"/>
<polygon fill="#a7f6db" stroke="#a7f6db" points="223.01,-48.66 219.3,-58.59 228.39,-53.14 223.01,-48.66"/>
<text text-anchor="middle" x="341.5" y="-8.8" font-family="Times,serif" font-size="14.00"> </text>
</g>
</g>
</svg>
