<?xml version="1.0" encoding="UTF-8" standalone="no"?>
<!DOCTYPE svg PUBLIC "-//W3C//DTD SVG 1.1//EN"
 "http://www.w3.org/Graphics/SVG/1.1/DTD/svg11.dtd">
<!-- Generated by graphviz version 2.43.0 (0)
 -->
<!-- Title: ofn Pages: 1 -->
<svg width="1258pt" height="169pt"
 viewBox="0.00 0.00 1258.00 169.00" xmlns="http://www.w3.org/2000/svg" xmlns:xlink="http://www.w3.org/1999/xlink">
<g id="graph0" class="graph" transform="scale(1 1) rotate(0) translate(4 165)">
<title>ofn</title>
<polygon fill="white" stroke="transparent" points="-4,4 -4,-165 1254,-165 1254,4 -4,4"/>
<!-- 5f7a7576&#45;2a82&#45;4557&#45;8e7c&#45;9b37f5ae0f08 -->
<g id="node1" class="node">
<title>5f7a7576&#45;2a82&#45;4557&#45;8e7c&#45;9b37f5ae0f08</title>
<ellipse fill="#605d6e" stroke="black" cx="198" cy="-108" rx="18" ry="18"/>
</g>
<!-- 8d7cb33f&#45;8a41&#45;4be0&#45;8fc9&#45;27556bec0003 -->
<g id="node13" class="node">
<title>8d7cb33f&#45;8a41&#45;4be0&#45;8fc9&#45;27556bec0003</title>
<polygon fill="none" stroke="black" points="306,-103 252,-103 252,-67 306,-67 306,-103"/>
<text text-anchor="start" x="269" y="-80.8" font-family="Times,serif" font-size="14.00">𝜏</text>
</g>
<!-- 5f7a7576&#45;2a82&#45;4557&#45;8e7c&#45;9b37f5ae0f08&#45;&gt;8d7cb33f&#45;8a41&#45;4be0&#45;8fc9&#45;27556bec0003 -->
<g id="edge9" class="edge">
<title>5f7a7576&#45;2a82&#45;4557&#45;8e7c&#45;9b37f5ae0f08&#45;&gt;8d7cb33f&#45;8a41&#45;4be0&#45;8fc9&#45;27556bec0003</title>
<path fill="none" stroke="#605d6e" d="M215.37,-103.23C223.07,-100.99 232.58,-98.22 241.84,-95.53"/>
<polygon fill="#605d6e" stroke="#605d6e" points="243.08,-98.81 251.7,-92.66 241.12,-92.09 243.08,-98.81"/>
</g>
<!-- 135cd2c8&#45;70a4&#45;46bd&#45;a70e&#45;bcef2376b218 -->
<g id="node14" class="node">
<title>135cd2c8&#45;70a4&#45;46bd&#45;a70e&#45;bcef2376b218</title>
<polygon fill="none" stroke="black" points="396,-161 342,-161 342,-125 396,-125 396,-161"/>
<text text-anchor="start" x="359" y="-138.8" font-family="Times,serif" font-size="14.00">𝜏</text>
</g>
<!-- 5f7a7576&#45;2a82&#45;4557&#45;8e7c&#45;9b37f5ae0f08&#45;&gt;135cd2c8&#45;70a4&#45;46bd&#45;a70e&#45;bcef2376b218 -->
<g id="edge11" class="edge">
<title>5f7a7576&#45;2a82&#45;4557&#45;8e7c&#45;9b37f5ae0f08&#45;&gt;135cd2c8&#45;70a4&#45;46bd&#45;a70e&#45;bcef2376b218</title>
<path fill="none" stroke="#605d6e" d="M215.82,-111.48C242.72,-117.05 296.03,-128.09 331.86,-135.51"/>
<polygon fill="#605d6e" stroke="#605d6e" points="331.41,-139 341.91,-137.6 332.83,-132.14 331.41,-139"/>
</g>
<!-- a9144c20&#45;89ee&#45;45ff&#45;998a&#45;06a46a999919 -->
<g id="node2" class="node">
<title>a9144c20&#45;89ee&#45;45ff&#45;998a&#45;06a46a999919</title>
<polygon fill="#605d6e" stroke="black" points="54,-100.54 54,-115.46 38.18,-126 15.82,-126 0,-115.46 0,-100.54 15.82,-90 38.18,-90 54,-100.54"/>
</g>
<!-- 538160e9&#45;0d7f&#45;4f5f&#45;aeb9&#45;89e5fc6e384d -->
<g id="node9" class="node">
<title>538160e9&#45;0d7f&#45;4f5f&#45;aeb9&#45;89e5fc6e384d</title>
<polygon fill="none" stroke="black" points="144,-126 90,-126 90,-90 144,-90 144,-126"/>
<text text-anchor="start" x="112.5" y="-103.8" font-family="Times,serif" font-size="14.00">A</text>
</g>
<!-- a9144c20&#45;89ee&#45;45ff&#45;998a&#45;06a46a999919&#45;&gt;538160e9&#45;0d7f&#45;4f5f&#45;aeb9&#45;89e5fc6e384d -->
<g id="edge1" class="edge">
<title>a9144c20&#45;89ee&#45;45ff&#45;998a&#45;06a46a999919&#45;&gt;538160e9&#45;0d7f&#45;4f5f&#45;aeb9&#45;89e5fc6e384d</title>
<path fill="none" stroke="#605d6e" d="M54.4,-108C62.39,-108 71.31,-108 79.82,-108"/>
<polygon fill="#605d6e" stroke="#605d6e" points="79.92,-111.5 89.92,-108 79.92,-104.5 79.92,-111.5"/>
</g>
<!-- 132e92ac&#45;8480&#45;40a5&#45;8904&#45;54b6c0416ec2 -->
<g id="node3" class="node">
<title>132e92ac&#45;8480&#45;40a5&#45;8904&#45;54b6c0416ec2</title>
<ellipse fill="#605d6e" stroke="black" cx="369" cy="-81" rx="18" ry="18"/>
</g>
<!-- 027a70e9&#45;ded3&#45;40ec&#45;bdda&#45;9719361df68a -->
<g id="node10" class="node">
<title>027a70e9&#45;ded3&#45;40ec&#45;bdda&#45;9719361df68a</title>
<polygon fill="none" stroke="black" points="486,-99 432,-99 432,-63 486,-63 486,-99"/>
<text text-anchor="start" x="454" y="-76.8" font-family="Times,serif" font-size="14.00">B</text>
</g>
<!-- 132e92ac&#45;8480&#45;40a5&#45;8904&#45;54b6c0416ec2&#45;&gt;027a70e9&#45;ded3&#45;40ec&#45;bdda&#45;9719361df68a -->
<g id="edge3" class="edge">
<title>132e92ac&#45;8480&#45;40a5&#45;8904&#45;54b6c0416ec2&#45;&gt;027a70e9&#45;ded3&#45;40ec&#45;bdda&#45;9719361df68a</title>
<path fill="none" stroke="#605d6e" d="M387.39,-81C397.23,-81 409.91,-81 421.81,-81"/>
<polygon fill="#605d6e" stroke="#605d6e" points="421.97,-84.5 431.97,-81 421.97,-77.5 421.97,-84.5"/>
</g>
<!-- 6910b886&#45;4459&#45;4885&#45;af34&#45;ca86fdba4cce -->
<g id="node4" class="node">
<title>6910b886&#45;4459&#45;4885&#45;af34&#45;ca86fdba4cce</title>
<ellipse fill="#605d6e" stroke="black" cx="540" cy="-81" rx="18" ry="18"/>
</g>
<!-- 55357136&#45;81c6&#45;41d9&#45;b796&#45;5ee327693724 -->
<g id="node15" class="node">
<title>55357136&#45;81c6&#45;41d9&#45;b796&#45;5ee327693724</title>
<polygon fill="none" stroke="black" points="648,-124 594,-124 594,-88 648,-88 648,-124"/>
<text text-anchor="start" x="611" y="-101.8" font-family="Times,serif" font-size="14.00">𝜏</text>
</g>
<!-- 6910b886&#45;4459&#45;4885&#45;af34&#45;ca86fdba4cce&#45;&gt;55357136&#45;81c6&#45;41d9&#45;b796&#45;5ee327693724 -->
<g id="edge13" class="edge">
<title>6910b886&#45;4459&#45;4885&#45;af34&#45;ca86fdba4cce&#45;&gt;55357136&#45;81c6&#45;41d9&#45;b796&#45;5ee327693724</title>
<path fill="none" stroke="#605d6e" d="M557.37,-86.18C565.15,-88.64 574.78,-91.69 584.14,-94.65"/>
<polygon fill="#605d6e" stroke="#605d6e" points="583.11,-98 593.7,-97.68 585.22,-91.32 583.11,-98"/>
</g>
<!-- 4ef24dea&#45;671c&#45;44d0&#45;9a08&#45;3830e8b6259c -->
<g id="node16" class="node">
<title>4ef24dea&#45;671c&#45;44d0&#45;9a08&#45;3830e8b6259c</title>
<polygon fill="none" stroke="black" points="738,-82 684,-82 684,-46 738,-46 738,-82"/>
<text text-anchor="start" x="701" y="-59.8" font-family="Times,serif" font-size="14.00">𝜏</text>
</g>
<!-- 6910b886&#45;4459&#45;4885&#45;af34&#45;ca86fdba4cce&#45;&gt;4ef24dea&#45;671c&#45;44d0&#45;9a08&#45;3830e8b6259c -->
<g id="edge15" class="edge">
<title>6910b886&#45;4459&#45;4885&#45;af34&#45;ca86fdba4cce&#45;&gt;4ef24dea&#45;671c&#45;44d0&#45;9a08&#45;3830e8b6259c</title>
<path fill="none" stroke="#605d6e" d="M558.13,-79.28C585.1,-76.56 638.02,-71.24 673.71,-67.65"/>
<polygon fill="#605d6e" stroke="#605d6e" points="674.13,-71.13 683.73,-66.64 673.43,-64.16 674.13,-71.13"/>
</g>
<!-- acc7678b&#45;8a7a&#45;4753&#45;bcf7&#45;aa0689408ec6 -->
<g id="node5" class="node">
<title>acc7678b&#45;8a7a&#45;4753&#45;bcf7&#45;aa0689408ec6</title>
<ellipse fill="#605d6e" stroke="black" cx="711" cy="-118" rx="18" ry="18"/>
</g>
<!-- 2f3daf55&#45;9317&#45;441e&#45;996e&#45;cd489f997815 -->
<g id="node11" class="node">
<title>2f3daf55&#45;9317&#45;441e&#45;996e&#45;cd489f997815</title>
<polygon fill="none" stroke="black" points="828,-132 774,-132 774,-96 828,-96 828,-132"/>
<text text-anchor="start" x="796" y="-109.8" font-family="Times,serif" font-size="14.00">C</text>
</g>
<!-- acc7678b&#45;8a7a&#45;4753&#45;bcf7&#45;aa0689408ec6&#45;&gt;2f3daf55&#45;9317&#45;441e&#45;996e&#45;cd489f997815 -->
<g id="edge5" class="edge">
<title>acc7678b&#45;8a7a&#45;4753&#45;bcf7&#45;aa0689408ec6&#45;&gt;2f3daf55&#45;9317&#45;441e&#45;996e&#45;cd489f997815</title>
<path fill="none" stroke="#605d6e" d="M729.39,-117.21C739.23,-116.76 751.91,-116.19 763.81,-115.65"/>
<polygon fill="#605d6e" stroke="#605d6e" points="764.14,-119.13 773.97,-115.18 763.82,-112.14 764.14,-119.13"/>
</g>
<!-- faea5afd&#45;8c9b&#45;403c&#45;98bc&#45;d502f5784d14 -->
<g id="node6" class="node">
<title>faea5afd&#45;8c9b&#45;403c&#45;98bc&#45;d502f5784d14</title>
<ellipse fill="#605d6e" stroke="black" cx="882" cy="-110" rx="18" ry="18"/>
</g>
<!-- bf0245f0&#45;2687&#45;4f82&#45;b29b&#45;539ece1b4f57 -->
<g id="node17" class="node">
<title>bf0245f0&#45;2687&#45;4f82&#45;b29b&#45;539ece1b4f57</title>
<polygon fill="none" stroke="black" points="990,-36 936,-36 936,0 990,0 990,-36"/>
<text text-anchor="start" x="953" y="-13.8" font-family="Times,serif" font-size="14.00">𝜏</text>
</g>
<!-- faea5afd&#45;8c9b&#45;403c&#45;98bc&#45;d502f5784d14&#45;&gt;bf0245f0&#45;2687&#45;4f82&#45;b29b&#45;539ece1b4f57 -->
<g id="edge17" class="edge">
<title>faea5afd&#45;8c9b&#45;403c&#45;98bc&#45;d502f5784d14&#45;&gt;bf0245f0&#45;2687&#45;4f82&#45;b29b&#45;539ece1b4f57</title>
<path fill="none" stroke="#605d6e" d="M894.32,-96.82C906.05,-83.16 924.71,-61.43 939.46,-44.25"/>
<polygon fill="#605d6e" stroke="#605d6e" points="942.49,-46.1 946.34,-36.23 937.17,-41.54 942.49,-46.1"/>
</g>
<!-- ddd265fa&#45;b9ef&#45;4157&#45;aeb5&#45;f2a57b645207 -->
<g id="node18" class="node">
<title>ddd265fa&#45;b9ef&#45;4157&#45;aeb5&#45;f2a57b645207</title>
<polygon fill="none" stroke="black" points="990,-128 936,-128 936,-92 990,-92 990,-128"/>
<text text-anchor="start" x="953" y="-105.8" font-family="Times,serif" font-size="14.00">𝜏</text>
</g>
<!-- faea5afd&#45;8c9b&#45;403c&#45;98bc&#45;d502f5784d14&#45;&gt;ddd265fa&#45;b9ef&#45;4157&#45;aeb5&#45;f2a57b645207 -->
<g id="edge19" class="edge">
<title>faea5afd&#45;8c9b&#45;403c&#45;98bc&#45;d502f5784d14&#45;&gt;ddd265fa&#45;b9ef&#45;4157&#45;aeb5&#45;f2a57b645207</title>
<path fill="none" stroke="#605d6e" d="M900.14,-110C907.64,-110 916.75,-110 925.64,-110"/>
<polygon fill="#605d6e" stroke="#605d6e" points="925.87,-113.5 935.87,-110 925.87,-106.5 925.87,-113.5"/>
</g>
<!-- c93e66a9&#45;0282&#45;4721&#45;9dcb&#45;353de34dda6a -->
<g id="node7" class="node">
<title>c93e66a9&#45;0282&#45;4721&#45;9dcb&#45;353de34dda6a</title>
<ellipse fill="#605d6e" stroke="black" cx="1044" cy="-87" rx="18" ry="18"/>
</g>
<!-- ed72eadb&#45;9f37&#45;440f&#45;b085&#45;4a9d890ceef3 -->
<g id="node12" class="node">
<title>ed72eadb&#45;9f37&#45;440f&#45;b085&#45;4a9d890ceef3</title>
<polygon fill="none" stroke="black" points="1152,-105 1098,-105 1098,-69 1152,-69 1152,-105"/>
<text text-anchor="start" x="1119" y="-82.8" font-family="Times,serif" font-size="14.00">D</text>
</g>
<!-- c93e66a9&#45;0282&#45;4721&#45;9dcb&#45;353de34dda6a&#45;&gt;ed72eadb&#45;9f37&#45;440f&#45;b085&#45;4a9d890ceef3 -->
<g id="edge7" class="edge">
<title>c93e66a9&#45;0282&#45;4721&#45;9dcb&#45;353de34dda6a&#45;&gt;ed72eadb&#45;9f37&#45;440f&#45;b085&#45;4a9d890ceef3</title>
<path fill="none" stroke="#605d6e" d="M1062.14,-87C1069.64,-87 1078.75,-87 1087.64,-87"/>
<polygon fill="#605d6e" stroke="#605d6e" points="1087.87,-90.5 1097.87,-87 1087.87,-83.5 1087.87,-90.5"/>
</g>
<!-- 26650cda&#45;8b04&#45;47d7&#45;a685&#45;d923b3f1e2a9 -->
<g id="node8" class="node">
<title>26650cda&#45;8b04&#45;47d7&#45;a685&#45;d923b3f1e2a9</title>
<polygon fill="#605d6e" stroke="black" points="1246,-79.54 1246,-94.46 1230.18,-105 1207.82,-105 1192,-94.46 1192,-79.54 1207.82,-69 1230.18,-69 1246,-79.54"/>
<polygon fill="none" stroke="black" points="1250,-77.4 1250,-96.6 1231.39,-109 1206.61,-109 1188,-96.6 1188,-77.4 1206.61,-65 1231.39,-65 1250,-77.4"/>
</g>
<!-- 538160e9&#45;0d7f&#45;4f5f&#45;aeb9&#45;89e5fc6e384d&#45;&gt;5f7a7576&#45;2a82&#45;4557&#45;8e7c&#45;9b37f5ae0f08 -->
<g id="edge2" class="edge">
<title>538160e9&#45;0d7f&#45;4f5f&#45;aeb9&#45;89e5fc6e384d&#45;&gt;5f7a7576&#45;2a82&#45;4557&#45;8e7c&#45;9b37f5ae0f08</title>
<path fill="none" stroke="#605d6e" d="M144.31,-108C152.42,-108 161.37,-108 169.56,-108"/>
<polygon fill="#605d6e" stroke="#605d6e" points="169.75,-111.5 179.75,-108 169.75,-104.5 169.75,-111.5"/>
</g>
<!-- 027a70e9&#45;ded3&#45;40ec&#45;bdda&#45;9719361df68a&#45;&gt;6910b886&#45;4459&#45;4885&#45;af34&#45;ca86fdba4cce -->
<g id="edge4" class="edge">
<title>027a70e9&#45;ded3&#45;40ec&#45;bdda&#45;9719361df68a&#45;&gt;6910b886&#45;4459&#45;4885&#45;af34&#45;ca86fdba4cce</title>
<path fill="none" stroke="#605d6e" d="M486.31,-81C494.42,-81 503.37,-81 511.56,-81"/>
<polygon fill="#605d6e" stroke="#605d6e" points="511.75,-84.5 521.75,-81 511.75,-77.5 511.75,-84.5"/>
</g>
<!-- 2f3daf55&#45;9317&#45;441e&#45;996e&#45;cd489f997815&#45;&gt;faea5afd&#45;8c9b&#45;403c&#45;98bc&#45;d502f5784d14 -->
<g id="edge6" class="edge">
<title>2f3daf55&#45;9317&#45;441e&#45;996e&#45;cd489f997815&#45;&gt;faea5afd&#45;8c9b&#45;403c&#45;98bc&#45;d502f5784d14</title>
<path fill="none" stroke="#605d6e" d="M828.31,-112.67C836.42,-112.26 845.37,-111.8 853.56,-111.39"/>
<polygon fill="#605d6e" stroke="#605d6e" points="853.94,-114.87 863.75,-110.87 853.59,-107.88 853.94,-114.87"/>
</g>
<!-- ed72eadb&#45;9f37&#45;440f&#45;b085&#45;4a9d890ceef3&#45;&gt;26650cda&#45;8b04&#45;47d7&#45;a685&#45;d923b3f1e2a9 -->
<g id="edge8" class="edge">
<title>ed72eadb&#45;9f37&#45;440f&#45;b085&#45;4a9d890ceef3&#45;&gt;26650cda&#45;8b04&#45;47d7&#45;a685&#45;d923b3f1e2a9</title>
<path fill="none" stroke="#605d6e" d="M1152.12,-87C1160.14,-87 1169.15,-87 1177.88,-87"/>
<polygon fill="#605d6e" stroke="#605d6e" points="1177.92,-90.5 1187.92,-87 1177.92,-83.5 1177.92,-90.5"/>
</g>
<!-- 8d7cb33f&#45;8a41&#45;4be0&#45;8fc9&#45;27556bec0003&#45;&gt;132e92ac&#45;8480&#45;40a5&#45;8904&#45;54b6c0416ec2 -->
<g id="edge10" class="edge">
<title>8d7cb33f&#45;8a41&#45;4be0&#45;8fc9&#45;27556bec0003&#45;&gt;132e92ac&#45;8480&#45;40a5&#45;8904&#45;54b6c0416ec2</title>
<path fill="none" stroke="#605d6e" d="M306.4,-83.8C317.19,-83.31 329.66,-82.74 340.55,-82.25"/>
<polygon fill="#605d6e" stroke="#605d6e" points="340.96,-85.73 350.79,-81.78 340.64,-78.74 340.96,-85.73"/>
</g>
<!-- 135cd2c8&#45;70a4&#45;46bd&#45;a70e&#45;bcef2376b218&#45;&gt;acc7678b&#45;8a7a&#45;4753&#45;bcf7&#45;aa0689408ec6 -->
<g id="edge12" class="edge">
<title>135cd2c8&#45;70a4&#45;46bd&#45;a70e&#45;bcef2376b218&#45;&gt;acc7678b&#45;8a7a&#45;4753&#45;bcf7&#45;aa0689408ec6</title>
<path fill="none" stroke="#605d6e" d="M396.21,-143.81C445.69,-144.94 556.14,-145.63 648,-133 659.89,-131.36 672.82,-128.43 683.79,-125.58"/>
<polygon fill="#605d6e" stroke="#605d6e" points="684.86,-128.92 693.59,-122.93 683.03,-122.16 684.86,-128.92"/>
</g>
<!-- 55357136&#45;81c6&#45;41d9&#45;b796&#45;5ee327693724&#45;&gt;acc7678b&#45;8a7a&#45;4753&#45;bcf7&#45;aa0689408ec6 -->
<g id="edge14" class="edge">
<title>55357136&#45;81c6&#45;41d9&#45;b796&#45;5ee327693724&#45;&gt;acc7678b&#45;8a7a&#45;4753&#45;bcf7&#45;aa0689408ec6</title>
<path fill="none" stroke="#605d6e" d="M648.4,-109.6C659.38,-111.1 672.1,-112.83 683.12,-114.33"/>
<polygon fill="#605d6e" stroke="#605d6e" points="682.67,-117.81 693.05,-115.69 683.62,-110.87 682.67,-117.81"/>
</g>
<!-- 4ef24dea&#45;671c&#45;44d0&#45;9a08&#45;3830e8b6259c&#45;&gt;c93e66a9&#45;0282&#45;4721&#45;9dcb&#45;353de34dda6a -->
<g id="edge16" class="edge">
<title>4ef24dea&#45;671c&#45;44d0&#45;9a08&#45;3830e8b6259c&#45;&gt;c93e66a9&#45;0282&#45;4721&#45;9dcb&#45;353de34dda6a</title>
<path fill="none" stroke="#605d6e" d="M738.07,-65.72C787.3,-68.98 897.36,-76.34 990,-83 998.32,-83.6 1007.37,-84.27 1015.6,-84.89"/>
<polygon fill="#605d6e" stroke="#605d6e" points="1015.58,-88.4 1025.82,-85.67 1016.11,-81.42 1015.58,-88.4"/>
</g>
<!-- bf0245f0&#45;2687&#45;4f82&#45;b29b&#45;539ece1b4f57&#45;&gt;132e92ac&#45;8480&#45;40a5&#45;8904&#45;54b6c0416ec2 -->
<g id="edge18" class="edge">
<title>bf0245f0&#45;2687&#45;4f82&#45;b29b&#45;539ece1b4f57&#45;&gt;132e92ac&#45;8480&#45;40a5&#45;8904&#45;54b6c0416ec2</title>
<path fill="none" stroke="#605d6e" d="M935.95,-18C904.28,-18 849.22,-18 802,-18 539,-18 539,-18 539,-18 484.23,-18 425.41,-47.41 393.64,-66.04"/>
<polygon fill="#605d6e" stroke="#605d6e" points="391.45,-63.28 384.69,-71.43 395.06,-69.27 391.45,-63.28"/>
</g>
<!-- ddd265fa&#45;b9ef&#45;4157&#45;aeb5&#45;f2a57b645207&#45;&gt;c93e66a9&#45;0282&#45;4721&#45;9dcb&#45;353de34dda6a -->
<g id="edge20" class="edge">
<title>ddd265fa&#45;b9ef&#45;4157&#45;aeb5&#45;f2a57b645207&#45;&gt;c93e66a9&#45;0282&#45;4721&#45;9dcb&#45;353de34dda6a</title>
<path fill="none" stroke="#605d6e" d="M990.31,-102.34C998.73,-99.89 1008.06,-97.17 1016.5,-94.72"/>
<polygon fill="#605d6e" stroke="#605d6e" points="1017.61,-98.04 1026.23,-91.88 1015.65,-91.32 1017.61,-98.04"/>
</g>
</g>
</svg>
