<?xml version="1.0" encoding="UTF-8" standalone="no"?>
<!DOCTYPE svg PUBLIC "-//W3C//DTD SVG 1.1//EN"
 "http://www.w3.org/Graphics/SVG/1.1/DTD/svg11.dtd">
<!-- Generated by graphviz version 2.43.0 (0)
 -->
<!-- Title: ofn Pages: 1 -->
<svg width="898pt" height="102pt"
 viewBox="0.00 0.00 898.00 102.00" xmlns="http://www.w3.org/2000/svg" xmlns:xlink="http://www.w3.org/1999/xlink">
<g id="graph0" class="graph" transform="scale(1 1) rotate(0) translate(4 98)">
<title>ofn</title>
<polygon fill="white" stroke="transparent" points="-4,4 -4,-98 894,-98 894,4 -4,4"/>
<!-- 0b79258e&#45;14a2&#45;4d5e&#45;941d&#45;f9f7a72a9c08 -->
<g id="node1" class="node">
<title>0b79258e&#45;14a2&#45;4d5e&#45;941d&#45;f9f7a72a9c08</title>
<polygon fill="#605d6e" stroke="black" points="54,-33.54 54,-48.46 38.18,-59 15.82,-59 0,-48.46 0,-33.54 15.82,-23 38.18,-23 54,-33.54"/>
</g>
<!-- b56caa0f&#45;c6b6&#45;4faa&#45;8f54&#45;0e37e915a80b -->
<g id="node7" class="node">
<title>b56caa0f&#45;c6b6&#45;4faa&#45;8f54&#45;0e37e915a80b</title>
<polygon fill="none" stroke="black" points="144,-59 90,-59 90,-23 144,-23 144,-59"/>
<text text-anchor="start" x="112.5" y="-36.8" font-family="Times,serif" font-size="14.00">A</text>
</g>
<!-- 0b79258e&#45;14a2&#45;4d5e&#45;941d&#45;f9f7a72a9c08&#45;&gt;b56caa0f&#45;c6b6&#45;4faa&#45;8f54&#45;0e37e915a80b -->
<g id="edge1" class="edge">
<title>0b79258e&#45;14a2&#45;4d5e&#45;941d&#45;f9f7a72a9c08&#45;&gt;b56caa0f&#45;c6b6&#45;4faa&#45;8f54&#45;0e37e915a80b</title>
<path fill="none" stroke="#605d6e" d="M54.4,-41C62.39,-41 71.31,-41 79.82,-41"/>
<polygon fill="#605d6e" stroke="#605d6e" points="79.92,-44.5 89.92,-41 79.92,-37.5 79.92,-44.5"/>
</g>
<!-- 82d57998&#45;cb68&#45;4a2e&#45;982a&#45;87ffa2d91769 -->
<g id="node2" class="node">
<title>82d57998&#45;cb68&#45;4a2e&#45;982a&#45;87ffa2d91769</title>
<ellipse fill="#605d6e" stroke="black" cx="198" cy="-41" rx="18" ry="18"/>
</g>
<!-- 6f6cec5f&#45;bf2b&#45;467f&#45;b007&#45;00bb94803fdb -->
<g id="node8" class="node">
<title>6f6cec5f&#45;bf2b&#45;467f&#45;b007&#45;00bb94803fdb</title>
<polygon fill="none" stroke="black" points="306,-82 252,-82 252,-46 306,-46 306,-82"/>
<text text-anchor="start" x="274" y="-59.8" font-family="Times,serif" font-size="14.00">B</text>
</g>
<!-- 82d57998&#45;cb68&#45;4a2e&#45;982a&#45;87ffa2d91769&#45;&gt;6f6cec5f&#45;bf2b&#45;467f&#45;b007&#45;00bb94803fdb -->
<g id="edge3" class="edge">
<title>82d57998&#45;cb68&#45;4a2e&#45;982a&#45;87ffa2d91769&#45;&gt;6f6cec5f&#45;bf2b&#45;467f&#45;b007&#45;00bb94803fdb</title>
<path fill="none" stroke="#605d6e" d="M215.37,-45.77C223.07,-48.01 232.58,-50.78 241.84,-53.47"/>
<polygon fill="#605d6e" stroke="#605d6e" points="241.12,-56.91 251.7,-56.34 243.08,-50.19 241.12,-56.91"/>
</g>
<!-- d9357d52&#45;814d&#45;45cf&#45;a3ad&#45;80ff1897c83d -->
<g id="node3" class="node">
<title>d9357d52&#45;814d&#45;45cf&#45;a3ad&#45;80ff1897c83d</title>
<ellipse fill="#605d6e" stroke="black" cx="360" cy="-64" rx="18" ry="18"/>
</g>
<!-- 123240d2&#45;c1fd&#45;496f&#45;8913&#45;74932a90f304 -->
<g id="node9" class="node">
<title>123240d2&#45;c1fd&#45;496f&#45;8913&#45;74932a90f304</title>
<polygon fill="none" stroke="black" points="468,-82 414,-82 414,-46 468,-46 468,-82"/>
<text text-anchor="start" x="436" y="-59.8" font-family="Times,serif" font-size="14.00">C</text>
</g>
<!-- d9357d52&#45;814d&#45;45cf&#45;a3ad&#45;80ff1897c83d&#45;&gt;123240d2&#45;c1fd&#45;496f&#45;8913&#45;74932a90f304 -->
<g id="edge5" class="edge">
<title>d9357d52&#45;814d&#45;45cf&#45;a3ad&#45;80ff1897c83d&#45;&gt;123240d2&#45;c1fd&#45;496f&#45;8913&#45;74932a90f304</title>
<path fill="none" stroke="#605d6e" d="M378.14,-64C385.64,-64 394.75,-64 403.64,-64"/>
<polygon fill="#605d6e" stroke="#605d6e" points="403.87,-67.5 413.87,-64 403.87,-60.5 403.87,-67.5"/>
</g>
<!-- 741e447b&#45;3c48&#45;4af4&#45;9d74&#45;f727dd439926 -->
<g id="node4" class="node">
<title>741e447b&#45;3c48&#45;4af4&#45;9d74&#45;f727dd439926</title>
<ellipse fill="#605d6e" stroke="black" cx="522" cy="-64" rx="18" ry="18"/>
</g>
<!-- 4cab74c2&#45;d184&#45;4004&#45;a297&#45;9ae6faa54da1 -->
<g id="node10" class="node">
<title>4cab74c2&#45;d184&#45;4004&#45;a297&#45;9ae6faa54da1</title>
<polygon fill="none" stroke="black" points="630,-82 576,-82 576,-46 630,-46 630,-82"/>
<text text-anchor="start" x="597" y="-59.8" font-family="Times,serif" font-size="14.00">D</text>
</g>
<!-- 741e447b&#45;3c48&#45;4af4&#45;9d74&#45;f727dd439926&#45;&gt;4cab74c2&#45;d184&#45;4004&#45;a297&#45;9ae6faa54da1 -->
<g id="edge7" class="edge">
<title>741e447b&#45;3c48&#45;4af4&#45;9d74&#45;f727dd439926&#45;&gt;4cab74c2&#45;d184&#45;4004&#45;a297&#45;9ae6faa54da1</title>
<path fill="none" stroke="#605d6e" d="M540.14,-64C547.64,-64 556.75,-64 565.64,-64"/>
<polygon fill="#605d6e" stroke="#605d6e" points="565.87,-67.5 575.87,-64 565.87,-60.5 565.87,-67.5"/>
</g>
<!-- 9672e57b&#45;e5aa&#45;4fcc&#45;ab4b&#45;d9d14e3ec1e9 -->
<g id="node5" class="node">
<title>9672e57b&#45;e5aa&#45;4fcc&#45;ab4b&#45;d9d14e3ec1e9</title>
<ellipse fill="#605d6e" stroke="black" cx="684" cy="-64" rx="18" ry="18"/>
</g>
<!-- f468443f&#45;7f7d&#45;4c34&#45;b45a&#45;d9855d034632 -->
<g id="node11" class="node">
<title>f468443f&#45;7f7d&#45;4c34&#45;b45a&#45;d9855d034632</title>
<polygon fill="none" stroke="black" points="792,-90 738,-90 738,-54 792,-54 792,-90"/>
<text text-anchor="start" x="760" y="-67.8" font-family="Times,serif" font-size="14.00">E</text>
</g>
<!-- 9672e57b&#45;e5aa&#45;4fcc&#45;ab4b&#45;d9d14e3ec1e9&#45;&gt;f468443f&#45;7f7d&#45;4c34&#45;b45a&#45;d9855d034632 -->
<g id="edge9" class="edge">
<title>9672e57b&#45;e5aa&#45;4fcc&#45;ab4b&#45;d9d14e3ec1e9&#45;&gt;f468443f&#45;7f7d&#45;4c34&#45;b45a&#45;d9855d034632</title>
<path fill="none" stroke="#605d6e" d="M702.14,-65.74C709.64,-66.5 718.75,-67.42 727.64,-68.32"/>
<polygon fill="#605d6e" stroke="#605d6e" points="727.57,-71.83 737.87,-69.35 728.28,-64.86 727.57,-71.83"/>
</g>
<!-- 688ada0e&#45;d433&#45;4561&#45;b6ad&#45;3aeee2c96a6d -->
<g id="node12" class="node">
<title>688ada0e&#45;d433&#45;4561&#45;b6ad&#45;3aeee2c96a6d</title>
<polygon fill="none" stroke="black" points="792,-36 738,-36 738,0 792,0 792,-36"/>
<text text-anchor="start" x="755" y="-13.8" font-family="Times,serif" font-size="14.00">𝜏</text>
</g>
<!-- 9672e57b&#45;e5aa&#45;4fcc&#45;ab4b&#45;d9d14e3ec1e9&#45;&gt;688ada0e&#45;d433&#45;4561&#45;b6ad&#45;3aeee2c96a6d -->
<g id="edge11" class="edge">
<title>9672e57b&#45;e5aa&#45;4fcc&#45;ab4b&#45;d9d14e3ec1e9&#45;&gt;688ada0e&#45;d433&#45;4561&#45;b6ad&#45;3aeee2c96a6d</title>
<path fill="none" stroke="#605d6e" d="M699.86,-55.35C708.09,-50.56 718.69,-44.38 728.9,-38.44"/>
<polygon fill="#605d6e" stroke="#605d6e" points="730.81,-41.37 737.69,-33.32 727.29,-35.33 730.81,-41.37"/>
</g>
<!-- d2c21590&#45;b185&#45;4046&#45;826a&#45;391262959bb2 -->
<g id="node6" class="node">
<title>d2c21590&#45;b185&#45;4046&#45;826a&#45;391262959bb2</title>
<polygon fill="#605d6e" stroke="black" points="886,-64.54 886,-79.46 870.18,-90 847.82,-90 832,-79.46 832,-64.54 847.82,-54 870.18,-54 886,-64.54"/>
<polygon fill="none" stroke="black" points="890,-62.4 890,-81.6 871.39,-94 846.61,-94 828,-81.6 828,-62.4 846.61,-50 871.39,-50 890,-62.4"/>
</g>
<!-- b56caa0f&#45;c6b6&#45;4faa&#45;8f54&#45;0e37e915a80b&#45;&gt;82d57998&#45;cb68&#45;4a2e&#45;982a&#45;87ffa2d91769 -->
<g id="edge2" class="edge">
<title>b56caa0f&#45;c6b6&#45;4faa&#45;8f54&#45;0e37e915a80b&#45;&gt;82d57998&#45;cb68&#45;4a2e&#45;982a&#45;87ffa2d91769</title>
<path fill="none" stroke="#605d6e" d="M144.31,-41C152.42,-41 161.37,-41 169.56,-41"/>
<polygon fill="#605d6e" stroke="#605d6e" points="169.75,-44.5 179.75,-41 169.75,-37.5 169.75,-44.5"/>
</g>
<!-- 6f6cec5f&#45;bf2b&#45;467f&#45;b007&#45;00bb94803fdb&#45;&gt;d9357d52&#45;814d&#45;45cf&#45;a3ad&#45;80ff1897c83d -->
<g id="edge4" class="edge">
<title>6f6cec5f&#45;bf2b&#45;467f&#45;b007&#45;00bb94803fdb&#45;&gt;d9357d52&#45;814d&#45;45cf&#45;a3ad&#45;80ff1897c83d</title>
<path fill="none" stroke="#605d6e" d="M306.31,-64C314.42,-64 323.37,-64 331.56,-64"/>
<polygon fill="#605d6e" stroke="#605d6e" points="331.75,-67.5 341.75,-64 331.75,-60.5 331.75,-67.5"/>
</g>
<!-- 123240d2&#45;c1fd&#45;496f&#45;8913&#45;74932a90f304&#45;&gt;741e447b&#45;3c48&#45;4af4&#45;9d74&#45;f727dd439926 -->
<g id="edge6" class="edge">
<title>123240d2&#45;c1fd&#45;496f&#45;8913&#45;74932a90f304&#45;&gt;741e447b&#45;3c48&#45;4af4&#45;9d74&#45;f727dd439926</title>
<path fill="none" stroke="#605d6e" d="M468.31,-64C476.42,-64 485.37,-64 493.56,-64"/>
<polygon fill="#605d6e" stroke="#605d6e" points="493.75,-67.5 503.75,-64 493.75,-60.5 493.75,-67.5"/>
</g>
<!-- 4cab74c2&#45;d184&#45;4004&#45;a297&#45;9ae6faa54da1&#45;&gt;9672e57b&#45;e5aa&#45;4fcc&#45;ab4b&#45;d9d14e3ec1e9 -->
<g id="edge8" class="edge">
<title>4cab74c2&#45;d184&#45;4004&#45;a297&#45;9ae6faa54da1&#45;&gt;9672e57b&#45;e5aa&#45;4fcc&#45;ab4b&#45;d9d14e3ec1e9</title>
<path fill="none" stroke="#605d6e" d="M630.31,-64C638.42,-64 647.37,-64 655.56,-64"/>
<polygon fill="#605d6e" stroke="#605d6e" points="655.75,-67.5 665.75,-64 655.75,-60.5 655.75,-67.5"/>
</g>
<!-- f468443f&#45;7f7d&#45;4c34&#45;b45a&#45;d9855d034632&#45;&gt;d2c21590&#45;b185&#45;4046&#45;826a&#45;391262959bb2 -->
<g id="edge10" class="edge">
<title>f468443f&#45;7f7d&#45;4c34&#45;b45a&#45;d9855d034632&#45;&gt;d2c21590&#45;b185&#45;4046&#45;826a&#45;391262959bb2</title>
<path fill="none" stroke="#605d6e" d="M792.12,-72C800.14,-72 809.15,-72 817.88,-72"/>
<polygon fill="#605d6e" stroke="#605d6e" points="817.92,-75.5 827.92,-72 817.92,-68.5 817.92,-75.5"/>
</g>
<!-- 688ada0e&#45;d433&#45;4561&#45;b6ad&#45;3aeee2c96a6d&#45;&gt;82d57998&#45;cb68&#45;4a2e&#45;982a&#45;87ffa2d91769 -->
<g id="edge12" class="edge">
<title>688ada0e&#45;d433&#45;4561&#45;b6ad&#45;3aeee2c96a6d&#45;&gt;82d57998&#45;cb68&#45;4a2e&#45;982a&#45;87ffa2d91769</title>
<path fill="none" stroke="#605d6e" d="M737.95,-18C706.28,-18 651.22,-18 604,-18 359,-18 359,-18 359,-18 311.6,-18 257.1,-28.01 225.5,-34.83"/>
<polygon fill="#605d6e" stroke="#605d6e" points="224.71,-31.41 215.7,-36.99 226.22,-38.25 224.71,-31.41"/>
</g>
</g>
</svg>
