<?xml version="1.0" encoding="UTF-8" standalone="no"?>
<!DOCTYPE svg PUBLIC "-//W3C//DTD SVG 1.1//EN"
 "http://www.w3.org/Graphics/SVG/1.1/DTD/svg11.dtd">
<!-- Generated by graphviz version 2.43.0 (0)
 -->
<!-- Title: ofn Pages: 1 -->
<svg width="664pt" height="134pt"
 viewBox="0.00 0.00 664.00 134.00" xmlns="http://www.w3.org/2000/svg" xmlns:xlink="http://www.w3.org/1999/xlink">
<g id="graph0" class="graph" transform="scale(1 1) rotate(0) translate(4 130)">
<title>ofn</title>
<polygon fill="white" stroke="transparent" points="-4,4 -4,-130 660,-130 660,4 -4,4"/>
<!-- 0477c072&#45;5747&#45;423d&#45;84bf&#45;6f2517851d20 -->
<g id="node1" class="node">
<title>0477c072&#45;5747&#45;423d&#45;84bf&#45;6f2517851d20</title>
<polygon fill="#605d6e" stroke="black" points="54,-17.54 54,-32.46 38.18,-43 15.82,-43 0,-32.46 0,-17.54 15.82,-7 38.18,-7 54,-17.54"/>
</g>
<!-- 9fee2091&#45;fd01&#45;4820&#45;918b&#45;1171b12bda36 -->
<g id="node6" class="node">
<title>9fee2091&#45;fd01&#45;4820&#45;918b&#45;1171b12bda36</title>
<polygon fill="none" stroke="black" points="144,-43 90,-43 90,-7 144,-7 144,-43"/>
<text text-anchor="start" x="112.5" y="-20.8" font-family="Times,serif" font-size="14.00">A</text>
</g>
<!-- 0477c072&#45;5747&#45;423d&#45;84bf&#45;6f2517851d20&#45;&gt;9fee2091&#45;fd01&#45;4820&#45;918b&#45;1171b12bda36 -->
<g id="edge1" class="edge">
<title>0477c072&#45;5747&#45;423d&#45;84bf&#45;6f2517851d20&#45;&gt;9fee2091&#45;fd01&#45;4820&#45;918b&#45;1171b12bda36</title>
<path fill="none" stroke="#605d6e" d="M54.4,-25C62.39,-25 71.31,-25 79.82,-25"/>
<polygon fill="#605d6e" stroke="#605d6e" points="79.92,-28.5 89.92,-25 79.92,-21.5 79.92,-28.5"/>
</g>
<!-- dada37c8&#45;2235&#45;4ccb&#45;b3e3&#45;5e10e5231efa -->
<g id="node2" class="node">
<title>dada37c8&#45;2235&#45;4ccb&#45;b3e3&#45;5e10e5231efa</title>
<ellipse fill="#605d6e" stroke="black" cx="198" cy="-25" rx="18" ry="18"/>
</g>
<!-- 8eaaaea6&#45;1d0f&#45;473f&#45;8a20&#45;12a726328a7d -->
<g id="node7" class="node">
<title>8eaaaea6&#45;1d0f&#45;473f&#45;8a20&#45;12a726328a7d</title>
<polygon fill="none" stroke="black" points="306,-66 252,-66 252,-30 306,-30 306,-66"/>
<text text-anchor="start" x="274" y="-43.8" font-family="Times,serif" font-size="14.00">B</text>
</g>
<!-- dada37c8&#45;2235&#45;4ccb&#45;b3e3&#45;5e10e5231efa&#45;&gt;8eaaaea6&#45;1d0f&#45;473f&#45;8a20&#45;12a726328a7d -->
<g id="edge3" class="edge">
<title>dada37c8&#45;2235&#45;4ccb&#45;b3e3&#45;5e10e5231efa&#45;&gt;8eaaaea6&#45;1d0f&#45;473f&#45;8a20&#45;12a726328a7d</title>
<path fill="none" stroke="#605d6e" d="M215.37,-29.77C223.07,-32.01 232.58,-34.78 241.84,-37.47"/>
<polygon fill="#605d6e" stroke="#605d6e" points="241.12,-40.91 251.7,-40.34 243.08,-34.19 241.12,-40.91"/>
</g>
<!-- 5f030aa7&#45;9abd&#45;477e&#45;8484&#45;c23aa40d4805 -->
<g id="node3" class="node">
<title>5f030aa7&#45;9abd&#45;477e&#45;8484&#45;c23aa40d4805</title>
<ellipse fill="#605d6e" stroke="black" cx="360" cy="-50" rx="18" ry="18"/>
</g>
<!-- dc4c82ad&#45;f502&#45;4ed6&#45;ae01&#45;0520a466b46f -->
<g id="node8" class="node">
<title>dc4c82ad&#45;f502&#45;4ed6&#45;ae01&#45;0520a466b46f</title>
<polygon fill="none" stroke="black" points="468,-124 414,-124 414,-88 468,-88 468,-124"/>
<text text-anchor="start" x="436" y="-101.8" font-family="Times,serif" font-size="14.00">C</text>
</g>
<!-- 5f030aa7&#45;9abd&#45;477e&#45;8484&#45;c23aa40d4805&#45;&gt;dc4c82ad&#45;f502&#45;4ed6&#45;ae01&#45;0520a466b46f -->
<g id="edge5" class="edge">
<title>5f030aa7&#45;9abd&#45;477e&#45;8484&#45;c23aa40d4805&#45;&gt;dc4c82ad&#45;f502&#45;4ed6&#45;ae01&#45;0520a466b46f</title>
<path fill="none" stroke="#605d6e" d="M375.12,-60.01C383.82,-66.18 395.37,-74.37 406.31,-82.12"/>
<polygon fill="#605d6e" stroke="#605d6e" points="404.32,-85 414.5,-87.93 408.37,-79.29 404.32,-85"/>
</g>
<!-- cb1041e1&#45;9942&#45;4135&#45;a557&#45;06cc54a82076 -->
<g id="node10" class="node">
<title>cb1041e1&#45;9942&#45;4135&#45;a557&#45;06cc54a82076</title>
<polygon fill="none" stroke="black" points="468,-68 414,-68 414,-32 468,-32 468,-68"/>
<text text-anchor="start" x="436" y="-45.8" font-family="Times,serif" font-size="14.00">E</text>
</g>
<!-- 5f030aa7&#45;9abd&#45;477e&#45;8484&#45;c23aa40d4805&#45;&gt;cb1041e1&#45;9942&#45;4135&#45;a557&#45;06cc54a82076 -->
<g id="edge9" class="edge">
<title>5f030aa7&#45;9abd&#45;477e&#45;8484&#45;c23aa40d4805&#45;&gt;cb1041e1&#45;9942&#45;4135&#45;a557&#45;06cc54a82076</title>
<path fill="none" stroke="#605d6e" d="M378.14,-50C385.64,-50 394.75,-50 403.64,-50"/>
<polygon fill="#605d6e" stroke="#605d6e" points="403.87,-53.5 413.87,-50 403.87,-46.5 403.87,-53.5"/>
</g>
<!-- 7217e80b&#45;b617&#45;4fed&#45;a35b&#45;23d3e37ed643 -->
<g id="node4" class="node">
<title>7217e80b&#45;b617&#45;4fed&#45;a35b&#45;23d3e37ed643</title>
<ellipse fill="#605d6e" stroke="black" cx="535" cy="-108" rx="18" ry="18"/>
</g>
<!-- 08483999&#45;e267&#45;4be2&#45;a091&#45;134e1e6d27c5 -->
<g id="node9" class="node">
<title>08483999&#45;e267&#45;4be2&#45;a091&#45;134e1e6d27c5</title>
<polygon fill="none" stroke="black" points="656,-72 602,-72 602,-36 656,-36 656,-72"/>
<text text-anchor="start" x="623" y="-49.8" font-family="Times,serif" font-size="14.00">D</text>
</g>
<!-- 7217e80b&#45;b617&#45;4fed&#45;a35b&#45;23d3e37ed643&#45;&gt;08483999&#45;e267&#45;4be2&#45;a091&#45;134e1e6d27c5 -->
<g id="edge7" class="edge">
<title>7217e80b&#45;b617&#45;4fed&#45;a35b&#45;23d3e37ed643&#45;&gt;08483999&#45;e267&#45;4be2&#45;a091&#45;134e1e6d27c5</title>
<path fill="none" stroke="#605d6e" d="M550.78,-99.32C562.14,-92.66 578.3,-83.17 592.91,-74.6"/>
<polygon fill="#605d6e" stroke="#605d6e" points="594.89,-77.49 601.75,-69.41 591.35,-71.45 594.89,-77.49"/>
</g>
<!-- d8d8c9bf&#45;f02a&#45;4170&#45;bb77&#45;120237116a13 -->
<g id="node5" class="node">
<title>d8d8c9bf&#45;f02a&#45;4170&#45;bb77&#45;120237116a13</title>
<polygon fill="#605d6e" stroke="black" points="562,-42.54 562,-57.46 546.18,-68 523.82,-68 508,-57.46 508,-42.54 523.82,-32 546.18,-32 562,-42.54"/>
<polygon fill="none" stroke="black" points="566,-40.4 566,-59.6 547.39,-72 522.61,-72 504,-59.6 504,-40.4 522.61,-28 547.39,-28 566,-40.4"/>
</g>
<!-- 9fee2091&#45;fd01&#45;4820&#45;918b&#45;1171b12bda36&#45;&gt;dada37c8&#45;2235&#45;4ccb&#45;b3e3&#45;5e10e5231efa -->
<g id="edge2" class="edge">
<title>9fee2091&#45;fd01&#45;4820&#45;918b&#45;1171b12bda36&#45;&gt;dada37c8&#45;2235&#45;4ccb&#45;b3e3&#45;5e10e5231efa</title>
<path fill="none" stroke="#605d6e" d="M144.31,-25C152.42,-25 161.37,-25 169.56,-25"/>
<polygon fill="#605d6e" stroke="#605d6e" points="169.75,-28.5 179.75,-25 169.75,-21.5 169.75,-28.5"/>
</g>
<!-- 8eaaaea6&#45;1d0f&#45;473f&#45;8a20&#45;12a726328a7d&#45;&gt;5f030aa7&#45;9abd&#45;477e&#45;8484&#45;c23aa40d4805 -->
<g id="edge4" class="edge">
<title>8eaaaea6&#45;1d0f&#45;473f&#45;8a20&#45;12a726328a7d&#45;&gt;5f030aa7&#45;9abd&#45;477e&#45;8484&#45;c23aa40d4805</title>
<path fill="none" stroke="#605d6e" d="M306.31,-48.67C314.42,-48.87 323.37,-49.1 331.56,-49.31"/>
<polygon fill="#605d6e" stroke="#605d6e" points="331.67,-52.81 341.75,-49.56 331.84,-45.81 331.67,-52.81"/>
</g>
<!-- dc4c82ad&#45;f502&#45;4ed6&#45;ae01&#45;0520a466b46f&#45;&gt;7217e80b&#45;b617&#45;4fed&#45;a35b&#45;23d3e37ed643 -->
<g id="edge6" class="edge">
<title>dc4c82ad&#45;f502&#45;4ed6&#45;ae01&#45;0520a466b46f&#45;&gt;7217e80b&#45;b617&#45;4fed&#45;a35b&#45;23d3e37ed643</title>
<path fill="none" stroke="#605d6e" d="M468.12,-106.57C480.2,-106.83 494.54,-107.14 506.76,-107.41"/>
<polygon fill="#605d6e" stroke="#605d6e" points="506.76,-110.91 516.83,-107.63 506.91,-103.91 506.76,-110.91"/>
</g>
<!-- 08483999&#45;e267&#45;4be2&#45;a091&#45;134e1e6d27c5&#45;&gt;dada37c8&#45;2235&#45;4ccb&#45;b3e3&#45;5e10e5231efa -->
<g id="edge8" class="edge">
<title>08483999&#45;e267&#45;4be2&#45;a091&#45;134e1e6d27c5&#45;&gt;dada37c8&#45;2235&#45;4ccb&#45;b3e3&#45;5e10e5231efa</title>
<path fill="none" stroke="#605d6e" d="M601.84,-36.44C591.14,-30.02 578.38,-23.28 566,-19 513.31,-0.78 497.75,0 442,0 359,0 359,0 359,0 311.51,0 257.04,-10.88 225.47,-18.29"/>
<polygon fill="#605d6e" stroke="#605d6e" points="224.58,-14.9 215.68,-20.65 226.22,-21.71 224.58,-14.9"/>
</g>
<!-- cb1041e1&#45;9942&#45;4135&#45;a557&#45;06cc54a82076&#45;&gt;d8d8c9bf&#45;f02a&#45;4170&#45;bb77&#45;120237116a13 -->
<g id="edge10" class="edge">
<title>cb1041e1&#45;9942&#45;4135&#45;a557&#45;06cc54a82076&#45;&gt;d8d8c9bf&#45;f02a&#45;4170&#45;bb77&#45;120237116a13</title>
<path fill="none" stroke="#605d6e" d="M468.12,-50C476.14,-50 485.15,-50 493.88,-50"/>
<polygon fill="#605d6e" stroke="#605d6e" points="493.92,-53.5 503.92,-50 493.92,-46.5 493.92,-53.5"/>
</g>
</g>
</svg>
