<?xml version="1.0" encoding="UTF-8" standalone="no"?>
<!DOCTYPE svg PUBLIC "-//W3C//DTD SVG 1.1//EN"
 "http://www.w3.org/Graphics/SVG/1.1/DTD/svg11.dtd">
<!-- Generated by graphviz version 2.43.0 (0)
 -->
<!-- Title: ofn Pages: 1 -->
<svg width="574pt" height="102pt"
 viewBox="0.00 0.00 574.00 102.00" xmlns="http://www.w3.org/2000/svg" xmlns:xlink="http://www.w3.org/1999/xlink">
<g id="graph0" class="graph" transform="scale(1 1) rotate(0) translate(4 98)">
<title>ofn</title>
<polygon fill="white" stroke="transparent" points="-4,4 -4,-98 570,-98 570,4 -4,4"/>
<!-- 60351a42&#45;e3ce&#45;4bf3&#45;b9f4&#45;59c2302db08c -->
<g id="node1" class="node">
<title>60351a42&#45;e3ce&#45;4bf3&#45;b9f4&#45;59c2302db08c</title>
<polygon fill="#605d6e" stroke="black" points="54,-33.54 54,-48.46 38.18,-59 15.82,-59 0,-48.46 0,-33.54 15.82,-23 38.18,-23 54,-33.54"/>
</g>
<!-- 19362c6a&#45;282c&#45;4da4&#45;85f9&#45;d4a36fbcb8bf -->
<g id="node5" class="node">
<title>19362c6a&#45;282c&#45;4da4&#45;85f9&#45;d4a36fbcb8bf</title>
<polygon fill="none" stroke="black" points="144,-59 90,-59 90,-23 144,-23 144,-59"/>
<text text-anchor="start" x="112.5" y="-36.8" font-family="Times,serif" font-size="14.00">A</text>
</g>
<!-- 60351a42&#45;e3ce&#45;4bf3&#45;b9f4&#45;59c2302db08c&#45;&gt;19362c6a&#45;282c&#45;4da4&#45;85f9&#45;d4a36fbcb8bf -->
<g id="edge1" class="edge">
<title>60351a42&#45;e3ce&#45;4bf3&#45;b9f4&#45;59c2302db08c&#45;&gt;19362c6a&#45;282c&#45;4da4&#45;85f9&#45;d4a36fbcb8bf</title>
<path fill="none" stroke="#605d6e" d="M54.4,-41C62.39,-41 71.31,-41 79.82,-41"/>
<polygon fill="#605d6e" stroke="#605d6e" points="79.92,-44.5 89.92,-41 79.92,-37.5 79.92,-44.5"/>
</g>
<!-- 6b7c02fc&#45;1bb4&#45;43ed&#45;bddd&#45;666d2fbe267b -->
<g id="node2" class="node">
<title>6b7c02fc&#45;1bb4&#45;43ed&#45;bddd&#45;666d2fbe267b</title>
<ellipse fill="#605d6e" stroke="black" cx="198" cy="-41" rx="18" ry="18"/>
</g>
<!-- 3aa3d910&#45;e32e&#45;4c76&#45;a72e&#45;722662298334 -->
<g id="node6" class="node">
<title>3aa3d910&#45;e32e&#45;4c76&#45;a72e&#45;722662298334</title>
<polygon fill="none" stroke="black" points="306,-82 252,-82 252,-46 306,-46 306,-82"/>
<text text-anchor="start" x="274" y="-59.8" font-family="Times,serif" font-size="14.00">B</text>
</g>
<!-- 6b7c02fc&#45;1bb4&#45;43ed&#45;bddd&#45;666d2fbe267b&#45;&gt;3aa3d910&#45;e32e&#45;4c76&#45;a72e&#45;722662298334 -->
<g id="edge3" class="edge">
<title>6b7c02fc&#45;1bb4&#45;43ed&#45;bddd&#45;666d2fbe267b&#45;&gt;3aa3d910&#45;e32e&#45;4c76&#45;a72e&#45;722662298334</title>
<path fill="none" stroke="#605d6e" d="M215.37,-45.77C223.07,-48.01 232.58,-50.78 241.84,-53.47"/>
<polygon fill="#605d6e" stroke="#605d6e" points="241.12,-56.91 251.7,-56.34 243.08,-50.19 241.12,-56.91"/>
</g>
<!-- b44acc2b&#45;0122&#45;43be&#45;984b&#45;f5a38d2aad59 -->
<g id="node3" class="node">
<title>b44acc2b&#45;0122&#45;43be&#45;984b&#45;f5a38d2aad59</title>
<ellipse fill="#605d6e" stroke="black" cx="360" cy="-64" rx="18" ry="18"/>
</g>
<!-- d4b2719e&#45;b79c&#45;44cf&#45;b34c&#45;2157a7c27ca2 -->
<g id="node7" class="node">
<title>d4b2719e&#45;b79c&#45;44cf&#45;b34c&#45;2157a7c27ca2</title>
<polygon fill="none" stroke="black" points="468,-36 414,-36 414,0 468,0 468,-36"/>
<text text-anchor="start" x="436" y="-13.8" font-family="Times,serif" font-size="14.00">C</text>
</g>
<!-- b44acc2b&#45;0122&#45;43be&#45;984b&#45;f5a38d2aad59&#45;&gt;d4b2719e&#45;b79c&#45;44cf&#45;b34c&#45;2157a7c27ca2 -->
<g id="edge5" class="edge">
<title>b44acc2b&#45;0122&#45;43be&#45;984b&#45;f5a38d2aad59&#45;&gt;d4b2719e&#45;b79c&#45;44cf&#45;b34c&#45;2157a7c27ca2</title>
<path fill="none" stroke="#605d6e" d="M375.86,-55.35C384.09,-50.56 394.69,-44.38 404.9,-38.44"/>
<polygon fill="#605d6e" stroke="#605d6e" points="406.81,-41.37 413.69,-33.32 403.29,-35.33 406.81,-41.37"/>
</g>
<!-- 061b40f7&#45;5632&#45;43ce&#45;89f3&#45;7f741f3706ca -->
<g id="node8" class="node">
<title>061b40f7&#45;5632&#45;43ce&#45;89f3&#45;7f741f3706ca</title>
<polygon fill="none" stroke="black" points="468,-90 414,-90 414,-54 468,-54 468,-90"/>
<text text-anchor="start" x="435" y="-67.8" font-family="Times,serif" font-size="14.00">D</text>
</g>
<!-- b44acc2b&#45;0122&#45;43be&#45;984b&#45;f5a38d2aad59&#45;&gt;061b40f7&#45;5632&#45;43ce&#45;89f3&#45;7f741f3706ca -->
<g id="edge7" class="edge">
<title>b44acc2b&#45;0122&#45;43be&#45;984b&#45;f5a38d2aad59&#45;&gt;061b40f7&#45;5632&#45;43ce&#45;89f3&#45;7f741f3706ca</title>
<path fill="none" stroke="#605d6e" d="M378.14,-65.74C385.64,-66.5 394.75,-67.42 403.64,-68.32"/>
<polygon fill="#605d6e" stroke="#605d6e" points="403.57,-71.83 413.87,-69.35 404.28,-64.86 403.57,-71.83"/>
</g>
<!-- ba4fe25b&#45;2445&#45;4f23&#45;a9f6&#45;ed8994a9bdfd -->
<g id="node4" class="node">
<title>ba4fe25b&#45;2445&#45;4f23&#45;a9f6&#45;ed8994a9bdfd</title>
<polygon fill="#605d6e" stroke="black" points="562,-64.54 562,-79.46 546.18,-90 523.82,-90 508,-79.46 508,-64.54 523.82,-54 546.18,-54 562,-64.54"/>
<polygon fill="none" stroke="black" points="566,-62.4 566,-81.6 547.39,-94 522.61,-94 504,-81.6 504,-62.4 522.61,-50 547.39,-50 566,-62.4"/>
</g>
<!-- 19362c6a&#45;282c&#45;4da4&#45;85f9&#45;d4a36fbcb8bf&#45;&gt;6b7c02fc&#45;1bb4&#45;43ed&#45;bddd&#45;666d2fbe267b -->
<g id="edge2" class="edge">
<title>19362c6a&#45;282c&#45;4da4&#45;85f9&#45;d4a36fbcb8bf&#45;&gt;6b7c02fc&#45;1bb4&#45;43ed&#45;bddd&#45;666d2fbe267b</title>
<path fill="none" stroke="#605d6e" d="M144.31,-41C152.42,-41 161.37,-41 169.56,-41"/>
<polygon fill="#605d6e" stroke="#605d6e" points="169.75,-44.5 179.75,-41 169.75,-37.5 169.75,-44.5"/>
</g>
<!-- 3aa3d910&#45;e32e&#45;4c76&#45;a72e&#45;722662298334&#45;&gt;b44acc2b&#45;0122&#45;43be&#45;984b&#45;f5a38d2aad59 -->
<g id="edge4" class="edge">
<title>3aa3d910&#45;e32e&#45;4c76&#45;a72e&#45;722662298334&#45;&gt;b44acc2b&#45;0122&#45;43be&#45;984b&#45;f5a38d2aad59</title>
<path fill="none" stroke="#605d6e" d="M306.31,-64C314.42,-64 323.37,-64 331.56,-64"/>
<polygon fill="#605d6e" stroke="#605d6e" points="331.75,-67.5 341.75,-64 331.75,-60.5 331.75,-67.5"/>
</g>
<!-- d4b2719e&#45;b79c&#45;44cf&#45;b34c&#45;2157a7c27ca2&#45;&gt;6b7c02fc&#45;1bb4&#45;43ed&#45;bddd&#45;666d2fbe267b -->
<g id="edge6" class="edge">
<title>d4b2719e&#45;b79c&#45;44cf&#45;b34c&#45;2157a7c27ca2&#45;&gt;6b7c02fc&#45;1bb4&#45;43ed&#45;bddd&#45;666d2fbe267b</title>
<path fill="none" stroke="#605d6e" d="M413.87,-20.49C367.79,-24.89 272.55,-33.98 225.91,-38.43"/>
<polygon fill="#605d6e" stroke="#605d6e" points="225.57,-34.95 215.95,-39.38 226.23,-41.92 225.57,-34.95"/>
</g>
<!-- 061b40f7&#45;5632&#45;43ce&#45;89f3&#45;7f741f3706ca&#45;&gt;ba4fe25b&#45;2445&#45;4f23&#45;a9f6&#45;ed8994a9bdfd -->
<g id="edge8" class="edge">
<title>061b40f7&#45;5632&#45;43ce&#45;89f3&#45;7f741f3706ca&#45;&gt;ba4fe25b&#45;2445&#45;4f23&#45;a9f6&#45;ed8994a9bdfd</title>
<path fill="none" stroke="#605d6e" d="M468.12,-72C476.14,-72 485.15,-72 493.88,-72"/>
<polygon fill="#605d6e" stroke="#605d6e" points="493.92,-75.5 503.92,-72 493.92,-68.5 493.92,-75.5"/>
</g>
</g>
</svg>
