<?xml version="1.0" encoding="UTF-8" standalone="no"?>
<svg
   width="300pt"
   height="140pt"
   viewBox="0 0 300 140"
   version="1.1"
   id="svg9"
   sodipodi:docname="case4_class.svg"
   inkscape:version="1.4.3 (0d15f75, 2025-12-25)"
   xml:space="preserve"
   xmlns:inkscape="http://www.inkscape.org/namespaces/inkscape"
   xmlns:sodipodi="http://sodipodi.sourceforge.net/DTD/sodipodi-0.dtd"
   xmlns="http://www.w3.org/2000/svg"
   xmlns:svg="http://www.w3.org/2000/svg"><defs
     id="defs9" /><sodipodi:namedview
     id="namedview9"
     pagecolor="#ffffff"
     bordercolor="#000000"
     borderopacity="0.25"
     inkscape:showpageshadow="2"
     inkscape:pageopacity="0.0"
     inkscape:pagecheckerboard="0"
     inkscape:deskcolor="#d1d1d1"
     inkscape:document-units="pt"
     inkscape:zoom="3.212766"
     inkscape:cx="192.51324"
     inkscape:cy="57.115893"
     inkscape:window-width="2560"
     inkscape:window-height="1369"
     inkscape:window-x="-8"
     inkscape:window-y="-8"
     inkscape:window-maximized="1"
     inkscape:current-layer="svg9" /><g
     id="graph0"
     class="graph"
     transform="translate(13,108)"><title
       id="title1">G</title><g
       id="clust2"
       class="cluster"><title
         id="title2">cluster_outputs</title></g><g
       id="clust1"
       class="cluster"><title
         id="title3">cluster_inputs</title></g><!-- In3 --><g
       id="node1"
       class="node"><title
         id="title4">In3</title><polygon
         fill="#00cd00"
         stroke="#00cd00"
         points="54.1838,-56 31.8162,-56 16,-45.4558 16,-30.5442 31.8162,-20 54.1838,-20 70,-30.5442 70,-45.4558 "
         id="polygon4" /></g><!-- Center --><g
       id="node2"
       class="node"><title
         id="title5">Center</title><polygon
         fill="none"
         stroke="#000000"
         points="106,-20 160,-20 160,-56 106,-56 "
         id="polygon5" /></g><!-- In3&#45;&gt;Center --><g
       id="edge1"
       class="edge"><title
         id="title6">In3-&gt;Center</title><path
         fill="none"
         stroke="#000000"
         d="m 70.003,-38 c 8.0247,0 16.9635,0 25.5279,0"
         id="path6" /><polygon
         fill="#000000"
         stroke="#000000"
         points="95.705,-34.5001 95.7051,-41.5001 105.705,-38 "
         id="polygon6" /></g><!-- Out3 --><g
       id="node3"
       class="node"><title
         id="title7">Out3</title><polygon
         fill="#00cd00"
         stroke="#00cd00"
         points="238.1838,-56 215.8162,-56 200,-45.4558 200,-30.5442 215.8162,-20 238.1838,-20 254,-30.5442 254,-45.4558 "
         id="polygon7" /><polygon
         fill="none"
         stroke="#00cd00"
         points="239.3949,-60 214.6051,-60 196,-47.5966 196,-28.4034 214.6051,-16 239.3949,-16 258,-28.4034 258,-47.5966 "
         id="polygon8" /></g><!-- Center&#45;&gt;Out3 --><g
       id="edge2"
       class="edge"><title
         id="title8">Center-&gt;Out3</title><path
         fill="none"
         stroke="#000000"
         d="m 160.1887,-38 c 8.0283,0 17.0005,0 25.6994,0"
         id="path8" /><polygon
         fill="#000000"
         stroke="#000000"
         points="185.9012,-34.5001 185.9013,-41.5001 195.9013,-38 "
         id="polygon9" /></g></g></svg>
