<?xml version="1.0" encoding="UTF-8" standalone="no"?>
<svg
   width="300pt"
   height="163pt"
   viewBox="0 0 300 163"
   version="1.1"
   id="svg24"
   sodipodi:docname="case2_class.svg"
   xml:space="preserve"
   inkscape:version="1.4.3 (0d15f75, 2025-12-25)"
   xmlns:inkscape="http://www.inkscape.org/namespaces/inkscape"
   xmlns:sodipodi="http://sodipodi.sourceforge.net/DTD/sodipodi-0.dtd"
   xmlns="http://www.w3.org/2000/svg"
   xmlns:svg="http://www.w3.org/2000/svg"><defs
     id="defs24" /><sodipodi:namedview
     id="namedview24"
     pagecolor="#ffffff"
     bordercolor="#000000"
     borderopacity="0.25"
     inkscape:showpageshadow="2"
     inkscape:pageopacity="0.0"
     inkscape:pagecheckerboard="0"
     inkscape:deskcolor="#d1d1d1"
     inkscape:document-units="pt"
     inkscape:zoom="2.1990291"
     inkscape:cx="110.73068"
     inkscape:cy="61.163355"
     inkscape:window-width="2560"
     inkscape:window-height="1369"
     inkscape:window-x="-8"
     inkscape:window-y="-8"
     inkscape:window-maximized="1"
     inkscape:current-layer="svg24" /><g
     id="graph0"
     class="graph"
     transform="translate(-46.412107,157.5)"><title
       id="title1">G</title><!-- dotsin1 --><g
       id="node1"
       class="node"><title
         id="title2">dotsin1</title></g><!-- In1 --><g
       id="node4"
       class="node"><title
         id="title3">In1</title><circle
         fill="#1874cd"
         stroke="#1874cd"
         cx="108"
         cy="-134"
         id="ellipse3"
         r="18" /></g><!-- dotsin1&#45;&gt;In1 --><g
       id="edge1"
       class="edge"><title
         id="title4">dotsin1-&gt;In1</title><path
         fill="none"
         stroke="#1874cd"
         stroke-dasharray="1, 5"
         d="m 54.4229,-134 c 8.0418,0 16.8543,0 24.968,0"
         id="path4" /><polygon
         fill="#1874cd"
         stroke="#1874cd"
         points="79.5311,-130.5001 79.5312,-137.5001 89.5312,-134 "
         id="polygon4" /></g><!-- dotsin2 --><g
       id="node2"
       class="node"><title
         id="title5">dotsin2</title></g><!-- In2 --><g
       id="node5"
       class="node"><title
         id="title6">In2</title><circle
         fill="#1874cd"
         stroke="#1874cd"
         cx="108"
         cy="-80"
         id="ellipse6"
         r="18" /></g><!-- dotsin2&#45;&gt;In2 --><g
       id="edge5"
       class="edge"><title
         id="title7">dotsin2-&gt;In2</title><path
         fill="none"
         stroke="#1874cd"
         stroke-dasharray="1, 5"
         d="m 54.4229,-80 c 8.0418,0 16.8543,0 24.968,0"
         id="path7" /><polygon
         fill="#1874cd"
         stroke="#1874cd"
         points="79.5311,-76.5001 79.5312,-83.5001 89.5312,-80 "
         id="polygon7" /></g><!-- dotsin3 --><g
       id="node3"
       class="node"><title
         id="title8">dotsin3</title></g><!-- In3 --><g
       id="node6"
       class="node"><title
         id="title9">In3</title><circle
         fill="#ff4500"
         stroke="#ff4500"
         cx="108"
         cy="-26"
         id="ellipse9"
         r="18" /></g><!-- dotsin3&#45;&gt;In3 --><g
       id="edge6"
       class="edge"><title
         id="title10">dotsin3-&gt;In3</title><path
         fill="none"
         stroke="#ff4500"
         stroke-dasharray="1, 5"
         d="m 54.4229,-26 c 8.0418,0 16.8543,0 24.968,0"
         id="path10" /><polygon
         fill="#ff4500"
         stroke="#ff4500"
         points="79.5311,-22.5001 79.5312,-29.5001 89.5312,-26 "
         id="polygon10" /></g><!-- Center --><g
       id="node7"
       class="node"><title
         id="title11">Center</title><polygon
         fill="none"
         stroke="#000000"
         points="216,-98 162,-98 162,-62 216,-62 "
         id="polygon11" /></g><!-- In1&#45;&gt;Center --><g
       id="edge2"
       class="edge"><title
         id="title12">In1-&gt;Center</title><path
         fill="none"
         stroke="#1874cd"
         d="m 123.2355,-123.843 c 8.5339,5.6893 19.5597,13.0398 30.1359,20.0906"
         id="path12" /><polygon
         fill="#1874cd"
         stroke="#1874cd"
         points="151.4386,-100.8345 155.3215,-106.6588 161.7006,-98.1996 "
         id="polygon12" /></g><!-- In2&#45;&gt;Center --><g
       id="edge7"
       class="edge"><title
         id="title13">In2-&gt;Center</title><path
         fill="none"
         stroke="#1874cd"
         d="m 126.3802,-80 c 7.5149,0 16.4955,0 25.277,0"
         id="path13" /><polygon
         fill="#1874cd"
         stroke="#1874cd"
         points="151.7746,-76.5001 151.7747,-83.5001 161.7746,-80 "
         id="polygon13" /></g><!-- In3&#45;&gt;Center --><g
       id="edge11"
       class="edge"><title
         id="title14">In3-&gt;Center</title><path
         fill="none"
         stroke="#ff4500"
         d="m 123.2355,-36.157 c 8.5339,-5.6893 19.5597,-13.0398 30.1359,-20.0906"
         id="path14" /><polygon
         fill="#ff4500"
         stroke="#ff4500"
         points="155.3215,-53.3412 151.4386,-59.1655 161.7006,-61.8004 "
         id="polygon14" /></g><!-- Out1 --><g
       id="node8"
       class="node"><title
         id="title15">Out1</title><circle
         fill="#1874cd"
         stroke="#1874cd"
         cx="283"
         cy="-134"
         id="ellipse15"
         r="18" /></g><!-- Center&#45;&gt;Out1 --><g
       id="edge3"
       class="edge"><title
         id="title16">Center-&gt;Out1</title><path
         fill="none"
         stroke="#1874cd"
         d="m 216.1887,-95.619 c 13.3514,-7.67 29.3135,-16.8397 42.2872,-24.2927"
         id="path16" /><polygon
         fill="#1874cd"
         stroke="#1874cd"
         points="260.3869,-116.973 256.9,-123.0427 267.3145,-124.9892 "
         id="polygon16" /></g><!-- Out2 --><g
       id="node9"
       class="node"><title
         id="title17">Out2</title><circle
         fill="#1874cd"
         stroke="#1874cd"
         cx="283"
         cy="-80"
         id="ellipse17"
         r="18" /></g><!-- Center&#45;&gt;Out2 --><g
       id="edge8"
       class="edge"><title
         id="title18">Center-&gt;Out2</title><path
         fill="none"
         stroke="#1874cd"
         d="m 216.1887,-80 c 12.078,0 26.2925,0 38.4984,0"
         id="path18" /><polygon
         fill="#1874cd"
         stroke="#1874cd"
         points="254.7922,-76.5001 254.7923,-83.5001 264.7923,-80 "
         id="polygon18" /></g><!-- Out3 --><g
       id="node10"
       class="node"><title
         id="title19">Out3</title><polygon
         fill="#ff4500"
         stroke="#ff4500"
         points="256,-29.4558 256,-14.5442 271.8162,-4 294.1838,-4 310,-14.5442 310,-29.4558 294.1838,-40 271.8162,-40 "
         id="polygon19" /><polygon
         fill="none"
         stroke="#ff4500"
         points="252,-31.5966 252,-12.4034 270.6051,0 295.3949,0 314,-12.4034 314,-31.5966 295.3949,-44 270.6051,-44 "
         id="polygon20" /></g><!-- Center&#45;&gt;Out3 --><g
       id="edge10"
       class="edge"><title
         id="title20">Center-&gt;Out3</title><path
         fill="none"
         stroke="#ff4500"
         d="m 216.1887,-63.224 c 10.7817,6.6526 23.266,14.3556 34.5042,21.2898"
         id="path20" /><polygon
         fill="#ff4500"
         stroke="#ff4500"
         points="249.034,-38.8452 252.7097,-44.8024 259.3822,-36.5727 "
         id="polygon21" /></g><!-- dotsout1 --><g
       id="node11"
       class="node"><title
         id="title21">dotsout1</title></g><!-- Out1&#45;&gt;dotsout1 --><!-- dotsout2 --><g
       id="node12"
       class="node"><title
         id="title23">dotsout2</title></g><!-- Out2&#45;&gt;dotsout2 --><g
       id="edge4"
       class="edge"
       transform="translate(13.113177,-34.838888)"><title
         id="title20-3">Out1-&gt;dotsout1</title><path
         fill="none"
         stroke="#1874cd"
         stroke-dasharray="1, 5"
         d="m 288.3802,-99 c 7.5149,0 16.4955,0 25.277,0"
         id="path20-3" /><polygon
         fill="#1874cd"
         stroke="#1874cd"
         points="313.7747,-102.5001 323.7746,-99 313.7746,-95.5001 "
         id="polygon20-4" /></g><g
       id="edge4-1"
       class="edge"
       transform="translate(13.105068,19.038037)"><title
         id="title20-38">Out1-&gt;dotsout1</title><path
         fill="none"
         stroke="#1874cd"
         stroke-dasharray="1, 5"
         d="m 288.3802,-99 c 7.5149,0 16.4955,0 25.277,0"
         id="path20-7" /><polygon
         fill="#1874cd"
         stroke="#1874cd"
         points="313.7747,-102.5001 323.7746,-99 313.7746,-95.5001 "
         id="polygon20-42" /></g></g></svg>
