<?xml version="1.0" encoding="UTF-8" standalone="no"?>
<!DOCTYPE svg PUBLIC "-//W3C//DTD SVG 1.1//EN"
 "http://www.w3.org/Graphics/SVG/1.1/DTD/svg11.dtd">
<!-- Generated by graphviz version 12.2.1 (20241206.2353)
 -->
<!-- Title: ofn Pages: 1 -->
<svg width="208pt" height="791pt"
 viewBox="0.00 0.00 208.02 790.88" xmlns="http://www.w3.org/2000/svg" xmlns:xlink="http://www.w3.org/1999/xlink">
<g id="graph0" class="graph" transform="scale(1 1) rotate(0) translate(4 786.88)">
<title>ofn</title>
<polygon fill="white" stroke="none" points="-4,4 -4,-786.88 204.02,-786.88 204.02,4 -4,4"/>
<!-- e547c6c2&#45;b9a3&#45;4a13&#45;81cb&#45;09e8bc49165e -->
<g id="node1" class="node">
<title>e547c6c2&#45;b9a3&#45;4a13&#45;81cb&#45;09e8bc49165e</title>
<ellipse fill="#ffa500" stroke="black" cx="94.56" cy="-580.25" rx="18" ry="18"/>
</g>
<!-- 4f485e69&#45;d5c3&#45;43d8&#45;8a63&#45;dad5cd2390d3 -->
<g id="node9" class="node">
<title>4f485e69&#45;d5c3&#45;43d8&#45;8a63&#45;dad5cd2390d3</title>
<polygon fill="none" stroke="black" points="85.56,-509.75 31.56,-509.75 31.56,-473.75 85.56,-473.75 85.56,-509.75"/>
<text text-anchor="start" x="41.69" y="-486.7" font-family="Times New Roman,serif" font-size="14.00">Degas</text>
</g>
<!-- e547c6c2&#45;b9a3&#45;4a13&#45;81cb&#45;09e8bc49165e&#45;&gt;4f485e69&#45;d5c3&#45;43d8&#45;8a63&#45;dad5cd2390d3 -->
<g id="edge4" class="edge">
<title>e547c6c2&#45;b9a3&#45;4a13&#45;81cb&#45;09e8bc49165e&#45;&gt;4f485e69&#45;d5c3&#45;43d8&#45;8a63&#45;dad5cd2390d3</title>
<path fill="none" stroke="#ffa500" d="M87.96,-563.39C82.95,-551.34 75.93,-534.47 70.01,-520.24"/>
<polygon fill="#ffa500" stroke="#ffa500" points="73.4,-519.28 66.32,-511.4 66.94,-521.97 73.4,-519.28"/>
<text text-anchor="start" x="79.79" y="-530.95" font-family="Times New Roman,serif" font-size="14.00" fill="#ffa500">1</text>
</g>
<!-- 87912022&#45;b6a1&#45;4c57&#45;aead&#45;87880ae08bab -->
<g id="node13" class="node">
<title>87912022&#45;b6a1&#45;4c57&#45;aead&#45;87880ae08bab</title>
<polygon fill="none" stroke="black" points="157.56,-509.75 103.56,-509.75 103.56,-473.75 157.56,-473.75 157.56,-509.75"/>
<text text-anchor="start" x="118.56" y="-485.58" font-family="Times New Roman,serif" font-size="14.00">𝜏</text>
</g>
<!-- e547c6c2&#45;b9a3&#45;4a13&#45;81cb&#45;09e8bc49165e&#45;&gt;87912022&#45;b6a1&#45;4c57&#45;aead&#45;87880ae08bab -->
<g id="edge14" class="edge">
<title>e547c6c2&#45;b9a3&#45;4a13&#45;81cb&#45;09e8bc49165e&#45;&gt;87912022&#45;b6a1&#45;4c57&#45;aead&#45;87880ae08bab</title>
<path fill="none" stroke="#ffa500" d="M101.17,-563.39C106.18,-551.34 113.2,-534.47 119.12,-520.24"/>
<polygon fill="#ffa500" stroke="#ffa500" points="122.19,-521.97 122.8,-511.4 115.73,-519.28 122.19,-521.97"/>
<text text-anchor="start" x="115.79" y="-530.95" font-family="Times New Roman,serif" font-size="14.00" fill="#ffa500">1</text>
</g>
<!-- eb636d78&#45;f484&#45;430c&#45;8c7d&#45;34d5cb42bf92 -->
<g id="node2" class="node">
<title>eb636d78&#45;f484&#45;430c&#45;8c7d&#45;34d5cb42bf92</title>
<polygon fill="#7b68ee" stroke="black" points="84.68,-752.03 84.68,-770.1 62.94,-782.88 32.19,-782.88 10.44,-770.1 10.44,-752.03 32.19,-739.25 62.94,-739.25 84.68,-752.03"/>
<text text-anchor="start" x="33.31" y="-756.01" font-family="Times New Roman,serif" font-size="14.00">Fiber</text>
</g>
<!-- 24b198d1&#45;872e&#45;4d09&#45;b839&#45;925bb2907335 -->
<g id="node8" class="node">
<title>24b198d1&#45;872e&#45;4d09&#45;b839&#45;925bb2907335</title>
<polygon fill="none" stroke="black" points="121.56,-686.75 67.56,-686.75 67.56,-650.75 121.56,-650.75 121.56,-686.75"/>
<text text-anchor="start" x="79.19" y="-663.7" font-family="Times New Roman,serif" font-size="14.00">Inject</text>
</g>
<!-- eb636d78&#45;f484&#45;430c&#45;8c7d&#45;34d5cb42bf92&#45;&gt;24b198d1&#45;872e&#45;4d09&#45;b839&#45;925bb2907335 -->
<g id="edge1" class="edge">
<title>eb636d78&#45;f484&#45;430c&#45;8c7d&#45;34d5cb42bf92&#45;&gt;24b198d1&#45;872e&#45;4d09&#45;b839&#45;925bb2907335</title>
<path fill="none" stroke="#7b68ee" d="M58.47,-739.12C64.93,-726.7 73.19,-710.82 80.19,-697.38"/>
<polygon fill="#7b68ee" stroke="#7b68ee" points="83.25,-699.07 84.76,-688.59 77.04,-695.84 83.25,-699.07"/>
<text text-anchor="start" x="75.27" y="-707.95" font-family="Times New Roman,serif" font-size="14.00" fill="#7b68ee">1</text>
</g>
<!-- 5a613304&#45;cc3b&#45;4dac&#45;b900&#45;ab288d718a0a -->
<g id="node3" class="node">
<title>5a613304&#45;cc3b&#45;4dac&#45;b900&#45;ab288d718a0a</title>
<polygon fill="#eec900" stroke="black" points="180.41,-752.03 180.41,-770.1 157.65,-782.88 125.48,-782.88 102.72,-770.1 102.72,-752.03 125.48,-739.25 157.65,-739.25 180.41,-752.03"/>
<text text-anchor="start" x="126.19" y="-756.01" font-family="Times New Roman,serif" font-size="14.00">Resin</text>
</g>
<!-- 5a613304&#45;cc3b&#45;4dac&#45;b900&#45;ab288d718a0a&#45;&gt;24b198d1&#45;872e&#45;4d09&#45;b839&#45;925bb2907335 -->
<g id="edge2" class="edge">
<title>5a613304&#45;cc3b&#45;4dac&#45;b900&#45;ab288d718a0a&#45;&gt;24b198d1&#45;872e&#45;4d09&#45;b839&#45;925bb2907335</title>
<path fill="none" stroke="#eec900" d="M130.66,-739.12C124.2,-726.7 115.93,-710.82 108.94,-697.38"/>
<polygon fill="#eec900" stroke="#eec900" points="112.09,-695.84 104.37,-688.59 105.88,-699.07 112.09,-695.84"/>
<text text-anchor="start" x="120.88" y="-707.95" font-family="Times New Roman,serif" font-size="14.00" fill="#eec900">1</text>
</g>
<!-- 7f4e847a&#45;e0d9&#45;4d4e&#45;adb1&#45;f1cd5fbcd910 -->
<g id="node4" class="node">
<title>7f4e847a&#45;e0d9&#45;4d4e&#45;adb1&#45;f1cd5fbcd910</title>
<polygon fill="#00bfff" stroke="black" points="85.13,-209.4 85.13,-227.47 61.37,-240.25 27.76,-240.25 4,-227.47 4,-209.4 27.76,-196.63 61.37,-196.63 85.13,-209.4"/>
<polygon fill="none" stroke="black" points="89.13,-207.01 89.13,-229.86 62.37,-244.25 26.75,-244.25 0,-229.86 0,-207.01 26.75,-192.63 62.37,-192.63 89.13,-207.01"/>
<text text-anchor="start" x="28.06" y="-213.39" font-family="Times New Roman,serif" font-size="14.00">Waste</text>
</g>
<!-- 59bd89de&#45;4cd0&#45;4166&#45;a92c&#45;6d5319739462 -->
<g id="node5" class="node">
<title>59bd89de&#45;4cd0&#45;4166&#45;a92c&#45;6d5319739462</title>
<ellipse fill="#32cd32" stroke="black" cx="125.56" cy="-218.44" rx="18" ry="18"/>
</g>
<!-- 9fa1a99c&#45;984c&#45;42a3&#45;8b89&#45;623faae61a31 -->
<g id="node12" class="node">
<title>9fa1a99c&#45;984c&#45;42a3&#45;8b89&#45;623faae61a31</title>
<polygon fill="none" stroke="black" points="175.56,-140.13 121.56,-140.13 121.56,-104.13 175.56,-104.13 175.56,-140.13"/>
<text text-anchor="start" x="135.44" y="-117.08" font-family="Times New Roman,serif" font-size="14.00">Pack</text>
</g>
<!-- 59bd89de&#45;4cd0&#45;4166&#45;a92c&#45;6d5319739462&#45;&gt;9fa1a99c&#45;984c&#45;42a3&#45;8b89&#45;623faae61a31 -->
<g id="edge12" class="edge">
<title>59bd89de&#45;4cd0&#45;4166&#45;a92c&#45;6d5319739462&#45;&gt;9fa1a99c&#45;984c&#45;42a3&#45;8b89&#45;623faae61a31</title>
<path fill="none" stroke="#32cd32" d="M129.68,-200.58C133,-186.93 137.76,-167.42 141.67,-151.4"/>
<polygon fill="#32cd32" stroke="#32cd32" points="145,-152.49 143.97,-141.95 138.2,-150.84 145,-152.49"/>
<text text-anchor="start" x="139.8" y="-161.33" font-family="Times New Roman,serif" font-size="14.00" fill="#32cd32">1</text>
</g>
<!-- dd8383b9&#45;47b7&#45;49db&#45;82b6&#45;55326fc50e11 -->
<g id="node6" class="node">
<title>dd8383b9&#45;47b7&#45;49db&#45;82b6&#45;55326fc50e11</title>
<polygon fill="#32cd32" stroke="black" points="196.02,-16.78 196.02,-34.85 168.22,-47.63 128.91,-47.63 101.11,-34.85 101.11,-16.78 128.91,-4 168.22,-4 196.02,-16.78"/>
<polygon fill="none" stroke="black" points="200.02,-14.21 200.02,-37.41 169.1,-51.63 128.03,-51.63 97.11,-37.41 97.11,-14.21 128.03,0 169.1,0 200.02,-14.21"/>
<text text-anchor="start" x="127.56" y="-20.76" font-family="Times New Roman,serif" font-size="14.00">Product</text>
</g>
<!-- ef7435e3&#45;b89b&#45;47ec&#45;8bf6&#45;1266195b0216 -->
<g id="node7" class="node">
<title>ef7435e3&#45;b89b&#45;47ec&#45;8bf6&#45;1266195b0216</title>
<ellipse fill="#ffa500" stroke="black" cx="94.56" cy="-403.25" rx="18" ry="18"/>
</g>
<!-- 3f7913f3&#45;4130&#45;46a5&#45;8c23&#45;fde05b555129 -->
<g id="node10" class="node">
<title>3f7913f3&#45;4130&#45;46a5&#45;8c23&#45;fde05b555129</title>
<polygon fill="none" stroke="black" points="71.56,-332.75 17.56,-332.75 17.56,-296.75 71.56,-296.75 71.56,-332.75"/>
<text text-anchor="start" x="30.69" y="-309.7" font-family="Times New Roman,serif" font-size="14.00">Trim</text>
</g>
<!-- ef7435e3&#45;b89b&#45;47ec&#45;8bf6&#45;1266195b0216&#45;&gt;3f7913f3&#45;4130&#45;46a5&#45;8c23&#45;fde05b555129 -->
<g id="edge6" class="edge">
<title>ef7435e3&#45;b89b&#45;47ec&#45;8bf6&#45;1266195b0216&#45;&gt;3f7913f3&#45;4130&#45;46a5&#45;8c23&#45;fde05b555129</title>
<path fill="none" stroke="#ffa500" d="M78.98,-394.01C69.2,-387.96 57.25,-378.81 50.81,-367.25 46.97,-360.36 45.03,-352.14 44.13,-344.33"/>
<polygon fill="#ffa500" stroke="#ffa500" points="47.64,-344.28 43.56,-334.5 40.65,-344.68 47.64,-344.28"/>
<text text-anchor="start" x="50.81" y="-353.95" font-family="Times New Roman,serif" font-size="14.00" fill="#ffa500">1</text>
</g>
<!-- 7d915a1d&#45;6c5c&#45;45a5&#45;b757&#45;ad2f4f9d4aad -->
<g id="node11" class="node">
<title>7d915a1d&#45;6c5c&#45;45a5&#45;b757&#45;ad2f4f9d4aad</title>
<polygon fill="none" stroke="black" points="143.56,-332.75 89.56,-332.75 89.56,-296.75 143.56,-296.75 143.56,-332.75"/>
<text text-anchor="start" x="103.44" y="-309.7" font-family="Times New Roman,serif" font-size="14.00">Pack</text>
</g>
<!-- ef7435e3&#45;b89b&#45;47ec&#45;8bf6&#45;1266195b0216&#45;&gt;7d915a1d&#45;6c5c&#45;45a5&#45;b757&#45;ad2f4f9d4aad -->
<g id="edge9" class="edge">
<title>ef7435e3&#45;b89b&#45;47ec&#45;8bf6&#45;1266195b0216&#45;&gt;7d915a1d&#45;6c5c&#45;45a5&#45;b757&#45;ad2f4f9d4aad</title>
<path fill="none" stroke="#ffa500" d="M98.81,-385.57C101.81,-373.76 105.91,-357.63 109.42,-343.85"/>
<polygon fill="#ffa500" stroke="#ffa500" points="112.74,-344.99 111.81,-334.44 105.96,-343.27 112.74,-344.99"/>
<text text-anchor="start" x="107.53" y="-353.95" font-family="Times New Roman,serif" font-size="14.00" fill="#ffa500">1</text>
</g>
<!-- ef7435e3&#45;b89b&#45;47ec&#45;8bf6&#45;1266195b0216&#45;&gt;9fa1a99c&#45;984c&#45;42a3&#45;8b89&#45;623faae61a31 -->
<g id="edge11" class="edge">
<title>ef7435e3&#45;b89b&#45;47ec&#45;8bf6&#45;1266195b0216&#45;&gt;9fa1a99c&#45;984c&#45;42a3&#45;8b89&#45;623faae61a31</title>
<path fill="none" stroke="#ffa500" d="M108.25,-391.16C122.45,-378.69 143.78,-356.98 152.56,-332.75 174.86,-271.24 163.87,-192.75 155.35,-151.46"/>
<polygon fill="#ffa500" stroke="#ffa500" points="158.81,-150.88 153.26,-141.85 151.97,-152.37 158.81,-150.88"/>
<text text-anchor="start" x="165.28" y="-265.45" font-family="Times New Roman,serif" font-size="14.00" fill="#ffa500">1</text>
</g>
<!-- 24b198d1&#45;872e&#45;4d09&#45;b839&#45;925bb2907335&#45;&gt;e547c6c2&#45;b9a3&#45;4a13&#45;81cb&#45;09e8bc49165e -->
<g id="edge3" class="edge">
<title>24b198d1&#45;872e&#45;4d09&#45;b839&#45;925bb2907335&#45;&gt;e547c6c2&#45;b9a3&#45;4a13&#45;81cb&#45;09e8bc49165e</title>
<path fill="none" stroke="#ffa500" d="M94.56,-650.66C94.56,-639.01 94.56,-623.3 94.56,-609.77"/>
<polygon fill="#ffa500" stroke="#ffa500" points="98.06,-610.12 94.56,-600.12 91.06,-610.12 98.06,-610.12"/>
<text text-anchor="start" x="94.56" y="-619.45" font-family="Times New Roman,serif" font-size="14.00" fill="#ffa500">1</text>
</g>
<!-- 4f485e69&#45;d5c3&#45;43d8&#45;8a63&#45;dad5cd2390d3&#45;&gt;ef7435e3&#45;b89b&#45;47ec&#45;8bf6&#45;1266195b0216 -->
<g id="edge5" class="edge">
<title>4f485e69&#45;d5c3&#45;43d8&#45;8a63&#45;dad5cd2390d3&#45;&gt;ef7435e3&#45;b89b&#45;47ec&#45;8bf6&#45;1266195b0216</title>
<path fill="none" stroke="#ffa500" d="M65.68,-473.66C70.75,-461.46 77.68,-444.82 83.48,-430.88"/>
<polygon fill="#ffa500" stroke="#ffa500" points="86.64,-432.4 87.25,-421.83 80.18,-429.71 86.64,-432.4"/>
<text text-anchor="start" x="79.79" y="-442.45" font-family="Times New Roman,serif" font-size="14.00" fill="#ffa500">1</text>
</g>
<!-- 3f7913f3&#45;4130&#45;46a5&#45;8c23&#45;fde05b555129&#45;&gt;7f4e847a&#45;e0d9&#45;4d4e&#45;adb1&#45;f1cd5fbcd910 -->
<g id="edge8" class="edge">
<title>3f7913f3&#45;4130&#45;46a5&#45;8c23&#45;fde05b555129&#45;&gt;7f4e847a&#45;e0d9&#45;4d4e&#45;adb1&#45;f1cd5fbcd910</title>
<path fill="none" stroke="#00bfff" d="M44.56,-296.45C44.56,-285.07 44.56,-269.74 44.56,-255.76"/>
<polygon fill="#00bfff" stroke="#00bfff" points="48.06,-255.96 44.56,-245.96 41.06,-255.96 48.06,-255.96"/>
<text text-anchor="start" x="44.56" y="-265.45" font-family="Times New Roman,serif" font-size="14.00" fill="#00bfff">1</text>
</g>
<!-- 3f7913f3&#45;4130&#45;46a5&#45;8c23&#45;fde05b555129&#45;&gt;ef7435e3&#45;b89b&#45;47ec&#45;8bf6&#45;1266195b0216 -->
<g id="edge7" class="edge">
<title>3f7913f3&#45;4130&#45;46a5&#45;8c23&#45;fde05b555129&#45;&gt;ef7435e3&#45;b89b&#45;47ec&#45;8bf6&#45;1266195b0216</title>
<path fill="none" stroke="#ffa500" d="M54.55,-333.02C61.91,-345.77 72.04,-363.29 80.27,-377.52"/>
<polygon fill="#ffa500" stroke="#ffa500" points="77.06,-378.97 85.1,-385.87 83.12,-375.47 77.06,-378.97"/>
<text text-anchor="start" x="74.04" y="-353.95" font-family="Times New Roman,serif" font-size="14.00" fill="#ffa500">1</text>
</g>
<!-- 7d915a1d&#45;6c5c&#45;45a5&#45;b757&#45;ad2f4f9d4aad&#45;&gt;59bd89de&#45;4cd0&#45;4166&#45;a92c&#45;6d5319739462 -->
<g id="edge10" class="edge">
<title>7d915a1d&#45;6c5c&#45;45a5&#45;b757&#45;ad2f4f9d4aad&#45;&gt;59bd89de&#45;4cd0&#45;4166&#45;a92c&#45;6d5319739462</title>
<path fill="none" stroke="#32cd32" d="M118.22,-296.45C119.51,-282.89 121.34,-263.74 122.85,-247.92"/>
<polygon fill="#32cd32" stroke="#32cd32" points="126.31,-248.42 123.78,-238.13 119.35,-247.76 126.31,-248.42"/>
<text text-anchor="start" x="121.33" y="-265.45" font-family="Times New Roman,serif" font-size="14.00" fill="#32cd32">1</text>
</g>
<!-- 9fa1a99c&#45;984c&#45;42a3&#45;8b89&#45;623faae61a31&#45;&gt;dd8383b9&#45;47b7&#45;49db&#45;82b6&#45;55326fc50e11 -->
<g id="edge13" class="edge">
<title>9fa1a99c&#45;984c&#45;42a3&#45;8b89&#45;623faae61a31&#45;&gt;dd8383b9&#45;47b7&#45;49db&#45;82b6&#45;55326fc50e11</title>
<path fill="none" stroke="#32cd32" d="M148.56,-103.83C148.56,-92.44 148.56,-77.12 148.56,-63.13"/>
<polygon fill="#32cd32" stroke="#32cd32" points="152.06,-63.33 148.56,-53.33 145.06,-63.33 152.06,-63.33"/>
<text text-anchor="start" x="148.56" y="-72.83" font-family="Times New Roman,serif" font-size="14.00" fill="#32cd32">1</text>
</g>
<!-- 87912022&#45;b6a1&#45;4c57&#45;aead&#45;87880ae08bab&#45;&gt;ef7435e3&#45;b89b&#45;47ec&#45;8bf6&#45;1266195b0216 -->
<g id="edge15" class="edge">
<title>87912022&#45;b6a1&#45;4c57&#45;aead&#45;87880ae08bab&#45;&gt;ef7435e3&#45;b89b&#45;47ec&#45;8bf6&#45;1266195b0216</title>
<path fill="none" stroke="#ffa500" d="M123.45,-473.66C118.37,-461.46 111.45,-444.82 105.65,-430.88"/>
<polygon fill="#ffa500" stroke="#ffa500" points="108.95,-429.71 101.88,-421.83 102.49,-432.4 108.95,-429.71"/>
<text text-anchor="start" x="115.79" y="-442.45" font-family="Times New Roman,serif" font-size="14.00" fill="#ffa500">1</text>
</g>
</g>
</svg>
