<?xml version="1.0" encoding="UTF-8" standalone="no"?>
<!DOCTYPE svg PUBLIC "-//W3C//DTD SVG 1.1//EN"
 "http://www.w3.org/Graphics/SVG/1.1/DTD/svg11.dtd">
<!-- Generated by graphviz version 12.2.1 (20241206.2353)
 -->
<!-- Title: ofn Pages: 1 -->
<svg width="506pt" height="904pt"
 viewBox="0.00 0.00 505.56 903.61" xmlns="http://www.w3.org/2000/svg" xmlns:xlink="http://www.w3.org/1999/xlink">
<g id="graph0" class="graph" transform="scale(1 1) rotate(0) translate(4 899.61)">
<title>ofn</title>
<polygon fill="white" stroke="none" points="-4,4 -4,-899.61 501.56,-899.61 501.56,4 -4,4"/>
<!-- 93d2b146&#45;e31d&#45;4a62&#45;9d19&#45;d7941419035c -->
<g id="node1" class="node">
<title>93d2b146&#45;e31d&#45;4a62&#45;9d19&#45;d7941419035c</title>
<ellipse fill="#ffa500" stroke="black" cx="248.78" cy="-646.07" rx="18" ry="18"/>
</g>
<!-- 175e3911&#45;7c33&#45;4f92&#45;8251&#45;9b66c645a1f2 -->
<g id="node9" class="node">
<title>175e3911&#45;7c33&#45;4f92&#45;8251&#45;9b66c645a1f2</title>
<polygon fill="none" stroke="black" points="239.78,-575.57 185.78,-575.57 185.78,-539.57 239.78,-539.57 239.78,-575.57"/>
<text text-anchor="start" x="195.9" y="-552.52" font-family="Times New Roman,serif" font-size="14.00">Degas</text>
</g>
<!-- 93d2b146&#45;e31d&#45;4a62&#45;9d19&#45;d7941419035c&#45;&gt;175e3911&#45;7c33&#45;4f92&#45;8251&#45;9b66c645a1f2 -->
<g id="edge4" class="edge">
<title>93d2b146&#45;e31d&#45;4a62&#45;9d19&#45;d7941419035c&#45;&gt;175e3911&#45;7c33&#45;4f92&#45;8251&#45;9b66c645a1f2</title>
<path fill="none" stroke="#ffa500" d="M242.18,-629.21C237.16,-617.16 230.14,-600.29 224.22,-586.07"/>
<polygon fill="#ffa500" stroke="#ffa500" points="227.61,-585.11 220.54,-577.22 221.15,-587.8 227.61,-585.11"/>
<text text-anchor="start" x="234" y="-596.77" font-family="Times New Roman,serif" font-size="14.00" fill="#ffa500">1</text>
</g>
<!-- 10a3fdd9&#45;95a0&#45;4113&#45;bd5e&#45;80dd272740fe -->
<g id="node13" class="node">
<title>10a3fdd9&#45;95a0&#45;4113&#45;bd5e&#45;80dd272740fe</title>
<polygon fill="none" stroke="black" points="311.78,-575.57 257.78,-575.57 257.78,-539.57 311.78,-539.57 311.78,-575.57"/>
<text text-anchor="start" x="272.78" y="-551.4" font-family="Times New Roman,serif" font-size="14.00">𝜏</text>
</g>
<!-- 93d2b146&#45;e31d&#45;4a62&#45;9d19&#45;d7941419035c&#45;&gt;10a3fdd9&#45;95a0&#45;4113&#45;bd5e&#45;80dd272740fe -->
<g id="edge14" class="edge">
<title>93d2b146&#45;e31d&#45;4a62&#45;9d19&#45;d7941419035c&#45;&gt;10a3fdd9&#45;95a0&#45;4113&#45;bd5e&#45;80dd272740fe</title>
<path fill="none" stroke="#ffa500" d="M255.38,-629.21C260.4,-617.16 267.42,-600.29 273.34,-586.07"/>
<polygon fill="#ffa500" stroke="#ffa500" points="276.41,-587.8 277.02,-577.22 269.95,-585.11 276.41,-587.8"/>
<text text-anchor="start" x="270" y="-596.77" font-family="Times New Roman,serif" font-size="14.00" fill="#ffa500">1</text>
</g>
<!-- 7b0183ed&#45;571c&#45;4838&#45;9bbc&#45;943cd8cc7eee -->
<g id="node2" class="node">
<title>7b0183ed&#45;571c&#45;4838&#45;9bbc&#45;943cd8cc7eee</title>
<polygon fill="#7b68ee" stroke="black" points="239.56,-841.49 239.56,-873.19 169.39,-895.61 70.17,-895.61 0,-873.19 0,-841.49 70.17,-819.07 169.39,-819.07 239.56,-841.49"/>
<text text-anchor="start" x="105.53" y="-863.04" font-family="Times New Roman,serif" font-size="14.00">Fiber</text>
<polygon fill="black" stroke="none" points="49.53,-856.84 49.53,-857.84 190.03,-857.84 190.03,-856.84 49.53,-856.84"/>
<text text-anchor="start" x="51.53" y="-842.54" font-family="Times New Roman,serif" font-size="14.00">Mass: avg </text>
<text text-anchor="start" x="111.53" y="-842.54" font-family="monospace" font-size="13.00">12</text>
<text text-anchor="start" x="126.53" y="-842.54" font-family="Times New Roman,serif" font-size="14.00"> &#160;/ total </text>
<text text-anchor="start" x="169.28" y="-842.54" font-family="monospace" font-size="13.00">24</text>
<text text-anchor="start" x="184.28" y="-842.54" font-family="Times New Roman,serif" font-size="14.00"> </text>
</g>
<!-- 27e02563&#45;3cae&#45;4c61&#45;9f65&#45;71eaf0109e43 -->
<g id="node8" class="node">
<title>27e02563&#45;3cae&#45;4c61&#45;9f65&#45;71eaf0109e43</title>
<polygon fill="none" stroke="black" points="349.9,-766.57 147.65,-766.57 147.65,-716.57 349.9,-716.57 349.9,-766.57"/>
<text text-anchor="start" x="233.4" y="-747.27" font-family="Times New Roman,serif" font-size="14.00">Inject</text>
<polygon fill="black" stroke="none" points="155.65,-741.07 155.65,-742.07 341.9,-742.07 341.9,-741.07 155.65,-741.07"/>
<text text-anchor="start" x="157.65" y="-726.77" font-family="Times New Roman,serif" font-size="14.00">Implicit mass: avg </text>
<text text-anchor="start" x="263.4" y="-726.77" font-family="monospace" font-size="13.00">1.5</text>
<text text-anchor="start" x="285.9" y="-726.77" font-family="Times New Roman,serif" font-size="14.00"> &#160;/ total </text>
<text text-anchor="start" x="328.65" y="-726.77" font-family="monospace" font-size="13.00">3</text>
<text text-anchor="start" x="336.15" y="-726.77" font-family="Times New Roman,serif" font-size="14.00"> </text>
</g>
<!-- 7b0183ed&#45;571c&#45;4838&#45;9bbc&#45;943cd8cc7eee&#45;&gt;27e02563&#45;3cae&#45;4c61&#45;9f65&#45;71eaf0109e43 -->
<g id="edge1" class="edge">
<title>7b0183ed&#45;571c&#45;4838&#45;9bbc&#45;943cd8cc7eee&#45;&gt;27e02563&#45;3cae&#45;4c61&#45;9f65&#45;71eaf0109e43</title>
<path fill="none" stroke="#7b68ee" d="M162.38,-818.77C178.72,-804.36 197.2,-788.06 212.86,-774.25"/>
<polygon fill="#7b68ee" stroke="#7b68ee" points="214.92,-777.1 220.1,-767.86 210.29,-771.85 214.92,-777.1"/>
<text text-anchor="start" x="199.63" y="-787.77" font-family="Times New Roman,serif" font-size="14.00" fill="#7b68ee">1</text>
</g>
<!-- e00b04d5&#45;3333&#45;49ed&#45;9e06&#45;6f2484719f64 -->
<g id="node3" class="node">
<title>e00b04d5&#45;3333&#45;49ed&#45;9e06&#45;6f2484719f64</title>
<polygon fill="#eec900" stroke="black" points="497.56,-841.49 497.56,-873.19 427.39,-895.61 328.17,-895.61 258,-873.19 258,-841.49 328.17,-819.07 427.39,-819.07 497.56,-841.49"/>
<text text-anchor="start" x="362.4" y="-863.04" font-family="Times New Roman,serif" font-size="14.00">Resin</text>
<polygon fill="black" stroke="none" points="307.53,-856.84 307.53,-857.84 448.03,-857.84 448.03,-856.84 307.53,-856.84"/>
<text text-anchor="start" x="309.53" y="-842.54" font-family="Times New Roman,serif" font-size="14.00">Mass: avg </text>
<text text-anchor="start" x="369.53" y="-842.54" font-family="monospace" font-size="13.00">13</text>
<text text-anchor="start" x="384.53" y="-842.54" font-family="Times New Roman,serif" font-size="14.00"> &#160;/ total </text>
<text text-anchor="start" x="427.28" y="-842.54" font-family="monospace" font-size="13.00">26</text>
<text text-anchor="start" x="442.28" y="-842.54" font-family="Times New Roman,serif" font-size="14.00"> </text>
</g>
<!-- e00b04d5&#45;3333&#45;49ed&#45;9e06&#45;6f2484719f64&#45;&gt;27e02563&#45;3cae&#45;4c61&#45;9f65&#45;71eaf0109e43 -->
<g id="edge2" class="edge">
<title>e00b04d5&#45;3333&#45;49ed&#45;9e06&#45;6f2484719f64&#45;&gt;27e02563&#45;3cae&#45;4c61&#45;9f65&#45;71eaf0109e43</title>
<path fill="none" stroke="#eec900" d="M335.18,-818.77C318.84,-804.36 300.36,-788.06 284.7,-774.25"/>
<polygon fill="#eec900" stroke="#eec900" points="287.27,-771.85 277.46,-767.86 282.64,-777.1 287.27,-771.85"/>
<text text-anchor="start" x="313.28" y="-787.77" font-family="Times New Roman,serif" font-size="14.00" fill="#eec900">1</text>
</g>
<!-- 29be4183&#45;b261&#45;4b9f&#45;84ed&#45;b84b4c73c580 -->
<g id="node4" class="node">
<title>29be4183&#45;b261&#45;4b9f&#45;84ed&#45;b84b4c73c580</title>
<polygon fill="#00bfff" stroke="black" points="239.82,-251.95 239.82,-283.66 173.02,-306.07 78.54,-306.07 11.74,-283.66 11.74,-251.95 78.54,-229.54 173.02,-229.54 239.82,-251.95"/>
<polygon fill="none" stroke="black" points="243.82,-249.08 243.82,-286.53 173.67,-310.07 77.89,-310.07 7.74,-286.53 7.74,-249.08 77.89,-225.54 173.67,-225.54 243.82,-249.08"/>
<text text-anchor="start" x="109.28" y="-273.51" font-family="Times New Roman,serif" font-size="14.00">Waste</text>
<polygon fill="black" stroke="none" points="59.28,-267.31 59.28,-268.31 192.28,-268.31 192.28,-267.31 59.28,-267.31"/>
<text text-anchor="start" x="61.28" y="-253.01" font-family="Times New Roman,serif" font-size="14.00">Mass: avg </text>
<text text-anchor="start" x="121.28" y="-253.01" font-family="monospace" font-size="13.00">3</text>
<text text-anchor="start" x="128.78" y="-253.01" font-family="Times New Roman,serif" font-size="14.00"> &#160;/ total </text>
<text text-anchor="start" x="171.53" y="-253.01" font-family="monospace" font-size="13.00">12</text>
<text text-anchor="start" x="186.53" y="-253.01" font-family="Times New Roman,serif" font-size="14.00"> </text>
</g>
<!-- 47a97f72&#45;345b&#45;463a&#45;966d&#45;7c47bfbef61c -->
<g id="node5" class="node">
<title>47a97f72&#45;345b&#45;463a&#45;966d&#45;7c47bfbef61c</title>
<ellipse fill="#32cd32" stroke="black" cx="279.78" cy="-267.81" rx="18" ry="18"/>
</g>
<!-- 72a0e35f&#45;31eb&#45;4986&#45;a270&#45;f8362133bfd0 -->
<g id="node12" class="node">
<title>72a0e35f&#45;31eb&#45;4986&#45;a270&#45;f8362133bfd0</title>
<polygon fill="none" stroke="black" points="329.78,-173.04 275.78,-173.04 275.78,-137.04 329.78,-137.04 329.78,-173.04"/>
<text text-anchor="start" x="289.65" y="-149.99" font-family="Times New Roman,serif" font-size="14.00">Pack</text>
</g>
<!-- 47a97f72&#45;345b&#45;463a&#45;966d&#45;7c47bfbef61c&#45;&gt;72a0e35f&#45;31eb&#45;4986&#45;a270&#45;f8362133bfd0 -->
<g id="edge12" class="edge">
<title>47a97f72&#45;345b&#45;463a&#45;966d&#45;7c47bfbef61c&#45;&gt;72a0e35f&#45;31eb&#45;4986&#45;a270&#45;f8362133bfd0</title>
<path fill="none" stroke="#32cd32" d="M283.27,-249.98C286.88,-232.6 292.58,-205.15 296.89,-184.41"/>
<polygon fill="#32cd32" stroke="#32cd32" points="300.26,-185.37 298.87,-174.87 293.41,-183.95 300.26,-185.37"/>
<text text-anchor="start" x="295.34" y="-194.24" font-family="Times New Roman,serif" font-size="14.00" fill="#32cd32">1</text>
</g>
<!-- 90aa0663&#45;3042&#45;47cb&#45;bb35&#45;891495343cc0 -->
<g id="node6" class="node">
<title>90aa0663&#45;3042&#45;47cb&#45;bb35&#45;891495343cc0</title>
<polygon fill="#32cd32" stroke="black" points="422.56,-26.42 422.56,-58.12 352.39,-80.54 253.17,-80.54 183,-58.12 183,-26.42 253.17,-4 352.39,-4 422.56,-26.42"/>
<polygon fill="none" stroke="black" points="426.56,-23.5 426.56,-61.04 353.02,-84.54 252.54,-84.54 179,-61.04 179,-23.5 252.54,0 353.02,0 426.56,-23.5"/>
<text text-anchor="start" x="281.78" y="-47.97" font-family="Times New Roman,serif" font-size="14.00">Product</text>
<polygon fill="black" stroke="none" points="232.53,-41.77 232.53,-42.77 373.03,-42.77 373.03,-41.77 232.53,-41.77"/>
<text text-anchor="start" x="234.53" y="-27.47" font-family="Times New Roman,serif" font-size="14.00">Mass: avg </text>
<text text-anchor="start" x="294.53" y="-27.47" font-family="monospace" font-size="13.00">35</text>
<text text-anchor="start" x="309.53" y="-27.47" font-family="Times New Roman,serif" font-size="14.00"> &#160;/ total </text>
<text text-anchor="start" x="352.28" y="-27.47" font-family="monospace" font-size="13.00">35</text>
<text text-anchor="start" x="367.28" y="-27.47" font-family="Times New Roman,serif" font-size="14.00"> </text>
</g>
<!-- 5d403799&#45;2640&#45;496b&#45;b70d&#45;f5c3190766c5 -->
<g id="node7" class="node">
<title>5d403799&#45;2640&#45;496b&#45;b70d&#45;f5c3190766c5</title>
<ellipse fill="#ffa500" stroke="black" cx="248.78" cy="-469.07" rx="18" ry="18"/>
</g>
<!-- 6527a349&#45;c653&#45;4d15&#45;8c53&#45;710b853637e6 -->
<g id="node10" class="node">
<title>6527a349&#45;c653&#45;4d15&#45;8c53&#45;710b853637e6</title>
<polygon fill="none" stroke="black" points="225.78,-398.57 171.78,-398.57 171.78,-362.57 225.78,-362.57 225.78,-398.57"/>
<text text-anchor="start" x="184.9" y="-375.52" font-family="Times New Roman,serif" font-size="14.00">Trim</text>
</g>
<!-- 5d403799&#45;2640&#45;496b&#45;b70d&#45;f5c3190766c5&#45;&gt;6527a349&#45;c653&#45;4d15&#45;8c53&#45;710b853637e6 -->
<g id="edge6" class="edge">
<title>5d403799&#45;2640&#45;496b&#45;b70d&#45;f5c3190766c5&#45;&gt;6527a349&#45;c653&#45;4d15&#45;8c53&#45;710b853637e6</title>
<path fill="none" stroke="#ffa500" d="M233.2,-459.83C223.41,-453.78 211.47,-444.63 205.03,-433.07 201.19,-426.18 199.24,-417.97 198.35,-410.15"/>
<polygon fill="#ffa500" stroke="#ffa500" points="201.85,-410.1 197.77,-400.32 194.86,-410.51 201.85,-410.1"/>
<text text-anchor="start" x="205.03" y="-419.77" font-family="Times New Roman,serif" font-size="14.00" fill="#ffa500">1</text>
</g>
<!-- bb02fcdb&#45;c261&#45;405c&#45;94ff&#45;ae9ecbf0558e -->
<g id="node11" class="node">
<title>bb02fcdb&#45;c261&#45;405c&#45;94ff&#45;ae9ecbf0558e</title>
<polygon fill="none" stroke="black" points="297.78,-398.57 243.78,-398.57 243.78,-362.57 297.78,-362.57 297.78,-398.57"/>
<text text-anchor="start" x="257.65" y="-375.52" font-family="Times New Roman,serif" font-size="14.00">Pack</text>
</g>
<!-- 5d403799&#45;2640&#45;496b&#45;b70d&#45;f5c3190766c5&#45;&gt;bb02fcdb&#45;c261&#45;405c&#45;94ff&#45;ae9ecbf0558e -->
<g id="edge9" class="edge">
<title>5d403799&#45;2640&#45;496b&#45;b70d&#45;f5c3190766c5&#45;&gt;bb02fcdb&#45;c261&#45;405c&#45;94ff&#45;ae9ecbf0558e</title>
<path fill="none" stroke="#ffa500" d="M253.02,-451.4C256.03,-439.58 260.13,-423.45 263.63,-409.67"/>
<polygon fill="#ffa500" stroke="#ffa500" points="266.95,-410.81 266.03,-400.26 260.17,-409.09 266.95,-410.81"/>
<text text-anchor="start" x="261.75" y="-419.77" font-family="Times New Roman,serif" font-size="14.00" fill="#ffa500">1</text>
</g>
<!-- 5d403799&#45;2640&#45;496b&#45;b70d&#45;f5c3190766c5&#45;&gt;72a0e35f&#45;31eb&#45;4986&#45;a270&#45;f8362133bfd0 -->
<g id="edge11" class="edge">
<title>5d403799&#45;2640&#45;496b&#45;b70d&#45;f5c3190766c5&#45;&gt;72a0e35f&#45;31eb&#45;4986&#45;a270&#45;f8362133bfd0</title>
<path fill="none" stroke="#ffa500" d="M262.47,-456.99C276.66,-444.51 298,-422.8 306.78,-398.57 333.38,-325.18 319.36,-230.91 309.6,-184.48"/>
<polygon fill="#ffa500" stroke="#ffa500" points="313.07,-183.98 307.5,-174.96 306.24,-185.48 313.07,-183.98"/>
<text text-anchor="start" x="320.92" y="-331.27" font-family="Times New Roman,serif" font-size="14.00" fill="#ffa500">1</text>
</g>
<!-- 27e02563&#45;3cae&#45;4c61&#45;9f65&#45;71eaf0109e43&#45;&gt;93d2b146&#45;e31d&#45;4a62&#45;9d19&#45;d7941419035c -->
<g id="edge3" class="edge">
<title>27e02563&#45;3cae&#45;4c61&#45;9f65&#45;71eaf0109e43&#45;&gt;93d2b146&#45;e31d&#45;4a62&#45;9d19&#45;d7941419035c</title>
<path fill="none" stroke="#ffa500" d="M248.78,-716.49C248.78,-703.98 248.78,-688.61 248.78,-675.52"/>
<polygon fill="#ffa500" stroke="#ffa500" points="252.28,-675.8 248.78,-665.8 245.28,-675.8 252.28,-675.8"/>
<text text-anchor="start" x="248.78" y="-685.27" font-family="Times New Roman,serif" font-size="14.00" fill="#ffa500">1</text>
</g>
<!-- 175e3911&#45;7c33&#45;4f92&#45;8251&#45;9b66c645a1f2&#45;&gt;5d403799&#45;2640&#45;496b&#45;b70d&#45;f5c3190766c5 -->
<g id="edge5" class="edge">
<title>175e3911&#45;7c33&#45;4f92&#45;8251&#45;9b66c645a1f2&#45;&gt;5d403799&#45;2640&#45;496b&#45;b70d&#45;f5c3190766c5</title>
<path fill="none" stroke="#ffa500" d="M219.89,-539.48C224.97,-527.28 231.9,-510.64 237.7,-496.71"/>
<polygon fill="#ffa500" stroke="#ffa500" points="240.85,-498.22 241.47,-487.65 234.39,-495.53 240.85,-498.22"/>
<text text-anchor="start" x="234" y="-508.27" font-family="Times New Roman,serif" font-size="14.00" fill="#ffa500">1</text>
</g>
<!-- 6527a349&#45;c653&#45;4d15&#45;8c53&#45;710b853637e6&#45;&gt;29be4183&#45;b261&#45;4b9f&#45;84ed&#45;b84b4c73c580 -->
<g id="edge8" class="edge">
<title>6527a349&#45;c653&#45;4d15&#45;8c53&#45;710b853637e6&#45;&gt;29be4183&#45;b261&#45;4b9f&#45;84ed&#45;b84b4c73c580</title>
<path fill="none" stroke="#00bfff" d="M187.37,-362.27C179.8,-350.78 169.44,-335.05 159.37,-319.78"/>
<polygon fill="#00bfff" stroke="#00bfff" points="162.43,-318.05 154,-311.63 156.58,-321.91 162.43,-318.05"/>
<text text-anchor="start" x="175.17" y="-331.27" font-family="Times New Roman,serif" font-size="14.00" fill="#00bfff">1</text>
</g>
<!-- 6527a349&#45;c653&#45;4d15&#45;8c53&#45;710b853637e6&#45;&gt;5d403799&#45;2640&#45;496b&#45;b70d&#45;f5c3190766c5 -->
<g id="edge7" class="edge">
<title>6527a349&#45;c653&#45;4d15&#45;8c53&#45;710b853637e6&#45;&gt;5d403799&#45;2640&#45;496b&#45;b70d&#45;f5c3190766c5</title>
<path fill="none" stroke="#ffa500" d="M208.76,-398.84C216.13,-411.59 226.26,-429.11 234.49,-443.34"/>
<polygon fill="#ffa500" stroke="#ffa500" points="231.28,-444.79 239.31,-451.7 237.34,-441.29 231.28,-444.79"/>
<text text-anchor="start" x="228.26" y="-419.77" font-family="Times New Roman,serif" font-size="14.00" fill="#ffa500">1</text>
</g>
<!-- bb02fcdb&#45;c261&#45;405c&#45;94ff&#45;ae9ecbf0558e&#45;&gt;47a97f72&#45;345b&#45;463a&#45;966d&#45;7c47bfbef61c -->
<g id="edge10" class="edge">
<title>bb02fcdb&#45;c261&#45;405c&#45;94ff&#45;ae9ecbf0558e&#45;&gt;47a97f72&#45;345b&#45;463a&#45;966d&#45;7c47bfbef61c</title>
<path fill="none" stroke="#32cd32" d="M272.19,-362.27C273.6,-344.87 275.8,-317.76 277.47,-297.21"/>
<polygon fill="#32cd32" stroke="#32cd32" points="280.94,-297.75 278.26,-287.5 273.96,-297.18 280.94,-297.75"/>
<text text-anchor="start" x="274.74" y="-331.27" font-family="Times New Roman,serif" font-size="14.00" fill="#32cd32">1</text>
</g>
<!-- 72a0e35f&#45;31eb&#45;4986&#45;a270&#45;f8362133bfd0&#45;&gt;90aa0663&#45;3042&#45;47cb&#45;bb35&#45;891495343cc0 -->
<g id="edge13" class="edge">
<title>72a0e35f&#45;31eb&#45;4986&#45;a270&#45;f8362133bfd0&#45;&gt;90aa0663&#45;3042&#45;47cb&#45;bb35&#45;891495343cc0</title>
<path fill="none" stroke="#32cd32" d="M302.78,-136.73C302.78,-125.67 302.78,-110.7 302.78,-95.97"/>
<polygon fill="#32cd32" stroke="#32cd32" points="306.28,-96.34 302.78,-86.34 299.28,-96.34 306.28,-96.34"/>
<text text-anchor="start" x="302.78" y="-105.74" font-family="Times New Roman,serif" font-size="14.00" fill="#32cd32">1</text>
</g>
<!-- 10a3fdd9&#45;95a0&#45;4113&#45;bd5e&#45;80dd272740fe&#45;&gt;5d403799&#45;2640&#45;496b&#45;b70d&#45;f5c3190766c5 -->
<g id="edge15" class="edge">
<title>10a3fdd9&#45;95a0&#45;4113&#45;bd5e&#45;80dd272740fe&#45;&gt;5d403799&#45;2640&#45;496b&#45;b70d&#45;f5c3190766c5</title>
<path fill="none" stroke="#ffa500" d="M277.67,-539.48C272.59,-527.28 265.66,-510.64 259.86,-496.71"/>
<polygon fill="#ffa500" stroke="#ffa500" points="263.17,-495.53 256.09,-487.65 256.7,-498.22 263.17,-495.53"/>
<text text-anchor="start" x="270" y="-508.27" font-family="Times New Roman,serif" font-size="14.00" fill="#ffa500">1</text>
</g>
</g>
</svg>
