<?xml version="1.0" encoding="UTF-8" standalone="no"?>
<!DOCTYPE svg PUBLIC "-//W3C//DTD SVG 1.1//EN"
 "http://www.w3.org/Graphics/SVG/1.1/DTD/svg11.dtd">
<!-- Generated by graphviz version 12.2.1 (20241206.2353)
 -->
<!-- Title: ocpn Pages: 1 -->
<svg width="283pt" height="1106pt"
 viewBox="0.00 0.00 283.48 1106.00" xmlns="http://www.w3.org/2000/svg" xmlns:xlink="http://www.w3.org/1999/xlink">
<g id="graph0" class="graph" transform="scale(1 1) rotate(0) translate(4 1102)">
<title>ocpn</title>
<polygon fill="white" stroke="none" points="-4,4 -4,-1102 279.48,-1102 279.48,4 -4,4"/>
<!-- 4dafbf02&#45;ee32&#45;40d2&#45;a0b2&#45;31abae409dd9 -->
<g id="node1" class="node">
<title>4dafbf02&#45;ee32&#45;40d2&#45;a0b2&#45;31abae409dd9</title>
<polygon fill="none" stroke="black" points="54,-832.5 0,-832.5 0,-796.5 54,-796.5 54,-832.5"/>
<text text-anchor="middle" x="27" y="-809.45" font-family="Times New Roman,serif" font-size="14.00">Degas</text>
</g>
<!-- 0c2f48be&#45;fa60&#45;40a7&#45;996a&#45;21c7e5c33f6d -->
<g id="node6" class="node">
<title>0c2f48be&#45;fa60&#45;40a7&#45;996a&#45;21c7e5c33f6d</title>
<ellipse fill="#ffa500" stroke="black" cx="62" cy="-726" rx="18" ry="18"/>
<text text-anchor="middle" x="62" y="-720.95" font-family="Times New Roman,serif" font-size="14.00"> </text>
</g>
<!-- 4dafbf02&#45;ee32&#45;40d2&#45;a0b2&#45;31abae409dd9&#45;&gt;0c2f48be&#45;fa60&#45;40a7&#45;996a&#45;21c7e5c33f6d -->
<g id="edge10" class="edge">
<title>4dafbf02&#45;ee32&#45;40d2&#45;a0b2&#45;31abae409dd9&#45;&gt;0c2f48be&#45;fa60&#45;40a7&#45;996a&#45;21c7e5c33f6d</title>
<path fill="none" stroke="#ffa500" d="M33.91,-796.41C38.85,-784.21 45.59,-767.56 51.22,-753.63"/>
<polygon fill="#ffa500" stroke="#ffa500" points="54.38,-755.16 54.89,-744.58 47.89,-752.54 54.38,-755.16"/>
<text text-anchor="middle" x="49.51" y="-765.2" font-family="Times New Roman,serif" font-size="14.00"> </text>
</g>
<!-- cb745b47&#45;2089&#45;4f6b&#45;897f&#45;404e15afdce1 -->
<g id="node2" class="node">
<title>cb745b47&#45;2089&#45;4f6b&#45;897f&#45;404e15afdce1</title>
<polygon fill="none" stroke="black" points="152,-478.5 98,-478.5 98,-442.5 152,-442.5 152,-478.5"/>
<text text-anchor="middle" x="125" y="-455.45" font-family="Times New Roman,serif" font-size="14.00">Trim</text>
</g>
<!-- 2b6c0227&#45;20d8&#45;45f6&#45;975d&#45;02e9ab62a2f2 -->
<g id="node7" class="node">
<title>2b6c0227&#45;20d8&#45;45f6&#45;975d&#45;02e9ab62a2f2</title>
<ellipse fill="#ffa500" stroke="black" cx="119" cy="-372" rx="18" ry="18"/>
<text text-anchor="middle" x="119" y="-366.95" font-family="Times New Roman,serif" font-size="14.00"> </text>
</g>
<!-- cb745b47&#45;2089&#45;4f6b&#45;897f&#45;404e15afdce1&#45;&gt;2b6c0227&#45;20d8&#45;45f6&#45;975d&#45;02e9ab62a2f2 -->
<g id="edge13" class="edge">
<title>cb745b47&#45;2089&#45;4f6b&#45;897f&#45;404e15afdce1&#45;&gt;2b6c0227&#45;20d8&#45;45f6&#45;975d&#45;02e9ab62a2f2</title>
<path fill="none" stroke="#ffa500" d="M123.81,-442.41C123.01,-430.76 121.92,-415.05 120.98,-401.52"/>
<polygon fill="#ffa500" stroke="#ffa500" points="124.49,-401.59 120.31,-391.86 117.51,-402.08 124.49,-401.59"/>
<text text-anchor="middle" x="124.41" y="-411.2" font-family="Times New Roman,serif" font-size="14.00"> </text>
</g>
<!-- b8e0142c&#45;abe6&#45;43f2&#45;ba31&#45;ac4886085649 -->
<g id="node26" class="node">
<title>b8e0142c&#45;abe6&#45;43f2&#45;ba31&#45;ac4886085649</title>
<polygon fill="none" stroke="none" points="209,-390 155,-390 155,-354 209,-354 209,-390"/>
<polyline fill="none" stroke="black" points="155,-354 209,-354"/>
<text text-anchor="middle" x="182" y="-366.95" font-family="Times New Roman,serif" font-size="14.00" fill="#00bfff">Waste</text>
</g>
<!-- cb745b47&#45;2089&#45;4f6b&#45;897f&#45;404e15afdce1&#45;&gt;b8e0142c&#45;abe6&#45;43f2&#45;ba31&#45;ac4886085649 -->
<g id="edge28" class="edge">
<title>cb745b47&#45;2089&#45;4f6b&#45;897f&#45;404e15afdce1&#45;&gt;b8e0142c&#45;abe6&#45;43f2&#45;ba31&#45;ac4886085649</title>
<path fill="none" stroke="#00bfff" d="M136.26,-442.41C144.25,-430.29 155.13,-413.77 164.28,-399.89"/>
<polygon fill="#00bfff" stroke="#00bfff" points="167.15,-401.89 169.73,-391.61 161.31,-398.04 167.15,-401.89"/>
<text text-anchor="middle" x="160.48" y="-411.2" font-family="Times New Roman,serif" font-size="14.00"> </text>
</g>
<!-- 4674dd97&#45;41e9&#45;48b4&#45;89fd&#45;c2d1e613b916 -->
<g id="node3" class="node">
<title>4674dd97&#45;41e9&#45;48b4&#45;89fd&#45;c2d1e613b916</title>
<polygon fill="none" stroke="black" points="152,-1009.5 98,-1009.5 98,-973.5 152,-973.5 152,-1009.5"/>
<text text-anchor="middle" x="125" y="-986.45" font-family="Times New Roman,serif" font-size="14.00">Inject</text>
</g>
<!-- 1a337640&#45;1ab6&#45;45c6&#45;a803&#45;5f3a30ecfcca -->
<g id="node8" class="node">
<title>1a337640&#45;1ab6&#45;45c6&#45;a803&#45;5f3a30ecfcca</title>
<ellipse fill="#ffa500" stroke="black" cx="62" cy="-903" rx="18" ry="18"/>
<text text-anchor="middle" x="62" y="-897.95" font-family="Times New Roman,serif" font-size="14.00"> </text>
</g>
<!-- 4674dd97&#45;41e9&#45;48b4&#45;89fd&#45;c2d1e613b916&#45;&gt;1a337640&#45;1ab6&#45;45c6&#45;a803&#45;5f3a30ecfcca -->
<g id="edge7" class="edge">
<title>4674dd97&#45;41e9&#45;48b4&#45;89fd&#45;c2d1e613b916&#45;&gt;1a337640&#45;1ab6&#45;45c6&#45;a803&#45;5f3a30ecfcca</title>
<path fill="none" stroke="#ffa500" d="M112.55,-973.41C102.9,-960.16 89.44,-941.67 78.83,-927.1"/>
<polygon fill="#ffa500" stroke="#ffa500" points="81.94,-925.44 73.23,-919.42 76.29,-929.56 81.94,-925.44"/>
<text text-anchor="middle" x="101.02" y="-942.2" font-family="Times New Roman,serif" font-size="14.00"> </text>
</g>
<!-- 5c70189d&#45;5286&#45;49d2&#45;ae98&#45;ea7c9c048597 -->
<g id="node22" class="node">
<title>5c70189d&#45;5286&#45;49d2&#45;ae98&#45;ea7c9c048597</title>
<polygon fill="none" stroke="none" points="152,-921 98,-921 98,-885 152,-885 152,-921"/>
<polyline fill="none" stroke="black" points="98,-885 152,-885"/>
<text text-anchor="middle" x="125" y="-897.95" font-family="Times New Roman,serif" font-size="14.00" fill="#7b68ee">Fiber</text>
</g>
<!-- 4674dd97&#45;41e9&#45;48b4&#45;89fd&#45;c2d1e613b916&#45;&gt;5c70189d&#45;5286&#45;49d2&#45;ae98&#45;ea7c9c048597 -->
<g id="edge24" class="edge">
<title>4674dd97&#45;41e9&#45;48b4&#45;89fd&#45;c2d1e613b916&#45;&gt;5c70189d&#45;5286&#45;49d2&#45;ae98&#45;ea7c9c048597</title>
<path fill="none" stroke="#7b68ee" d="M125,-973.41C125,-961.76 125,-946.05 125,-932.52"/>
<polygon fill="#7b68ee" stroke="#7b68ee" points="128.5,-932.86 125,-922.86 121.5,-932.86 128.5,-932.86"/>
<text text-anchor="middle" x="126.88" y="-942.2" font-family="Times New Roman,serif" font-size="14.00"> </text>
</g>
<!-- 9d0507ab&#45;cfc6&#45;4d55&#45;80a8&#45;1dd682b510a9 -->
<g id="node24" class="node">
<title>9d0507ab&#45;cfc6&#45;4d55&#45;80a8&#45;1dd682b510a9</title>
<polygon fill="none" stroke="none" points="224,-921 170,-921 170,-885 224,-885 224,-921"/>
<polyline fill="none" stroke="black" points="170,-885 224,-885"/>
<text text-anchor="middle" x="197" y="-897.95" font-family="Times New Roman,serif" font-size="14.00" fill="#eec900">Resin</text>
</g>
<!-- 4674dd97&#45;41e9&#45;48b4&#45;89fd&#45;c2d1e613b916&#45;&gt;9d0507ab&#45;cfc6&#45;4d55&#45;80a8&#45;1dd682b510a9 -->
<g id="edge26" class="edge">
<title>4674dd97&#45;41e9&#45;48b4&#45;89fd&#45;c2d1e613b916&#45;&gt;9d0507ab&#45;cfc6&#45;4d55&#45;80a8&#45;1dd682b510a9</title>
<path fill="none" stroke="#eec900" d="M139.22,-973.41C149.51,-961.05 163.6,-944.13 175.29,-930.08"/>
<polygon fill="#eec900" stroke="#eec900" points="177.88,-932.44 181.59,-922.51 172.5,-927.96 177.88,-932.44"/>
<text text-anchor="middle" x="169.32" y="-942.2" font-family="Times New Roman,serif" font-size="14.00"> </text>
</g>
<!-- f877958f&#45;16ba&#45;407a&#45;b1cb&#45;2b46506d4c8b -->
<g id="node4" class="node">
<title>f877958f&#45;16ba&#45;407a&#45;b1cb&#45;2b46506d4c8b</title>
<polygon fill="none" stroke="black" points="161,-301.5 107,-301.5 107,-265.5 161,-265.5 161,-301.5"/>
<text text-anchor="middle" x="134" y="-278.45" font-family="Times New Roman,serif" font-size="14.00">Pack</text>
</g>
<!-- 3cf5f0a3&#45;fc6f&#45;448a&#45;9573&#45;d04a7ae189de -->
<g id="node9" class="node">
<title>3cf5f0a3&#45;fc6f&#45;448a&#45;9573&#45;d04a7ae189de</title>
<polygon fill="none" stroke="none" points="98,-213 44,-213 44,-177 98,-177 98,-213"/>
<polyline fill="none" stroke="black" points="44,-177 98,-177"/>
<text text-anchor="middle" x="71" y="-189.95" font-family="Times New Roman,serif" font-size="14.00" fill="#ffa500">Mold</text>
</g>
<!-- f877958f&#45;16ba&#45;407a&#45;b1cb&#45;2b46506d4c8b&#45;&gt;3cf5f0a3&#45;fc6f&#45;448a&#45;9573&#45;d04a7ae189de -->
<g id="edge5" class="edge">
<title>f877958f&#45;16ba&#45;407a&#45;b1cb&#45;2b46506d4c8b&#45;&gt;3cf5f0a3&#45;fc6f&#45;448a&#45;9573&#45;d04a7ae189de</title>
<path fill="none" stroke="#ffa500" d="M121.55,-265.41C112.64,-253.17 100.46,-236.45 90.29,-222.49"/>
<polygon fill="#ffa500" stroke="#ffa500" points="93.24,-220.6 84.53,-214.57 87.59,-224.72 93.24,-220.6"/>
<text text-anchor="middle" x="110.02" y="-234.2" font-family="Times New Roman,serif" font-size="14.00"> </text>
</g>
<!-- 9ad97210&#45;aa16&#45;42ba&#45;adce&#45;8ecf43c2140b -->
<g id="node17" class="node">
<title>9ad97210&#45;aa16&#45;42ba&#45;adce&#45;8ecf43c2140b</title>
<ellipse fill="#32cd32" stroke="black" cx="134" cy="-195" rx="18" ry="18"/>
<text text-anchor="middle" x="134" y="-189.95" font-family="Times New Roman,serif" font-size="14.00"> </text>
</g>
<!-- f877958f&#45;16ba&#45;407a&#45;b1cb&#45;2b46506d4c8b&#45;&gt;9ad97210&#45;aa16&#45;42ba&#45;adce&#45;8ecf43c2140b -->
<g id="edge20" class="edge">
<title>f877958f&#45;16ba&#45;407a&#45;b1cb&#45;2b46506d4c8b&#45;&gt;9ad97210&#45;aa16&#45;42ba&#45;adce&#45;8ecf43c2140b</title>
<path fill="none" stroke="#32cd32" stroke-width="4" d="M134,-265.41C134,-255.05 134,-241.49 134,-229.1"/>
<polygon fill="#32cd32" stroke="#32cd32" stroke-width="4" points="137.5,-229.4 134,-219.4 130.5,-229.4 137.5,-229.4"/>
<text text-anchor="middle" x="135.88" y="-234.2" font-family="Times New Roman,serif" font-size="14.00"> </text>
</g>
<!-- 82f94ba5&#45;c8cb&#45;4147&#45;9049&#45;56dce9455b80 -->
<g id="node5" class="node">
<title>82f94ba5&#45;c8cb&#45;4147&#45;9049&#45;56dce9455b80</title>
<ellipse fill="#ffa500" stroke="black" cx="45" cy="-1080" rx="31.39" ry="18"/>
<text text-anchor="middle" x="45" y="-1074.95" font-family="Times New Roman,serif" font-size="14.00">Mold</text>
</g>
<!-- 82f94ba5&#45;c8cb&#45;4147&#45;9049&#45;56dce9455b80&#45;&gt;4674dd97&#45;41e9&#45;48b4&#45;89fd&#45;c2d1e613b916 -->
<g id="edge6" class="edge">
<title>82f94ba5&#45;c8cb&#45;4147&#45;9049&#45;56dce9455b80&#45;&gt;4674dd97&#45;41e9&#45;48b4&#45;89fd&#45;c2d1e613b916</title>
<path fill="none" stroke="#ffa500" d="M59.3,-1063.54C70.95,-1050.94 87.64,-1032.9 101.28,-1018.15"/>
<polygon fill="#ffa500" stroke="#ffa500" points="103.65,-1020.74 107.87,-1011.02 98.51,-1015.99 103.65,-1020.74"/>
<text text-anchor="middle" x="94.04" y="-1030.7" font-family="Times New Roman,serif" font-size="14.00"> </text>
</g>
<!-- 8a69a32b&#45;ee2b&#45;4bf4&#45;8c74&#45;13fba5164668 -->
<g id="node11" class="node">
<title>8a69a32b&#45;ee2b&#45;4bf4&#45;8c74&#45;13fba5164668</title>
<polygon fill="none" stroke="black" points="89,-655.5 35,-655.5 35,-619.5 89,-619.5 89,-655.5"/>
<text text-anchor="middle" x="62" y="-631.33" font-family="Times New Roman,serif" font-size="14.00">𝜏</text>
</g>
<!-- 0c2f48be&#45;fa60&#45;40a7&#45;996a&#45;21c7e5c33f6d&#45;&gt;8a69a32b&#45;ee2b&#45;4bf4&#45;8c74&#45;13fba5164668 -->
<g id="edge2" class="edge">
<title>0c2f48be&#45;fa60&#45;40a7&#45;996a&#45;21c7e5c33f6d&#45;&gt;8a69a32b&#45;ee2b&#45;4bf4&#45;8c74&#45;13fba5164668</title>
<path fill="none" stroke="#ffa500" d="M62,-707.91C62,-696.26 62,-680.55 62,-667.02"/>
<polygon fill="#ffa500" stroke="#ffa500" points="65.5,-667.36 62,-657.36 58.5,-667.36 65.5,-667.36"/>
<text text-anchor="middle" x="63.88" y="-676.7" font-family="Times New Roman,serif" font-size="14.00"> </text>
</g>
<!-- 2b6c0227&#45;20d8&#45;45f6&#45;975d&#45;02e9ab62a2f2&#45;&gt;f877958f&#45;16ba&#45;407a&#45;b1cb&#45;2b46506d4c8b -->
<g id="edge4" class="edge">
<title>2b6c0227&#45;20d8&#45;45f6&#45;975d&#45;02e9ab62a2f2&#45;&gt;f877958f&#45;16ba&#45;407a&#45;b1cb&#45;2b46506d4c8b</title>
<path fill="none" stroke="#ffa500" d="M121.96,-353.91C123.98,-342.26 126.71,-326.55 129.05,-313.02"/>
<polygon fill="#ffa500" stroke="#ffa500" points="132.47,-313.79 130.73,-303.34 125.58,-312.6 132.47,-313.79"/>
<text text-anchor="middle" x="129.72" y="-322.7" font-family="Times New Roman,serif" font-size="14.00"> </text>
</g>
<!-- 5ed65341&#45;9e69&#45;461f&#45;9c24&#45;2d10b22b4380 -->
<g id="node13" class="node">
<title>5ed65341&#45;9e69&#45;461f&#45;9c24&#45;2d10b22b4380</title>
<polygon fill="none" stroke="black" points="89,-301.5 35,-301.5 35,-265.5 89,-265.5 89,-301.5"/>
<text text-anchor="middle" x="62" y="-277.32" font-family="Times New Roman,serif" font-size="14.00">𝜏</text>
</g>
<!-- 2b6c0227&#45;20d8&#45;45f6&#45;975d&#45;02e9ab62a2f2&#45;&gt;5ed65341&#45;9e69&#45;461f&#45;9c24&#45;2d10b22b4380 -->
<g id="edge3" class="edge">
<title>2b6c0227&#45;20d8&#45;45f6&#45;975d&#45;02e9ab62a2f2&#45;&gt;5ed65341&#45;9e69&#45;461f&#45;9c24&#45;2d10b22b4380</title>
<path fill="none" stroke="#ffa500" d="M109.33,-356.33C101.2,-343.99 89.37,-326.04 79.57,-311.17"/>
<polygon fill="#ffa500" stroke="#ffa500" points="82.75,-309.62 74.32,-303.2 76.9,-313.47 82.75,-309.62"/>
<text text-anchor="middle" x="97.48" y="-322.7" font-family="Times New Roman,serif" font-size="14.00"> </text>
</g>
<!-- 1a337640&#45;1ab6&#45;45c6&#45;a803&#45;5f3a30ecfcca&#45;&gt;4dafbf02&#45;ee32&#45;40d2&#45;a0b2&#45;31abae409dd9 -->
<g id="edge8" class="edge">
<title>1a337640&#45;1ab6&#45;45c6&#45;a803&#45;5f3a30ecfcca&#45;&gt;4dafbf02&#45;ee32&#45;40d2&#45;a0b2&#45;31abae409dd9</title>
<path fill="none" stroke="#ffa500" d="M55.42,-885.73C50.6,-873.84 43.96,-857.41 38.3,-843.43"/>
<polygon fill="#ffa500" stroke="#ffa500" points="41.6,-842.24 34.6,-834.29 35.11,-844.87 41.6,-842.24"/>
<text text-anchor="middle" x="49.51" y="-853.7" font-family="Times New Roman,serif" font-size="14.00"> </text>
</g>
<!-- 6bb9f885&#45;8495&#45;4622&#45;8389&#45;d247bba4c022 -->
<g id="node12" class="node">
<title>6bb9f885&#45;8495&#45;4622&#45;8389&#45;d247bba4c022</title>
<polygon fill="none" stroke="black" points="126,-832.5 72,-832.5 72,-796.5 126,-796.5 126,-832.5"/>
<text text-anchor="middle" x="99" y="-808.33" font-family="Times New Roman,serif" font-size="14.00">𝜏</text>
</g>
<!-- 1a337640&#45;1ab6&#45;45c6&#45;a803&#45;5f3a30ecfcca&#45;&gt;6bb9f885&#45;8495&#45;4622&#45;8389&#45;d247bba4c022 -->
<g id="edge9" class="edge">
<title>1a337640&#45;1ab6&#45;45c6&#45;a803&#45;5f3a30ecfcca&#45;&gt;6bb9f885&#45;8495&#45;4622&#45;8389&#45;d247bba4c022</title>
<path fill="none" stroke="#ffa500" d="M68.79,-886.13C73.94,-874.09 81.15,-857.22 87.24,-842.99"/>
<polygon fill="#ffa500" stroke="#ffa500" points="90.31,-844.71 91.03,-834.14 83.88,-841.96 90.31,-844.71"/>
<text text-anchor="middle" x="85.69" y="-853.7" font-family="Times New Roman,serif" font-size="14.00"> </text>
</g>
<!-- 3f618363&#45;68d6&#45;4d95&#45;a3cb&#45;599097187516 -->
<g id="node10" class="node">
<title>3f618363&#45;68d6&#45;4d95&#45;a3cb&#45;599097187516</title>
<ellipse fill="#ffa500" stroke="black" cx="62" cy="-549" rx="18" ry="18"/>
<text text-anchor="middle" x="62" y="-543.95" font-family="Times New Roman,serif" font-size="14.00"> </text>
</g>
<!-- 3f618363&#45;68d6&#45;4d95&#45;a3cb&#45;599097187516&#45;&gt;cb745b47&#45;2089&#45;4f6b&#45;897f&#45;404e15afdce1 -->
<g id="edge12" class="edge">
<title>3f618363&#45;68d6&#45;4d95&#45;a3cb&#45;599097187516&#45;&gt;cb745b47&#45;2089&#45;4f6b&#45;897f&#45;404e15afdce1</title>
<path fill="none" stroke="#ffa500" d="M72.4,-533.72C81.49,-521.24 94.91,-502.81 105.93,-487.69"/>
<polygon fill="#ffa500" stroke="#ffa500" points="108.46,-490.15 111.52,-480.01 102.8,-486.03 108.46,-490.15"/>
<text text-anchor="middle" x="101.02" y="-499.7" font-family="Times New Roman,serif" font-size="14.00"> </text>
</g>
<!-- 8a69a32b&#45;ee2b&#45;4bf4&#45;8c74&#45;13fba5164668&#45;&gt;3f618363&#45;68d6&#45;4d95&#45;a3cb&#45;599097187516 -->
<g id="edge11" class="edge">
<title>8a69a32b&#45;ee2b&#45;4bf4&#45;8c74&#45;13fba5164668&#45;&gt;3f618363&#45;68d6&#45;4d95&#45;a3cb&#45;599097187516</title>
<path fill="none" stroke="#ffa500" d="M62,-619.41C62,-607.76 62,-592.05 62,-578.52"/>
<polygon fill="#ffa500" stroke="#ffa500" points="65.5,-578.86 62,-568.86 58.5,-578.86 65.5,-578.86"/>
<text text-anchor="middle" x="63.88" y="-588.2" font-family="Times New Roman,serif" font-size="14.00"> </text>
</g>
<!-- 6bb9f885&#45;8495&#45;4622&#45;8389&#45;d247bba4c022&#45;&gt;0c2f48be&#45;fa60&#45;40a7&#45;996a&#45;21c7e5c33f6d -->
<g id="edge1" class="edge">
<title>6bb9f885&#45;8495&#45;4622&#45;8389&#45;d247bba4c022&#45;&gt;0c2f48be&#45;fa60&#45;40a7&#45;996a&#45;21c7e5c33f6d</title>
<path fill="none" stroke="#ffa500" d="M91.69,-796.41C86.44,-784.13 79.26,-767.35 73.28,-753.37"/>
<polygon fill="#ffa500" stroke="#ffa500" points="76.54,-752.1 69.39,-744.28 70.11,-754.85 76.54,-752.1"/>
<text text-anchor="middle" x="85.69" y="-765.2" font-family="Times New Roman,serif" font-size="14.00"> </text>
</g>
<!-- 5ed65341&#45;9e69&#45;461f&#45;9c24&#45;2d10b22b4380&#45;&gt;3f618363&#45;68d6&#45;4d95&#45;a3cb&#45;599097187516 -->
<g id="edge14" class="edge">
<title>5ed65341&#45;9e69&#45;461f&#45;9c24&#45;2d10b22b4380&#45;&gt;3f618363&#45;68d6&#45;4d95&#45;a3cb&#45;599097187516</title>
<path fill="none" stroke="#ffa500" d="M62,-301.85C62,-346.31 62,-464.64 62,-519.43"/>
<polygon fill="#ffa500" stroke="#ffa500" points="58.5,-519.2 62,-529.2 65.5,-519.2 58.5,-519.2"/>
<text text-anchor="middle" x="63.88" y="-411.2" font-family="Times New Roman,serif" font-size="14.00"> </text>
</g>
<!-- 0ae6fece&#45;121b&#45;458d&#45;82e8&#45;afe664518c27 -->
<g id="node14" class="node">
<title>0ae6fece&#45;121b&#45;458d&#45;82e8&#45;afe664518c27</title>
<ellipse fill="#32cd32" stroke="black" cx="210" cy="-195" rx="39.58" ry="18"/>
<text text-anchor="middle" x="210" y="-189.95" font-family="Times New Roman,serif" font-size="14.00">Product</text>
</g>
<!-- 198ff932&#45;462a&#45;4132&#45;a0af&#45;07417b513c51 -->
<g id="node19" class="node">
<title>198ff932&#45;462a&#45;4132&#45;a0af&#45;07417b513c51</title>
<polygon fill="none" stroke="black" points="244,-124.5 190,-124.5 190,-88.5 244,-88.5 244,-124.5"/>
<text text-anchor="middle" x="217" y="-100.33" font-family="Times New Roman,serif" font-size="14.00">𝜏</text>
</g>
<!-- 0ae6fece&#45;121b&#45;458d&#45;82e8&#45;afe664518c27&#45;&gt;198ff932&#45;462a&#45;4132&#45;a0af&#45;07417b513c51 -->
<g id="edge18" class="edge">
<title>0ae6fece&#45;121b&#45;458d&#45;82e8&#45;afe664518c27&#45;&gt;198ff932&#45;462a&#45;4132&#45;a0af&#45;07417b513c51</title>
<path fill="none" stroke="#32cd32" d="M211.38,-176.91C212.33,-165.26 213.6,-149.55 214.69,-136.02"/>
<polygon fill="#32cd32" stroke="#32cd32" points="218.16,-136.61 215.47,-126.36 211.18,-136.04 218.16,-136.61"/>
<text text-anchor="middle" x="216" y="-145.7" font-family="Times New Roman,serif" font-size="14.00"> </text>
</g>
<!-- 177f7e54&#45;95df&#45;4f57&#45;b2ba&#45;da185aea2ac2 -->
<g id="node15" class="node">
<title>177f7e54&#45;95df&#45;4f57&#45;b2ba&#45;da185aea2ac2</title>
<polygon fill="none" stroke="none" points="102,-36 44,-36 44,0 102,0 102,-36"/>
<polyline fill="none" stroke="black" points="44,0 102,0"/>
<text text-anchor="middle" x="73" y="-12.95" font-family="Times New Roman,serif" font-size="14.00" fill="#32cd32">Product</text>
</g>
<!-- d67d7233&#45;f7df&#45;43fe&#45;83ab&#45;15dd744e2f05 -->
<g id="node16" class="node">
<title>d67d7233&#45;f7df&#45;43fe&#45;83ab&#45;15dd744e2f05</title>
<ellipse fill="#32cd32" stroke="black" cx="217" cy="-18" rx="18" ry="18"/>
<text text-anchor="middle" x="217" y="-12.95" font-family="Times New Roman,serif" font-size="14.00"> </text>
</g>
<!-- d67d7233&#45;f7df&#45;43fe&#45;83ab&#45;15dd744e2f05&#45;&gt;f877958f&#45;16ba&#45;407a&#45;b1cb&#45;2b46506d4c8b -->
<g id="edge19" class="edge">
<title>d67d7233&#45;f7df&#45;43fe&#45;83ab&#45;15dd744e2f05&#45;&gt;f877958f&#45;16ba&#45;407a&#45;b1cb&#45;2b46506d4c8b</title>
<path fill="none" stroke="#32cd32" stroke-width="4" d="M226.69,-33.5C247.97,-67.32 294.2,-153.15 259,-213 241.32,-243.07 205.4,-261.06 176.58,-271.18"/>
<polygon fill="#32cd32" stroke="#32cd32" stroke-width="4" points="175.69,-267.79 167.23,-274.18 177.82,-274.46 175.69,-267.79"/>
<text text-anchor="middle" x="273.6" y="-145.7" font-family="Times New Roman,serif" font-size="14.00"> </text>
</g>
<!-- b93aa542&#45;a056&#45;48c8&#45;a9cb&#45;ae063a4127e5 -->
<g id="node18" class="node">
<title>b93aa542&#45;a056&#45;48c8&#45;a9cb&#45;ae063a4127e5</title>
<polygon fill="none" stroke="black" points="172,-124.5 118,-124.5 118,-88.5 172,-88.5 172,-124.5"/>
<text text-anchor="middle" x="145" y="-100.33" font-family="Times New Roman,serif" font-size="14.00">𝜏</text>
</g>
<!-- 9ad97210&#45;aa16&#45;42ba&#45;adce&#45;8ecf43c2140b&#45;&gt;b93aa542&#45;a056&#45;48c8&#45;a9cb&#45;ae063a4127e5 -->
<g id="edge16" class="edge">
<title>9ad97210&#45;aa16&#45;42ba&#45;adce&#45;8ecf43c2140b&#45;&gt;b93aa542&#45;a056&#45;48c8&#45;a9cb&#45;ae063a4127e5</title>
<path fill="none" stroke="#32cd32" d="M136.17,-176.91C137.66,-165.26 139.65,-149.55 141.37,-136.02"/>
<polygon fill="#32cd32" stroke="#32cd32" points="144.81,-136.71 142.6,-126.35 137.87,-135.83 144.81,-136.71"/>
<text text-anchor="middle" x="142.36" y="-145.7" font-family="Times New Roman,serif" font-size="14.00"> </text>
</g>
<!-- 3afbd407&#45;5442&#45;447b&#45;b116&#45;2c0240c69eda -->
<g id="node20" class="node">
<title>3afbd407&#45;5442&#45;447b&#45;b116&#45;2c0240c69eda</title>
<polygon fill="none" stroke="black" points="100,-124.5 46,-124.5 46,-88.5 100,-88.5 100,-124.5"/>
<text text-anchor="middle" x="73" y="-100.33" font-family="Times New Roman,serif" font-size="14.00">𝜏</text>
</g>
<!-- 9ad97210&#45;aa16&#45;42ba&#45;adce&#45;8ecf43c2140b&#45;&gt;3afbd407&#45;5442&#45;447b&#45;b116&#45;2c0240c69eda -->
<g id="edge22" class="edge">
<title>9ad97210&#45;aa16&#45;42ba&#45;adce&#45;8ecf43c2140b&#45;&gt;3afbd407&#45;5442&#45;447b&#45;b116&#45;2c0240c69eda</title>
<path fill="none" stroke="#32cd32" d="M123.93,-179.72C115.21,-167.36 102.38,-149.16 91.77,-134.12"/>
<polygon fill="#32cd32" stroke="#32cd32" points="94.69,-132.18 86.06,-126.02 88.97,-136.21 94.69,-132.18"/>
<text text-anchor="middle" x="110.84" y="-145.7" font-family="Times New Roman,serif" font-size="14.00"> </text>
</g>
<!-- b93aa542&#45;a056&#45;48c8&#45;a9cb&#45;ae063a4127e5&#45;&gt;d67d7233&#45;f7df&#45;43fe&#45;83ab&#45;15dd744e2f05 -->
<g id="edge21" class="edge">
<title>b93aa542&#45;a056&#45;48c8&#45;a9cb&#45;ae063a4127e5&#45;&gt;d67d7233&#45;f7df&#45;43fe&#45;83ab&#45;15dd744e2f05</title>
<path fill="none" stroke="#32cd32" d="M159.22,-88.41C170.56,-74.79 186.51,-55.63 198.78,-40.89"/>
<polygon fill="#32cd32" stroke="#32cd32" points="201.19,-43.46 204.9,-33.54 195.81,-38.98 201.19,-43.46"/>
<text text-anchor="middle" x="189.32" y="-57.2" font-family="Times New Roman,serif" font-size="14.00"> </text>
</g>
<!-- 198ff932&#45;462a&#45;4132&#45;a0af&#45;07417b513c51&#45;&gt;d67d7233&#45;f7df&#45;43fe&#45;83ab&#45;15dd744e2f05 -->
<g id="edge15" class="edge">
<title>198ff932&#45;462a&#45;4132&#45;a0af&#45;07417b513c51&#45;&gt;d67d7233&#45;f7df&#45;43fe&#45;83ab&#45;15dd744e2f05</title>
<path fill="none" stroke="#32cd32" d="M217,-88.41C217,-76.76 217,-61.05 217,-47.52"/>
<polygon fill="#32cd32" stroke="#32cd32" points="220.5,-47.86 217,-37.86 213.5,-47.86 220.5,-47.86"/>
<text text-anchor="middle" x="218.88" y="-57.2" font-family="Times New Roman,serif" font-size="14.00"> </text>
</g>
<!-- 3afbd407&#45;5442&#45;447b&#45;b116&#45;2c0240c69eda&#45;&gt;177f7e54&#45;95df&#45;4f57&#45;b2ba&#45;da185aea2ac2 -->
<g id="edge17" class="edge">
<title>3afbd407&#45;5442&#45;447b&#45;b116&#45;2c0240c69eda&#45;&gt;177f7e54&#45;95df&#45;4f57&#45;b2ba&#45;da185aea2ac2</title>
<path fill="none" stroke="#32cd32" d="M73,-88.41C73,-76.76 73,-61.05 73,-47.52"/>
<polygon fill="#32cd32" stroke="#32cd32" points="76.5,-47.86 73,-37.86 69.5,-47.86 76.5,-47.86"/>
<text text-anchor="middle" x="74.88" y="-57.2" font-family="Times New Roman,serif" font-size="14.00"> </text>
</g>
<!-- e17feb29&#45;c2fb&#45;4209&#45;a1ba&#45;41fcb0dc8a78 -->
<g id="node21" class="node">
<title>e17feb29&#45;c2fb&#45;4209&#45;a1ba&#45;41fcb0dc8a78</title>
<ellipse fill="#7b68ee" stroke="black" cx="125" cy="-1080" rx="30.37" ry="18"/>
<text text-anchor="middle" x="125" y="-1074.95" font-family="Times New Roman,serif" font-size="14.00">Fiber</text>
</g>
<!-- e17feb29&#45;c2fb&#45;4209&#45;a1ba&#45;41fcb0dc8a78&#45;&gt;4674dd97&#45;41e9&#45;48b4&#45;89fd&#45;c2d1e613b916 -->
<g id="edge23" class="edge">
<title>e17feb29&#45;c2fb&#45;4209&#45;a1ba&#45;41fcb0dc8a78&#45;&gt;4674dd97&#45;41e9&#45;48b4&#45;89fd&#45;c2d1e613b916</title>
<path fill="none" stroke="#7b68ee" d="M125,-1061.91C125,-1050.26 125,-1034.55 125,-1021.02"/>
<polygon fill="#7b68ee" stroke="#7b68ee" points="128.5,-1021.36 125,-1011.36 121.5,-1021.36 128.5,-1021.36"/>
<text text-anchor="middle" x="126.88" y="-1030.7" font-family="Times New Roman,serif" font-size="14.00"> </text>
</g>
<!-- 086ae689&#45;fc34&#45;43b8&#45;bc27&#45;3e16223cafc4 -->
<g id="node23" class="node">
<title>086ae689&#45;fc34&#45;43b8&#45;bc27&#45;3e16223cafc4</title>
<ellipse fill="#eec900" stroke="black" cx="205" cy="-1080" rx="31.9" ry="18"/>
<text text-anchor="middle" x="205" y="-1074.95" font-family="Times New Roman,serif" font-size="14.00">Resin</text>
</g>
<!-- 086ae689&#45;fc34&#45;43b8&#45;bc27&#45;3e16223cafc4&#45;&gt;4674dd97&#45;41e9&#45;48b4&#45;89fd&#45;c2d1e613b916 -->
<g id="edge25" class="edge">
<title>086ae689&#45;fc34&#45;43b8&#45;bc27&#45;3e16223cafc4&#45;&gt;4674dd97&#45;41e9&#45;48b4&#45;89fd&#45;c2d1e613b916</title>
<path fill="none" stroke="#eec900" d="M190.7,-1063.54C179.05,-1050.94 162.36,-1032.9 148.72,-1018.15"/>
<polygon fill="#eec900" stroke="#eec900" points="151.49,-1015.99 142.13,-1011.02 146.35,-1020.74 151.49,-1015.99"/>
<text text-anchor="middle" x="174.04" y="-1030.7" font-family="Times New Roman,serif" font-size="14.00"> </text>
</g>
<!-- 47421590&#45;385c&#45;4fbb&#45;b084&#45;40dd1ce23da0 -->
<g id="node25" class="node">
<title>47421590&#45;385c&#45;4fbb&#45;b084&#45;40dd1ce23da0</title>
<ellipse fill="#00bfff" stroke="black" cx="131" cy="-549" rx="33.44" ry="18"/>
<text text-anchor="middle" x="131" y="-543.95" font-family="Times New Roman,serif" font-size="14.00">Waste</text>
</g>
<!-- 47421590&#45;385c&#45;4fbb&#45;b084&#45;40dd1ce23da0&#45;&gt;cb745b47&#45;2089&#45;4f6b&#45;897f&#45;404e15afdce1 -->
<g id="edge27" class="edge">
<title>47421590&#45;385c&#45;4fbb&#45;b084&#45;40dd1ce23da0&#45;&gt;cb745b47&#45;2089&#45;4f6b&#45;897f&#45;404e15afdce1</title>
<path fill="none" stroke="#00bfff" d="M129.81,-530.91C129.01,-519.26 127.92,-503.55 126.98,-490.02"/>
<polygon fill="#00bfff" stroke="#00bfff" points="130.49,-490.09 126.31,-480.36 123.51,-490.58 130.49,-490.09"/>
<text text-anchor="middle" x="130.41" y="-499.7" font-family="Times New Roman,serif" font-size="14.00"> </text>
</g>
</g>
</svg>
