<?xml version="1.0" encoding="UTF-8" standalone="no"?>
<!DOCTYPE svg PUBLIC "-//W3C//DTD SVG 1.1//EN"
 "http://www.w3.org/Graphics/SVG/1.1/DTD/svg11.dtd">
<!-- Generated by graphviz version 12.2.1 (20241206.2353)
 -->
<!-- Title: ofn Pages: 1 -->
<svg width="506pt" height="904pt"
 viewBox="0.00 0.00 505.56 903.61" xmlns="http://www.w3.org/2000/svg" xmlns:xlink="http://www.w3.org/1999/xlink">
<g id="graph0" class="graph" transform="scale(1 1) rotate(0) translate(4 899.61)">
<title>ofn</title>
<polygon fill="white" stroke="none" points="-4,4 -4,-899.61 501.56,-899.61 501.56,4 -4,4"/>
<!-- c2b32f2f&#45;89aa&#45;450a&#45;822f&#45;bf42d77c761c -->
<g id="node1" class="node">
<title>c2b32f2f&#45;89aa&#45;450a&#45;822f&#45;bf42d77c761c</title>
<ellipse fill="#ffa500" stroke="black" cx="248.78" cy="-646.07" rx="18" ry="18"/>
</g>
<!-- 11fd282e&#45;85b7&#45;4fbd&#45;b6ce&#45;7ab42d83c9ab -->
<g id="node9" class="node">
<title>11fd282e&#45;85b7&#45;4fbd&#45;b6ce&#45;7ab42d83c9ab</title>
<polygon fill="none" stroke="black" points="239.78,-575.57 185.78,-575.57 185.78,-539.57 239.78,-539.57 239.78,-575.57"/>
<text text-anchor="start" x="195.9" y="-552.52" font-family="Times New Roman,serif" font-size="14.00">Degas</text>
</g>
<!-- c2b32f2f&#45;89aa&#45;450a&#45;822f&#45;bf42d77c761c&#45;&gt;11fd282e&#45;85b7&#45;4fbd&#45;b6ce&#45;7ab42d83c9ab -->
<g id="edge4" class="edge">
<title>c2b32f2f&#45;89aa&#45;450a&#45;822f&#45;bf42d77c761c&#45;&gt;11fd282e&#45;85b7&#45;4fbd&#45;b6ce&#45;7ab42d83c9ab</title>
<path fill="none" stroke="#ffa500" d="M242.18,-629.21C237.16,-617.16 230.14,-600.29 224.22,-586.07"/>
<polygon fill="#ffa500" stroke="#ffa500" points="227.61,-585.11 220.54,-577.22 221.15,-587.8 227.61,-585.11"/>
<text text-anchor="start" x="234" y="-596.77" font-family="Times New Roman,serif" font-size="14.00" fill="#ffa500">1</text>
</g>
<!-- ff6526f3&#45;832f&#45;4712&#45;8da1&#45;2f31a917e50d -->
<g id="node13" class="node">
<title>ff6526f3&#45;832f&#45;4712&#45;8da1&#45;2f31a917e50d</title>
<polygon fill="none" stroke="black" points="311.78,-575.57 257.78,-575.57 257.78,-539.57 311.78,-539.57 311.78,-575.57"/>
<text text-anchor="start" x="272.78" y="-551.4" font-family="Times New Roman,serif" font-size="14.00">𝜏</text>
</g>
<!-- c2b32f2f&#45;89aa&#45;450a&#45;822f&#45;bf42d77c761c&#45;&gt;ff6526f3&#45;832f&#45;4712&#45;8da1&#45;2f31a917e50d -->
<g id="edge14" class="edge">
<title>c2b32f2f&#45;89aa&#45;450a&#45;822f&#45;bf42d77c761c&#45;&gt;ff6526f3&#45;832f&#45;4712&#45;8da1&#45;2f31a917e50d</title>
<path fill="none" stroke="#ffa500" d="M255.38,-629.21C260.4,-617.16 267.42,-600.29 273.34,-586.07"/>
<polygon fill="#ffa500" stroke="#ffa500" points="276.41,-587.8 277.02,-577.22 269.95,-585.11 276.41,-587.8"/>
<text text-anchor="start" x="270" y="-596.77" font-family="Times New Roman,serif" font-size="14.00" fill="#ffa500">1</text>
</g>
<!-- bef921ef&#45;18be&#45;4330&#45;9645&#45;002380a6a6a7 -->
<g id="node2" class="node">
<title>bef921ef&#45;18be&#45;4330&#45;9645&#45;002380a6a6a7</title>
<polygon fill="#7b68ee" stroke="black" points="239.56,-841.49 239.56,-873.19 169.39,-895.61 70.17,-895.61 0,-873.19 0,-841.49 70.17,-819.07 169.39,-819.07 239.56,-841.49"/>
<text text-anchor="start" x="105.53" y="-863.04" font-family="Times New Roman,serif" font-size="14.00">Fiber</text>
<polygon fill="black" stroke="none" points="49.53,-856.84 49.53,-857.84 190.03,-857.84 190.03,-856.84 49.53,-856.84"/>
<text text-anchor="start" x="51.53" y="-842.54" font-family="Times New Roman,serif" font-size="14.00">Mass: avg </text>
<text text-anchor="start" x="111.53" y="-842.54" font-family="monospace" font-size="13.00">12</text>
<text text-anchor="start" x="126.53" y="-842.54" font-family="Times New Roman,serif" font-size="14.00"> &#160;/ total </text>
<text text-anchor="start" x="169.28" y="-842.54" font-family="monospace" font-size="13.00">24</text>
<text text-anchor="start" x="184.28" y="-842.54" font-family="Times New Roman,serif" font-size="14.00"> </text>
</g>
<!-- b6dfbcb3&#45;6496&#45;4fa5&#45;a93c&#45;e705fdab62bf -->
<g id="node8" class="node">
<title>b6dfbcb3&#45;6496&#45;4fa5&#45;a93c&#45;e705fdab62bf</title>
<polygon fill="none" stroke="black" points="349.9,-766.57 147.65,-766.57 147.65,-716.57 349.9,-716.57 349.9,-766.57"/>
<text text-anchor="start" x="233.4" y="-747.27" font-family="Times New Roman,serif" font-size="14.00">Inject</text>
<polygon fill="black" stroke="none" points="155.65,-741.07 155.65,-742.07 341.9,-742.07 341.9,-741.07 155.65,-741.07"/>
<text text-anchor="start" x="157.65" y="-726.77" font-family="Times New Roman,serif" font-size="14.00">Implicit mass: avg </text>
<text text-anchor="start" x="263.4" y="-726.77" font-family="monospace" font-size="13.00">1.5</text>
<text text-anchor="start" x="285.9" y="-726.77" font-family="Times New Roman,serif" font-size="14.00"> &#160;/ total </text>
<text text-anchor="start" x="328.65" y="-726.77" font-family="monospace" font-size="13.00">3</text>
<text text-anchor="start" x="336.15" y="-726.77" font-family="Times New Roman,serif" font-size="14.00"> </text>
</g>
<!-- bef921ef&#45;18be&#45;4330&#45;9645&#45;002380a6a6a7&#45;&gt;b6dfbcb3&#45;6496&#45;4fa5&#45;a93c&#45;e705fdab62bf -->
<g id="edge1" class="edge">
<title>bef921ef&#45;18be&#45;4330&#45;9645&#45;002380a6a6a7&#45;&gt;b6dfbcb3&#45;6496&#45;4fa5&#45;a93c&#45;e705fdab62bf</title>
<path fill="none" stroke="#7b68ee" d="M162.38,-818.77C178.72,-804.36 197.2,-788.06 212.86,-774.25"/>
<polygon fill="#7b68ee" stroke="#7b68ee" points="214.92,-777.1 220.1,-767.86 210.29,-771.85 214.92,-777.1"/>
<text text-anchor="start" x="199.63" y="-787.77" font-family="Times New Roman,serif" font-size="14.00" fill="#7b68ee">1</text>
</g>
<!-- 14e06ad0&#45;55fc&#45;479e&#45;a71f&#45;7422ee39bbeb -->
<g id="node3" class="node">
<title>14e06ad0&#45;55fc&#45;479e&#45;a71f&#45;7422ee39bbeb</title>
<polygon fill="#eec900" stroke="black" points="497.56,-841.49 497.56,-873.19 427.39,-895.61 328.17,-895.61 258,-873.19 258,-841.49 328.17,-819.07 427.39,-819.07 497.56,-841.49"/>
<text text-anchor="start" x="362.4" y="-863.04" font-family="Times New Roman,serif" font-size="14.00">Resin</text>
<polygon fill="black" stroke="none" points="307.53,-856.84 307.53,-857.84 448.03,-857.84 448.03,-856.84 307.53,-856.84"/>
<text text-anchor="start" x="309.53" y="-842.54" font-family="Times New Roman,serif" font-size="14.00">Mass: avg </text>
<text text-anchor="start" x="369.53" y="-842.54" font-family="monospace" font-size="13.00">13</text>
<text text-anchor="start" x="384.53" y="-842.54" font-family="Times New Roman,serif" font-size="14.00"> &#160;/ total </text>
<text text-anchor="start" x="427.28" y="-842.54" font-family="monospace" font-size="13.00">26</text>
<text text-anchor="start" x="442.28" y="-842.54" font-family="Times New Roman,serif" font-size="14.00"> </text>
</g>
<!-- 14e06ad0&#45;55fc&#45;479e&#45;a71f&#45;7422ee39bbeb&#45;&gt;b6dfbcb3&#45;6496&#45;4fa5&#45;a93c&#45;e705fdab62bf -->
<g id="edge2" class="edge">
<title>14e06ad0&#45;55fc&#45;479e&#45;a71f&#45;7422ee39bbeb&#45;&gt;b6dfbcb3&#45;6496&#45;4fa5&#45;a93c&#45;e705fdab62bf</title>
<path fill="none" stroke="#eec900" d="M335.18,-818.77C318.84,-804.36 300.36,-788.06 284.7,-774.25"/>
<polygon fill="#eec900" stroke="#eec900" points="287.27,-771.85 277.46,-767.86 282.64,-777.1 287.27,-771.85"/>
<text text-anchor="start" x="313.28" y="-787.77" font-family="Times New Roman,serif" font-size="14.00" fill="#eec900">1</text>
</g>
<!-- 845b653f&#45;b4e8&#45;4fe3&#45;989a&#45;7ad3c4f81c81 -->
<g id="node4" class="node">
<title>845b653f&#45;b4e8&#45;4fe3&#45;989a&#45;7ad3c4f81c81</title>
<polygon fill="#00bfff" stroke="black" points="239.82,-251.95 239.82,-283.66 173.02,-306.07 78.54,-306.07 11.74,-283.66 11.74,-251.95 78.54,-229.54 173.02,-229.54 239.82,-251.95"/>
<polygon fill="none" stroke="black" points="243.82,-249.08 243.82,-286.53 173.67,-310.07 77.89,-310.07 7.74,-286.53 7.74,-249.08 77.89,-225.54 173.67,-225.54 243.82,-249.08"/>
<text text-anchor="start" x="109.28" y="-273.51" font-family="Times New Roman,serif" font-size="14.00">Waste</text>
<polygon fill="black" stroke="none" points="59.28,-267.31 59.28,-268.31 192.28,-268.31 192.28,-267.31 59.28,-267.31"/>
<text text-anchor="start" x="61.28" y="-253.01" font-family="Times New Roman,serif" font-size="14.00">Mass: avg </text>
<text text-anchor="start" x="121.28" y="-253.01" font-family="monospace" font-size="13.00">3</text>
<text text-anchor="start" x="128.78" y="-253.01" font-family="Times New Roman,serif" font-size="14.00"> &#160;/ total </text>
<text text-anchor="start" x="171.53" y="-253.01" font-family="monospace" font-size="13.00">12</text>
<text text-anchor="start" x="186.53" y="-253.01" font-family="Times New Roman,serif" font-size="14.00"> </text>
</g>
<!-- d5a9d6ac&#45;43e6&#45;484d&#45;b275&#45;128372e81a17 -->
<g id="node5" class="node">
<title>d5a9d6ac&#45;43e6&#45;484d&#45;b275&#45;128372e81a17</title>
<ellipse fill="#32cd32" stroke="black" cx="279.78" cy="-267.81" rx="18" ry="18"/>
</g>
<!-- 263dee9c&#45;1979&#45;4349&#45;b269&#45;67d69c4d29c1 -->
<g id="node12" class="node">
<title>263dee9c&#45;1979&#45;4349&#45;b269&#45;67d69c4d29c1</title>
<polygon fill="none" stroke="black" points="329.78,-173.04 275.78,-173.04 275.78,-137.04 329.78,-137.04 329.78,-173.04"/>
<text text-anchor="start" x="289.65" y="-149.99" font-family="Times New Roman,serif" font-size="14.00">Pack</text>
</g>
<!-- d5a9d6ac&#45;43e6&#45;484d&#45;b275&#45;128372e81a17&#45;&gt;263dee9c&#45;1979&#45;4349&#45;b269&#45;67d69c4d29c1 -->
<g id="edge12" class="edge">
<title>d5a9d6ac&#45;43e6&#45;484d&#45;b275&#45;128372e81a17&#45;&gt;263dee9c&#45;1979&#45;4349&#45;b269&#45;67d69c4d29c1</title>
<path fill="none" stroke="#32cd32" d="M283.27,-249.98C286.88,-232.6 292.58,-205.15 296.89,-184.41"/>
<polygon fill="#32cd32" stroke="#32cd32" points="300.26,-185.37 298.87,-174.87 293.41,-183.95 300.26,-185.37"/>
<text text-anchor="start" x="295.34" y="-194.24" font-family="Times New Roman,serif" font-size="14.00" fill="#32cd32">1</text>
</g>
<!-- bab2da17&#45;0564&#45;4cc4&#45;aa0e&#45;4110e7c1cc0f -->
<g id="node6" class="node">
<title>bab2da17&#45;0564&#45;4cc4&#45;aa0e&#45;4110e7c1cc0f</title>
<polygon fill="#32cd32" stroke="black" points="375.49,-26.42 375.49,-58.12 332.9,-80.54 272.66,-80.54 230.07,-58.12 230.07,-26.42 272.66,-4 332.9,-4 375.49,-26.42"/>
<polygon fill="none" stroke="black" points="379.49,-24 379.49,-60.53 333.89,-84.54 271.67,-84.54 226.07,-60.53 226.07,-24 271.67,0 333.89,0 379.49,-24"/>
<text text-anchor="start" x="281.78" y="-47.97" font-family="Times New Roman,serif" font-size="14.00">Product</text>
<polygon fill="black" stroke="none" points="263.28,-41.77 263.28,-42.77 342.28,-42.77 342.28,-41.77 263.28,-41.77"/>
<text text-anchor="start" x="265.28" y="-26.47" font-family="Times New Roman,serif" font-size="14.00">Count: total 1</text>
</g>
<!-- 4f2ff14e&#45;4ada&#45;415a&#45;8c8e&#45;0e640b10d59d -->
<g id="node7" class="node">
<title>4f2ff14e&#45;4ada&#45;415a&#45;8c8e&#45;0e640b10d59d</title>
<ellipse fill="#ffa500" stroke="black" cx="248.78" cy="-469.07" rx="18" ry="18"/>
</g>
<!-- 648634d5&#45;9ec2&#45;4e3e&#45;ae0b&#45;0163910bdd12 -->
<g id="node10" class="node">
<title>648634d5&#45;9ec2&#45;4e3e&#45;ae0b&#45;0163910bdd12</title>
<polygon fill="none" stroke="black" points="225.78,-398.57 171.78,-398.57 171.78,-362.57 225.78,-362.57 225.78,-398.57"/>
<text text-anchor="start" x="184.9" y="-375.52" font-family="Times New Roman,serif" font-size="14.00">Trim</text>
</g>
<!-- 4f2ff14e&#45;4ada&#45;415a&#45;8c8e&#45;0e640b10d59d&#45;&gt;648634d5&#45;9ec2&#45;4e3e&#45;ae0b&#45;0163910bdd12 -->
<g id="edge6" class="edge">
<title>4f2ff14e&#45;4ada&#45;415a&#45;8c8e&#45;0e640b10d59d&#45;&gt;648634d5&#45;9ec2&#45;4e3e&#45;ae0b&#45;0163910bdd12</title>
<path fill="none" stroke="#ffa500" d="M233.2,-459.83C223.41,-453.78 211.47,-444.63 205.03,-433.07 201.19,-426.18 199.24,-417.97 198.35,-410.15"/>
<polygon fill="#ffa500" stroke="#ffa500" points="201.85,-410.1 197.77,-400.32 194.86,-410.51 201.85,-410.1"/>
<text text-anchor="start" x="205.03" y="-419.77" font-family="Times New Roman,serif" font-size="14.00" fill="#ffa500">1</text>
</g>
<!-- c59b15cb&#45;61d9&#45;4e52&#45;b9b1&#45;1bbd852327dd -->
<g id="node11" class="node">
<title>c59b15cb&#45;61d9&#45;4e52&#45;b9b1&#45;1bbd852327dd</title>
<polygon fill="none" stroke="black" points="297.78,-398.57 243.78,-398.57 243.78,-362.57 297.78,-362.57 297.78,-398.57"/>
<text text-anchor="start" x="257.65" y="-375.52" font-family="Times New Roman,serif" font-size="14.00">Pack</text>
</g>
<!-- 4f2ff14e&#45;4ada&#45;415a&#45;8c8e&#45;0e640b10d59d&#45;&gt;c59b15cb&#45;61d9&#45;4e52&#45;b9b1&#45;1bbd852327dd -->
<g id="edge9" class="edge">
<title>4f2ff14e&#45;4ada&#45;415a&#45;8c8e&#45;0e640b10d59d&#45;&gt;c59b15cb&#45;61d9&#45;4e52&#45;b9b1&#45;1bbd852327dd</title>
<path fill="none" stroke="#ffa500" d="M253.02,-451.4C256.03,-439.58 260.13,-423.45 263.63,-409.67"/>
<polygon fill="#ffa500" stroke="#ffa500" points="266.95,-410.81 266.03,-400.26 260.17,-409.09 266.95,-410.81"/>
<text text-anchor="start" x="261.75" y="-419.77" font-family="Times New Roman,serif" font-size="14.00" fill="#ffa500">1</text>
</g>
<!-- 4f2ff14e&#45;4ada&#45;415a&#45;8c8e&#45;0e640b10d59d&#45;&gt;263dee9c&#45;1979&#45;4349&#45;b269&#45;67d69c4d29c1 -->
<g id="edge11" class="edge">
<title>4f2ff14e&#45;4ada&#45;415a&#45;8c8e&#45;0e640b10d59d&#45;&gt;263dee9c&#45;1979&#45;4349&#45;b269&#45;67d69c4d29c1</title>
<path fill="none" stroke="#ffa500" d="M262.47,-456.99C276.66,-444.51 298,-422.8 306.78,-398.57 333.38,-325.18 319.36,-230.91 309.6,-184.48"/>
<polygon fill="#ffa500" stroke="#ffa500" points="313.07,-183.98 307.5,-174.96 306.24,-185.48 313.07,-183.98"/>
<text text-anchor="start" x="320.92" y="-331.27" font-family="Times New Roman,serif" font-size="14.00" fill="#ffa500">1</text>
</g>
<!-- b6dfbcb3&#45;6496&#45;4fa5&#45;a93c&#45;e705fdab62bf&#45;&gt;c2b32f2f&#45;89aa&#45;450a&#45;822f&#45;bf42d77c761c -->
<g id="edge3" class="edge">
<title>b6dfbcb3&#45;6496&#45;4fa5&#45;a93c&#45;e705fdab62bf&#45;&gt;c2b32f2f&#45;89aa&#45;450a&#45;822f&#45;bf42d77c761c</title>
<path fill="none" stroke="#ffa500" d="M248.78,-716.49C248.78,-703.98 248.78,-688.61 248.78,-675.52"/>
<polygon fill="#ffa500" stroke="#ffa500" points="252.28,-675.8 248.78,-665.8 245.28,-675.8 252.28,-675.8"/>
<text text-anchor="start" x="248.78" y="-685.27" font-family="Times New Roman,serif" font-size="14.00" fill="#ffa500">1</text>
</g>
<!-- 11fd282e&#45;85b7&#45;4fbd&#45;b6ce&#45;7ab42d83c9ab&#45;&gt;4f2ff14e&#45;4ada&#45;415a&#45;8c8e&#45;0e640b10d59d -->
<g id="edge5" class="edge">
<title>11fd282e&#45;85b7&#45;4fbd&#45;b6ce&#45;7ab42d83c9ab&#45;&gt;4f2ff14e&#45;4ada&#45;415a&#45;8c8e&#45;0e640b10d59d</title>
<path fill="none" stroke="#ffa500" d="M219.89,-539.48C224.97,-527.28 231.9,-510.64 237.7,-496.71"/>
<polygon fill="#ffa500" stroke="#ffa500" points="240.85,-498.22 241.47,-487.65 234.39,-495.53 240.85,-498.22"/>
<text text-anchor="start" x="234" y="-508.27" font-family="Times New Roman,serif" font-size="14.00" fill="#ffa500">1</text>
</g>
<!-- 648634d5&#45;9ec2&#45;4e3e&#45;ae0b&#45;0163910bdd12&#45;&gt;845b653f&#45;b4e8&#45;4fe3&#45;989a&#45;7ad3c4f81c81 -->
<g id="edge8" class="edge">
<title>648634d5&#45;9ec2&#45;4e3e&#45;ae0b&#45;0163910bdd12&#45;&gt;845b653f&#45;b4e8&#45;4fe3&#45;989a&#45;7ad3c4f81c81</title>
<path fill="none" stroke="#00bfff" d="M187.37,-362.27C179.8,-350.78 169.44,-335.05 159.37,-319.78"/>
<polygon fill="#00bfff" stroke="#00bfff" points="162.43,-318.05 154,-311.63 156.58,-321.91 162.43,-318.05"/>
<text text-anchor="start" x="175.17" y="-331.27" font-family="Times New Roman,serif" font-size="14.00" fill="#00bfff">1</text>
</g>
<!-- 648634d5&#45;9ec2&#45;4e3e&#45;ae0b&#45;0163910bdd12&#45;&gt;4f2ff14e&#45;4ada&#45;415a&#45;8c8e&#45;0e640b10d59d -->
<g id="edge7" class="edge">
<title>648634d5&#45;9ec2&#45;4e3e&#45;ae0b&#45;0163910bdd12&#45;&gt;4f2ff14e&#45;4ada&#45;415a&#45;8c8e&#45;0e640b10d59d</title>
<path fill="none" stroke="#ffa500" d="M208.76,-398.84C216.13,-411.59 226.26,-429.11 234.49,-443.34"/>
<polygon fill="#ffa500" stroke="#ffa500" points="231.28,-444.79 239.31,-451.7 237.34,-441.29 231.28,-444.79"/>
<text text-anchor="start" x="228.26" y="-419.77" font-family="Times New Roman,serif" font-size="14.00" fill="#ffa500">1</text>
</g>
<!-- c59b15cb&#45;61d9&#45;4e52&#45;b9b1&#45;1bbd852327dd&#45;&gt;d5a9d6ac&#45;43e6&#45;484d&#45;b275&#45;128372e81a17 -->
<g id="edge10" class="edge">
<title>c59b15cb&#45;61d9&#45;4e52&#45;b9b1&#45;1bbd852327dd&#45;&gt;d5a9d6ac&#45;43e6&#45;484d&#45;b275&#45;128372e81a17</title>
<path fill="none" stroke="#32cd32" d="M272.19,-362.27C273.6,-344.87 275.8,-317.76 277.47,-297.21"/>
<polygon fill="#32cd32" stroke="#32cd32" points="280.94,-297.75 278.26,-287.5 273.96,-297.18 280.94,-297.75"/>
<text text-anchor="start" x="274.74" y="-331.27" font-family="Times New Roman,serif" font-size="14.00" fill="#32cd32">1</text>
</g>
<!-- 263dee9c&#45;1979&#45;4349&#45;b269&#45;67d69c4d29c1&#45;&gt;bab2da17&#45;0564&#45;4cc4&#45;aa0e&#45;4110e7c1cc0f -->
<g id="edge13" class="edge">
<title>263dee9c&#45;1979&#45;4349&#45;b269&#45;67d69c4d29c1&#45;&gt;bab2da17&#45;0564&#45;4cc4&#45;aa0e&#45;4110e7c1cc0f</title>
<path fill="none" stroke="#32cd32" d="M302.78,-136.73C302.78,-125.67 302.78,-110.7 302.78,-95.97"/>
<polygon fill="#32cd32" stroke="#32cd32" points="306.28,-96.34 302.78,-86.34 299.28,-96.34 306.28,-96.34"/>
<text text-anchor="start" x="302.78" y="-105.74" font-family="Times New Roman,serif" font-size="14.00" fill="#32cd32">1</text>
</g>
<!-- ff6526f3&#45;832f&#45;4712&#45;8da1&#45;2f31a917e50d&#45;&gt;4f2ff14e&#45;4ada&#45;415a&#45;8c8e&#45;0e640b10d59d -->
<g id="edge15" class="edge">
<title>ff6526f3&#45;832f&#45;4712&#45;8da1&#45;2f31a917e50d&#45;&gt;4f2ff14e&#45;4ada&#45;415a&#45;8c8e&#45;0e640b10d59d</title>
<path fill="none" stroke="#ffa500" d="M277.67,-539.48C272.59,-527.28 265.66,-510.64 259.86,-496.71"/>
<polygon fill="#ffa500" stroke="#ffa500" points="263.17,-495.53 256.09,-487.65 256.7,-498.22 263.17,-495.53"/>
<text text-anchor="start" x="270" y="-508.27" font-family="Times New Roman,serif" font-size="14.00" fill="#ffa500">1</text>
</g>
</g>
</svg>
